<?xml version="1.0" standalone="no"?>
<!DOCTYPE svg PUBLIC "-//W3C//DTD SVG 1.1//EN" "http://www.w3.org/Graphics/SVG/1.1/DTD/svg11.dtd" >
<svg xmlns="http://www.w3.org/2000/svg">
    <defs>
        <font id="DymaxionScript">
            <font-face font-family="DymaxionScript"
                       units-per-em="1000"
                       ascent="822"
                       descent="-216"
                       bbox="-86 -216 1246 903"
                    />
            <missing-glyph horiz-adv-x="0" />
            
            <glyph glyph-name="!" unicode="&#x21;" horiz-adv-x="205" d=" M89,97 Q89,81 77.5,70 Q66,59 50,59 Q34,59 22.5,70 Q11,81 11,97 Q11,114 22.5,125 Q34,136 50,136 Q66,136 77.5,125 Q89,114 89,97 M205,560 L98,189 L54,201 L157,560 L205,560"/> 
            <glyph glyph-name="&quot;" unicode="&#x22;" horiz-adv-x="180" d=" M100,725 L47,612 L12,624 Q15,633 19.5,651 Q24,669 30,688 Q31,693 32.5,697.5 Q34,702 35,707 Q41,726 46,741 Q51,756 55,759 Q60,763 65,765 Q70,767 76,767 Q82,767 87.5,765 Q93,763 97,759 Q99,757 100.5,754.5 Q102,752 103,750 Q104,747 104.5,744.5 Q105,742 105,740 Q104,736 103,732.5 Q102,729 100,725 M175,725 L122,612 L87,624 Q90,633 94.5,651 Q99,669 105,688 Q106,693 107.5,697.5 Q109,702 110,707 Q116,726 121,741 Q126,756 130,759 Q135,763 140,765 Q145,767 151,767 Q157,767 162.5,765 Q168,763 172,759 Q174,757 175.5,754.5 Q177,752 178,750 Q179,747 179.5,744.5 Q180,742 180,740 Q179,736 178,732.5 Q177,729 175,725"/> 
            <glyph glyph-name="#" unicode="&#x23;" horiz-adv-x="333" d=" M333,386 L316,335 L234,335 L225,306 L310,306 L295,256 L211,256 L151,47 L101,47 L160,256 L135,256 L76,47 L25,47 L84,256 L2,256 L17,306 L98,306 L107,335 L25,335 L39,386 L121,386 L173,569 L223,569 L172,386 L197,386 L249,569 L299,569 L247,386 L333,386 M183,335 L157,335 L149,306 L174,306 L183,335"/> 
            <glyph glyph-name="$" unicode="&#x24;" horiz-adv-x="415" d=" M408,746 L339,507 Q377,506 396,491 Q415,476 415,453 Q415,443 411.5,432.5 Q408,422 400,411 Q390,396 372,381 Q354,366 328,353 L308,394 Q373,426 366.5,441.5 Q360,457 325,457 L278,293 Q304,274 321,249.5 Q338,225 338,197 Q338,183 332.5,168 Q327,153 315,138 Q297,118 272.5,106 Q248,94 219,89 L144,-174 L98,-174 L172,83 Q168,83 163.5,82.5 Q159,82 155,82 Q126,81 98,81 Q70,81 46,81 Q39,81 32.5,81 Q26,81 20,81 L20,127 Q23,127 29.5,127 Q36,127 44,127 Q53,126 63.5,126 Q74,126 86,126 Q101,126 117.5,126.5 Q134,127 151,128 Q160,128 168.5,129 Q177,130 185,131 L227,275 Q225,276 223,277.5 Q221,279 219,280 Q191,298 167.5,320.5 Q144,343 144,382 Q144,386 144,389.5 Q144,393 145,397 L147,406 Q162,442 194.5,463.5 Q227,485 263,496 Q267,497 271,498 Q275,499 279,500 Q281,500 282.5,500.5 Q284,501 286,502 Q287,502 289,502.5 Q291,503 292,503 L362,746 L408,746 M291,196 Q291,213 283.5,225.5 Q276,238 265,248 L234,140 Q258,148 274,161.5 Q290,175 291,196 M277,450 Q246,443 220,427 Q194,411 189,387 Q189,386 189,385.5 Q189,385 189,384 Q189,380 190.5,375 Q192,370 194,366 Q200,355 209.5,345 Q219,335 230,327 Q232,325 234.5,323.5 Q237,322 239,320 L277,450"/> 
            <glyph glyph-name="%" unicode="&#x25;" horiz-adv-x="338" d=" M289,582 L107,67 L56,67 L237,582 L289,582 M338,148 Q338,115 314,91 Q290,67 257,67 Q223,67 199,90.5 Q175,114 175,148 Q175,182 199,206.5 Q223,231 257,231 Q290,231 314,206.5 Q338,182 338,148 M291,148 Q291,162 281,172.5 Q271,183 257,183 Q242,183 232,173 Q222,163 222,148 Q222,134 232,124 Q242,114 257,114 Q271,114 281,124 Q291,134 291,148 M167,501 Q167,467 142.5,443 Q118,419 85,419 Q51,419 27,443 Q3,467 3,501 Q3,534 27,558.5 Q51,583 85,583 Q118,583 142.5,558.5 Q167,534 167,501 M119,501 Q119,515 109,525.5 Q99,536 85,536 Q71,536 60.5,525.5 Q50,515 50,501 Q50,486 60.5,476 Q71,466 85,466 Q99,466 109,476 Q119,486 119,501"/> 
            <glyph glyph-name="&amp;" unicode="&#x26;" horiz-adv-x="420" d=" M417,542 Q419,538 419.5,534.5 Q420,531 420,526 Q420,515 414.5,503 Q409,491 400,478 Q391,465 378.5,452 Q366,439 354,427 Q336,410 319.5,396.5 Q303,383 294,375 L263,409 L353,492 Q367,504 371,512.5 Q375,521 375,524 Q375,525 375,525 Q375,525 375,525 Q375,525 374.5,525.5 Q374,526 373,526 Q371,527 368,527.5 Q365,528 360,528 L284,528 Q282,528 280,528 Q278,528 276,528 Q238,526 205,503.5 Q172,481 161,444 Q160,438 159,432.5 Q158,427 158,422 Q158,415 159.5,409 Q161,403 163,398 L193,334 Q195,330 196,326 Q197,322 197,317 Q197,316 197,314.5 Q197,313 196,311 Q195,303 190.5,295 Q186,287 178,282 L163,270 Q111,230 88.5,198 Q66,166 66,147 Q66,145 66,143 Q66,141 67,139 Q70,130 84,124.5 Q98,119 120,119 Q133,119 147,121.5 Q161,124 174,128 Q202,137 229,153.5 Q256,170 279,192 L232,265 L270,290 L311,226 Q330,249 344.5,275.5 Q359,302 367,330 L411,317 Q401,281 381.5,248 Q362,215 337,186 L409,73 L371,48 L304,153 Q267,120 219,97 Q171,74 120,74 Q83,74 62.5,84 Q42,94 33,106 Q30,111 27.5,115.5 Q25,120 24,124 Q22,129 21,135 Q20,141 20,148 Q21,182 50.5,222.5 Q80,263 135,306 Q135,306 137.5,308 Q140,310 143,312 Q143,312 143,312 Q143,312 144,312 Q146,314 148,315 Q150,316 151,317 Q149,321 145,329 Q141,337 137,346 Q137,346 137,346.5 Q137,347 137,347 Q131,359 126.5,369 Q122,379 122,379 Q118,389 115.5,399.5 Q113,410 113,421 Q113,429 114.5,438 Q116,447 118,456 Q132,507 179,540 Q226,573 284,573 L360,573 Q378,573 394,566 Q410,559 417,542"/> 
            <glyph glyph-name="'" unicode="&#x27;" horiz-adv-x="125" d=" M120,713 L67,601 L33,613 Q36,622 40.5,640 Q45,658 51,678 Q52,681 53,685 Q54,689 55,692 Q61,712 66.5,728 Q72,744 75,748 Q80,752 85.5,753.5 Q91,755 97,755 Q103,755 108,753 Q113,751 117,748 Q119,745 120.5,742.5 Q122,740 123,738 Q124,736 124.5,733.5 Q125,731 125,728 Q124,724 123,720.5 Q122,717 120,713"/> 
            <glyph glyph-name="(" unicode="&#x28;" horiz-adv-x="443" d=" M149,-216 Q82,-213 57.5,-154 Q33,-95 33,-15 Q33,1 34,19 Q35,37 37,55 Q40,98 47.5,139.5 Q55,181 63,216 Q68,239 73,258.5 Q78,278 82,292 Q93,329 116,396.5 Q139,464 174,538 Q222,640 290,725.5 Q358,811 443,816 L409,752 Q406,752 402.5,751 Q399,750 396,749 Q347,733 300,664 Q253,595 216,515 Q183,445 159.5,381.5 Q136,318 129,292 Q126,280 120.5,257 Q115,234 109,204 Q104,174 98.5,139 Q93,104 89,68 Q87,47 86,25.5 Q85,4 85,-15 Q85,-78 100,-123 Q115,-168 154,-169 L149,-216"/> 
            <glyph glyph-name=")" unicode="&#x29;" horiz-adv-x="353" d=" M298,292 Q288,256 264.5,190.5 Q241,125 207,53 Q158,-45 90,-128.5 Q22,-212 -60,-215 L-46,-160 Q-37,-159 -29,-156.5 Q-21,-154 -12,-150 Q31,-128 74.5,-64 Q118,0 153,72 Q187,142 210.5,205 Q234,268 241,292 Q245,306 251.5,332 Q258,358 265,391 Q271,420 277,453 Q283,486 287,520 Q290,547 292,573.5 Q294,600 294,624 Q294,680 281,719 Q268,758 235,762 L239,816 Q305,812 329,754.5 Q353,697 353,619 Q353,599 352,579 Q351,559 348,539 Q344,497 336.5,456 Q329,415 321,380 Q314,353 308.5,330.5 Q303,308 298,292"/> 
            <glyph glyph-name="*" unicode="&#x2A;" horiz-adv-x="290" d=" M290,635 Q290,619 278.5,607 Q267,595 250,595 Q243,595 236.5,599.5 Q230,604 223,609 Q217,614 210.5,618.5 Q204,623 198,623 L173,623 L185,602 Q188,596 194.5,593 Q201,590 208,587 Q209,587 210,586.5 Q211,586 212,586 Q223,582 232,575 Q241,568 241,550 Q241,533 229.5,521.5 Q218,510 201,510 Q187,510 175,519.5 Q163,529 163,544 Q163,548 163.5,552 Q164,556 165,560 Q166,564 166.5,568 Q167,572 167,576 Q167,583 164.5,589 Q162,595 159,600 Q158,602 157,604 Q156,606 154,608 Q154,609 153.5,610 Q153,611 152,612 Q151,610 149.5,607.5 Q148,605 147,603 Q147,602 146.5,601.5 Q146,601 145,600 Q142,594 139.5,588.5 Q137,583 137,576 Q137,572 137.5,568 Q138,564 139,560 Q139,555 139.5,551 Q140,547 140,543 Q140,526 127.5,518.5 Q115,511 100,510 Q99,510 98.5,510 Q98,510 97,510 Q83,510 74.5,521 Q66,532 64,545 Q63,547 63,550 Q63,553 63,555 Q63,569 72,575 Q81,581 92,585 Q93,585 93,585 Q93,585 94,585 Q101,588 108,591.5 Q115,595 119,601 L131,623 L106,623 Q101,623 96.5,620.5 Q92,618 87,615 Q85,613 83.5,612 Q82,611 80,609 Q74,604 66.5,599.5 Q59,595 48,595 Q37,595 28,604 Q19,613 16,624 Q15,627 14.5,629.5 Q14,632 14,635 Q14,651 26,663 Q38,675 54,675 Q60,675 63.5,673 Q67,671 71,668 Q73,667 75,665 Q77,663 80,661 Q87,656 98,651.5 Q109,647 131,647 L118,669 Q115,675 108.5,678 Q102,681 95,684 Q94,684 93.5,684 Q93,684 92,685 Q81,689 72,695.5 Q63,702 63,720 Q63,737 75,748.5 Q87,760 103,760 Q104,760 104.5,760 Q105,760 106,760 Q119,759 129.5,749.5 Q140,740 140,726 Q140,722 139.5,718 Q139,714 139,710 Q138,706 137.5,702 Q137,698 137,694 Q137,687 139,682 Q141,677 144,672 Q145,670 146.5,667.5 Q148,665 150,663 Q150,662 150.5,661 Q151,660 152,659 Q154,662 156,665.5 Q158,669 160,672 Q162,677 164,682 Q166,687 166,694 Q166,698 165.5,702 Q165,706 165,710 Q164,714 163.5,718 Q163,722 163,726 Q163,740 173.5,749.5 Q184,759 197,760 Q198,760 198.5,760 Q199,760 200,760 Q217,760 228.5,748.5 Q240,737 240,720 Q240,703 231,696 Q222,689 211,684 Q210,684 208.5,683.5 Q207,683 206,683 Q199,680 193.5,677 Q188,674 185,669 L172,647 L198,647 Q204,647 209.5,650.5 Q215,654 220,658 Q221,659 222,659.5 Q223,660 224,661 Q230,666 236.5,670.5 Q243,675 250,675 Q266,675 278,663 Q290,651 290,635"/> 
            <glyph glyph-name="+" unicode="&#x2B;" horiz-adv-x="376" d=" M376,292 L230,292 L230,147 L164,147 L164,292 L19,292 L19,358 L164,358 L164,504 L230,504 L230,358 L376,358 L376,292"/> 
            <glyph glyph-name="," unicode="&#x2C;" horiz-adv-x="101" d=" M101,97 Q101,96 101,95 Q101,94 101,93 Q101,92 100.5,91 Q100,90 100,89 Q100,88 100,87 Q100,86 99,85 L79,14 L32,14 L46,62 Q36,67 30,76.5 Q24,86 24,97 Q24,114 35.5,125 Q47,136 63,136 Q79,136 90,125 Q101,114 101,97"/> 
            <glyph glyph-name="-" unicode="&#x2D;" horiz-adv-x="188" d=" M188,287 L0,287 L0,363 L188,363 L188,287"/> 
            <glyph glyph-name="." unicode="&#x2E;" horiz-adv-x="89" d=" M89,97 Q89,81 77.5,70 Q66,59 50,59 Q34,59 22.5,70 Q11,81 11,97 Q11,114 22.5,125 Q34,136 50,136 Q66,136 77.5,125 Q89,114 89,97"/> 
            <glyph glyph-name="/" unicode="&#x2F;" horiz-adv-x="291" d=" M291,772 L84,0 L29,0 L236,772 L291,772"/> 
            <glyph glyph-name="0" unicode="&#x30;" horiz-adv-x="345" d=" M337,237 Q318,173 268,125 Q218,77 161,67 Q155,66 148.5,65.5 Q142,65 136,65 Q107,65 83,76.5 Q59,88 43,110 Q30,127 23.5,148.5 Q17,170 17,194 Q17,208 19,222 Q21,236 25,250 Q43,314 93,362 Q143,410 200,420 Q206,421 212.5,421.5 Q219,422 225,422 Q254,422 278.5,410.5 Q303,399 319,377 Q332,360 338.5,338.5 Q345,317 345,292 Q345,279 343,265 Q341,251 337,237 M293,250 Q296,261 297.5,271.5 Q299,282 299,292 Q299,309 294.5,324 Q290,339 282,350 Q272,363 257.5,370 Q243,377 225,377 Q218,377 210.5,376 Q203,375 196,373 Q155,361 118.5,323 Q82,285 68,237 Q65,226 63.5,215.5 Q62,205 62,195 Q62,178 66.5,163 Q71,148 79,137 Q89,124 103.5,117 Q118,110 136,110 Q143,110 150.5,111 Q158,112 165,114 Q206,126 242.5,164 Q279,202 293,250"/> 
            <glyph glyph-name="1" unicode="&#x31;" horiz-adv-x="174" d=" M174,438 L69,74 L22,74 L105,363 L25,332 L8,374 Q49,391 90.5,406.5 Q132,422 174,438"/> 
            <glyph glyph-name="2" unicode="&#x32;" horiz-adv-x="338" d=" M335,330 Q330,312 316.5,295.5 Q303,279 283,267 Q265,255 243.5,241.5 Q222,228 199,213 Q179,199 159.5,184.5 Q140,170 124,156 Q113,146 104,137 Q95,128 88,119 L223,119 Q225,119 226.5,119 Q228,119 230,120 Q245,122 258,133.5 Q271,145 275,159 L318,147 Q310,116 282.5,95 Q255,74 223,74 Q171,74 119.5,74 Q68,74 16,74 Q42,144 97.5,191 Q153,238 215,277 Q226,284 237,291 Q248,298 259,305 Q272,313 280,323 Q288,333 291,343 Q291,344 291.5,345.5 Q292,347 292,348 Q293,349 293,350.5 Q293,352 293,353 Q293,357 291.5,360.5 Q290,364 287,367 Q281,376 268.5,381 Q256,386 239,386 Q237,386 234.5,386 Q232,386 229,386 Q201,383 176,367 Q151,351 145,330 Q144,328 144,326 Q144,324 144,322 Q144,321 144,320 Q144,319 145,318 Q145,317 145,316.5 Q145,316 145,315 Q141,314 137.5,313 Q134,312 131,311 Q122,309 115,306.5 Q108,304 104,305 Q100,305 98,307.5 Q96,310 96,315 Q96,320 97.5,326.5 Q99,333 102,343 Q113,380 152.5,405.5 Q192,431 239,431 Q266,431 288.5,421.5 Q311,412 324,395 Q331,385 334.5,373.5 Q338,362 338,350 Q338,346 337.5,340.5 Q337,335 335,330"/> 
            <glyph glyph-name="3" unicode="&#x33;" horiz-adv-x="330" d=" M327,323 Q317,289 290.5,272 Q264,255 234,244 Q233,243 232,242.5 Q231,242 230,242 Q244,236 255,227.5 Q266,219 274,208 Q283,196 287.5,182 Q292,168 292,153 Q292,149 292,145.5 Q292,142 291,139 Q291,135 290,131.5 Q289,128 288,124 Q274,75 222.5,40.5 Q171,6 110,6 L16,6 L16,51 Q22,51 28,51 Q34,51 40,51 Q55,51 71,51 Q87,51 104,52 Q150,54 190.5,71 Q231,88 245,136 Q246,141 246.5,144.5 Q247,148 247,152 Q247,160 245,167.5 Q243,175 238,181 Q228,195 210,202 Q192,209 169,209 Q157,209 145.5,207 Q134,205 123,201 Q119,200 115.5,199 Q112,198 108,196 Q107,200 105,205 Q103,210 101,215 Q101,217 100,219 Q99,221 99,223 Q97,228 95.5,232 Q94,236 92,239 L233,292 Q236,293 238.5,294 Q241,295 244,297 Q257,302 268,312 Q279,322 283,336 Q284,338 284,340.5 Q284,343 284,344 Q284,349 282.5,354 Q281,359 278,363 Q271,374 255.5,380 Q240,386 221,386 Q218,386 215,386 Q212,386 209,385 Q179,381 153.5,363 Q128,345 122,323 Q121,319 120.5,315.5 Q120,312 120,307 Q115,307 110,306 Q105,305 100,305 Q95,304 90,303 Q85,302 82,302 Q78,302 75.5,304.5 Q73,307 73,312 Q73,317 74.5,322.5 Q76,328 78,336 Q89,376 130.5,403.5 Q172,431 221,431 Q250,431 275,420.5 Q300,410 315,390 Q323,380 326.5,368 Q330,356 330,344 Q330,339 329.5,333.5 Q329,328 327,323"/> 
            <glyph glyph-name="4" unicode="&#x34;" horiz-adv-x="372" d=" M372,429 L283,119 L325,119 L325,74 L270,74 L232,-59 L188,-47 L223,74 L18,74 Q47,215 138.5,303.5 Q230,392 372,429 M305,362 Q226,331 163,266 Q100,201 74,119 L236,119 L305,362"/> 
            <glyph glyph-name="5" unicode="&#x35;" horiz-adv-x="359" d=" M359,386 L184,386 Q181,386 177.5,383.5 Q174,381 171,377 Q165,371 160,361 Q155,351 150,341 Q144,325 139,312 Q134,299 133,296 Q149,304 166,309 Q183,314 201,314 Q227,314 248.5,304 Q270,294 284,274 Q295,259 301,240.5 Q307,222 307,201 Q307,190 305.5,178.5 Q304,167 300,155 Q284,99 240.5,57.5 Q197,16 148,7 Q142,6 136.5,5.5 Q131,5 126,5 L17,5 L17,50 L126,50 Q165,50 198,79 Q231,108 248,143 Q251,149 253,155 Q255,161 257,167 Q259,176 260.5,185 Q262,194 262,202 Q262,216 258.5,227 Q255,238 248,247 Q240,258 228,263.5 Q216,269 201,269 Q193,269 185,267.5 Q177,266 169,263 Q145,254 122.5,234 Q100,214 85,187 L44,208 L123,387 Q132,407 148.5,419 Q165,431 184,431 L359,431 L359,386"/> 
            <glyph glyph-name="6" unicode="&#x36;" horiz-adv-x="354" d=" M346,242 Q327,177 274.5,128 Q222,79 163,71 Q157,70 151.5,69.5 Q146,69 141,69 Q110,69 85,81.5 Q60,94 43,116 Q30,133 23.5,155 Q17,177 17,201 Q17,212 18.5,223 Q20,234 22,245 Q27,266 34,288 Q41,310 50,332 Q53,339 56.5,346.5 Q60,354 64,361 Q94,418 133.5,463 Q173,508 214,534 Q238,549 261.5,557 Q285,565 307,565 Q313,565 319,564.5 Q325,564 331,562 L320,518 Q316,519 312.5,519.5 Q309,520 305,520 Q295,520 284,516.5 Q273,513 261,508 Q242,498 222.5,483 Q203,468 187,452 Q173,439 161.5,426 Q150,413 143,403 Q164,414 186.5,420 Q209,426 231,426 Q261,426 286,414.5 Q311,403 328,380 Q341,363 347.5,341.5 Q354,320 354,296 Q354,288 353,278.5 Q352,269 350,260 Q349,256 348,251.5 Q347,247 346,242 M303,254 Q306,265 307.5,275.5 Q309,286 309,296 Q309,313 304.5,327.5 Q300,342 292,353 Q282,367 266.5,374 Q251,381 231,381 Q225,381 219,380.5 Q213,380 207,378 Q162,369 122.5,330.5 Q83,292 68,242 Q68,241 68,240.5 Q68,240 68,240 Q67,239 67,238.5 Q67,238 67,237 Q67,236 66.5,235 Q66,234 66,233 Q66,231 65.5,230 Q65,229 65,228 Q64,224 63.5,220.5 Q63,217 63,214 Q62,210 62,206.5 Q62,203 62,199 Q62,183 66.5,168.5 Q71,154 79,143 Q90,130 106,122.5 Q122,115 141,115 Q148,115 154.5,116 Q161,117 168,118 Q211,129 250,167 Q289,205 303,254"/> 
            <glyph glyph-name="7" unicode="&#x37;" horiz-adv-x="326" d=" M326,431 L140,135 Q136,129 127,110 Q118,91 108,67 Q105,60 102.5,53 Q100,46 97,38 Q93,29 90,19.5 Q87,10 84,1 L41,14 Q66,97 108.5,170 Q151,243 198,314 Q199,316 200,317.5 Q201,319 202,321 Q212,337 223,353.5 Q234,370 244,386 L75,386 Q73,386 71,385 Q69,384 67,383 Q67,382 66.5,381.5 Q66,381 65,381 Q63,379 62,375.5 Q61,372 61,367 Q61,366 61,365 Q61,364 61,363 L67,284 L22,280 L16,359 Q16,361 16,363.5 Q16,366 16,368 Q16,381 20,392 Q24,403 32,411 Q40,421 51.5,426 Q63,431 75,431 Q107,431 138,431 Q169,431 201,431 Q232,431 263.5,431 Q295,431 326,431"/> 
            <glyph glyph-name="8" unicode="&#x38;" horiz-adv-x="366" d=" M357,402 L313,413 L319,435 Q321,440 321,443.5 Q321,447 321,449 Q321,452 320.5,453.5 Q320,455 319,455 Q318,456 317.5,456.5 Q317,457 317,457 Q313,459 307.5,460.5 Q302,462 295,462 Q284,462 271.5,459.5 Q259,457 246,453 Q228,447 210.5,438 Q193,429 182,419 Q172,409 168.5,400 Q165,391 165,385 Q165,384 165,383 Q165,382 166,381 Q166,381 166,380 Q166,379 166,379 Q170,375 185,359.5 Q200,344 217,325 L285,364 L308,325 L249,291 Q263,276 273,265.5 Q283,255 283,255 Q302,235 308.5,216 Q315,197 315,182 Q315,172 313,163.5 Q311,155 308,149 Q292,113 247.5,91 Q203,69 144,69 Q99,69 70,74.5 Q41,80 27,98 Q24,102 22.5,106 Q21,110 19,114 Q18,117 17.5,121 Q17,125 17,129 Q17,135 18,140 Q19,145 20,150 Q21,151 21.5,153 Q22,155 22,156 Q35,200 69,229 Q103,258 142,281 Q151,286 159.5,291 Q168,296 177,301 Q171,307 165.5,313.5 Q160,320 154,326 Q148,332 142.5,338 Q137,344 131,350 Q126,356 123,365 Q120,374 120,384 Q120,391 121,398 Q122,405 125,412 Q129,422 135.5,432.5 Q142,443 151,452 Q167,467 194,480.5 Q221,494 250,501 Q261,504 272,505.5 Q283,507 294,507 Q307,507 318.5,504.5 Q330,502 340,496 Q355,487 360.5,475 Q366,463 366,449 Q366,443 365,437.5 Q364,432 363,426 Q362,422 361,418 Q360,414 359,410 Q359,408 358.5,406 Q358,404 357,402 M267,167 Q268,169 268.5,171 Q269,173 269,175 Q270,177 270,179 Q270,181 270,183 Q270,193 265,203.5 Q260,214 250,224 Q250,224 238,237 Q226,250 209,268 Q189,256 174.5,247.5 Q160,239 160,239 Q106,208 88,184 Q70,160 65,144 Q64,138 63.5,134.5 Q63,131 63,129 Q63,127 63,126 Q63,125 63,125 Q64,124 66,123 Q68,122 72,121 Q79,119 96,117 Q113,115 144,115 Q192,115 223,129.5 Q254,144 264,162 Q265,163 265.5,164.5 Q266,166 267,167"/> 
            <glyph glyph-name="9" unicode="&#x39;" horiz-adv-x="355" d=" M349,260 Q345,239 338,217 Q331,195 321,173 Q318,166 314.5,158.5 Q311,151 307,144 Q277,87 237.5,43 Q198,-1 157,-27 Q133,-43 109.5,-51 Q86,-59 64,-59 Q58,-59 52,-58.5 Q46,-58 40,-56 L51,-13 Q52,-12 53.5,-12.5 Q55,-13 56,-13 Q58,-13 60.5,-13.5 Q63,-14 66,-14 Q88,-13 117,1 Q146,15 175,43 Q189,56 202.5,71 Q216,86 229,103 Q208,92 186,85 Q164,78 141,78 Q111,78 85.5,90.5 Q60,103 43,125 Q30,142 23.5,163.5 Q17,185 17,209 Q17,218 18,227 Q19,236 21,245 Q22,249 23,254 Q24,259 25,263 Q44,332 100,381.5 Q156,431 219,436 Q222,436 225,436 Q228,436 231,436 Q261,436 286.5,424 Q312,412 328,389 Q341,372 348,350 Q355,328 354,304 Q354,294 353,282.5 Q352,271 349,260 M306,277 Q307,281 307.5,284.5 Q308,288 308,292 Q309,295 309,298.5 Q309,302 309,306 Q309,323 304.5,337 Q300,351 292,362 Q282,376 266.5,383 Q251,390 231,390 Q225,390 219,389.5 Q213,389 207,387 Q162,378 122.5,339.5 Q83,301 68,251 Q65,240 63.5,229.5 Q62,219 62,209 Q62,193 66.5,178 Q71,163 79,152 Q90,139 106,131.5 Q122,124 141,124 Q148,124 154.5,125 Q161,126 168,127 Q211,138 250,176 Q289,214 303,263 Q303,264 303,264.5 Q303,265 304,266 Q304,266 304,266.5 Q304,267 304,268 Q304,269 304.5,270 Q305,271 305,273 Q305,274 305.5,275 Q306,276 306,277"/> 
            <glyph glyph-name=":" unicode="&#x3A;" horiz-adv-x="89" d=" M89,97 Q89,81 77.5,70 Q66,59 50,59 Q34,59 22.5,70 Q11,81 11,97 Q11,114 22.5,125 Q34,136 50,136 Q66,136 77.5,125 Q89,114 89,97 M89,277 Q89,261 77.5,250 Q66,239 50,239 Q34,239 22.5,250 Q11,261 11,277 Q11,294 22.5,305 Q34,316 50,316 Q66,316 77.5,305 Q89,294 89,277"/> 
            <glyph glyph-name=";" unicode="&#x3B;" horiz-adv-x="91" d=" M91,97 Q91,96 91,95 Q91,94 91,93 Q91,92 90.5,91 Q90,90 90,89 Q90,88 90,87 Q90,86 89,85 L69,14 L22,14 L36,62 Q26,67 20,76.5 Q14,86 14,97 Q14,114 25.5,125 Q37,136 53,136 Q69,136 80,125 Q91,114 91,97 M89,277 Q89,261 77.5,250 Q66,239 50,239 Q34,239 22.5,250 Q11,261 11,277 Q11,294 22.5,305 Q34,316 50,316 Q66,316 77.5,305 Q89,294 89,277"/> 
            <glyph glyph-name="&lt;" unicode="&#x3C;" horiz-adv-x="379" d=" M379,111 L4,328 L4,385 L379,602 L379,510 L129,356 L379,202 L379,111"/> 
            <glyph glyph-name="=" unicode="&#x3D;" horiz-adv-x="400" d=" M400,207 L-5,207 L-5,283 L400,283 L400,207 M400,357 L-5,357 L-5,433 L400,433 L400,357"/> 
            <glyph glyph-name="&gt;" unicode="&#x3E;" horiz-adv-x="381" d=" M381,328 L6,111 L6,202 L257,356 L6,510 L6,602 L381,385 L381,328"/> 
            <glyph glyph-name="?" unicode="&#x3F;" horiz-adv-x="330" d=" M113,97 Q113,81 101.5,70 Q90,59 74,59 Q58,59 46.5,70 Q35,81 35,97 Q35,114 46.5,125 Q58,136 74,136 Q90,136 101.5,125 Q113,114 113,97 M324,520 Q327,513 328.5,504.5 Q330,496 330,488 Q330,486 330,483.5 Q330,481 329,478 Q327,456 315,434.5 Q303,413 283,396 L179,309 Q152,286 140,256.5 Q128,227 119,196 Q119,195 118.5,193.5 Q118,192 118,191 L74,203 Q85,243 100.5,279 Q116,315 150,343 L253,431 Q259,436 263.5,441 Q268,446 271,450 Q278,460 281,470 Q284,480 284,488 Q284,493 283.5,496.5 Q283,500 281,504 Q277,515 268,521.5 Q259,528 247,528 L136,528 Q134,528 132.5,528 Q131,528 130,527 Q118,525 107,515 Q96,505 93,494 L59,377 L16,390 L49,507 Q57,534 82,553.5 Q107,573 136,573 L247,573 Q273,573 294,559 Q315,545 324,520"/> 
            <glyph glyph-name="@" unicode="&#x40;" horiz-adv-x="554" d=" M554,332 Q554,326 553.5,319.5 Q553,313 553,307 Q544,237 495.5,178.5 Q447,120 372,120 Q354,120 345,126.5 Q336,133 329,146 Q328,148 327,150 Q326,152 325,154 Q305,138 279.5,127.5 Q254,117 228,117 Q182,117 160.5,149.5 Q139,182 135,221 Q134,227 133.5,234 Q133,241 133,247 Q133,327 189.5,386 Q246,445 325,445 Q345,445 355.5,438 Q366,431 374,421 Q376,419 378,417 Q380,415 382,413 Q385,409 389,405.5 Q393,402 397,399 L405,430 L445,430 Q407,324 390.5,279 Q374,234 367,201 Q365,195 363.5,188 Q362,181 361,173 Q361,173 361,172.5 Q361,172 361,171 Q361,170 361,169.5 Q361,169 361,169 Q361,160 368,156 Q375,152 383,150 Q385,150 387,150 Q389,150 391,150 Q429,150 457,184.5 Q485,219 500,260 Q508,280 512,300 Q516,320 516,335 Q516,418 452.5,468.5 Q389,519 310,519 Q211,519 133.5,450 Q56,381 56,279 L56,270 Q55,171 129.5,111 Q204,51 294,44 Q299,43 305,43 Q311,43 317,43 Q379,43 419,66.5 Q459,90 495,131 Q497,135 499.5,138 Q502,141 505,144 L545,144 Q505,76 445.5,42 Q386,8 306,8 Q191,8 104,81.5 Q17,155 17,276 Q17,406 106.5,480 Q196,554 318,554 Q414,554 484,492 Q554,430 554,332 M373,347 Q373,348 373,348.5 Q373,349 372,350 Q367,375 353,395.5 Q339,416 310,416 Q266,416 232.5,379.5 Q199,343 184,299 Q178,284 175,268.5 Q172,253 172,239 Q172,211 182.5,187 Q193,163 223,156 Q223,156 223.5,155.5 Q224,155 225,155 Q226,155 226.5,155 Q227,155 227,155 Q229,155 230.5,154.5 Q232,154 233,154 Q235,154 236.5,153.5 Q238,153 239,153 Q291,153 313,183.5 Q335,214 351,263 Q355,278 360,294 Q365,310 371,327 Q371,328 371.5,330 Q372,332 372,335 Q372,335 372,335.5 Q372,336 372,337 Q372,340 372,343 Q372,346 373,347"/> 
            <glyph glyph-name="A" unicode="&#x41;" horiz-adv-x="899" d=" M895,633 L799,296 L860,296 L860,251 L785,251 L728,50 L560,249 L551,237 Q505,173 436,123.5 Q367,74 216,74 L43,74 L43,120 L216,120 Q320,120 387.5,150.5 Q455,181 515,264 Q522,273 525.5,276.5 Q529,280 530,283 Q530,285 527.5,287.5 Q525,290 520,296 L538,296 L803,662 Q811,673 820.5,680.5 Q830,688 840,692 Q847,695 853,696.5 Q859,698 865,698 Q879,698 889,689 Q899,680 899,660 Q899,654 898,647.5 Q897,641 895,633 M738,251 L618,251 L708,144 Q712,158 715.5,171 Q719,184 723,198 Q727,211 730.5,224.5 Q734,238 738,251 M853,650 Q850,648 847,644.5 Q844,641 839,636 Q839,636 794,573.5 Q749,511 695,437 Q667,398 640.5,361 Q614,324 594,296 L751,296 L852,646 L853,650"/> 
            <glyph glyph-name="B" unicode="&#x42;" horiz-adv-x="699" d=" M672,704 Q687,691 693,675 Q699,659 699,640 Q699,627 696.5,613.5 Q694,600 689,587 Q679,560 663,534 Q647,508 630,487 Q621,477 612.5,468.5 Q604,460 596,454 L483,369 Q524,344 557.5,310.5 Q591,277 591,230 Q591,220 589.5,210.5 Q588,201 584,190 Q561,119 487,98 Q413,77 329,75 Q323,75 316.5,75 Q310,75 304,75 L33,75 L33,120 L304,120 Q305,120 305.5,120 Q306,120 306,120 Q326,120 353.5,120.5 Q381,121 410,125 Q453,132 491,149 Q529,166 541,204 Q543,211 544,217 Q545,223 545,229 Q544,263 516,289 Q488,315 454,335 Q440,343 426.5,350.5 Q413,358 401,365 Q421,380 445.5,396.5 Q470,413 494,430 Q552,471 601,521 Q650,571 652,635 Q652,647 649.5,656 Q647,665 642,669 Q637,674 630.5,676 Q624,678 616,678 Q597,678 572.5,666 Q548,654 523,635 Q509,625 495.5,614 Q482,603 469,592 Q446,571 427,551.5 Q408,532 397,520 Q396,515 394.5,510.5 Q393,506 392,501 Q391,499 390.5,497 Q390,495 389,493 Q367,416 348.5,352.5 Q330,289 330,289 Q318,248 293.5,217 Q269,186 242,174 Q236,172 229.5,170.5 Q223,169 217,169 Q214,169 211,169.5 Q208,170 205,171 Q202,172 198,173.5 Q194,175 190,179 Q183,184 177,195 Q171,206 171,224 Q171,231 172,238.5 Q173,246 175,255 Q191,318 236.5,390 Q282,462 356,543 L409,727 L453,715 L424,613 Q433,622 447,634 Q461,646 478,659 Q497,673 519,686.5 Q541,700 563,709 Q577,715 591.5,718.5 Q606,722 620,722 Q634,722 647.5,718 Q661,714 672,704 M326,438 Q318,427 304,407.5 Q290,388 275,365 Q268,355 261.5,344 Q255,333 249,323 Q235,297 225,272 Q215,247 215,229 Q215,225 215.5,221.5 Q216,218 217,215 Q218,215 218.5,215 Q219,215 220,215 Q243,215 262,250.5 Q281,286 295,328 Q307,364 315,396 Q323,428 326,438"/> 
            <glyph glyph-name="C" unicode="&#x43;" horiz-adv-x="550" d=" M548,663 Q549,659 549.5,654.5 Q550,650 550,646 Q550,606 513,573.5 Q476,541 432,517 Q408,503 385.5,492 Q363,481 346,473 L326,514 Q339,520 362,531 Q385,542 410,556 Q435,570 458,586 Q481,602 493,618 Q499,626 502,633 Q505,640 505,647 Q505,648 505,648.5 Q505,649 505,650 Q504,651 504,651.5 Q504,652 504,653 Q504,654 503.5,654.5 Q503,655 503,655 Q500,659 489,662.5 Q478,666 458,666 Q429,666 396,655 Q363,644 329,624 Q259,583 195.5,513.5 Q132,444 101,369 Q97,360 93.5,350 Q90,340 87,331 Q79,304 75,279.5 Q71,255 71,233 Q71,206 77.5,184 Q84,162 96,145 Q115,121 146,109 Q177,97 220,97 Q238,97 257,100 Q276,103 296,109 Q324,117 351,130 Q378,143 400,159 L427,123 Q398,101 361.5,84.5 Q325,68 287,59 Q270,55 253,53 Q236,51 220,51 Q166,51 125.5,68 Q85,85 60,118 Q43,141 34.5,170 Q26,199 26,234 Q26,259 30.5,286 Q35,313 43,343 Q44,345 44.5,347.5 Q45,350 46,352 Q77,451 157.5,541 Q238,631 329,677 Q362,693 395,702.5 Q428,712 458,712 Q499,712 518.5,700 Q538,688 544,674 Q546,671 546.5,668.5 Q547,666 548,663"/> 
            <glyph glyph-name="D" unicode="&#x44;" horiz-adv-x="687" d=" M687,304 Q687,293 686.5,282 Q686,271 684,260 Q674,190 618.5,132 Q563,74 420,74 L33,74 L33,120 Q42,120 51,120 Q60,120 69,120 Q80,119 91.5,119 Q103,119 115,119 Q178,120 236,138 Q294,156 325,224 L480,557 Q465,573 446,594.5 Q427,616 405,638 Q391,652 376.5,665.5 Q362,679 348,691 Q328,709 307.5,723 Q287,737 269,744 Q253,751 238,753.5 Q223,756 211,756 Q198,756 188.5,752.5 Q179,749 176,744 Q175,743 174.5,740.5 Q174,738 174,735 Q174,715 211,666.5 Q248,618 357,540 L331,503 Q321,510 292.5,531 Q264,552 231,581 Q209,601 188,623.5 Q167,646 152,669 Q141,686 134.5,702.5 Q128,719 128,735 Q128,743 130,750.5 Q132,758 136,765 Q146,783 166.5,792.5 Q187,802 213,802 Q230,801 248.5,797.5 Q267,794 286,786 Q317,773 362.5,735 Q408,697 457,648 Q468,637 479,625.5 Q490,614 501,602 L536,678 L577,659 L534,566 Q581,514 616.5,467.5 Q652,421 665,395 Q676,373 681.5,350 Q687,327 687,304 M642,304 Q642,322 637.5,340 Q633,358 624,375 Q614,395 584,434.5 Q554,474 513,520 Q503,499 492.5,476 Q482,453 471,431 Q432,346 399,275.5 Q366,205 366,205 Q354,178 336,157 Q318,136 294,120 Q326,120 357.5,120 Q389,120 420,120 Q515,120 578.5,159.5 Q642,199 642,304"/> 
            <glyph glyph-name="E" unicode="&#x45;" horiz-adv-x="580" d=" M577,676 Q579,672 579.5,667 Q580,662 580,657 Q580,646 576.5,635 Q573,624 568,612 Q562,600 554,588.5 Q546,577 538,565 Q531,555 524.5,545.5 Q518,536 512,528 L474,553 Q479,560 486.5,570 Q494,580 502,592 Q504,595 506.5,598.5 Q509,602 511,606 Q521,621 528,635 Q535,649 535,658 Q535,658 535,658.5 Q535,659 535,660 Q534,661 534,661.5 Q534,662 534,662 Q532,670 527,674.5 Q522,679 514,682 Q509,684 501.5,685 Q494,686 486,686 Q467,686 440,678.5 Q413,671 381,652 Q358,639 338,623.5 Q318,608 303,593 Q284,575 272.5,557.5 Q261,540 258,526 Q258,525 258,524.5 Q258,524 258,524 Q258,523 258,522.5 Q258,522 258,521 Q258,514 261.5,506 Q265,498 271,489 Q274,485 277.5,480.5 Q281,476 285,471 Q291,463 297,456 Q303,449 307,444 Q287,433 261.5,417 Q236,401 209,381 Q158,344 115,296.5 Q72,249 72,199 Q72,191 73.5,182 Q75,173 79,164 Q87,146 103.5,137 Q120,128 139,124 Q150,122 161,121 Q172,120 181,120 L484,120 L484,74 L181,74 Q173,74 165,74.5 Q157,75 149,76 Q115,80 83.5,96 Q52,112 37,146 Q33,158 30.5,170 Q28,182 28,195 Q28,227 43.5,262 Q59,297 88,332 Q115,364 153.5,396 Q192,428 241,458 Q234,467 228.5,474.5 Q223,482 223,482 Q218,490 215,499.5 Q212,509 212,519 Q212,521 212,523 Q212,525 213,528 Q213,530 213.5,532 Q214,534 214,536 Q217,552 227,569.5 Q237,587 252,605 Q272,628 299,650 Q326,672 359,691 Q394,711 426,721.5 Q458,732 486,732 Q498,732 509,730 Q520,728 530,724 Q547,718 559.5,705.5 Q572,693 577,676"/> 
            <glyph glyph-name="F" unicode="&#x46;" horiz-adv-x="547" d=" M518,715 Q533,707 540,693 Q547,679 547,657 Q547,626 534.5,577 Q522,528 501,455 Q495,434 489,413 Q483,392 478,372 Q472,351 466,330 Q460,309 454,288 L500,288 L500,243 L441,243 L320,-195 L276,-183 L394,243 L278,243 L278,288 L407,288 Q411,303 424.5,347.5 Q438,392 453,446 Q455,454 457,462 Q459,470 461,478 Q477,535 488.5,586.5 Q500,638 500,661 Q500,667 499,670.5 Q498,674 496,675 Q492,677 486.5,678 Q481,679 473,679 Q442,679 389.5,659 Q337,639 280,599 Q263,587 245.5,573 Q228,559 212,543 Q142,476 106.5,417.5 Q71,359 71,332 Q71,332 71,332 Q71,332 71,332 Q71,331 71,331 Q71,331 71,331 Q71,330 71,329 Q71,328 72,327 Q72,326 72.5,325 Q73,324 74,323 Q78,319 82,317.5 Q86,316 90,316 Q91,316 91.5,316 Q92,316 93,316 Q115,318 153,349.5 Q191,381 244,442 Q257,457 268.5,473 Q280,489 292,505 Q293,506 294,507.5 Q295,509 296,511 Q304,521 311.5,531.5 Q319,542 327,552 L363,524 Q353,512 344,499.5 Q335,487 326,474 Q315,459 303.5,443.5 Q292,428 279,413 Q216,340 172.5,306 Q129,272 96,270 Q96,270 95.5,270 Q95,270 94,270 Q93,270 92.5,270 Q92,270 92,270 Q79,270 67,274.5 Q55,279 44,289 Q43,290 42.5,290.5 Q42,291 41,292 Q36,297 31.5,306 Q27,315 26,330 Q26,331 26,331.5 Q26,332 26,333 Q26,371 59,427 Q92,483 149,543 Q156,551 164,559 Q172,567 180,575 Q209,603 242.5,627.5 Q276,652 310,671 Q355,696 398.5,710.5 Q442,725 475,725 Q488,725 499,722.5 Q510,720 518,715"/> 
            <glyph glyph-name="G" unicode="&#x47;" horiz-adv-x="673" d=" M662,750 Q667,740 670,728 Q673,716 673,703 Q673,680 663.5,655 Q654,630 633,604 Q615,583 589,561.5 Q563,540 527,520 L505,560 Q515,566 529.5,575 Q544,584 560,597 Q586,618 607.5,645 Q629,672 629,701 Q629,709 627.5,715.5 Q626,722 622,729 Q615,743 601,750.5 Q587,758 570,758 Q560,758 549,755 Q538,752 527,747 Q496,732 451,702.5 Q406,673 358,622 Q330,591 302,551.5 Q274,512 249,463 Q217,400 204,353 Q191,306 191,276 Q192,261 194.5,250.5 Q197,240 201,233 Q202,232 203,230.5 Q204,229 205,228 Q209,224 215.5,221 Q222,218 233,218 Q260,218 289,229.5 Q318,241 348,263 Q394,296 438.5,351 Q483,406 518,475 L560,458 Q547,416 534.5,373.5 Q522,331 509,289 Q496,247 483.5,204.5 Q471,162 458,120 L643,120 L623,75 L440,75 Q400,-6 317.5,-58 Q235,-110 144,-115 Q140,-115 136.5,-115 Q133,-115 129,-115 Q104,-115 84,-109 Q64,-103 50,-90 Q37,-79 30,-62.5 Q23,-46 23,-27 Q23,-22 23.5,-17 Q24,-12 25,-7 Q34,40 82,80 Q130,120 202,120 L410,120 Q421,153 430.5,186 Q440,219 450,252 Q455,269 460,285.5 Q465,302 470,318 Q465,312 460,306 Q455,300 450,295 Q409,249 352,210.5 Q295,172 233,172 Q209,172 191,181.5 Q173,191 162,210 Q154,223 150,240 Q146,257 146,277 Q146,318 162,370.5 Q178,423 209,484 Q236,537 266,579 Q296,621 327,654 Q378,709 426,741 Q474,773 507,788 Q524,796 540,799.5 Q556,803 571,803 Q603,803 626.5,788 Q650,773 662,750 M388,75 L202,75 Q192,75 181,73.5 Q170,72 159,68 Q125,58 96.5,33.5 Q68,9 68,-27 Q68,-36 71,-43.5 Q74,-51 80,-56 Q88,-63 100.5,-66.5 Q113,-70 129,-70 Q130,-70 131.5,-70 Q133,-70 135,-70 Q211,-68 280.5,-28 Q350,12 388,75"/> 
            <glyph glyph-name="H" unicode="&#x48;" horiz-adv-x="725" d=" M725,262 L603,262 L538,37 L495,50 L555,262 L453,262 Q416,184 338.5,133 Q261,82 176,73 Q167,72 158.5,71.5 Q150,71 141,71 Q116,71 96,77.5 Q76,84 62,96 Q49,108 42,124.5 Q35,141 35,160 Q35,165 35.5,170 Q36,175 37,180 Q46,228 94,268 Q142,308 214,308 L422,308 Q438,359 453.5,411.5 Q469,464 484,516 Q487,529 491,542.5 Q495,556 498,569 Q506,595 513.5,621 Q521,647 528,673 L571,661 L469,308 L568,308 L674,675 L717,662 L616,308 L725,308 L725,262 M401,262 L214,262 Q204,262 193,260.5 Q182,259 171,255 Q137,245 108.5,220.5 Q80,196 80,160 Q80,150 83,143 Q86,136 92,130 Q100,123 112.5,120 Q125,117 141,117 Q144,117 146.5,117 Q149,117 152,117 Q227,120 296,161 Q365,202 401,262"/> 
            <glyph glyph-name="I" unicode="&#x49;" horiz-adv-x="535" d=" M526,602 Q526,602 506,534 Q486,466 462,383 Q457,366 452,348.5 Q447,331 442,314 Q456,307 471.5,301 Q487,295 505,290 L492,246 Q476,251 460.5,256.5 Q445,262 430,269 Q416,221 406.5,189 Q397,157 397,157 Q388,124 359.5,100.5 Q331,77 298,74 Q296,74 294.5,74 Q293,74 291,74 L25,74 L25,120 L291,120 Q293,120 294.5,120 Q296,120 298,120 Q316,123 332.5,137 Q349,151 354,169 Q354,169 364,205 Q374,241 389,293 Q353,319 336,355.5 Q319,392 319,441 Q319,455 320.5,469.5 Q322,484 324,500 Q326,514 336.5,545.5 Q347,577 363,612 Q385,656 416,693.5 Q447,731 486,731 Q497,731 506,726 Q515,721 522,713 Q528,705 531,693.5 Q534,682 535,671 Q535,669 535,667 Q535,665 535,663 Q535,662 535,661 Q535,660 535,659 Q535,647 533,636 Q531,625 530,617 Q529,612 528,608.5 Q527,605 526,602 M486,685 Q479,685 471,680.5 Q463,676 455,668 Q440,653 425.5,629 Q411,605 399,579 Q387,555 379.5,531.5 Q372,508 369,493 Q367,479 365.5,466 Q364,453 364,441 Q364,409 374,384.5 Q384,360 403,341 Q406,353 410,365.5 Q414,378 417,391 Q418,392 418,393 Q418,394 418,395 Q442,478 462,546.5 Q482,615 482,615 Q487,630 488.5,642.5 Q490,655 490,664 Q490,672 489,678 Q488,684 486,685"/> 
            <glyph glyph-name="J" unicode="&#x4A;" horiz-adv-x="564" d=" M553,603 Q553,603 537,548 Q521,493 502,427 Q490,386 479,347 Q468,308 461,282 Q470,282 477,282.5 Q484,283 489,283 Q495,283 499,283.5 Q503,284 506,284 Q513,284 515,282 Q517,280 516,274 Q516,271 515.5,267.5 Q515,264 515,259 Q515,255 514.5,249 Q514,243 514,236 Q505,237 496,237 Q487,237 478,237 Q474,237 470,237 Q466,237 463,237 Q459,236 455,236 Q451,236 447,236 Q438,209 422,176.5 Q406,144 385,111 Q368,83 349.5,56.5 Q331,30 311,6 Q299,-9 286,-23 Q273,-37 261,-49 Q213,-94 171,-117 Q129,-140 97,-140 Q89,-140 81.5,-138.5 Q74,-137 67,-134 Q64,-132 60,-129.5 Q56,-127 53,-124 Q43,-115 35,-98 Q27,-81 27,-52 Q27,-50 27,-47.5 Q27,-45 27,-43 Q29,-16 38.5,14 Q48,44 67,76 Q90,117 128.5,156.5 Q167,196 221,226 Q266,252 313.5,264 Q361,276 413,280 Q420,303 432,346 Q444,389 458,436 Q477,503 493,559 Q509,615 509,615 Q516,639 518,653 Q520,667 520,674 Q520,677 519.5,679 Q519,681 519,682 Q519,683 518.5,684 Q518,685 518,685 Q518,685 516.5,685 Q515,685 513,685 Q504,685 495,681.5 Q486,678 477,672 Q457,657 437,632 Q417,607 403,580 Q392,560 385.5,540.5 Q379,521 378,506 Q377,461 385.5,425 Q394,389 413,361 L376,335 Q352,370 342.5,411 Q333,452 333,494 Q333,496 333,497.5 Q333,499 333,501 Q333,503 333,504.5 Q333,506 333,508 Q334,527 341.5,551 Q349,575 362,600 Q387,649 427.5,689.5 Q468,730 513,731 Q543,732 553.5,713.5 Q564,695 564,671 Q564,667 564,663.5 Q564,660 563,656 Q562,644 560,632.5 Q558,621 555,611 Q555,609 554.5,607 Q554,605 553,603 M398,233 Q351,228 314,217 Q277,206 243,186 Q199,161 166,128.5 Q133,96 112,63 Q94,33 84,5.5 Q74,-22 72,-46 Q72,-50 72,-54.5 Q72,-59 73,-64 Q73,-73 76,-81 Q79,-89 86,-92 Q88,-94 91.5,-94 Q95,-94 99,-94 Q119,-94 152.5,-75.5 Q186,-57 230,-16 Q242,-5 254.5,9 Q267,23 280,39 Q297,60 313,83.5 Q329,107 344,131 Q361,158 375,184 Q389,210 398,233"/> 
            <glyph glyph-name="K" unicode="&#x4B;" horiz-adv-x="877" d=" M877,695 L530,320 L778,39 L744,9 L472,317 Q444,220 358,147 Q272,74 167,74 Q130,74 98.5,85 Q67,96 42,116 L71,151 Q91,135 116,127.5 Q141,120 167,120 Q173,120 179.5,120.5 Q186,121 192,122 Q269,131 336.5,187.5 Q404,244 426,321 L538,713 L582,700 L475,328 L843,726 L877,695"/> 
            <glyph glyph-name="L" unicode="&#x4C;" horiz-adv-x="565" d=" M551,541 Q543,520 534,500.5 Q525,481 515,462 Q501,436 484,409.5 Q467,383 445,353 L408,379 Q443,427 463,461.5 Q483,496 496,529 Q500,536 502.5,543.5 Q505,551 508,558 Q514,573 517,586.5 Q520,600 520,611 Q520,628 514,639 Q508,650 496,654 Q492,656 488,656.5 Q484,657 479,657 Q474,657 468.5,656 Q463,655 458,653 Q443,648 428.5,635 Q414,622 406,601 Q400,587 394.5,573 Q389,559 384,545 Q377,524 370,503.5 Q363,483 356,461 Q341,412 323.5,360.5 Q306,309 277,252 Q275,248 273,244 Q271,240 268,236 Q250,204 224,173.5 Q198,143 165,120 L466,120 L466,74 L27,74 L27,120 Q97,120 152,167 Q207,214 236,272 Q263,327 280.5,377 Q298,427 313,475 Q324,510 336,546 Q348,582 364,619 Q379,652 403.5,672 Q428,692 455,699 Q461,700 467.5,701 Q474,702 480,702 Q489,702 497.5,700.5 Q506,699 513,696 Q534,688 549.5,666.5 Q565,645 565,610 Q565,595 562,578 Q559,561 551,541"/> 
            <glyph glyph-name="M" unicode="&#x4D;" horiz-adv-x="696" d=" M686,664 Q691,657 693.5,646.5 Q696,636 696,622 Q696,588 682,532 Q668,476 645,399 L525,-14 L481,-1 Q496,51 511,102.5 Q526,154 541,206 Q556,257 571.5,308.5 Q587,360 602,412 Q606,425 612,445 Q618,465 625,488 Q628,496 630.5,504.5 Q633,513 635,522 Q642,549 647,574.5 Q652,600 652,618 Q652,623 652,626.5 Q652,630 651,633 Q643,632 634.5,627 Q626,622 618,614 Q598,593 576,553 Q554,513 528,460 Q517,437 503.5,410.5 Q490,384 475,356 L347,112 Q338,96 329,88.5 Q320,81 310,81 Q309,81 307.5,81 Q306,81 305,82 Q304,82 302.5,82.5 Q301,83 300,83 Q291,87 287,95.5 Q283,104 283,117 Q283,129 286,144 Q289,159 294,178 L346,363 Q351,380 356.5,398 Q362,416 367,435 Q368,436 368.5,437.5 Q369,439 369,440 Q370,445 372,450 Q374,455 375,460 Q378,470 381.5,480.5 Q385,491 389,502 Q390,508 392,514 Q394,520 396,526 Q406,558 413.5,588 Q421,618 422,634 Q407,627 363.5,574 Q320,521 239,357 Q218,314 182,244.5 Q146,175 89,68 Q85,70 80.5,72.5 Q76,75 72,77 Q65,81 58.5,84 Q52,87 45,89 L186,567 Q193,590 195.5,606.5 Q198,623 198,633 Q198,642 197,647 Q196,652 194,655 Q194,656 193.5,657 Q193,658 192,658 Q191,658 190.5,658 Q190,658 189,658 Q183,658 169.5,649 Q156,640 141,620 Q138,616 135.5,612 Q133,608 130,603 Q120,586 112.5,571 Q105,556 99,541 Q93,526 87.5,510 Q82,494 77,475 L33,486 Q41,517 51.5,544 Q62,571 76,598 Q80,605 83.5,611.5 Q87,618 91,625 Q104,647 119.5,664 Q135,681 151,691 Q161,697 171,700 Q181,703 190,703 Q195,703 200.5,702 Q206,701 210,699 Q223,694 233,679.5 Q243,665 243,633 Q243,618 240,598.5 Q237,579 229,554 L147,276 Q154,289 160.5,301.5 Q167,314 173,327 Q180,339 186.5,351.5 Q193,364 199,377 Q295,573 348,627.5 Q401,682 430,682 Q433,682 435.5,682 Q438,682 440,681 Q447,680 452,676 Q457,672 461,666 Q464,661 465.5,654 Q467,647 467,639 Q467,614 454.5,568 Q442,522 419,446 Q411,421 403.5,397 Q396,373 389,351 Q389,351 381,322 Q373,293 363,257 Q361,249 358.5,240 Q356,231 354,223 Q358,230 362,237.5 Q366,245 369,252 Q394,299 414.5,338 Q435,377 435,377 Q450,405 463,431 Q476,457 488,480 Q505,515 520.5,545.5 Q536,576 551,600 Q575,637 599.5,658 Q624,679 656,679 Q665,679 673,675 Q681,671 686,664"/> 
            <glyph glyph-name="N" unicode="&#x4E;" horiz-adv-x="529" d=" M519,660 Q524,651 526.5,639 Q529,627 529,612 Q529,590 524,562 Q519,534 509,498 L362,-14 L319,-1 L465,510 Q476,549 480,574 Q484,599 484,612 Q484,620 483,625.5 Q482,631 481,634 Q480,635 479.5,635.5 Q479,636 479,637 Q478,639 477.5,639.5 Q477,640 476,640 Q475,640 474.5,640 Q474,640 472,640 Q450,640 398.5,588.5 Q347,537 289,435 L84,72 L43,89 L198,636 L206,664 Q205,664 204.5,664 Q204,664 203,664 Q197,664 192.5,662.5 Q188,661 184,657 Q179,652 174.5,644.5 Q170,637 164,625 Q158,613 152,601.5 Q146,590 140,579 Q133,568 127,556.5 Q121,545 115,534 Q107,520 98.5,504.5 Q90,489 81,474 Q77,467 73,459.5 Q69,452 65,444 L25,465 Q37,488 49.5,511 Q62,534 75,556 Q81,567 86.5,577.5 Q92,588 98,598 Q104,609 109.5,619.5 Q115,630 121,640 Q121,641 121.5,642 Q122,643 123,643 Q136,669 152.5,689.5 Q169,710 203,710 Q217,710 227,705.5 Q237,701 243,693 Q248,687 249.5,680.5 Q251,674 251,667 Q251,658 249,648.5 Q247,639 244,631 Q244,629 243.5,627.5 Q243,626 242,624 L139,261 L249,457 Q253,464 257.5,471.5 Q262,479 266,486 Q291,526 319,564.5 Q347,603 376,631 Q402,656 427,671 Q452,686 474,686 Q478,686 481.5,685.5 Q485,685 488,684 Q498,682 506,675.5 Q514,669 519,660"/> 
            <glyph glyph-name="O" unicode="&#x4F;" horiz-adv-x="533" d=" M533,644 L393,644 Q316,644 250.5,580.5 Q185,517 142,440 Q124,407 110,374 Q96,341 88,314 Q79,284 75,257 Q71,230 71,207 Q71,183 76,164 Q81,145 91,131 Q102,116 119.5,109 Q137,102 161,102 Q184,102 223,120 Q262,138 304,177 Q336,206 366.5,248.5 Q397,291 421,347 Q450,415 459.5,458.5 Q469,502 469,527 Q469,541 467,550 Q465,559 462,564 Q462,565 461.5,566 Q461,567 460,568 Q460,569 459.5,569.5 Q459,570 459,570 Q455,575 447.5,579 Q440,583 424,583 Q414,583 402.5,579.5 Q391,576 379,570 Q352,554 327,522 Q302,490 289,444 Q286,434 285,425 Q284,416 284,409 Q284,400 285.5,395.5 Q287,391 288,389 L287,345 Q277,345 267.5,349.5 Q258,354 252,362 Q245,371 242,383.5 Q239,396 239,410 Q239,421 240.5,432.5 Q242,444 246,456 Q266,527 314,575.5 Q362,624 415,629 Q417,629 419.5,629 Q422,629 424,629 Q451,629 467.5,620 Q484,611 493,601 Q494,599 495.5,597.5 Q497,596 498,594 Q506,581 510.5,564.5 Q515,548 515,527 Q515,491 502,441.5 Q489,392 463,330 Q434,260 394,208.5 Q354,157 313,123 Q271,89 230.5,72.5 Q190,56 161,56 Q123,56 99,68 Q75,80 62,95 Q60,97 58.5,99.5 Q57,102 55,104 Q40,124 32.5,150 Q25,176 25,209 Q25,235 30,264.5 Q35,294 44,327 Q45,331 46.5,335.5 Q48,340 49,344 Q91,473 186.5,581 Q282,689 393,689 L533,689 L533,644"/> 
            <glyph glyph-name="P" unicode="&#x50;" horiz-adv-x="548" d=" M542,632 Q545,621 546.5,608.5 Q548,596 548,583 Q548,558 542.5,531 Q537,504 526,476 Q518,455 506.5,433.5 Q495,412 481,392 Q445,339 400,298.5 Q355,258 308,234 Q279,220 251,212 Q223,204 197,204 Q195,204 193,204 Q191,204 190,205 Q188,205 186,205 Q184,205 182,205 L186,251 Q188,251 189.5,251 Q191,251 193,251 Q195,250 196.5,250 Q198,250 200,250 Q207,250 214.5,251 Q222,252 229,253 Q277,263 322.5,296 Q368,329 403,367 Q415,380 425.5,393 Q436,406 444,418 Q455,434 464,451 Q473,468 480,485 Q491,511 496.5,536.5 Q502,562 502,584 Q502,594 501,603 Q500,612 498,620 Q497,624 495.5,627.5 Q494,631 493,635 Q489,644 482,651.5 Q475,659 465,664 Q461,666 453.5,668 Q446,670 437,670 Q430,670 420.5,668.5 Q411,667 400,662 Q363,646 294.5,568 Q226,490 145,270 L70,9 L26,21 L99,276 L145,435 Q157,479 163.5,535 Q170,591 170,652 Q170,655 170,657.5 Q170,660 170,663 Q170,666 170,668.5 Q170,671 170,674 L215,675 Q215,671 215,667 Q215,663 216,658 Q216,654 216,650 Q216,646 216,641 Q216,626 215.5,610.5 Q215,595 213,579 Q212,563 210.5,547.5 Q209,532 207,517 Q259,606 304,648 Q349,690 383,704 Q398,711 412,713.5 Q426,716 438,716 Q452,716 464,713 Q476,710 484,706 Q505,696 520,677 Q535,658 542,632"/> 
            <glyph glyph-name="Q" unicode="&#x51;" horiz-adv-x="614" d=" M610,607 Q612,600 613,591.5 Q614,583 614,574 Q613,530 589.5,474.5 Q566,419 521,358 Q462,276 394,222 Q326,168 248,122 Q280,115 313,112 Q346,109 382,109 Q411,109 442,111.5 Q473,114 504,118 L510,73 Q494,71 477.5,69 Q461,67 445,66 Q429,65 412.5,64.5 Q396,64 380,64 Q335,64 291,69 Q247,74 204,86 L163,75 Q151,68 134,64.5 Q117,61 99,61 Q94,61 88,61.5 Q82,62 76,62 Q65,64 54,68.5 Q43,73 36,82 Q34,85 32.5,88.5 Q31,92 30,96 Q30,98 30,99.5 Q30,101 30,103 Q30,105 30,107.5 Q30,110 31,112 Q36,130 58,141 Q80,152 112,152 Q118,152 125.5,151.5 Q133,151 141,149 Q143,149 145,148.5 Q147,148 149,147 L148,147 Q148,147 156,145 Q164,143 175,140 Q177,140 179.5,139.5 Q182,139 184,138 Q272,187 346.5,242.5 Q421,298 485,385 Q526,440 547,490 Q568,540 568,576 Q568,582 567.5,587.5 Q567,593 566,597 Q562,611 554.5,620.5 Q547,630 533,637 Q520,643 507.5,646 Q495,649 482,649 Q436,649 392.5,619 Q349,589 315,553 Q305,541 295,529.5 Q285,518 277,508 Q258,483 243,460 Q228,437 217,415 L176,434 Q189,462 206,487.5 Q223,513 242,537 Q259,558 275.5,576.5 Q292,595 309,610 Q353,652 397.5,673.5 Q442,695 483,695 Q501,695 519,690.5 Q537,686 553,678 Q576,667 590,649 Q604,631 610,607 M111,107 Q110,107 108.5,107 Q107,107 106,107 Q104,106 103,106 Q102,106 101,106 Q102,106 103.5,106 Q105,106 106,106 Q107,106 108.5,106.5 Q110,107 111,107"/> 
            <glyph glyph-name="R" unicode="&#x52;" horiz-adv-x="587" d=" M586,629 Q587,625 587,620.5 Q587,616 587,611 Q587,593 583,574 Q579,555 571,536 Q561,510 544.5,485 Q528,460 507,437 Q493,422 479.5,409.5 Q466,397 453,386 Q411,352 367,330.5 Q323,309 269,290 Q261,287 252,284 Q243,281 234,278 L406,99 L373,68 Q321,122 269.5,176 Q218,230 165,284 Q159,272 153.5,260 Q148,248 143,236 Q138,224 132.5,211.5 Q127,199 122,187 Q110,161 97.5,133 Q85,105 70,73 L28,89 L203,699 L247,687 L152,358 Q184,418 222,475 Q260,532 300,586 Q323,618 350,642.5 Q377,667 404,684 Q428,698 452,706 Q476,714 498,714 Q512,714 525,710.5 Q538,707 549,699 Q565,688 574.5,670 Q584,652 586,629 M541,624 Q541,627 540.5,630.5 Q540,634 538,638 Q537,645 533,651 Q529,657 523,661 Q518,665 511,666.5 Q504,668 496,668 Q476,668 450,656.5 Q424,645 397,623 Q381,611 365.5,594.5 Q350,578 336,559 Q277,479 239.5,418.5 Q202,358 176,306 Q187,310 198.5,313.5 Q210,317 221,321 Q292,346 354,376.5 Q416,407 474,468 Q479,473 483.5,478.5 Q488,484 492,489 Q519,524 530.5,557 Q542,590 542,613 Q542,615 542,616 Q542,617 542,619 Q541,620 541,621.5 Q541,623 541,624"/> 
            <glyph glyph-name="S" unicode="&#x53;" horiz-adv-x="655" d=" M655,648 Q655,607 622.5,578 Q590,549 552,528 Q546,525 540.5,522 Q535,519 529,516 L509,557 Q517,561 529,567 Q541,573 554,581 Q575,595 592.5,612 Q610,629 610,649 Q610,656 607,661.5 Q604,667 598,671 Q588,679 570,683.5 Q552,688 526,688 Q509,688 489.5,685.5 Q470,683 447,678 Q397,665 360.5,643 Q324,621 303,598 Q292,585 286,573 Q280,561 279,550 Q279,550 279,549.5 Q279,549 279,548 Q279,547 279,546.5 Q279,546 279,546 Q279,540 280,534.5 Q281,529 284,523 Q293,498 317,474.5 Q341,451 367,431 Q392,412 414,398 Q436,384 447,375 Q484,347 503,312 Q522,277 521,241 Q521,225 517,209 Q513,193 504,177 Q476,128 416,101 Q356,74 273,74 L31,74 L31,119 L273,119 Q288,119 305,120.5 Q322,122 338,125 Q377,131 411.5,148.5 Q446,166 465,200 Q471,211 473.5,221.5 Q476,232 476,243 Q476,247 475.5,251 Q475,255 474,260 Q470,280 456.5,300.5 Q443,321 419,339 Q404,351 383,365 Q362,379 340,395 Q300,425 267,462.5 Q234,500 234,545 Q234,546 234,547 Q234,548 234,549 Q234,550 234,551 Q234,552 234,553 Q237,606 294,653 Q351,700 436,722 Q460,728 483,731 Q506,734 527,734 Q559,734 584.5,727.5 Q610,721 627,707 Q641,696 648,680.5 Q655,665 655,648"/> 
            <glyph glyph-name="T" unicode="&#x54;" horiz-adv-x="518" d=" M518,719 L138,-168 L96,-150 L440,653 L140,581 Q136,580 132.5,579 Q129,578 125,577 Q92,568 81.5,559 Q71,550 70,547 Q69,543 87,525 Q105,507 170,478 L152,437 Q142,441 126.5,448 Q111,455 94,465 Q68,480 46.5,500.5 Q25,521 25,546 Q25,549 25.5,552 Q26,555 27,559 Q33,581 53.5,594.5 Q74,608 97,616 Q105,619 113.5,621 Q122,623 129,625 Q227,648 324,671.5 Q421,695 518,719"/> 
            <glyph glyph-name="U" unicode="&#x55;" horiz-adv-x="528" d=" M528,645 L427,293 Q421,270 415,243 Q409,216 404,188 Q398,156 394,126 Q390,96 389,72 L344,74 Q345,94 347,114 Q349,134 352,155 Q357,190 364,225.5 Q371,261 380,294 Q372,279 363.5,264 Q355,249 346,233 Q305,165 253,108 Q201,51 136,51 Q114,51 100,58.5 Q86,66 78,74 Q77,76 76,77 Q75,78 74,79 Q64,93 59,112.5 Q54,132 54,154 Q54,177 58,202.5 Q62,228 68,253 Q72,269 76,284.5 Q80,300 84,315 Q86,323 88.5,331 Q91,339 93,346 Q100,369 107.5,396.5 Q115,424 124,453 Q142,518 157,572 Q172,626 172,626 Q173,628 173.5,631 Q174,634 175,637 Q175,639 175.5,640.5 Q176,642 176,643 Q178,648 178.5,652 Q179,656 179,659 Q179,659 179,659 Q179,659 178,659 Q169,659 158,648.5 Q147,638 135,622 Q128,611 120.5,598.5 Q113,586 106,573 Q92,548 81.5,525.5 Q71,503 66,493 L25,513 Q33,529 43,551 Q53,573 66,596 Q88,636 116.5,670 Q145,704 178,704 Q190,704 198,700 Q206,696 211,692 Q212,691 213,690 Q214,689 215,688 Q220,681 222,673.5 Q224,666 224,658 Q224,649 222.5,641 Q221,633 219,626 Q218,623 217.5,620 Q217,617 216,614 L142,354 Q138,342 133.5,326 Q129,310 124,292 Q120,279 116.5,265.5 Q113,252 110,239 Q105,216 101.5,194.5 Q98,173 98,154 Q98,139 101,126.5 Q104,114 110,106 Q111,105 111.5,104.5 Q112,104 114,103 Q117,100 122,98 Q127,96 136,96 Q183,96 225.5,144.5 Q268,193 303,251 Q315,271 326,290.5 Q337,310 346,327 L347,328 Q354,341 373.5,386.5 Q393,432 414,485 Q415,486 415.5,487.5 Q416,489 416,490 Q425,513 434,534.5 Q443,556 451,576 Q463,605 472,627.5 Q481,650 485,660 L528,645"/> 
            <glyph glyph-name="V" unicode="&#x56;" horiz-adv-x="614" d=" M614,696 Q604,654 578,570 Q552,486 513,395 Q459,269 386.5,165 Q314,61 231,61 Q215,61 202.5,66 Q190,71 181,81 Q171,94 166,112.5 Q161,131 161,157 Q161,176 163,199 Q165,222 169,250 Q174,282 178.5,314.5 Q183,347 188,378 Q189,384 190,390.5 Q191,397 192,403 Q197,434 201.5,466 Q206,498 210,530 Q214,555 216.5,580.5 Q219,606 220,631 Q220,632 220,633 Q220,634 220,636 Q220,638 220,640.5 Q220,643 220,645 Q220,650 219.5,655 Q219,660 217,662 Q216,664 213.5,664 Q211,664 207,664 Q201,664 196.5,662.5 Q192,661 189,657 Q185,653 180.5,646 Q176,639 170,627 L69,444 L29,466 Q37,481 45,495.5 Q53,510 61,524 Q78,553 94,582.5 Q110,612 125,641 Q125,642 125.5,642.5 Q126,643 127,644 Q127,645 128,646.5 Q129,648 130,650 Q143,673 159,691.5 Q175,710 207,710 Q221,710 231.5,705.5 Q242,701 250,693 Q257,686 260.5,676.5 Q264,667 265,657 Q266,654 266,650.5 Q266,647 266,644 Q266,642 266,640 Q266,638 266,636 Q265,634 265,632 Q265,630 265,628 Q264,612 262.5,596 Q261,580 260,563 Q255,521 249,479.5 Q243,438 237,396 Q236,390 235,383.5 Q234,377 233,371 Q230,355 227.5,339 Q225,323 223,308 Q221,292 218.5,276 Q216,260 214,244 Q213,239 212.5,233 Q212,227 211,221 Q210,213 209,205 Q208,197 208,189 Q207,180 206.5,171.5 Q206,163 206,155 Q206,140 208.5,128.5 Q211,117 215,111 Q216,111 216.5,110.5 Q217,110 217,109 Q219,108 222,107 Q225,106 231,106 Q259,106 291,131 Q323,156 355,200 Q408,271 457.5,379.5 Q507,488 542,604 Q550,630 557,656 Q564,682 570,707 L614,696"/> 
            <glyph glyph-name="W" unicode="&#x57;" horiz-adv-x="863" d=" M863,698 Q857,655 832,571.5 Q807,488 768,396 Q716,270 643,165.5 Q570,61 489,61 Q479,61 469,65.5 Q459,70 452,79 Q438,96 432.5,126 Q427,156 427,189 Q427,190 427,191.5 Q427,193 427,194 Q427,218 429.5,241 Q432,264 434,282 Q435,291 436.5,299 Q438,307 439,313 Q447,357 453.5,401.5 Q460,446 467,491 Q460,475 452.5,459.5 Q445,444 438,428 Q417,386 395.5,344.5 Q374,303 351,265 Q301,178 254.5,119.5 Q208,61 177,61 Q170,61 162.5,64 Q155,67 150,73 Q143,81 139.5,94.5 Q136,108 136,129 Q136,150 139.5,180 Q143,210 150,251 Q152,261 154,270.5 Q156,280 158,290 Q161,306 164.5,322.5 Q168,339 172,355 Q175,368 177.5,381 Q180,394 183,406 Q189,434 195.5,462.5 Q202,491 208,520 Q213,548 218,576.5 Q223,605 226,633 Q226,634 226,635 Q226,636 227,638 Q227,639 227,640 Q227,641 227,642 Q227,650 225,656.5 Q223,663 220,667 Q219,669 218,669 Q217,669 216,669 Q210,669 202,664 Q194,659 186,649 Q181,643 176,635.5 Q171,628 166,619 Q156,600 145.5,581 Q135,562 124,544 Q122,540 119.5,536 Q117,532 115,528 Q107,513 98,498 Q89,483 81,468 L41,490 Q49,505 58,520 Q67,535 75,550 Q77,554 79.5,557.5 Q82,561 84,565 Q95,584 105.5,602.5 Q116,621 126,640 Q127,641 127.5,642.5 Q128,644 129,645 Q143,671 165.5,692.5 Q188,714 216,714 Q227,714 237,709.5 Q247,705 254,697 Q261,689 265,679 Q269,669 271,659 Q271,654 271.5,649.5 Q272,645 272,641 Q272,637 272,633.5 Q272,630 271,627 Q269,608 266,588.5 Q263,569 260,550 Q253,511 244.5,472.5 Q236,434 227,396 Q225,387 223,377.5 Q221,368 219,358 Q215,342 211.5,326 Q208,310 205,294 Q202,281 199.5,268.5 Q197,256 195,243 Q188,198 184.5,170.5 Q181,143 181,128 Q181,121 181.5,116.5 Q182,112 183,109 Q206,123 253,192.5 Q300,262 351,359 Q375,402 397.5,448.5 Q420,495 441,542 Q458,582 473.5,621.5 Q489,661 501,699 L544,688 Q535,635 526.5,582 Q518,529 510,476 Q506,448 501.5,419.5 Q497,391 493,362 Q490,348 488,333.5 Q486,319 483,305 Q477,271 474.5,241 Q472,211 472,187 Q472,156 476,136 Q480,116 486,108 Q488,107 488.5,106.5 Q489,106 489,106 Q516,106 548,133 Q580,160 613,205 Q655,263 695,342.5 Q735,422 766,506 Q784,558 797.5,608.5 Q811,659 818,705 L863,698"/> 
            <glyph glyph-name="X" unicode="&#x58;" horiz-adv-x="637" d=" M637,696 L636,650 Q634,650 632.5,650 Q631,650 629,650 Q627,650 625.5,650 Q624,650 622,650 Q581,650 551,637.5 Q521,625 495,589 L351,399 L351,186 Q351,161 358.5,141 Q366,121 394,121 L581,121 L561,75 L394,75 Q345,75 325.5,108 Q306,141 306,186 L306,339 L247,261 Q212,215 169.5,176 Q127,137 83,100 Q78,96 72,91 Q66,86 60,81 L30,115 Q35,120 40.5,124 Q46,128 51,133 Q94,169 135.5,206 Q177,243 210,288 Q210,288 239,326 Q268,364 306,414 L306,662 Q306,662 306,662.5 Q306,663 306,664 Q304,664 300,663 Q296,662 291,660 Q290,659 289,658.5 Q288,658 287,657 Q265,642 249,623.5 Q233,605 221,586 Q216,578 211,570 Q206,562 202,554 L163,577 Q183,611 205.5,641.5 Q228,672 261,694 Q269,700 278.5,703.5 Q288,707 298,709 Q300,709 302,709 Q304,709 306,709 Q309,709 311.5,709 Q314,709 317,708 Q320,707 322.5,706.5 Q325,706 328,704 Q330,703 332,701.5 Q334,700 336,699 Q341,694 346,685 Q351,676 351,662 L351,475 Q360,487 371,501.5 Q382,516 393,531 Q418,563 438,590 Q458,617 458,617 Q492,663 533,679.5 Q574,696 626,696 Q628,696 629,696 Q630,696 632,696 Q633,696 634.5,696 Q636,696 637,696"/> 
            <glyph glyph-name="Y" unicode="&#x59;" horiz-adv-x="723" d=" M723,-7 L452,-7 Q415,-84 337.5,-134.5 Q260,-185 175,-194 Q166,-195 157.5,-195.5 Q149,-196 140,-196 Q115,-196 95.5,-190 Q76,-184 62,-171 Q49,-160 41.5,-143.5 Q34,-127 34,-108 Q34,-103 34.5,-98 Q35,-93 36,-88 Q45,-40 93.5,-0.5 Q142,39 214,39 L421,39 Q453,148 484,257.5 Q515,367 546,476 Q540,464 533,452 Q526,440 520,428 Q507,403 493.5,379 Q480,355 465,332 Q462,327 458.5,321.5 Q455,316 452,311 Q398,223 334.5,150.5 Q271,78 197,78 Q168,78 156.5,98.5 Q145,119 145,149 Q145,163 147,178.5 Q149,194 152,210 Q155,226 159.5,242 Q164,258 168,273 Q175,296 181.5,314 Q188,332 190,339 Q197,363 206,393.5 Q215,424 224,456 Q224,458 225,460 Q226,462 226,464 Q246,534 262.5,593 Q279,652 279,651 Q280,653 280.5,656.5 Q281,660 282,663 Q282,664 282.5,665.5 Q283,667 283,668 Q284,673 285,677.5 Q286,682 286,685 Q285,685 285,685 Q285,685 285,685 Q276,685 264.5,673.5 Q253,662 241,645 Q234,635 227,623 Q220,611 213,599 Q199,574 188.5,551.5 Q178,529 173,519 L132,539 Q140,555 150.5,577 Q161,599 174,623 Q196,663 224,696.5 Q252,730 285,730 Q297,730 305,726 Q313,722 318,718 Q319,717 320,716 Q321,715 322,714 Q327,707 329,699.5 Q331,692 331,684 Q331,680 330.5,676.5 Q330,673 330,669 Q329,664 328,660 Q327,656 326,651 Q325,648 324.5,645 Q324,642 323,639 Q316,613 308.5,587 Q301,561 293,535 Q290,522 286,509 Q282,496 279,483 Q268,443 256.5,404 Q245,365 233,326 Q230,315 225,298 Q220,281 214,262 Q212,255 210.5,247.5 Q209,240 207,233 Q200,207 195.5,182.5 Q191,158 191,142 Q191,135 192,130 Q193,125 195,123 Q198,122 201,121.5 Q204,121 208,121 Q225,121 245,133 Q265,145 285,164 Q302,181 319,201.5 Q336,222 352,243 Q378,278 398,310 Q418,342 427,356 Q435,370 460.5,415.5 Q486,461 515,514 Q516,516 517.5,518 Q519,520 520,522 Q549,575 573.5,622.5 Q598,670 605,686 L648,671 Q626,592 603.5,513 Q581,434 559,355 Q536,276 514,197 Q492,118 469,39 L723,39 L723,-7 M401,-7 L214,-7 Q204,-6 194,-7.5 Q184,-9 173,-12 Q138,-22 109,-46.5 Q80,-71 80,-108 Q80,-117 83,-124.5 Q86,-132 92,-137 Q100,-144 112,-147.5 Q124,-151 140,-151 Q141,-151 142.5,-151 Q144,-151 146,-151 Q223,-149 293.5,-108 Q364,-67 401,-6"/> 
            <glyph glyph-name="Z" unicode="&#x5A;" horiz-adv-x="681" d=" M680,647 Q679,643 677.5,639.5 Q676,636 673,632 Q667,622 658.5,611.5 Q650,601 640,592 Q633,585 626.5,579.5 Q620,574 614,569 Q614,569 535,505 Q456,441 361,365 Q265,288 186,224.5 Q107,161 107,161 Q104,158 101,155 Q98,152 95,149 Q88,141 83.5,133.5 Q79,126 78,122 Q79,122 79.5,121.5 Q80,121 81,121 Q84,120 88,119.5 Q92,119 97,119 L605,119 L605,74 L97,74 Q93,74 89.5,74 Q86,74 82,75 Q67,77 53.5,83.5 Q40,90 35,106 Q34,110 33,113.5 Q32,117 33,121 Q33,123 33,125.5 Q33,128 34,131 Q37,145 46,159 Q55,173 65,183 Q69,187 72.5,190 Q76,193 79,196 L586,604 Q608,622 619,635 Q630,648 634,655 Q632,657 628.5,658.5 Q625,660 621,661 Q600,669 553,675.5 Q506,682 436,682 Q349,682 285,667 Q221,652 203,633 Q201,631 199.5,628.5 Q198,626 197,624 Q196,623 195.5,620.5 Q195,618 196,616 Q196,613 197,610 Q198,607 201,602 Q204,598 208,594.5 Q212,591 217,587 Q233,576 261,566.5 Q289,557 330,553 L326,508 Q312,509 296.5,511.5 Q281,514 265,518 Q235,526 207.5,540 Q180,554 164,577 Q157,587 153.5,597.5 Q150,608 150,618 Q150,623 151,627.5 Q152,632 153,636 Q162,669 204,687.5 Q246,706 295,715 Q343,724 384.5,725.5 Q426,727 436,727 Q456,727 485,726 Q514,725 545,722 Q586,718 623,708 Q660,698 674,680 Q678,675 679.5,669 Q681,663 681,657 Q681,655 681,652.5 Q681,650 680,647"/> 
            <glyph glyph-name="[" unicode="&#x5B;" horiz-adv-x="380" d=" M110,-165 L-40,-165 L230,772 L380,772 L364,717 L264,717 L26,-110 L126,-110 L110,-165"/> 
            <glyph glyph-name="\" unicode="&#x5C;" horiz-adv-x="272" d=" M272,0 L217,0 L10,772 L65,772 L272,0"/> 
            <glyph glyph-name="]" unicode="&#x5D;" horiz-adv-x="334" d=" M64,-165 L-86,-165 L-70,-110 L30,-110 L268,717 L168,717 L184,772 L334,772 L64,-165"/> 
            <glyph glyph-name="^" unicode="&#x5E;" horiz-adv-x="346" d=" M346,609 L276,537 L183,620 L90,537 L20,609 L183,772 L346,609"/> 
            <glyph glyph-name="_" unicode="&#x5F;" horiz-adv-x="815" d=" M815,-83 L-15,-83 L-15,-7 L815,-7 L815,-83"/> 
            <glyph glyph-name="`" unicode="&#x60;" horiz-adv-x="248" d=" M248,612 L228,593 L64,713 L104,736 L248,612"/> 
            <glyph glyph-name="a" unicode="&#x61;" horiz-adv-x="609" d=" M609,119 L596,74 L299,74 Q268,74 257,88.5 Q246,103 246,125 Q246,133 247,141 Q248,149 250,158 Q252,165 254,172.5 Q256,180 259,187 Q262,197 264.5,205.5 Q267,214 269,220 Q263,214 257,208 Q251,202 244,195 Q214,165 188.5,139.5 Q163,114 163,114 Q138,89 117.5,81.5 Q97,74 83,74 Q76,74 71.5,75 Q67,76 64,77 Q48,82 38.5,96.5 Q29,111 29,128 Q29,130 29,132.5 Q29,135 30,138 Q30,140 30.5,142.5 Q31,145 32,147 Q33,151 34,154.5 Q35,158 36,163 Q40,177 43.5,194.5 Q47,212 52,229 Q64,272 87,308 Q110,344 157,344 L350,344 L293,146 Q293,145 292.5,144 Q292,143 292,142 Q292,141 292,140 Q292,139 292,138 Q292,131 297.5,125 Q303,119 312,119 L609,119 M292,299 L144,298 Q134,298 126,294 Q118,290 115,279 L77,147 Q76,146 76,144.5 Q76,143 76,141 Q76,134 80,128 Q84,122 90,120 Q92,119 93.5,119 Q95,119 97,119 Q100,119 103,120 Q106,121 109,122 Q114,125 119,129 Q124,133 128,137 Q130,138 131,139 Q132,140 133,141 L292,299"/> 
            <glyph glyph-name="b" unicode="&#x62;" horiz-adv-x="635" d=" M635,120 L622,75 Q531,75 461.5,75 Q392,75 327,75 Q262,75 192,75 Q122,75 30,75 L166,547 L211,547 L119,226 Q129,237 143.5,250.5 Q158,264 175,279 Q191,291 207.5,303.5 Q224,316 241,326 Q261,339 281.5,346.5 Q302,354 319,354 Q323,354 327.5,353.5 Q332,353 337,351 Q346,348 354,338 Q362,328 362,308 Q362,301 360.5,291.5 Q359,282 356,271 Q354,263 351.5,255 Q349,247 347,239 Q346,233 344.5,227.5 Q343,222 342,217 Q335,190 325,164.5 Q315,139 296,120 L635,120 M310,271 Q310,272 311,274 Q312,276 312,279 Q313,281 313.5,283.5 Q314,286 315,289 Q315,291 315,292.5 Q315,294 315,296 Q315,301 313,305 Q311,309 306,309 Q290,309 262.5,293 Q235,277 205,252 Q187,238 170,222 Q153,206 138,190 Q122,171 109.5,153 Q97,135 92,120 L218,120 Q250,120 267,146.5 Q284,173 294,205 Q299,222 302,238 Q305,254 309,266 Q309,267 309.5,268.5 Q310,270 310,271"/> 
            <glyph glyph-name="c" unicode="&#x63;" horiz-adv-x="490" d=" M490,119 L477,74 L131,74 Q68,74 45.5,101.5 Q23,129 23,169 Q23,184 25.5,200 Q28,216 32,232 Q35,246 39,259.5 Q43,273 47,287 Q53,303 57.5,317.5 Q62,332 66,344 L231,344 Q253,344 260.5,333.5 Q268,323 268,308 Q268,302 267,296 Q266,290 265,284 Q264,279 262.5,273 Q261,267 259,262 Q257,254 254.5,247 Q252,240 251,235 L205,235 Q206,237 208,242.5 Q210,248 213,256 Q214,259 214.5,261.5 Q215,264 216,266 Q218,274 219.5,280.5 Q221,287 221,292 Q221,295 220.5,296.5 Q220,298 218,298 L98,298 Q96,289 92.5,279.5 Q89,270 86,259 Q84,253 82,246 Q80,239 78,232 Q74,219 72,205.5 Q70,192 70,180 Q70,154 85.5,136.5 Q101,119 144,119 L490,119"/> 
            <glyph glyph-name="d" unicode="&#x64;" horiz-adv-x="609" d=" M609,119 L596,74 L299,74 Q268,74 257,88.5 Q246,103 246,124 Q246,131 247,138.5 Q248,146 250,154 Q251,161 253.5,168.5 Q256,176 258,183 Q260,192 262.5,199.5 Q265,207 267,213 Q255,202 240,186.5 Q225,171 209,155 Q196,143 182,130.5 Q168,118 154,108 Q134,93 114.5,84 Q95,75 78,75 Q73,75 68.5,76.5 Q64,78 59,79 Q45,84 37,97.5 Q29,111 29,128 Q29,133 30,137.5 Q31,142 32,147 L71,285 Q79,309 98.5,326.5 Q118,344 144,344 L305,344 L363,546 L408,546 L293,146 Q293,145 292.5,144 Q292,143 292,142 Q292,141 292,140 Q292,139 292,138 Q292,131 297.5,125 Q303,119 312,119 L609,119 M292,298 L131,298 Q124,298 121.5,294.5 Q119,291 117,285 L77,147 Q77,146 77,145 Q77,144 77,144 Q76,143 76,142 Q76,141 76,140 Q76,134 78.5,128.5 Q81,123 86,121 Q87,121 87.5,121 Q88,121 89,121 Q89,120 89.5,120 Q90,120 91,120 Q99,120 109,126 Q119,132 130,142 L288,285 L292,298"/> 
            <glyph glyph-name="e" unicode="&#x65;" horiz-adv-x="561" d=" M561,119 L548,74 L90,74 Q60,74 43,92 Q26,110 27,136 Q27,141 28,146.5 Q29,152 30,158 Q35,175 46,190.5 Q57,206 72,217 Q66,225 62.5,234 Q59,243 59,253 Q59,255 59,257 Q59,259 60,262 Q60,264 60.5,266 Q61,268 62,270 Q71,300 100.5,321.5 Q130,343 163,344 Q164,344 165,344 Q166,344 167,344 L342,344 L329,299 L154,299 Q151,299 147,298.5 Q143,298 139,297 Q129,294 120,287 Q111,280 108,270 Q107,269 107,267.5 Q107,266 107,264 Q107,255 116,248.5 Q125,242 138,242 L247,242 L234,196 L125,196 Q109,196 94.5,184.5 Q80,173 75,158 Q74,155 73.5,152.5 Q73,150 74,148 Q74,135 82,127 Q90,119 103,119 L561,119"/> 
            <glyph glyph-name="f" unicode="&#x66;" horiz-adv-x="537" d=" M537,344 L524,298 L195,298 Q221,267 231.5,230 Q242,193 242,155 Q242,130 238,105.5 Q234,81 227,57 Q214,14 178,-14.5 Q142,-43 102,-45 Q101,-45 100,-45 Q99,-45 98,-45 Q65,-45 45.5,-25 Q26,-5 26,24 Q26,31 27,37.5 Q28,44 30,51 L100,298 L43,298 L56,344 L113,344 L171,546 L217,546 L159,344 L537,344 M182,58 Q187,72 190,86.5 Q193,101 194,116 Q195,123 195.5,130.5 Q196,138 196,145 Q196,183 183.5,218 Q171,253 141,280 L75,51 Q74,47 73.5,43.5 Q73,40 73,36 Q73,21 83,10.5 Q93,0 111,0 Q137,0 156,18 Q175,36 182,58"/> 
            <glyph glyph-name="g" unicode="&#x67;" horiz-adv-x="625" d=" M625,119 L612,74 L299,74 Q292,74 285.5,73.5 Q279,73 273,72 L238,-51 Q232,-71 214,-87 Q196,-103 173,-103 L45,-104 Q66,-30 113.5,26 Q161,82 237,107 L270,220 L163,114 Q138,89 118,81.5 Q98,74 84,74 Q77,74 72.5,75 Q68,76 65,77 Q49,82 39.5,96.5 Q30,111 30,130 Q30,134 30.5,138.5 Q31,143 32,147 Q33,151 34.5,156 Q36,161 37,166 Q41,181 44.5,197 Q48,213 52,229 Q64,272 87,308 Q110,344 158,344 L351,344 L286,118 Q292,119 298.5,119 Q305,119 312,119 L625,119 M223,57 Q185,41 153.5,10.5 Q122,-20 105,-58 L186,-59 Q187,-58 188.5,-56.5 Q190,-55 191,-54 Q191,-53 191.5,-52 Q192,-51 192,-50 L223,57 M292,298 L145,298 Q135,298 127,294 Q119,290 116,279 L78,147 Q77,146 77,144.5 Q77,143 77,141 Q77,134 81,128 Q85,122 91,120 Q93,119 94.5,119 Q96,119 97,119 Q100,119 104,120 Q108,121 111,123 Q116,126 120.5,129.5 Q125,133 129,137 Q131,138 132,139 Q133,140 134,141 L292,298"/> 
            <glyph glyph-name="h" unicode="&#x68;" horiz-adv-x="575" d=" M575,119 L562,74 L309,74 Q284,74 272,87 Q260,100 260,119 Q260,126 261.5,133 Q263,140 265,147 L302,279 Q303,281 303.5,284 Q304,287 304,291 Q304,296 302.5,301 Q301,306 296,307 Q290,309 279,302.5 Q268,296 256,282 L66,74 L27,74 L163,546 L208,546 L100,171 L224,306 Q250,335 271,343.5 Q292,352 305,352 Q310,352 314,351.5 Q318,351 321,350 Q336,346 344,333 Q352,320 352,303 Q352,297 351,291 Q350,285 348,279 L310,147 Q309,143 308,138.5 Q307,134 307,131 Q307,125 310.5,122 Q314,119 322,119 L575,119"/> 
            <glyph glyph-name="i" unicode="&#x69;" horiz-adv-x="356" d=" M356,119 L343,74 L69,74 Q45,74 31,88.5 Q17,103 17,125 Q17,128 17.5,131 Q18,134 18,137 Q19,138 19.5,140 Q20,142 20,143 L81,358 L127,358 L65,143 Q65,142 64.5,141 Q64,140 64,140 Q64,139 64,138 Q64,137 64,136 Q64,129 69,124 Q74,119 82,119 L356,119 M161,428 Q161,410 148,397 Q135,384 116,384 Q97,384 84,397 Q71,410 71,428 Q71,447 84,460 Q97,473 116,473 Q135,473 148,460 Q161,447 161,428"/> 
            <glyph glyph-name="j" unicode="&#x6A;" horiz-adv-x="600" d=" M600,119 L587,74 L283,74 Q276,74 269.5,73.5 Q263,73 257,72 L222,-51 Q216,-71 198,-87 Q180,-103 157,-103 L29,-104 Q50,-30 97.5,26 Q145,82 221,107 L270,276 L68,83 L40,110 L298,357 L339,357 L270,118 Q276,119 282.5,119 Q289,119 296,119 L600,119 M207,57 Q169,41 137.5,10.5 Q106,-20 89,-58 L170,-59 Q171,-58 172.5,-56.5 Q174,-55 175,-54 Q175,-53 175.5,-52 Q176,-51 176,-50 L207,57 M373,428 Q373,410 360,397 Q347,384 328,384 Q310,384 296.5,397 Q283,410 283,428 Q283,447 296.5,460 Q310,473 328,473 Q347,473 360,460 Q373,447 373,428"/> 
            <glyph glyph-name="k" unicode="&#x6B;" horiz-adv-x="702" d=" M215,546 L79,74 L33,74 L170,546 L215,546 M702,119 L689,74 L280,74 Q255,74 246,84.5 Q237,95 237,111 Q237,118 238.5,125.5 Q240,133 242,141 Q243,146 244.5,151 Q246,156 248,161 Q252,174 255,185 Q258,196 258,203 Q258,207 256.5,209 Q255,211 251,211 Q249,211 246,211 Q243,211 239,211 Q236,210 232,210 Q228,210 224,210 Q222,210 220,210 Q218,210 216,210 Q202,211 190,215 Q178,219 175,229 Q174,231 174,232.5 Q174,234 174,235 Q174,243 179,252 Q184,261 194,271 L293,374 L323,348 L235,257 L264,257 Q288,257 297,246.5 Q306,236 306,221 Q306,213 304,205 Q302,197 300,189 Q299,184 297.5,180 Q296,176 295,172 Q291,159 287.5,147.5 Q284,136 284,129 Q284,125 286.5,122 Q289,119 293,119 L702,119"/> 
            <glyph glyph-name="l" unicode="&#x6C;" horiz-adv-x="356" d=" M356,119 L343,74 L69,74 Q45,74 31,89 Q17,104 17,125 Q17,130 18,134.5 Q19,139 20,143 L135,547 L181,547 L65,143 Q65,142 64.5,141 Q64,140 64,140 Q64,139 64,138 Q64,137 64,136 Q64,129 69,124 Q74,119 82,119 L356,119"/> 
            <glyph glyph-name="m" unicode="&#x6D;" horiz-adv-x="738" d=" M738,119 L725,74 L500,74 Q451,74 433.5,95.5 Q416,117 416,148 Q416,160 418,173 Q420,186 423,199 Q426,209 428.5,218.5 Q431,228 434,238 Q438,249 441,259.5 Q444,270 447,280 Q448,282 448,283.5 Q448,285 448,287 Q448,293 444.5,298.5 Q441,304 434,305 Q433,305 432.5,305 Q432,305 430,305 Q423,305 416,300 Q409,295 405,288 Q404,288 403.5,287.5 Q403,287 403,286 L254,74 L209,74 L268,280 Q268,281 268.5,282 Q269,283 269,284 Q269,285 269,286 Q269,287 269,288 Q269,294 266.5,299 Q264,304 258,305 Q257,305 256,305 Q255,305 254,305 Q249,304 244,300.5 Q239,297 235,293 Q233,291 231,289 Q229,287 228,285 L67,74 L35,74 L113,344 L158,344 L119,208 L192,304 Q198,312 204,318 Q210,324 216,329 Q230,341 243.5,345.5 Q257,350 269,350 Q272,350 275,350 Q278,350 280,349 Q300,345 307.5,331 Q315,317 315,298 Q315,290 313.5,281.5 Q312,273 310,265 Q308,256 305.5,247.5 Q303,239 301,231 Q297,219 293.5,209 Q290,199 288,192 L366,303 Q374,314 382.5,322 Q391,330 399,336 Q411,343 422.5,346.5 Q434,350 444,350 Q447,350 450,350 Q453,350 456,349 Q478,345 486,330.5 Q494,316 494,297 Q494,289 493,281 Q492,273 490,265 Q488,256 485.5,247.5 Q483,239 480,231 Q477,220 473.5,210 Q470,200 468,193 Q465,182 463,172.5 Q461,163 461,155 Q461,138 473,128.5 Q485,119 513,119 L738,119"/> 
            <glyph glyph-name="n" unicode="&#x6E;" horiz-adv-x="602" d=" M602,119 L589,74 L318,74 Q269,74 251,93 Q233,112 233,140 Q233,151 235,163.5 Q237,176 240,189 Q242,197 244.5,204.5 Q247,212 250,220 Q256,240 261,257 Q266,274 266,286 Q266,294 263,298.5 Q260,303 254,304 Q253,304 252.5,304 Q252,304 252,305 Q251,305 250.5,305 Q250,305 249,305 Q243,305 237,301 Q231,297 226,292 Q225,290 223.5,288.5 Q222,287 221,285 L61,74 L29,74 L106,344 L152,344 L113,208 L186,304 Q193,313 199.5,319.5 Q206,326 213,331 Q226,342 239.5,346 Q253,350 264,350 Q268,350 271,350 Q274,350 277,349 Q298,344 306,331.5 Q314,319 314,302 Q314,287 309.5,270.5 Q305,254 300,237 Q299,235 298.5,233 Q298,231 298,229 Q291,210 286,192 Q281,174 281,159 Q281,141 292,130 Q303,119 331,119 L602,119"/> 
            <glyph glyph-name="o" unicode="&#x6F;" horiz-adv-x="545" d=" M545,119 L532,74 L128,74 Q73,74 49,106 Q25,138 26,181 Q26,195 28,209 Q30,223 34,237 Q41,261 50,283.5 Q59,306 80,322 Q94,333 111.5,338.5 Q129,344 151,344 L420,344 L407,298 L138,298 Q135,298 132,298 Q129,298 127,297 Q121,296 115.5,294.5 Q110,293 105,289 Q97,282 91,268.5 Q85,255 80,238 Q78,230 76,220 Q74,210 73,199 Q73,197 73,194.5 Q73,192 73,189 Q73,162 86,140.5 Q99,119 133,119 Q181,119 208.5,153 Q236,187 251,227 Q253,235 255.5,242.5 Q258,250 260,257 L306,257 Q294,217 278.5,183 Q263,149 228,119 L545,119"/> 
            <glyph glyph-name="p" unicode="&#x70;" horiz-adv-x="646" d=" M646,120 L633,74 L213,74 L93,74 L42,-105 L-4,-105 L129,358 L175,358 L140,238 Q149,248 161.5,259.5 Q174,271 189,283 Q205,297 223.5,310 Q242,323 261,333 Q279,343 296.5,348.5 Q314,354 330,354 Q333,354 338.5,353.5 Q344,353 350,350 Q358,347 365.5,338 Q373,329 373,310 Q373,303 371.5,294.5 Q370,286 367,276 Q365,270 363.5,264 Q362,258 361,251 Q359,243 357,234.5 Q355,226 352,217 Q345,191 335,165 Q325,139 308,120 L646,120 M322,276 Q322,277 322.5,278.5 Q323,280 324,282 Q324,284 324.5,287 Q325,290 326,293 Q326,294 326,295.5 Q326,297 326,298 Q326,303 324,306 Q322,309 317,309 Q301,309 274,294 Q247,279 217,256 Q193,236 170.5,213 Q148,190 131,166 Q123,154 117,142.5 Q111,131 107,120 L226,120 Q260,120 278,148 Q296,176 305,209 Q310,225 313.5,240.5 Q317,256 320,269 Q321,271 321.5,272.5 Q322,274 322,276"/> 
            <glyph glyph-name="q" unicode="&#x71;" horiz-adv-x="690" d=" M690,119 L677,74 L406,74 Q353,74 306,37 Q259,0 244,-51 L199,-52 L266,180 Q257,170 244.5,158.5 Q232,147 217,135 Q201,121 182.5,108.5 Q164,96 145,85 Q127,76 109.5,70 Q92,64 76,64 Q73,64 67.5,64.5 Q62,65 56,68 Q47,72 40,81 Q33,90 33,109 Q33,116 34,124.5 Q35,133 38,143 Q39,148 40.5,152.5 Q42,157 43,162 Q46,173 49,183.5 Q52,194 55,206 Q70,257 98.5,300.5 Q127,344 193,344 L358,344 L278,64 Q307,88 344,103.5 Q381,119 419,119 L690,119 M299,299 L180,299 Q146,299 128,271.5 Q110,244 100,210 Q95,193 91.5,176.5 Q88,160 85,148 Q85,146 84.5,145 Q84,144 84,143 Q84,142 83.5,140.5 Q83,139 82,137 Q82,135 81.5,132 Q81,129 80,126 Q80,125 80,123.5 Q80,122 80,121 Q80,116 82,112.5 Q84,109 89,109 Q105,109 132,124 Q159,139 189,163 Q213,182 236,206 Q259,230 275,254 Q283,266 289,277 Q295,288 299,299"/> 
            <glyph glyph-name="r" unicode="&#x72;" horiz-adv-x="601" d=" M601,119 L588,74 L304,74 Q261,74 245,96 Q229,118 229,149 Q229,160 230.5,172 Q232,184 235,196 Q238,209 241.5,222 Q245,235 249,246 Q254,262 258.5,275.5 Q263,289 266,298 L147,298 L98,128 Q91,106 71.5,90 Q52,74 29,74 L42,119 Q43,119 43.5,119 Q44,119 44,119 Q47,120 49,122.5 Q51,125 52,128 L129,395 L174,395 L160,344 L380,344 L367,298 L311,298 L276,176 Q275,172 274.5,168.5 Q274,165 274,161 Q274,144 286,131.5 Q298,119 317,119 L601,119"/> 
            <glyph glyph-name="s" unicode="&#x73;" horiz-adv-x="601" d=" M601,119 L588,74 Q481,74 374.5,74 Q268,74 161,74 L174,119 Q177,119 180,119 Q183,119 186,119 Q188,119 191,119 Q194,119 196,119 Q223,119 247,126.5 Q271,134 281,167 Q281,169 281.5,170 Q282,171 282,173 Q282,174 282,175.5 Q282,177 282,178 Q282,189 277,201 Q272,213 265,225 Q262,230 258.5,235 Q255,240 252,246 Q244,257 237,268 Q230,279 226,289 Q222,283 217.5,277 Q213,271 209,266 Q209,265 208.5,264.5 Q208,264 207,263 Q171,213 141,170.5 Q111,128 111,128 Q88,94 66,84 Q44,74 29,74 L42,119 Q49,119 55,124 Q61,129 66,135 Q68,138 70.5,141 Q73,144 74,146 L266,415 L303,398 L269,350 Q268,346 267,342.5 Q266,339 266,335 Q266,325 271,315 Q276,305 281,296 Q283,293 284.5,290.5 Q286,288 288,285 Q291,280 293.5,275.5 Q296,271 299,266 Q302,262 304,258.5 Q306,255 309,251 Q317,237 323.5,222 Q330,207 330,190 Q330,185 329,179 Q328,173 326,167 Q322,154 315,142 Q308,130 299,119 L601,119"/> 
            <glyph glyph-name="t" unicode="&#x74;" horiz-adv-x="434" d=" M434,119 L421,74 L141,74 Q98,74 82,95.5 Q66,117 66,148 Q66,159 68,171 Q70,183 72,195 Q75,208 78.5,220.5 Q82,233 86,245 Q91,260 95.5,274 Q100,288 103,298 L21,298 L34,344 L116,344 L157,487 L203,487 L162,344 L245,344 L232,298 L149,298 L114,176 Q113,172 112.5,168 Q112,164 112,160 Q112,143 123.5,131 Q135,119 154,119 L434,119"/> 
            <glyph glyph-name="u" unicode="&#x75;" horiz-adv-x="610" d=" M610,119 L597,74 L301,74 Q271,74 260,89.5 Q249,105 249,127 Q249,136 250.5,146 Q252,156 254,167 Q256,176 259,185.5 Q262,195 265,203 Q269,216 272.5,226.5 Q276,237 278,244 Q274,239 269.5,233.5 Q265,228 261,222 Q239,195 216.5,168.5 Q194,142 169,118 Q162,111 154,104.5 Q146,98 139,93 Q123,83 108,78 Q93,73 79,73 Q74,73 69,74 Q64,75 59,76 Q45,82 37,94 Q29,106 29,122 Q29,125 29,127.5 Q29,130 30,132 Q30,134 30.5,136.5 Q31,139 32,142 L90,344 L135,344 L77,142 Q77,141 76.5,140 Q76,139 76,139 Q76,138 76,137 Q76,136 76,135 Q76,130 78.5,126 Q81,122 86,120 Q88,119 89.5,119 Q91,119 93,119 Q101,119 113,125 Q125,131 141,145 Q156,160 173.5,179.5 Q191,199 208,220 Q217,231 226,242 Q235,253 243,264 Q259,285 274,305.5 Q289,326 301,344 L352,344 L295,146 Q295,145 294.5,144 Q294,143 294,142 Q294,141 294,140 Q294,139 294,138 Q294,131 299.5,125 Q305,119 314,119 L610,119"/> 
            <glyph glyph-name="v" unicode="&#x76;" horiz-adv-x="587" d=" M587,120 L574,74 L28,74 L91,294 Q91,294 90.5,295 Q90,296 90,296 Q89,297 88.5,298 Q88,299 87,299 L33,299 L46,344 L101,344 Q118,344 128,333 Q138,322 138,306 Q138,303 137.5,300 Q137,297 136,294 L87,121 Q175,130 232.5,196.5 Q290,263 313,342 L358,342 Q339,275 299.5,216.5 Q260,158 201,120 L587,120"/> 
            <glyph glyph-name="w" unicode="&#x77;" horiz-adv-x="758" d=" M758,119 L745,74 Q660,74 597,74 Q534,74 476,74 Q417,74 354,74 Q291,74 206,74 L231,161 Q191,117 143.5,95.5 Q96,74 36,74 L99,294 Q99,294 99,294.5 Q99,295 99,296 Q99,297 98.5,297.5 Q98,298 98,298 L56,298 L69,344 L114,344 Q131,344 139,332 Q147,320 147,306 Q147,303 146.5,300 Q146,297 145,294 L95,121 Q152,131 192.5,177 Q233,223 257,276 Q265,293 271.5,310 Q278,327 283,343 L328,343 L265,121 Q321,131 361.5,176.5 Q402,222 427,275 Q435,292 441,308.5 Q447,325 452,341 L497,341 Q496,336 494,330.5 Q492,325 491,320 Q472,263 438.5,209 Q405,155 356,119 L758,119"/> 
            <glyph glyph-name="x" unicode="&#x78;" horiz-adv-x="576" d=" M576,119 L563,74 L294,74 Q268,74 248,87 Q228,100 217,124 Q217,124 210.5,140.5 Q204,157 194,180 Q167,155 149,139 Q131,123 131,123 Q112,106 95.5,95.5 Q79,85 63,80 Q54,77 45,75.5 Q36,74 27,74 L40,119 Q52,119 66.5,126.5 Q81,134 97,145 Q105,151 113,158 Q121,165 129,172 Q144,186 156.5,198.5 Q169,211 177,218 L147,290 Q147,291 146.5,292 Q146,293 145,294 Q144,296 143,297 Q142,298 142,298 L48,298 L61,344 L155,344 Q169,344 178,336 Q187,328 192,316 Q192,316 200,298 Q208,280 218,255 L316,344 L374,344 Q362,333 328.5,302.5 Q295,272 256,237 Q255,236 254,235 Q253,234 252,233 Q247,229 242.5,225 Q238,221 234,217 Q245,190 253.5,170.5 Q262,151 262,151 Q269,135 280.5,127 Q292,119 307,119 L576,119"/> 
            <glyph glyph-name="y" unicode="&#x79;" horiz-adv-x="620" d=" M620,119 L607,74 L295,74 Q292,74 288.5,74 Q285,74 282,73 Q279,73 275.5,72.5 Q272,72 269,72 Q265,59 260.5,37 Q256,15 249,-8 Q239,-43 220.5,-73 Q202,-103 169,-103 L41,-104 Q62,-30 110,26 Q158,82 234,107 L270,233 Q244,199 214.5,169.5 Q185,140 152,113 Q127,91 108,84 Q89,77 76,77 Q69,77 64,78.5 Q59,80 55,81 Q43,86 36.5,98 Q30,110 30,125 Q30,130 31,135.5 Q32,141 33,147 L89,344 L134,344 L78,147 Q78,146 77.5,144.5 Q77,143 77,141 Q77,140 77,139.5 Q77,139 77,138 Q77,134 78.5,129.5 Q80,125 84,123 Q90,121 101.5,126 Q113,131 128,144 Q155,166 176.5,187 Q198,208 215,229 Q238,256 256.5,283 Q275,310 293,339 Q294,340 294.5,341.5 Q295,343 296,344 L347,344 L282,118 Q285,118 288.5,118.5 Q292,119 295,119 Q298,119 301.5,119 Q305,119 308,119 L620,119 M219,57 Q181,41 149.5,10.5 Q118,-20 101,-58 L182,-59 Q185,-58 189.5,-47 Q194,-36 198,-21 Q200,-16 201.5,-10.5 Q203,-5 205,0 Q210,19 214,35.5 Q218,52 219,57"/> 
            <glyph glyph-name="z" unicode="&#x7A;" horiz-adv-x="499" d=" M499,119 L486,74 L69,74 Q67,74 65,74 Q63,74 61,74 Q48,76 37.5,82.5 Q27,89 24,102 Q24,103 24,103.5 Q24,104 24,105 Q23,106 23,107 Q23,108 23,109 Q23,117 28.5,129.5 Q34,142 50,157 L203,298 L56,298 L69,344 L310,344 L78,129 Q73,125 73.5,122 Q74,119 79,119 Q80,119 80.5,119 Q81,119 82,119 L499,119"/> 
            <glyph glyph-name="{" unicode="&#x7B;" horiz-adv-x="338" d=" M65,-172 L48,-172 Q14,-171 0,-158 Q-14,-145 -14,-118 Q-14,-94 -5,-58 Q4,-22 18,26 L49,133 Q52,142 54.5,151.5 Q57,161 59,171 Q61,184 63,197 Q65,210 65,221 Q65,241 58,254.5 Q51,268 32,268 L51,332 Q79,332 99,361.5 Q119,391 133,427 Q136,437 139.5,447.5 Q143,458 146,467 L176,574 Q183,599 189.5,620.5 Q196,642 203,661 Q222,718 246.5,745 Q271,772 321,772 L338,772 L327,737 Q300,737 282,721 Q264,705 256,677 L216,536 Q209,513 203,491.5 Q197,470 191,451 Q171,390 149,350.5 Q127,311 90,300 Q104,296 109,281 Q114,266 114,243 Q114,209 104,163 Q94,117 80,68 Q78,59 75.5,50 Q73,41 70,32 Q67,22 64.5,12.5 Q62,3 59,-5 L39,-77 Q37,-83 36,-89 Q35,-95 35,-100 Q35,-117 45.5,-126.5 Q56,-136 76,-136 L65,-172"/> 
            <glyph glyph-name="|" unicode="&#x7C;" horiz-adv-x="95" d=" M95,-171 L45,-171 L45,772 L95,772 L95,-171"/> 
            <glyph glyph-name="}" unicode="&#x7D;" horiz-adv-x="293" d=" M227,268 Q199,268 178.5,238.5 Q158,209 145,173 Q141,163 138,152.5 Q135,142 132,133 L101,26 Q94,2 88,-18.5 Q82,-39 76,-57 Q56,-115 31.5,-143 Q7,-171 -42,-171 L-60,-172 L-50,-137 Q-22,-136 -4,-120 Q14,-104 22,-76 L42,-6 Q47,11 52,29 Q57,47 63,64 Q87,147 117.5,217.5 Q148,288 187,300 Q171,306 164,320 Q157,334 158,355 Q158,387 170,432.5 Q182,478 198,536 L239,677 Q241,684 242,690 Q243,696 243,701 Q243,718 232.5,727.5 Q222,737 202,737 L213,772 L230,772 Q265,772 279,759 Q293,746 293,719 Q292,695 282.5,659 Q273,623 259,574 L229,467 Q226,457 223.5,447 Q221,437 219,427 Q216,414 214.5,402 Q213,390 213,379 Q213,359 220,345.5 Q227,332 246,332 L227,268"/> 
            <glyph glyph-name="~" unicode="&#x7E;" horiz-adv-x="485" d=" M485,321 Q449,277 411,259.5 Q373,242 329,242 Q300,242 278,253 Q256,264 237,277 Q233,279 229.5,281 Q226,283 223,286 Q207,296 191,303.5 Q175,311 155,311 Q130,311 105.5,300.5 Q81,290 58,261 L3,309 Q37,351 75,367.5 Q113,384 156,384 Q186,384 207.5,373.5 Q229,363 249,351 Q252,348 255.5,346 Q259,344 263,341 Q278,331 294,324 Q310,317 330,317 Q349,317 367,322.5 Q385,328 403,343 Q409,348 415,354 Q421,360 427,367 L485,321"/> 
            <glyph glyph-name="" unicode="&#x131;" horiz-adv-x="356" d=" M356,119 L343,74 L69,74 Q45,74 31,88.5 Q17,103 17,125 Q17,128 17.5,131 Q18,134 18,137 Q19,138 19.5,140 Q20,142 20,143 L81,358 L127,358 L65,143 Q65,142 64.5,141 Q64,140 64,140 Q64,139 64,138 Q64,137 64,136 Q64,129 69,124 Q74,119 82,119 L356,119"/> 
            <glyph glyph-name="" unicode="&#x152;" horiz-adv-x="934" d=" M931,676 Q933,672 933.5,667 Q934,662 934,657 Q934,646 930.5,635 Q927,624 922,612 Q916,600 908,588.5 Q900,577 892,565 Q885,555 878.5,545.5 Q872,536 866,528 L828,553 Q833,560 840.5,570 Q848,580 856,592 Q858,595 860.5,598.5 Q863,602 865,606 Q875,621 882,635 Q889,649 889,658 Q889,658 889,658.5 Q889,659 889,660 Q888,661 888,661.5 Q888,662 888,662 Q886,670 881,674.5 Q876,679 868,682 Q863,684 855.5,685 Q848,686 840,686 Q821,686 794,678.5 Q767,671 735,652 Q729,648 711.5,635.5 Q694,623 674,607 Q664,598 654.5,589 Q645,580 637,571 Q625,558 617.5,545.5 Q610,533 610,522 Q610,518 611,515 Q612,512 614,509 L661,444 Q655,440 649,436.5 Q643,433 637,430 Q576,393 527.5,352 Q479,311 440,249 Q433,235 430,221.5 Q427,208 427,195 Q427,187 428.5,179.5 Q430,172 433,164 Q441,146 457.5,137 Q474,128 493,124 Q504,122 515,121 Q526,120 535,120 L838,120 L838,74 L535,74 Q527,74 519,74.5 Q511,75 503,76 Q469,80 437.5,96 Q406,112 391,146 Q389,153 387,159.5 Q385,166 384,173 Q372,159 359,147 Q346,135 333,125 Q290,90 249.5,73.5 Q209,57 180,57 Q141,57 117,69.5 Q93,82 80,97 Q78,99 76.5,100.5 Q75,102 74,104 Q59,124 51.5,150.5 Q44,177 45,210 Q45,236 49.5,265.5 Q54,295 63,327 Q64,331 65.5,335.5 Q67,340 68,344 Q110,473 205.5,581 Q301,689 412,689 L552,689 L552,644 L412,644 Q335,644 270,581 Q205,518 162,442 Q143,408 129,375 Q115,342 107,315 Q98,285 94,258 Q90,231 90,208 Q90,183 95,164 Q100,145 110,131 Q121,117 138.5,109.5 Q156,102 180,102 Q204,102 243,120.5 Q282,139 324,178 Q345,197 365.5,222 Q386,247 405,278 Q407,282 409.5,286.5 Q412,291 414,295 Q415,297 415.5,298 Q416,299 417,301 Q423,312 429,323.5 Q435,335 440,347 Q469,415 478.5,458.5 Q488,502 488,527 Q488,541 486,550 Q484,559 481,564 Q481,565 480.5,566 Q480,567 479,568 Q478,569 477.5,570 Q477,571 476,572 Q473,576 465.5,580 Q458,584 443,584 Q433,584 421.5,580.5 Q410,577 398,571 Q371,555 346,522.5 Q321,490 308,444 L307,389 Q306,391 305,387.5 Q304,384 304,378 Q304,376 304,373.5 Q304,371 304,368 Q304,365 304.5,362.5 Q305,360 305,357 Q305,353 305.5,349.5 Q306,346 306,345 Q279,345 269,365 Q259,385 259,409 Q259,410 259,410.5 Q259,411 259,412 Q259,425 260.5,436.5 Q262,448 265,457 Q285,528 333,576 Q381,624 434,629 Q436,629 438.5,629 Q441,629 443,629 Q470,629 486.5,620 Q503,611 512,601 Q513,599 514.5,597.5 Q516,596 517,594 Q525,581 529.5,564.5 Q534,548 534,527 Q534,501 527.5,468 Q521,435 507,395 Q526,411 548,426.5 Q570,442 595,458 Q591,464 586.5,469.5 Q582,475 579,481 Q573,490 569.5,499 Q566,508 566,519 Q566,523 566.5,527.5 Q567,532 568,536 Q571,552 581,569.5 Q591,587 606,605 Q626,628 653,650 Q680,672 713,691 Q748,711 780,721.5 Q812,732 840,732 Q852,732 863,730 Q874,728 884,724 Q901,718 913.5,705.5 Q926,693 931,676"/> 
            <glyph glyph-name="" unicode="&#x153;" horiz-adv-x="776" d=" M776,119 L763,74 L305,74 Q280,74 264,87 Q248,100 243,120 Q243,120 243,119.5 Q243,119 242,119 Q242,119 241.5,118.5 Q241,118 241,118 Q239,116 237.5,114.5 Q236,113 234,111 Q219,97 194,86 Q169,75 135,74 Q135,74 134.5,74 Q134,74 133,74 Q132,74 131.5,74 Q131,74 131,74 Q82,75 59,107 Q36,139 36,181 Q37,192 38.5,203 Q40,214 43,225 Q44,227 44.5,229 Q45,231 45,233 Q46,235 46.5,236.5 Q47,238 47,240 Q54,263 63,284.5 Q72,306 92,322 Q106,333 124,338.5 Q142,344 164,344 L557,344 L544,299 L420,299 Q420,298 418,298 Q416,298 414,298 Q411,298 408,298 Q405,298 401,299 Q397,299 392.5,299 Q388,299 383,299 Q380,299 376.5,299 Q373,299 369,298 Q354,297 340.5,291 Q327,285 323,270 Q322,269 322,267.5 Q322,266 322,264 Q322,255 331,248.5 Q340,242 353,242 L462,242 L449,196 L340,196 Q338,196 336.5,196 Q335,196 334,195 Q319,193 306.5,182.5 Q294,172 291,158 Q290,155 289.5,152 Q289,149 289,147 Q290,135 297.5,127 Q305,119 318,119 L776,119 M292,298 L151,298 Q147,298 143,298 Q139,298 135,297 Q129,296 124,294.5 Q119,293 115,290 Q107,283 102,269 Q97,255 92,238 Q89,227 87,215 Q85,203 85,190 Q85,162 98.5,140.5 Q112,119 146,119 Q181,119 205,140.5 Q229,162 244,188 Q259,214 266.5,235.5 Q274,257 275,257 Q275,259 275,260.5 Q275,262 276,264 Q276,265 276.5,267 Q277,269 277,270 Q279,278 283,285 Q287,292 292,298"/> 
            <glyph glyph-name="" unicode="&#x160;" horiz-adv-x="655" d=" M655,648 Q655,607 622.5,578 Q590,549 552,528 Q546,525 540.5,522 Q535,519 529,516 L509,557 Q517,561 529,567 Q541,573 554,581 Q575,595 592.5,612 Q610,629 610,649 Q610,656 607,661.5 Q604,667 598,671 Q588,679 570,683.5 Q552,688 526,688 Q509,688 489.5,685.5 Q470,683 447,678 Q397,665 360.5,643 Q324,621 303,598 Q292,585 286,573 Q280,561 279,550 Q279,550 279,549.5 Q279,549 279,548 Q279,547 279,546.5 Q279,546 279,546 Q279,540 280,534.5 Q281,529 284,523 Q293,498 317,474.5 Q341,451 367,431 Q392,412 414,398 Q436,384 447,375 Q484,347 503,312 Q522,277 521,241 Q521,225 517,209 Q513,193 504,177 Q476,128 416,101 Q356,74 273,74 L31,74 L31,119 L273,119 Q288,119 305,120.5 Q322,122 338,125 Q377,131 411.5,148.5 Q446,166 465,200 Q471,211 473.5,221.5 Q476,232 476,243 Q476,247 475.5,251 Q475,255 474,260 Q470,280 456.5,300.5 Q443,321 419,339 Q404,351 383,365 Q362,379 340,395 Q300,425 267,462.5 Q234,500 234,545 Q234,546 234,547 Q234,548 234,549 Q234,550 234,551 Q234,552 234,553 Q237,606 294,653 Q351,700 436,722 Q460,728 483,731 Q506,734 527,734 Q559,734 584.5,727.5 Q610,721 627,707 Q641,696 648,680.5 Q655,665 655,648 M601,855 L475,772 L348,855 L383,867 L475,825 L567,867 L601,855"/> 
            <glyph glyph-name="" unicode="&#x161;" horiz-adv-x="601" d=" M601,119 L588,74 Q481,74 374.5,74 Q268,74 161,74 L174,119 Q177,119 180,119 Q183,119 186,119 Q188,119 191,119 Q194,119 196,119 Q223,119 247,126.5 Q271,134 281,167 Q281,169 281.5,170 Q282,171 282,173 Q282,174 282,175.5 Q282,177 282,178 Q282,189 277,201 Q272,213 265,225 Q262,230 258.5,235 Q255,240 252,246 Q244,257 237,268 Q230,279 226,289 Q222,283 217.5,277 Q213,271 209,266 Q209,265 208.5,264.5 Q208,264 207,263 Q171,213 141,170.5 Q111,128 111,128 Q88,94 66,84 Q44,74 29,74 L42,119 Q49,119 55,124 Q61,129 66,135 Q68,138 70.5,141 Q73,144 74,146 L266,415 L303,398 L269,350 Q268,346 267,342.5 Q266,339 266,335 Q266,325 271,315 Q276,305 281,296 Q283,293 284.5,290.5 Q286,288 288,285 Q291,280 293.5,275.5 Q296,271 299,266 Q302,262 304,258.5 Q306,255 309,251 Q317,237 323.5,222 Q330,207 330,190 Q330,185 329,179 Q328,173 326,167 Q322,154 315,142 Q308,130 299,119 L601,119 M405,527 L279,444 L152,527 L187,539 L279,497 L371,539 L405,527"/> 
            <glyph glyph-name="" unicode="&#x178;" horiz-adv-x="723" d=" M723,-7 L452,-7 Q415,-84 337.5,-134.5 Q260,-185 175,-194 Q166,-195 157.5,-195.5 Q149,-196 140,-196 Q115,-196 95.5,-190 Q76,-184 62,-171 Q49,-160 41.5,-143.5 Q34,-127 34,-108 Q34,-103 34.5,-98 Q35,-93 36,-88 Q45,-40 93.5,-0.5 Q142,39 214,39 L421,39 Q453,148 484,257.5 Q515,367 546,476 Q540,464 533,452 Q526,440 520,428 Q507,403 493.5,379 Q480,355 465,332 Q462,327 458.5,321.5 Q455,316 452,311 Q398,223 334.5,150.5 Q271,78 197,78 Q168,78 156.5,98.5 Q145,119 145,149 Q145,163 147,178.5 Q149,194 152,210 Q155,226 159.5,242 Q164,258 168,273 Q175,296 181.5,314 Q188,332 190,339 Q197,363 206,393.5 Q215,424 224,456 Q224,458 225,460 Q226,462 226,464 Q246,534 262.5,593 Q279,652 279,651 Q280,653 280.5,656.5 Q281,660 282,663 Q282,664 282.5,665.5 Q283,667 283,668 Q284,673 285,677.5 Q286,682 286,685 Q285,685 285,685 Q285,685 285,685 Q276,685 264.5,673.5 Q253,662 241,645 Q234,635 227,623 Q220,611 213,599 Q199,574 188.5,551.5 Q178,529 173,519 L132,539 Q140,555 150.5,577 Q161,599 174,623 Q196,663 224,696.5 Q252,730 285,730 Q297,730 305,726 Q313,722 318,718 Q319,717 320,716 Q321,715 322,714 Q327,707 329,699.5 Q331,692 331,684 Q331,680 330.5,676.5 Q330,673 330,669 Q329,664 328,660 Q327,656 326,651 Q325,648 324.5,645 Q324,642 323,639 Q316,613 308.5,587 Q301,561 293,535 Q290,522 286,509 Q282,496 279,483 Q268,443 256.5,404 Q245,365 233,326 Q230,315 225,298 Q220,281 214,262 Q212,255 210.5,247.5 Q209,240 207,233 Q200,207 195.5,182.5 Q191,158 191,142 Q191,135 192,130 Q193,125 195,123 Q198,122 201,121.5 Q204,121 208,121 Q225,121 245,133 Q265,145 285,164 Q302,181 319,201.5 Q336,222 352,243 Q378,278 398,310 Q418,342 427,356 Q435,370 460.5,415.5 Q486,461 515,514 Q516,516 517.5,518 Q519,520 520,522 Q549,575 573.5,622.5 Q598,670 605,686 L648,671 Q626,592 603.5,513 Q581,434 559,355 Q536,276 514,197 Q492,118 469,39 L723,39 L723,-7 M401,-7 L214,-7 Q204,-6 194,-7.5 Q184,-9 173,-12 Q138,-22 109,-46.5 Q80,-71 80,-108 Q80,-117 83,-124.5 Q86,-132 92,-137 Q100,-144 112,-147.5 Q124,-151 140,-151 Q141,-151 142.5,-151 Q144,-151 146,-151 Q223,-149 293.5,-108 Q364,-67 401,-6 M460,798 L440,728 L384,728 L404,798 L460,798 M564,798 L544,728 L488,728 L508,798 L564,798"/> 
            <glyph glyph-name="" unicode="&#x192;" horiz-adv-x="431" d=" M431,695 Q385,694 355.5,672 Q326,650 316,616 L269,434 L332,434 L332,367 L251,367 L185,116 Q170,60 122,24 Q74,-12 5,-15 L5,55 Q49,56 79,79 Q109,102 116,134 L179,367 L108,367 L108,434 L195,434 L248,635 Q263,692 312,727.5 Q361,763 431,766 L431,695"/> 
            <glyph glyph-name="" unicode="&#x2C6;" horiz-adv-x="325" d=" M325,671 Q311,654 294,642 Q277,630 260,623 Q250,620 240.5,618 Q231,616 222,616 Q202,616 190,619.5 Q178,623 168,627 Q167,627 166.5,627 Q166,627 165,628 Q156,631 145.5,634 Q135,637 119,637 Q101,637 85,632 Q69,627 61,618 L22,623 Q44,650 69.5,663.5 Q95,677 126,677 Q146,677 157.5,673.5 Q169,670 178,666 Q179,666 179.5,665.5 Q180,665 181,665 Q190,661 199.5,658 Q209,655 224,655 Q243,655 259.5,661 Q276,667 285,676 L325,671"/> 
            <glyph glyph-name="" unicode="&#x2C7;" horiz-adv-x="307" d=" M307,688 L181,605 L54,688 L89,700 L181,658 L273,700 L307,688"/> 
            <glyph glyph-name="" unicode="&#x2C9;" horiz-adv-x="276" d=" M276,622 L68,622 L68,747 L276,747 L276,622"/> 
            <glyph glyph-name="" unicode="&#x2DC;" horiz-adv-x="299" d=" M299,621 L265,609 L173,651 L81,609 L46,621 L173,704 L299,621"/> 
            <glyph glyph-name="" unicode="&#x2013;" horiz-adv-x="400" d=" M400,257 L-5,257 L-5,313 L400,313 L400,257"/> 
            <glyph glyph-name="" unicode="&#x2014;" horiz-adv-x="785" d=" M785,257 L5,257 L5,313 L785,313 L785,257"/> 
            <glyph glyph-name="" unicode="&#x2018;" horiz-adv-x="104" d=" M16,626 L69,740 L104,728 Q101,719 96,701 Q91,683 86,663 Q85,660 84,656.5 Q83,653 82,650 Q76,629 70.5,612.5 Q65,596 61,592 Q57,588 51.5,586 Q46,584 40,584 Q34,584 28.5,586.5 Q23,589 19,593 Q17,596 15,599 Q13,602 12,605 Q11,606 11,608 Q11,610 11,611 Q12,615 13,618.5 Q14,622 16,626"/> 
            <glyph glyph-name="" unicode="&#x2019;" horiz-adv-x="105" d=" M100,695 L47,582 L12,594 Q15,603 19.5,621 Q24,639 30,658 Q31,663 32.5,667.5 Q34,672 35,677 Q41,696 46,711 Q51,726 55,729 Q60,733 65,735 Q70,737 76,737 Q82,737 87.5,735 Q93,733 97,729 Q99,727 100.5,724.5 Q102,722 103,720 Q104,717 104.5,714.5 Q105,712 105,710 Q104,706 103,702.5 Q102,699 100,695"/> 
            <glyph glyph-name="" unicode="&#x201A;" horiz-adv-x="101" d=" M101,97 Q101,96 101,95 Q101,94 101,93 Q101,92 100.5,91 Q100,90 100,89 Q100,88 100,87 Q100,86 99,85 L79,14 L32,14 L46,62 Q36,67 30,76.5 Q24,86 24,97 Q24,114 35.5,125 Q47,136 63,136 Q79,136 90,125 Q101,114 101,97"/> 
            <glyph glyph-name="" unicode="&#x201C;" horiz-adv-x="179" d=" M16,626 L69,740 L104,728 Q101,719 96,701 Q91,683 86,663 Q85,660 84,656.5 Q83,653 82,650 Q76,629 70.5,612.5 Q65,596 61,592 Q57,588 51.5,586 Q46,584 40,584 Q34,584 28.5,586.5 Q23,589 19,593 Q17,596 15,599 Q13,602 12,605 Q11,606 11,608 Q11,610 11,611 Q12,615 13,618.5 Q14,622 16,626 M91,626 L144,740 L179,728 Q176,719 171,701 Q166,683 161,663 Q160,660 159,656.5 Q158,653 157,650 Q151,629 145.5,612.5 Q140,596 136,592 Q132,588 126.5,586 Q121,584 115,584 Q109,584 103.5,586.5 Q98,589 94,593 Q92,596 90,599 Q88,602 87,605 Q86,606 86,608 Q86,610 86,611 Q87,615 88,618.5 Q89,622 91,626"/> 
            <glyph glyph-name="" unicode="&#x201D;" horiz-adv-x="180" d=" M100,675 L47,562 L12,574 Q15,583 19.5,601 Q24,619 30,638 Q31,643 32.5,647.5 Q34,652 35,657 Q41,676 46,691 Q51,706 55,709 Q60,713 65,715 Q70,717 76,717 Q82,717 87.5,715 Q93,713 97,709 Q99,707 100.5,704.5 Q102,702 103,700 Q104,697 104.5,694.5 Q105,692 105,690 Q104,686 103,682.5 Q102,679 100,675 M175,675 L122,562 L87,574 Q90,583 94.5,601 Q99,619 105,638 Q106,643 107.5,647.5 Q109,652 110,657 Q116,676 121,691 Q126,706 130,709 Q135,713 140,715 Q145,717 151,717 Q157,717 162.5,715 Q168,713 172,709 Q174,707 175.5,704.5 Q177,702 178,700 Q179,697 179.5,694.5 Q180,692 180,690 Q179,686 178,682.5 Q177,679 175,675"/> 
            <glyph glyph-name="" unicode="&#x201E;" horiz-adv-x="231" d=" M111,97 Q111,96 111,95 Q111,94 111,93 Q111,92 110.5,91 Q110,90 110,89 Q110,88 110,87 Q110,86 109,85 L89,14 L42,14 L56,62 Q46,67 40,76.5 Q34,86 34,97 Q34,114 45.5,125 Q57,136 73,136 Q89,136 100,125 Q111,114 111,97 M231,97 Q231,96 231,95 Q231,94 231,93 Q231,92 230.5,91 Q230,90 230,89 Q230,88 230,87 Q230,86 229,85 L209,14 L162,14 L176,62 Q166,67 160,76.5 Q154,86 154,97 Q154,114 165.5,125 Q177,136 193,136 Q209,136 220,125 Q231,114 231,97"/> 
            <glyph glyph-name="" unicode="&#x2020;" horiz-adv-x="276" d=" M276,541 L203,470 L170,501 L170,29 L134,-27 L95,30 L95,501 L64,470 L-11,541 L63,614 L95,580 L95,731 L134,773 L170,730 L170,580 L203,614 L276,541"/> 
            <glyph glyph-name="" unicode="&#x2021;" horiz-adv-x="280" d=" M170,214 L170,29 L134,-27 L95,30 L95,205 L69,178 L-6,252 L68,323 L95,294 L95,501 L64,469 L-10,542 L63,615 L95,581 L95,731 L134,773 L170,730 L170,582 L204,615 L275,543 L204,469 L170,502 L170,287 L206,323 L280,252 L207,179 L170,214"/> 
            <glyph glyph-name="" unicode="&#x2022;" horiz-adv-x="331" d=" M177,440 Q241,440 286,395 Q331,350 331,286 Q331,222 286,177 Q241,132 177,132 Q113,132 68,177 Q23,222 23,286 Q23,350 68,395 Q113,440 177,440"/> 
            <glyph glyph-name="" unicode="&#x2026;" horiz-adv-x="329" d=" M89,97 Q89,81 77.5,70 Q66,59 50,59 Q34,59 22.5,70 Q11,81 11,97 Q11,114 22.5,125 Q34,136 50,136 Q66,136 77.5,125 Q89,114 89,97 M209,97 Q209,81 197.5,70 Q186,59 170,59 Q154,59 142.5,70 Q131,81 131,97 Q131,114 142.5,125 Q154,136 170,136 Q186,136 197.5,125 Q209,114 209,97 M329,97 Q329,81 317.5,70 Q306,59 290,59 Q274,59 262.5,70 Q251,81 251,97 Q251,114 262.5,125 Q274,136 290,136 Q306,136 317.5,125 Q329,114 329,97"/> 
            <glyph glyph-name="" unicode="&#x2030;" horiz-adv-x="475" d=" M305,155 Q305,122 281,97.5 Q257,73 223,73 Q189,73 165,97 Q141,121 141,155 Q141,189 165,213 Q189,237 223,237 Q256,237 280.5,212.5 Q305,188 305,155 M258,155 Q258,169 247.5,179.5 Q237,190 223,190 Q209,190 198.5,180 Q188,170 188,155 Q188,141 198.5,130.5 Q209,120 223,120 Q237,120 247.5,130.5 Q258,141 258,155 M475,155 Q475,122 451,97.5 Q427,73 393,73 Q359,73 335.5,97 Q312,121 312,155 Q312,189 335.5,213 Q359,237 393,237 Q427,237 451,212.5 Q475,188 475,155 M428,155 Q428,169 417.5,179.5 Q407,190 393,190 Q379,190 368.5,180 Q358,170 358,155 Q358,141 368.5,130.5 Q379,120 393,120 Q407,120 417.5,130.5 Q428,141 428,155 M275,595 L94,74 L42,74 L223,595 L275,595 M167,501 Q167,467 142.5,443 Q118,419 85,419 Q51,419 27,443 Q3,467 3,501 Q3,534 27,558.5 Q51,583 85,583 Q118,583 142.5,558.5 Q167,534 167,501 M119,501 Q119,515 109,525.5 Q99,536 85,536 Q71,536 60.5,525.5 Q50,515 50,501 Q50,486 60.5,476 Q71,466 85,466 Q99,466 109,476 Q119,486 119,501"/> 
            <glyph glyph-name="" unicode="&#x2039;" horiz-adv-x="158" d=" M158,197 L-15,374 L158,544 L158,443 L86,372 L158,299 L158,197"/> 
            <glyph glyph-name="" unicode="&#x203A;" horiz-adv-x="170" d=" M170,374 L-4,198 L-4,299 L68,372 L-4,443 L-4,544 L170,374"/> 
            <glyph glyph-name="" unicode="&#x2122;" horiz-adv-x="310" d=" M124,724 L83,724 L83,494 L52,494 L52,724 L10,724 L10,755 L124,755 L124,724 M310,494 L279,494 L279,723 Q265,721 254,712.5 Q243,704 243,687 L243,567 L213,567 L213,687 Q213,704 202.5,712.5 Q192,721 178,723 L178,494 L145,494 L145,754 Q175,754 194.5,750.5 Q214,747 228,730 Q242,747 262,750.5 Q282,754 310,755 L310,494"/> 
            <glyph glyph-name="" unicode="&#x2212;" horiz-adv-x="400" d=" M400,287 L-5,287 L-5,363 L400,363 L400,287"/> 
            <glyph glyph-name="" unicode="&#x2219;" horiz-adv-x="153" d=" M153,382 Q153,379 152,375 Q151,371 149,367 Q144,356 134,346 Q124,336 113,335 Q112,335 111.5,335 Q111,335 110,335 L101,335 Q98,335 94,336 Q90,337 87,339 Q79,343 72.5,350 Q66,357 62,364 Q60,367 59,370.5 Q58,374 58,377 L58,386 Q58,398 68,409 Q78,420 90,426 Q94,427 98,428 Q102,429 105,429 Q124,429 138.5,415 Q153,401 153,382"/> 
            <glyph glyph-name=" " unicode="&#x20;" horiz-adv-x="180" d=" M100,725 L47,612 L12,624 Q15,633 19.5,651 Q24,669 30,688 Q31,693 32.5,697.5 Q34,702 35,707 Q41,726 46,741 Q51,756 55,759 Q60,763 65,765 Q70,767 76,767 Q82,767 87.5,765 Q93,763 97,759 Q99,757 100.5,754.5 Q102,752 103,750 Q104,747 104.5,744.5 Q105,742 105,740 Q104,736 103,732.5 Q102,729 100,725 M175,725 L122,612 L87,624 Q90,633 94.5,651 Q99,669 105,688 Q106,693 107.5,697.5 Q109,702 110,707 Q116,726 121,741 Q126,756 130,759 Q135,763 140,765 Q145,767 151,767 Q157,767 162.5,765 Q168,763 172,759 Q174,757 175.5,754.5 Q177,752 178,750 Q179,747 179.5,744.5 Q180,742 180,740 Q179,736 178,732.5 Q177,729 175,725"/> 
            <glyph glyph-name="!" unicode="&#x21;" horiz-adv-x="333" d=" M333,386 L316,335 L234,335 L225,306 L310,306 L295,256 L211,256 L151,47 L101,47 L160,256 L135,256 L76,47 L25,47 L84,256 L2,256 L17,306 L98,306 L107,335 L25,335 L39,386 L121,386 L173,569 L223,569 L172,386 L197,386 L249,569 L299,569 L247,386 L333,386 M183,335 L157,335 L149,306 L174,306 L183,335"/> 
            <glyph glyph-name="&quot;" unicode="&#x22;" horiz-adv-x="415" d=" M408,746 L339,507 Q377,506 396,491 Q415,476 415,453 Q415,443 411.5,432.5 Q408,422 400,411 Q390,396 372,381 Q354,366 328,353 L308,394 Q373,426 366.5,441.5 Q360,457 325,457 L278,293 Q304,274 321,249.5 Q338,225 338,197 Q338,183 332.5,168 Q327,153 315,138 Q297,118 272.5,106 Q248,94 219,89 L144,-174 L98,-174 L172,83 Q168,83 163.5,82.5 Q159,82 155,82 Q126,81 98,81 Q70,81 46,81 Q39,81 32.5,81 Q26,81 20,81 L20,127 Q23,127 29.5,127 Q36,127 44,127 Q53,126 63.5,126 Q74,126 86,126 Q101,126 117.5,126.5 Q134,127 151,128 Q160,128 168.5,129 Q177,130 185,131 L227,275 Q225,276 223,277.5 Q221,279 219,280 Q191,298 167.5,320.5 Q144,343 144,382 Q144,386 144,389.5 Q144,393 145,397 L147,406 Q162,442 194.5,463.5 Q227,485 263,496 Q267,497 271,498 Q275,499 279,500 Q281,500 282.5,500.5 Q284,501 286,502 Q287,502 289,502.5 Q291,503 292,503 L362,746 L408,746 M291,196 Q291,213 283.5,225.5 Q276,238 265,248 L234,140 Q258,148 274,161.5 Q290,175 291,196 M277,450 Q246,443 220,427 Q194,411 189,387 Q189,386 189,385.5 Q189,385 189,384 Q189,380 190.5,375 Q192,370 194,366 Q200,355 209.5,345 Q219,335 230,327 Q232,325 234.5,323.5 Q237,322 239,320 L277,450"/> 
            <glyph glyph-name="#" unicode="&#x23;" horiz-adv-x="338" d=" M289,582 L107,67 L56,67 L237,582 L289,582 M338,148 Q338,115 314,91 Q290,67 257,67 Q223,67 199,90.5 Q175,114 175,148 Q175,182 199,206.5 Q223,231 257,231 Q290,231 314,206.5 Q338,182 338,148 M291,148 Q291,162 281,172.5 Q271,183 257,183 Q242,183 232,173 Q222,163 222,148 Q222,134 232,124 Q242,114 257,114 Q271,114 281,124 Q291,134 291,148 M167,501 Q167,467 142.5,443 Q118,419 85,419 Q51,419 27,443 Q3,467 3,501 Q3,534 27,558.5 Q51,583 85,583 Q118,583 142.5,558.5 Q167,534 167,501 M119,501 Q119,515 109,525.5 Q99,536 85,536 Q71,536 60.5,525.5 Q50,515 50,501 Q50,486 60.5,476 Q71,466 85,466 Q99,466 109,476 Q119,486 119,501"/> 
            <glyph glyph-name="$" unicode="&#x24;" horiz-adv-x="420" d=" M417,542 Q419,538 419.5,534.5 Q420,531 420,526 Q420,515 414.5,503 Q409,491 400,478 Q391,465 378.5,452 Q366,439 354,427 Q336,410 319.5,396.5 Q303,383 294,375 L263,409 L353,492 Q367,504 371,512.5 Q375,521 375,524 Q375,525 375,525 Q375,525 375,525 Q375,525 374.5,525.5 Q374,526 373,526 Q371,527 368,527.5 Q365,528 360,528 L284,528 Q282,528 280,528 Q278,528 276,528 Q238,526 205,503.5 Q172,481 161,444 Q160,438 159,432.5 Q158,427 158,422 Q158,415 159.5,409 Q161,403 163,398 L193,334 Q195,330 196,326 Q197,322 197,317 Q197,316 197,314.5 Q197,313 196,311 Q195,303 190.5,295 Q186,287 178,282 L163,270 Q111,230 88.5,198 Q66,166 66,147 Q66,145 66,143 Q66,141 67,139 Q70,130 84,124.5 Q98,119 120,119 Q133,119 147,121.5 Q161,124 174,128 Q202,137 229,153.5 Q256,170 279,192 L232,265 L270,290 L311,226 Q330,249 344.5,275.5 Q359,302 367,330 L411,317 Q401,281 381.5,248 Q362,215 337,186 L409,73 L371,48 L304,153 Q267,120 219,97 Q171,74 120,74 Q83,74 62.5,84 Q42,94 33,106 Q30,111 27.5,115.5 Q25,120 24,124 Q22,129 21,135 Q20,141 20,148 Q21,182 50.5,222.5 Q80,263 135,306 Q135,306 137.5,308 Q140,310 143,312 Q143,312 143,312 Q143,312 144,312 Q146,314 148,315 Q150,316 151,317 Q149,321 145,329 Q141,337 137,346 Q137,346 137,346.5 Q137,347 137,347 Q131,359 126.5,369 Q122,379 122,379 Q118,389 115.5,399.5 Q113,410 113,421 Q113,429 114.5,438 Q116,447 118,456 Q132,507 179,540 Q226,573 284,573 L360,573 Q378,573 394,566 Q410,559 417,542"/> 
            <glyph glyph-name="%" unicode="&#x25;" horiz-adv-x="125" d=" M120,713 L67,601 L33,613 Q36,622 40.5,640 Q45,658 51,678 Q52,681 53,685 Q54,689 55,692 Q61,712 66.5,728 Q72,744 75,748 Q80,752 85.5,753.5 Q91,755 97,755 Q103,755 108,753 Q113,751 117,748 Q119,745 120.5,742.5 Q122,740 123,738 Q124,736 124.5,733.5 Q125,731 125,728 Q124,724 123,720.5 Q122,717 120,713"/> 
            </font>
</defs>
</svg>
