<?xml version="1.0" standalone="no"?>
<!DOCTYPE svg PUBLIC "-//W3C//DTD SVG 1.1//EN" "http://www.w3.org/Graphics/SVG/1.1/DTD/svg11.dtd" >
<svg xmlns="http://www.w3.org/2000/svg">
    <defs>
        <font id="Odin-Bold">
            <font-face font-family="Odin-Bold"
                       units-per-em="1000"
                       ascent="937"
                       descent="-233"
                       bbox="-15 -1044 3336 937"
                    />
            <missing-glyph horiz-adv-x="0" />
            
            <glyph glyph-name="!" unicode="&#x21;" horiz-adv-x="157" d=" M74,700 Q122,700 139.5,683 Q157,666 157,642 L157,233 Q157,209 139.5,192 Q122,175 98,175 Q74,175 57,192 Q40,209 40,233 L40,642 Q40,666 74,700 M74,117 Q122,117 139.5,100 Q157,83 157,58 Q157,34 139.5,17 Q122,0 98,0 Q74,0 57,17 Q40,34 40,58 Q40,83 74,117"/> 
            <glyph glyph-name="&quot;" unicode="&#x22;" horiz-adv-x="344" d=" M98,496 Q89,496 80,499 Q40,512 40,554 Q40,564 43,573 L72,660 Q78,678 93.5,689 Q109,700 127,700 Q137,700 146,697 Q164,691 175,675.5 Q186,660 186,642 Q186,633 154,536 Q148,518 132.5,507 Q117,496 98,496 M256,497 Q247,497 238,500 Q198,513 198,555 Q198,565 201,574 L230,661 Q236,679 251.5,690 Q267,701 285,701 Q295,701 304,698 Q322,692 333,676.5 Q344,661 344,643 Q344,634 312,537 Q306,519 290.5,508 Q275,497 256,497"/> 
            <glyph glyph-name="#" unicode="&#x23;" horiz-adv-x="652" d=" M594,408 L530,408 L512,292 L565,292 Q589,292 606,274.5 Q623,257 623,233 Q623,209 606,192 Q589,175 565,175 L494,175 L475,50 Q471,29 454,14.5 Q437,0 418,0 Q393,0 376,17.5 Q359,35 359,59 Q359,60 360,69 Q366,108 376,175 L263,175 L243,50 Q239,28 223,14 Q207,0 186,0 Q161,0 144,17.5 Q127,35 127,59 Q127,60 129,70 Q135,110 145,175 L98,175 Q74,175 57,192 Q40,209 40,233 Q40,257 57,274.5 Q74,292 98,292 L162,292 L180,408 L127,408 Q103,408 86,425 Q69,442 69,467 Q69,491 86,508 Q103,525 127,525 L198,525 L217,650 Q221,672 237.5,686 Q254,700 275,700 Q276,700 279,699.5 Q282,699 284,699 Q305,695 319.5,679 Q334,663 334,642 Q334,641 332,626 Q325,583 316,525 L430,525 L449,650 Q453,672 469,686 Q485,700 506,700 Q508,700 511,699.5 Q514,699 515,699 Q537,695 551,679 Q565,663 565,642 Q565,641 563,628 Q561,617 560,608.5 Q559,600 555.5,576.5 Q552,553 548,525 L594,525 Q618,525 635,508 Q652,491 652,467 Q652,442 635,425 Q618,408 594,408 M280,292 L394,292 L412,408 L298,408"/> 
            <glyph glyph-name="$" unicode="&#x24;" horiz-adv-x="515" d=" M386,401 Q451,367 483,329.5 Q515,292 515,228 Q515,127 445.5,63.5 Q376,0 272,0 Q186,0 113,60 Q40,120 40,205 Q40,228 56.5,245 Q73,262 97,262 Q119,262 135.5,248 Q152,234 156,212 Q161,179 184.5,154 Q208,129 242,121 L242,328 Q92,382 92,519 Q92,595 152,647.5 Q212,700 301,700 Q349,700 397.5,675.5 Q446,651 446,612 Q446,587 428.5,571 Q411,555 388,555 Q374,555 349,567.5 Q324,580 313,582 L313,430 Q357,416 386,401 M209,519 Q209,473 242,454 L242,569 Q209,552 209,519 M313,304 L313,122 Q353,132 371,160 Q389,188 389,219 Q389,272 313,304"/> 
            <glyph glyph-name="%" unicode="&#x25;" horiz-adv-x="824" d=" M214,0 Q196,0 179,12 Q156,29 156,58 Q156,76 168,93 L603,674 Q620,697 649,697 Q669,697 684,685 Q707,668 707,639 Q707,619 696,604 L261,23 Q243,0 214,0 M286,352 Q142,352 91,403 Q40,454 40,526 Q40,598 91,649 Q142,700 214,700 Q286,700 337,649 Q388,598 388,526 Q388,454 286,352 M238,584 Q190,584 173,567 Q156,550 156,526 Q156,502 173,485 Q190,468 214,468 Q238,468 255,485 Q272,502 272,526 Q272,550 238,584 M722,3 Q578,3 526.5,54 Q475,105 475,177 Q475,249 526.5,300.5 Q578,352 650,352 Q722,352 773,300.5 Q824,249 824,177 Q824,105 722,3 M674,235 Q626,235 609,218 Q592,201 592,177 Q592,153 609,136 Q626,119 650,119 Q674,119 691,136 Q708,153 708,177 Q708,201 674,235"/> 
            <glyph glyph-name="&amp;" unicode="&#x26;" horiz-adv-x="590" d=" M507,170 L567,95 Q580,79 580,59 Q580,30 558,13 Q542,0 521,0 Q492,0 476,22 L428,82 Q411,62 401,52 Q340,0 260,0 Q169,0 104.5,65.5 Q40,131 40,224 Q40,287 72,340 Q104,393 158,422 Q133,466 133,515 Q133,592 187,646 Q241,700 317,700 Q394,700 448,646 Q502,592 502,515 L502,501 Q498,445 461.5,400.5 Q425,356 371,339 L433,262 L489,325 Q505,344 532,344 Q554,344 571,329 Q590,313 590,286 Q590,262 576,247 M317,583 Q289,583 269,563 Q249,543 249,515 Q249,491 264,473 L285,447 L316,447 Q344,447 364.5,467 Q385,487 385,515 L385,524 Q381,550 362,566.5 Q343,583 317,583 M322,139 L354,174 L232,327 Q199,317 178,288.5 Q157,260 157,224 Q157,180 187,148.5 Q217,117 260,117 Q296,117 322,139"/> 
            <glyph glyph-name="'" unicode="&#x27;" horiz-adv-x="186" d=" M98,497 Q89,497 80,500 Q40,513 40,555 Q40,565 43,574 L72,661 Q78,679 93.5,690 Q109,701 127,701 Q137,701 146,698 Q164,692 175,676.5 Q186,661 186,643 Q186,634 154,537 Q148,519 132.5,508 Q117,497 98,497"/> 
            <glyph glyph-name="(" unicode="&#x28;" horiz-adv-x="244" d=" M186,700 Q205,700 219,689 Q244,673 244,642 Q244,622 234,608 Q229,603 213,574 Q197,545 177,480 Q157,415 157,350 Q157,285 177,220 Q197,155 213,126 Q229,97 234,92 Q244,78 244,58 Q244,27 219,11 Q203,0 186,0 Q155,0 138,25 Q132,35 126,44.5 Q120,54 102.5,89 Q85,124 73,158.5 Q61,193 50.5,246 Q40,299 40,350 Q40,401 50.5,454 Q61,507 73,541.5 Q85,576 102.5,611 Q120,646 126,655.5 Q132,665 138,675 Q155,700 186,700"/> 
            <glyph glyph-name=")" unicode="&#x29;" horiz-adv-x="244" d=" M98,0 Q79,0 65,11 Q40,28 40,58 Q40,76 51,92 Q51,96 70.5,133 Q90,170 109,230 Q128,290 128,350 Q128,415 107.5,480 Q87,545 71,574 Q55,603 50,608 Q40,622 40,642 Q40,673 65,689 Q81,700 98,700 Q129,700 146,675 Q152,665 158,655.5 Q164,646 181.5,611 Q199,576 211,541.5 Q223,507 233.5,454 Q244,401 244,350 Q244,299 233.5,246 Q223,193 211,158.5 Q199,124 181.5,89 Q164,54 158,44.5 Q152,35 146,25 Q129,0 98,0"/> 
            <glyph glyph-name="*" unicode="&#x2A;" horiz-adv-x="280" d=" M242,580 L263,559 Q280,540 280,518 Q280,494 263,477 Q247,460 222,460 Q197,460 181,477 L160,497 L139,477 Q123,460 98,460 Q73,460 57,477 Q40,493 40,518 Q40,542 57,559 L78,580 L57,600 Q40,616 40,641 Q40,666 57,683 Q74,700 98,700 Q122,700 139,683 L160,662 L181,683 Q198,700 222,700 Q244,700 263,683 Q280,664 280,641 Q280,617 263,600"/> 
            <glyph glyph-name="+" unicode="&#x2B;" horiz-adv-x="507" d=" M332,408 L448,408 Q472,408 489.5,391 Q507,374 507,350 Q507,326 489.5,309 Q472,292 448,292 L332,292 L332,175 Q332,151 314.5,134 Q297,117 273,117 Q249,117 232,134 Q215,151 215,175 L215,292 L98,292 Q74,292 57,309 Q40,326 40,350 Q40,374 57,391 Q74,408 98,408 L215,408 L215,525 Q215,549 232,566 Q249,583 273,583 Q297,583 314.5,566 Q332,549 332,525"/> 
            <glyph glyph-name="," unicode="&#x2C;" horiz-adv-x="186" d=" M98,-87 Q89,-87 80,-84 Q40,-71 40,-29 Q40,-19 43,-10 L72,77 Q78,95 93.5,106 Q109,117 127,117 Q137,117 146,114 Q164,108 175,92.5 Q186,77 186,59 Q186,50 154,-47 Q148,-65 132.5,-76 Q117,-87 98,-87"/> 
            <glyph glyph-name="-" unicode="&#x2D;" horiz-adv-x="536" d=" M98,408 L477,408 Q502,408 519,391 Q536,374 536,350 Q536,326 519,309 Q502,292 477,292 L98,292 Q74,292 57,309 Q40,326 40,350 Q40,374 57,391 Q74,408 98,408"/> 
            <glyph glyph-name="." unicode="&#x2E;" horiz-adv-x="157" d=" M74,117 Q122,117 139.5,100 Q157,83 157,58 Q157,34 139.5,17 Q122,0 98,0 Q74,0 57,17 Q40,34 40,58 Q40,83 74,117"/> 
            <glyph glyph-name="/" unicode="&#x2F;" horiz-adv-x="273" d=" M226,699 Q247,695 260,678.5 Q273,662 273,641 Q273,634 272,630 L155,47 Q151,26 135,13 Q119,0 98,0 Q91,0 87,1 Q66,5 53,21.5 Q40,38 40,59 Q40,66 41,70 L158,653 Q162,674 178,687 Q194,700 215,700 Q222,700 226,699"/> 
            <glyph glyph-name="0" unicode="&#x30;" horiz-adv-x="506" d=" M440,616 Q506,535 506,408 L506,292 Q506,165 440,82.5 Q374,0 273,0 Q171,0 105.5,83 Q40,166 40,292 L40,408 Q40,533 107.5,616.5 Q175,700 273,700 Q372,700 440,616 M390,292 L390,408 Q390,477 358.5,530 Q327,583 273,583 Q219,583 187.5,530 Q156,477 156,408 L156,292 Q156,216 188,166.5 Q220,117 273,117 Q325,117 357.5,166 Q390,215 390,292"/> 
            <glyph glyph-name="1" unicode="&#x31;" horiz-adv-x="214" d=" M180,0 Q132,0 115,17 Q98,34 98,58 L98,583 Q74,583 57,600 Q40,617 40,642 Q40,666 57,683 Q74,700 98,700 L157,700 Q181,700 197.5,683 Q214,666 214,642 L214,58 Q214,34 180,0"/> 
            <glyph glyph-name="2" unicode="&#x32;" horiz-adv-x="454" d=" M395,0 L99,0 Q74,0 57,17 Q40,34 40,59 Q40,65 40.5,74 Q41,83 45.5,107.5 Q50,132 57,156 Q64,180 80,211.5 Q96,243 117.5,271 Q139,299 173.5,328 Q208,357 250,378 Q285,396 306,419.5 Q327,443 331.5,457 Q336,471 336,483 L336,493 Q336,530 310,556 Q284,582 247,582 Q210,582 184,556 Q158,530 158,493 Q158,468 141,451 Q124,434 99,434 Q74,434 57,451 Q40,468 40,493 Q40,578 101,639 Q162,700 247,700 Q332,700 392.5,640 Q453,580 454,495 L454,485 Q454,465 449,443.5 Q444,422 430.5,390.5 Q417,359 384,327.5 Q351,296 303,272 Q201,222 169,118 L395,118 Q420,118 437,101 Q454,84 454,59 Q454,34 437,17 Q420,0 395,0"/> 
            <glyph glyph-name="3" unicode="&#x33;" horiz-adv-x="507" d=" M413,420 Q507,349 507,233 Q507,137 438.5,68.5 Q370,0 273,0 Q177,0 108.5,68.5 Q40,137 40,233 Q40,258 57,275 Q74,292 98,292 Q123,292 140,275 Q157,258 157,233 Q157,185 191,151 Q225,117 273,117 Q322,117 356,151 Q390,185 390,233 Q390,281 356,315.5 Q322,350 274,350 Q249,350 232,366.5 Q215,383 215,408 Q215,436 233.5,450 Q252,464 273.5,466.5 Q295,469 313.5,483 Q332,497 332,525 Q332,549 314.5,566 Q297,583 273,583 L157,583 Q132,583 115,600 Q98,617 98,642 Q98,666 115,683 Q132,700 157,700 L273,700 Q346,700 397,648.5 Q448,597 448,525 Q448,466 413,420"/> 
            <glyph glyph-name="4" unicode="&#x34;" horiz-adv-x="506" d=" M360,0 Q336,0 319,17 Q302,34 302,58 L302,146 L98,146 Q66,146 48,174 Q40,186 40,204 Q40,219 47,232 L280,669 Q296,700 331,700 L360,700 Q385,700 402,683 Q419,666 419,642 L419,263 L448,263 Q472,263 489,245.5 Q506,228 506,204 Q506,180 489,163 Q472,146 448,146 L419,146 L419,58 Q419,34 402,17 Q385,0 360,0 M302,463 L195,263 L302,263"/> 
            <glyph glyph-name="5" unicode="&#x35;" horiz-adv-x="507" d=" M273,467 Q370,467 438.5,398.5 Q507,330 507,233 Q507,137 438.5,68.5 Q370,0 273,0 Q177,0 108.5,68.5 Q40,137 40,233 Q40,258 57,275 Q74,292 98,292 Q123,292 140,275 Q157,258 157,233 Q157,185 191,151 Q225,117 273,117 Q322,117 356,151 Q390,185 390,233 Q390,280 358,313.5 Q326,347 280,350 L171,323 Q161,321 156,321 Q129,321 114,339.5 Q99,358 99,386 L128,648 Q130,670 146.5,685 Q163,700 186,700 L361,700 Q385,700 402,683 Q419,666 419,642 Q419,617 402,600 Q385,583 361,583 L238,583 L224,456 L259,465 Q269,467 273,467"/> 
            <glyph glyph-name="6" unicode="&#x36;" horiz-adv-x="507" d=" M273,0 Q177,0 108.5,68.5 Q40,137 40,233 Q40,292 63,335 L241,669 Q258,700 293,700 Q318,700 334.5,682.5 Q351,665 351,642 Q351,627 344,614 L265,466 Q268,467 273,467 Q370,467 438.5,398.5 Q507,330 507,233 Q507,137 438.5,68.5 Q370,0 273,0 M273,350 Q225,350 191,316 Q157,282 157,233 Q157,185 191,151 Q225,117 273,117 Q322,117 356,151 Q390,185 390,233 Q390,282 356,316 Q322,350 273,350"/> 
            <glyph glyph-name="7" unicode="&#x37;" horiz-adv-x="448" d=" M98,0 Q84,0 72,6 Q40,23 40,58 Q40,72 46,84 L295,583 L98,583 Q74,583 57,600 Q40,617 40,642 Q40,666 57,683 Q74,700 98,700 L390,700 Q423,700 439,672 Q448,658 448,641 Q448,628 442,616 L150,32 Q134,0 98,0"/> 
            <glyph glyph-name="8" unicode="&#x38;" horiz-adv-x="507" d=" M413,420 Q507,349 507,233 Q507,137 438.5,68.5 Q370,0 273,0 Q177,0 108.5,68.5 Q40,137 40,233 Q40,289 65,338 Q90,387 133,420 Q98,466 98,525 Q98,597 149.5,648.5 Q201,700 273,700 Q346,700 397,648.5 Q448,597 448,525 Q448,466 413,420 M215,549 Q215,501 232,484 Q249,467 273,467 Q297,467 314.5,484 Q332,501 332,525 Q332,549 314.5,566 Q297,583 273,583 Q249,583 215,549 M273,117 Q322,117 356,151 Q390,185 390,233 Q390,282 356,316 Q322,350 273,350 Q225,350 191,316 Q157,282 157,233 Q157,185 191,151 Q225,117 273,117"/> 
            <glyph glyph-name="9" unicode="&#x39;" horiz-adv-x="507" d=" M273,700 Q370,700 438.5,631.5 Q507,563 507,467 Q507,416 484,365 L305,31 Q288,0 254,0 Q229,0 212,17.5 Q195,35 195,58 Q195,73 202,86 L281,234 Q279,233 273,233 Q177,233 108.5,301.5 Q40,370 40,467 Q40,563 108.5,631.5 Q177,700 273,700 M273,350 Q322,350 356,384 Q390,418 390,467 Q390,515 356,549 Q322,583 273,583 Q225,583 191,549 Q157,515 157,467 Q157,418 191,384 Q225,350 273,350"/> 
            <glyph glyph-name=":" unicode="&#x3A;" horiz-adv-x="157" d=" M98,292 Q74,292 57,309 Q40,326 40,350 Q40,374 57,391 Q74,408 98,408 Q123,408 140,391 Q157,374 157,350 Q157,326 140,309 Q123,292 98,292 M98,0 Q74,0 57,17 Q40,34 40,59 Q40,83 57,100 Q74,117 98,117 Q123,117 140,100 Q157,83 157,59 Q157,34 140,17 Q123,0 98,0"/> 
            <glyph glyph-name=";" unicode="&#x3B;" horiz-adv-x="186" d=" M98,292 Q74,292 57,309 Q40,326 40,350 Q40,374 57,391 Q74,408 98,408 Q123,408 140,391 Q157,374 157,350 Q157,326 140,309 Q123,292 98,292 M98,-87 Q89,-87 80,-84 Q40,-71 40,-29 Q40,-19 43,-10 L72,77 Q78,95 93.5,106 Q109,117 127,117 Q137,117 146,114 Q164,108 175,92.5 Q186,77 186,59 Q186,50 183,41 L154,-47 Q148,-65 132.5,-76 Q117,-87 98,-87"/> 
            <glyph glyph-name="&lt;" unicode="&#x3C;" horiz-adv-x="390" d=" M332,88 Q310,88 293,103 L60,307 Q40,324 40,351 Q40,378 60,395 L293,599 Q308,613 332,613 Q358,613 376,594 Q390,577 390,555 Q390,529 370,511 L187,351 L370,191 Q390,173 390,147 Q390,125 376,108 Q358,88 332,88"/> 
            <glyph glyph-name="=" unicode="&#x3D;" horiz-adv-x="536" d=" M98,292 L477,292 Q502,292 519,275 Q536,258 536,233 Q536,209 519,192 Q502,175 477,175 L98,175 Q74,175 57,192 Q40,209 40,233 Q40,258 57,275 Q74,292 98,292 M477,408 L98,408 Q74,408 57,425 Q40,442 40,467 Q40,491 57,508 Q74,525 98,525 L477,525 Q502,525 519,508 Q536,491 536,467 Q536,442 519,425 Q502,408 477,408"/> 
            <glyph glyph-name="&gt;" unicode="&#x3E;" horiz-adv-x="390" d=" M98,88 Q72,88 54,108 Q40,125 40,147 Q40,173 60,191 L243,351 L60,511 Q40,529 40,555 Q40,577 54,594 Q72,613 98,613 Q122,613 137,599 L370,395 Q390,378 390,351 Q390,324 370,307 L137,103 Q120,88 98,88"/> 
            <glyph glyph-name="?" unicode="&#x3F;" horiz-adv-x="448" d=" M244,700 Q329,700 388.5,640 Q448,580 448,496 Q448,423 420,376 Q392,329 329,298 Q316,291 309.5,270 Q303,249 303,233 Q303,209 286,192 Q269,175 244,175 Q220,175 203,192 Q186,209 186,233 Q186,245 188,260 Q190,275 197.5,304.5 Q205,334 225.5,360.5 Q246,387 277,403 Q309,419 320.5,437.5 Q332,456 332,496 Q332,532 306.5,557.5 Q281,583 244,583 Q208,583 182.5,557.5 Q157,532 157,496 Q157,472 140,454.5 Q123,437 98,437 Q74,437 57,454.5 Q40,472 40,496 Q40,580 100,640 Q160,700 244,700 M244,117 Q269,117 286,100 Q303,83 303,58 Q303,34 286,17 Q269,0 244,0 Q220,0 203,17 Q186,34 186,58 Q186,83 203,100 Q220,117 244,117"/> 
            <glyph glyph-name="@" unicode="&#x40;" horiz-adv-x="740" d=" M245,700 Q535,700 637.5,597.5 Q740,495 740,350 Q740,296 725,250 Q710,204 690.5,178 Q671,152 647.5,132 Q624,112 612,105.5 Q600,99 594,97 Q584,93 577,93 Q573,93 565,95 Q487,114 465,162 L458,184 Q419,163 378,163 Q306,163 254.5,218 Q203,273 203,350 Q203,427 254.5,482 Q306,537 378,537 Q424,537 465,512 Q478,537 506,537 Q525,537 538.5,523.5 Q552,510 552,490 L552,350 L552,210 Q552,203 551,200 Q557,196 571,190 Q647,239 647,350 Q647,456 571.5,531.5 Q496,607 390,607 Q284,607 208.5,531.5 Q133,456 133,350 Q133,244 208.5,168.5 Q284,93 390,93 Q432,93 468,106 Q478,108 482,108 Q515,108 527,75 Q529,70 529,61 Q529,27 497,17 Q443,0 390,0 Q245,0 142.5,102.5 Q40,205 40,350 Q40,495 245,700 M345,257 Q413,257 437,284 Q461,311 461,350 Q461,388 437,415.5 Q413,443 379,443 Q345,443 321,415.5 Q297,388 297,350 Q297,312 345,257"/> 
            <glyph glyph-name="A" unicode="&#x41;" horiz-adv-x="623" d=" M386,663 L619,80 Q623,71 623,58 Q623,35 606.5,17.5 Q590,0 565,0 Q547,0 532.5,10 Q518,20 511,37 L467,146 L196,146 L152,37 Q145,20 130.5,10 Q116,0 98,0 Q73,0 56.5,17.5 Q40,35 40,58 Q40,71 44,80 L277,663 Q292,700 332,700 Q349,700 364,689.5 Q379,679 386,663 M243,262 L420,262 L332,485"/> 
            <glyph glyph-name="B" unicode="&#x42;" horiz-adv-x="507" d=" M417,400 Q507,341 507,219 Q507,123 442.5,61.5 Q378,0 302,0 L98,0 Q74,0 57,17 Q40,34 40,58 L40,642 Q40,666 57,683 Q74,700 98,700 L259,700 Q303,700 350,677 Q448,628 448,510 Q448,446 417,400 M157,583 L157,437 L244,437 Q254,437 265,439 Q276,441 293,447 Q310,453 321,469.5 Q332,486 332,510 Q332,541 318.5,558.5 Q305,576 293,579.5 Q281,583 267,583 L259,583 M347,131 Q390,155 390,219 Q390,255 366.5,288 Q343,321 295,321 L157,321 L157,117 L295,117 Q321,117 347,131"/> 
            <glyph glyph-name="C" unicode="&#x43;" horiz-adv-x="592" d=" M501,145 Q523,156 546,149.5 Q569,143 581,121 Q592,100 585,77 Q578,54 557,42 Q478,0 390,0 Q245,0 142.5,102.5 Q40,205 40,350 Q40,495 142.5,597.5 Q245,700 390,700 Q478,700 557,658 Q578,646 585,623 Q592,600 581,579 Q569,557 546,550.5 Q523,544 501,555 Q452,583 390,583 Q294,583 225.5,515 Q157,447 157,350 Q157,253 225.5,185 Q294,117 390,117 Q452,117 501,145"/> 
            <glyph glyph-name="D" unicode="&#x44;" horiz-adv-x="565" d=" M268,0 L98,0 Q74,0 57,17 Q40,34 40,58 L40,642 Q40,666 57,683 Q74,700 98,700 L268,700 Q275,700 286,699.5 Q297,699 328,692 Q359,685 387,673 Q415,661 449,635 Q483,609 507.5,573.5 Q532,538 548.5,480 Q565,422 565,350 Q565,278 548.5,220 Q532,162 507.5,126.5 Q483,91 449,65 Q415,39 387,27 Q359,15 328,8 Q297,1 286,0.5 Q275,0 268,0 M157,583 L157,117 L268,117 Q314,117 361,147 Q448,202 448,350 Q448,500 357,555 Q311,583 268,583"/> 
            <glyph glyph-name="E" unicode="&#x45;" horiz-adv-x="478" d=" M419,117 Q444,117 461,100 Q478,83 478,58 Q478,34 461,17 Q444,0 419,0 L99,0 Q74,0 57,17 Q40,34 40,58 L40,642 Q40,666 57,683 Q74,700 99,700 L419,700 Q444,700 461,683 Q478,666 478,642 Q478,617 461,600 Q444,583 419,583 L157,583 L157,408 L361,408 Q385,408 402,391 Q419,374 419,350 Q419,326 402,309 Q385,292 361,292 L157,292 L157,117"/> 
            <glyph glyph-name="F" unicode="&#x46;" horiz-adv-x="507" d=" M98,700 L448,700 Q472,700 489.5,683 Q507,666 507,642 Q507,617 489.5,600 Q472,583 448,583 L157,583 L157,408 L390,408 Q414,408 431,391 Q448,374 448,350 Q448,326 431,309 Q414,292 390,292 L157,292 L157,58 Q157,34 139.5,17 Q122,0 98,0 Q74,0 57,17 Q40,34 40,58 L40,642 Q40,666 57,683 Q74,700 98,700"/> 
            <glyph glyph-name="G" unicode="&#x47;" horiz-adv-x="654" d=" M390,0 Q244,0 142,102 Q40,204 40,350 Q40,495 142,597 Q243,700 390,700 Q535,700 638,597 Q654,581 654,557 Q654,532 637,515 Q620,498 596,498 Q571,498 555,515 Q487,583 390,583 Q293,583 225,515 Q156,446 156,350 Q156,254 225,185 Q292,116 390,116 Q473,116 538,169 L538,292 L392,292 Q368,292 350.5,309 Q333,326 333,350 Q333,374 350.5,391 Q368,408 392,408 L596,408 Q620,408 637,391 Q654,374 654,350 L654,144 Q654,119 637,102 Q535,0 390,0"/> 
            <glyph glyph-name="H" unicode="&#x48;" horiz-adv-x="536" d=" M477,700 Q502,700 519,683 Q536,666 536,642 L536,58 Q536,34 519,17 Q502,0 477,0 Q453,0 436,17 Q419,34 419,58 L419,292 L157,292 L157,58 Q157,34 139.5,17 Q122,0 98,0 Q74,0 57,17 Q40,34 40,58 L40,642 Q40,666 57,683 Q74,700 98,700 Q122,700 139.5,683 Q157,666 157,642 L157,408 L419,408 L419,642 Q419,666 436,683 Q453,700 477,700"/> 
            <glyph glyph-name="I" unicode="&#x49;" horiz-adv-x="156" d=" M122,0 Q74,0 57,17 Q40,34 40,58 L40,642 Q40,666 57,683 Q74,700 98,700 Q122,700 139,683 Q156,666 156,642 L156,58 Q156,34 122,0"/> 
            <glyph glyph-name="J" unicode="&#x4A;" horiz-adv-x="303" d=" M98,0 Q74,0 57,17 Q40,34 40,58 Q40,83 57,100 Q74,117 98,117 Q125,117 144.5,128.5 Q164,140 172,157 Q180,174 183,185.5 Q186,197 186,204 L186,642 Q186,666 203,683 Q220,700 244,700 Q269,700 286,683 Q303,666 303,642 L303,204 Q303,155 278,105 Q226,0 98,0"/> 
            <glyph glyph-name="K" unicode="&#x4B;" horiz-adv-x="506" d=" M260,350 L491,98 Q506,82 506,58 Q506,34 489,17 Q472,0 448,0 Q423,0 405,19 L157,291 L157,58 Q157,34 139.5,17 Q122,0 98,0 Q74,0 57,17 Q40,34 40,58 L40,642 Q40,666 57,683 Q74,700 98,700 Q122,700 139.5,683 Q157,666 157,642 L157,409 L405,681 Q422,700 448,700 Q472,700 489,683 Q506,666 506,642 Q506,618 491,602"/> 
            <glyph glyph-name="L" unicode="&#x4C;" horiz-adv-x="420" d=" M361,0 L99,0 Q74,0 57,17 Q40,34 40,58 L40,642 Q40,666 57,683 Q74,700 99,700 Q123,700 140,683 Q157,666 157,642 L157,117 L361,117 Q385,117 402.5,100 Q420,83 420,58 Q420,34 402.5,17 Q385,0 361,0"/> 
            <glyph glyph-name="M" unicode="&#x4D;" horiz-adv-x="682" d=" M623,0 Q599,0 582,17 Q565,34 565,58 L565,467 L408,257 Q390,233 361,233 Q332,233 314,257 L157,467 L157,58 Q157,34 140,17 Q123,0 98,0 Q74,0 57,17 Q40,34 40,58 L40,642 Q40,666 57,683 Q74,700 99,700 Q128,700 145,677 L361,389 L577,677 Q594,700 623,700 Q648,700 665,683 Q682,666 682,642 L682,58 Q682,34 665,17 Q648,0 623,0"/> 
            <glyph glyph-name="N" unicode="&#x4E;" horiz-adv-x="565" d=" M507,0 Q476,0 459,25 L157,457 L157,58 Q157,34 139.5,17 Q122,0 98,0 Q74,0 57,17 Q40,34 40,58 L40,642 Q40,665 57,682.5 Q74,700 99,700 Q129,700 146,675 L448,243 L448,642 Q448,666 465,683 Q482,700 507,700 Q531,700 548,683 Q565,666 565,642 L565,58 Q565,35 548,17.5 Q531,0 507,0"/> 
            <glyph glyph-name="O" unicode="&#x4F;" horiz-adv-x="711" d=" M514,0 Q236,0 138,102.5 Q40,205 40,350 Q40,495 138,597.5 Q236,700 375,700 Q514,700 612.5,597.5 Q711,495 711,350 Q711,205 514,0 M375,583 Q285,583 221,515 Q157,447 157,350 Q157,253 221,185 Q285,117 375,117 Q466,117 530,185 Q594,253 594,350 Q594,447 530,515 Q466,583 375,583"/> 
            <glyph glyph-name="P" unicode="&#x50;" horiz-adv-x="492" d=" M98,0 Q74,0 57,17 Q40,34 40,58 L40,642 Q40,666 57,683 Q74,700 98,700 L257,700 Q314,700 371,672 Q492,612 492,467 Q492,409 464,353 Q435,295 381,264 Q327,233 257,233 L157,233 L157,58 Q157,34 140,17 Q123,0 98,0 M157,583 L157,350 L257,350 Q330,350 358,403 Q375,435 375,467 Q375,540 319,568 Q306,575 290.5,578.5 Q275,582 266,582 L257,583"/> 
            <glyph glyph-name="Q" unicode="&#x51;" horiz-adv-x="711" d=" M638,132 L668,96 Q682,79 682,59 Q682,32 661,14 Q646,0 623,0 Q596,0 578,21 L552,53 Q472,0 375,0 Q236,0 138,102.5 Q40,205 40,350 Q40,495 138,597.5 Q236,700 375,700 Q514,700 612.5,597.5 Q711,495 711,350 Q711,229 638,132 M375,117 Q430,117 477,143 L433,196 Q419,213 419,234 Q419,262 440,278 Q457,292 477,292 Q504,292 522,271 L560,225 Q594,281 594,350 Q594,447 530,515 Q466,583 375,583 Q285,583 221,515 Q157,447 157,350 Q157,253 221,185 Q285,117 375,117"/> 
            <glyph glyph-name="R" unicode="&#x52;" horiz-adv-x="492" d=" M376,261 L483,89 Q492,74 492,58 Q492,26 464,9 Q450,0 434,0 Q401,0 384,27 L255,233 L157,233 L157,58 Q157,34 139.5,17 Q122,0 98,0 Q74,0 57,17 Q40,34 40,58 L40,642 Q40,666 57,683 Q74,700 98,700 L257,700 Q314,700 371,672 Q492,612 492,467 Q492,409 464,353 Q433,292 376,261 M157,583 L157,350 L257,350 Q330,350 358,403 Q375,435 375,467 Q375,540 319,568 Q306,575 290.5,578.5 Q275,582 266,582 L257,583"/> 
            <glyph glyph-name="S" unicode="&#x53;" horiz-adv-x="480" d=" M270,436 Q292,429 316.5,418.5 Q341,408 382,384 Q423,360 450.5,320.5 Q478,281 480,233 L480,223 Q480,133 417,70 Q349,2 247,2 L239,2 Q175,4 123,38 Q71,72 45,128 Q40,138 40,153 Q40,191 74,206 Q84,211 98,211 Q137,211 152,177 Q178,121 243,119 L248,119 Q301,119 333,151 Q364,182 364,223 L364,227 Q362,258 318.5,286 Q275,314 236,325 L232,327 Q77,383 77,519 L77,527 Q80,608 145,656 Q203,701 282,701 L291,701 Q354,700 411,657 Q434,639 434,611 Q434,591 422,576 Q404,553 375,553 Q355,553 340,564 Q317,582 287,584 L281,584 Q244,584 219,567 Q194,550 193,523 L193,519 Q193,486 213,468.5 Q233,451 270,436"/> 
            <glyph glyph-name="T" unicode="&#x54;" horiz-adv-x="507" d=" M98,700 L448,700 Q472,700 489.5,683 Q507,666 507,642 Q507,617 489.5,600 Q472,583 448,583 L332,583 L332,58 Q332,34 314.5,17 Q297,0 273,0 Q249,0 232,17 Q215,34 215,58 L215,583 L98,583 Q74,583 57,600 Q40,617 40,642 Q40,666 57,683 Q74,700 98,700"/> 
            <glyph glyph-name="U" unicode="&#x55;" horiz-adv-x="535" d=" M363,0 Q213,0 156.5,35 Q100,70 69,136 Q40,199 40,263 L40,642 Q40,666 57,683 Q74,700 98,700 Q122,700 139,683 Q156,666 156,642 L156,263 Q156,252 160.5,233 Q165,214 176.5,185.5 Q188,157 217.5,137 Q247,117 288,117 Q328,117 356.5,136 Q385,155 397,182.5 Q409,210 414,230 Q419,250 419,263 L419,642 Q419,666 436,683 Q453,700 477,700 Q501,700 518,683 Q535,666 535,642 L535,263 Q535,197 507,136 Q476,70 363,0"/> 
            <glyph glyph-name="V" unicode="&#x56;" horiz-adv-x="623" d=" M332,0 Q292,0 277,37 L44,620 Q40,629 40,641 Q40,664 56.5,682 Q73,700 98,700 Q116,700 130.5,690 Q145,680 152,663 L332,215 L511,663 Q518,680 532.5,690 Q547,700 565,700 Q590,700 606.5,682.5 Q623,665 623,642 Q623,629 619,620 L386,37 Q379,21 364,10.5 Q349,0 332,0"/> 
            <glyph glyph-name="W" unicode="&#x57;" horiz-adv-x="905" d=" M869,695 Q905,681 905,641 Q905,628 901,619 L657,36 Q642,0 604,0 Q565,0 550,36 L473,221 L395,36 Q380,0 342,0 Q303,0 288,36 L44,619 Q40,628 40,641 Q40,664 57,682 Q74,700 99,700 Q137,700 152,664 L342,210 L409,373 L307,619 Q302,631 302,642 Q302,665 319,682.5 Q336,700 361,700 Q399,700 414,664 L473,524 L531,664 Q546,700 584,700 Q609,700 626,682 Q643,664 643,641 Q643,628 639,619 L536,373 L604,210 L793,664 Q808,700 846,700 Q857,700 869,695"/> 
            <glyph glyph-name="X" unicode="&#x58;" horiz-adv-x="565" d=" M374,350 L554,92 Q565,75 565,58 Q565,35 547.5,17.5 Q530,0 507,0 Q476,0 459,25 L302,248 L146,25 Q129,0 98,0 Q74,0 57,17.5 Q40,35 40,58 Q40,77 51,92 L231,350 L51,608 Q40,622 40,639 Q40,663 56,681.5 Q72,700 98,700 Q129,700 146,675 L302,452 L459,675 Q476,700 507,700 Q531,700 548,682.5 Q565,665 565,642 Q565,624 554,608"/> 
            <glyph glyph-name="Y" unicode="&#x59;" horiz-adv-x="565" d=" M540,689 Q565,672 565,642 Q565,624 554,608 L361,332 L361,58 Q361,34 344,17 Q327,0 302,0 Q278,0 261,17 Q244,34 244,58 L244,332 L51,608 Q40,622 40,639 Q40,663 56,681.5 Q72,700 98,700 Q129,700 146,675 L302,452 L459,675 Q476,700 507,700 Q524,700 540,689"/> 
            <glyph glyph-name="Z" unicode="&#x5A;" horiz-adv-x="507" d=" M448,0 L98,0 Q74,0 57,17 Q40,34 40,59 Q40,76 48,88 L345,583 L98,583 Q74,583 57,600 Q40,617 40,641 Q40,666 57,683 Q74,700 98,700 L448,700 Q471,700 488.5,683 Q506,666 506,642 Q506,624 498,612 L201,117 L448,117 Q472,117 489.5,100 Q507,83 507,58 Q507,34 489.5,17 Q472,0 448,0"/> 
            <glyph glyph-name="[" unicode="&#x5B;" horiz-adv-x="274" d=" M99,700 L216,700 Q240,700 257,683 Q274,666 274,641 Q274,617 257,600 Q240,583 216,583 L157,583 L157,117 L216,117 Q240,117 257,100 Q274,83 274,58 Q274,34 257,17 Q240,0 216,0 L99,0 Q75,0 57.5,17 Q40,34 40,58 L40,642 Q40,666 57.5,683 Q75,700 99,700"/> 
            <glyph glyph-name="\" unicode="&#x5C;" horiz-adv-x="273" d=" M87,699 Q91,700 98,700 Q119,700 135,687 Q151,674 155,653 L272,70 Q273,66 273,59 Q273,38 260,21.5 Q247,5 226,1 Q222,0 215,0 Q194,0 178,13 Q162,26 158,47 L41,630 Q40,634 40,641 Q40,662 53,678.5 Q66,695 87,699"/> 
            <glyph glyph-name="]" unicode="&#x5D;" horiz-adv-x="274" d=" M215,0 L98,0 Q74,0 57,17 Q40,34 40,58 Q40,83 57,100 Q74,117 98,117 L157,117 L157,583 L98,583 Q74,583 57,600 Q40,617 40,641 Q40,666 57,683 Q74,700 98,700 L215,700 Q239,700 256.5,683 Q274,666 274,642 L274,58 Q274,34 256.5,17 Q239,0 215,0"/> 
            <glyph glyph-name="^" unicode="&#x5E;" horiz-adv-x="411" d=" M60,452 Q40,470 40,496 Q40,517 54,534 L182,680 Q199,700 226,700 Q253,700 270,680 L397,534 Q411,519 411,495 Q411,468 392,452 Q377,438 353,438 Q326,438 309,458 L226,553 L142,458 Q126,438 98,438 Q75,438 60,452"/> 
            <glyph glyph-name="_" unicode="&#x5F;" horiz-adv-x="536" d=" M98,0 L477,0 Q502,0 519,-17 Q536,-34 536,-58 Q536,-82 519,-99 Q502,-116 477,-116 L98,-116 Q74,-116 57,-99 Q40,-82 40,-58 Q40,-34 57,-17 Q74,0 98,0"/> 
            <glyph glyph-name="`" unicode="&#x60;" horiz-adv-x="273" d=" M189,531 L72,589 Q40,606 40,641 Q40,654 46,668 Q62,700 99,700 Q112,700 124,694 L241,635 Q273,618 273,583 Q273,569 267,557 Q251,525 215,525 Q201,525 189,531"/> 
            <glyph glyph-name="a" unicode="&#x61;" horiz-adv-x="448" d=" M447,122 L448,58 Q448,35 431,17.5 Q414,0 390,0 Q353,0 338,32 Q306,16 269,8 Q213,1 206,1 Q142,1 99.5,32 Q57,63 44,120 Q40,135 40,153 Q40,196 66,230 Q116,295 245,300 Q252,300 267,300.5 Q282,301 289,301 Q313,301 327,299 Q321,329 307,338 Q285,350 257,350 Q202,350 160,316 Q144,303 123,303 Q96,303 78,324 Q65,340 65,361 Q65,390 86,406 Q148,458 229,465 Q238,466 255,466 Q317,466 364,440 Q400,420 420.5,379.5 Q441,339 444,317 Q447,295 447,279 M318,170 L323,182 Q309,184 289,184 Q262,184 238,183 Q175,180 159,160 Q156,154 156,152 L156,150 Q157,148 157,147 Q159,138 161.5,133.5 Q164,129 175.5,123.5 Q187,118 206,118 Q224,118 244,122 Q246,123 248,123 Q297,132 318,170"/> 
            <glyph glyph-name="b" unicode="&#x62;" horiz-adv-x="477" d=" M259,467 Q349,467 413,398.5 Q477,330 477,233 Q477,137 413,68.5 Q349,0 259,0 Q200,0 150,31 Q133,0 98,0 Q74,0 57,17 Q40,34 40,58 L40,642 Q40,666 57,683 Q74,700 98,700 Q123,700 140,683 Q157,666 157,642 L157,440 Q205,467 259,467 M259,117 Q301,117 331,151 Q361,185 361,233 Q361,282 331,316 Q301,350 259,350 Q216,350 186.5,316 Q157,282 157,233 Q157,185 186.5,151 Q216,117 259,117"/> 
            <glyph glyph-name="c" unicode="&#x63;" horiz-adv-x="382" d=" M259,0 Q168,0 104,68.5 Q40,137 40,233 Q40,330 104,398.5 Q168,467 259,467 Q306,467 349,446 Q382,432 382,394 Q382,381 376,369 Q360,335 324,335 Q311,335 299,341 Q280,350 259,350 Q217,350 187,316 Q157,282 157,233 Q157,185 187,151 Q217,117 259,117 Q280,117 299,126 Q309,131 323,131 Q360,131 376,98 Q382,86 382,73 Q382,36 349,20 Q304,0 259,0"/> 
            <glyph glyph-name="d" unicode="&#x64;" horiz-adv-x="507" d=" M40,233 Q40,330 108.5,398.5 Q177,467 273,467 Q336,467 390,435 L390,642 Q390,666 407,683 Q424,700 448,700 Q473,700 490,683 Q507,666 507,642 L507,58 Q507,34 490,17 Q473,0 448,0 Q410,0 395,34 Q338,0 273,0 Q177,0 108.5,68.5 Q40,137 40,233 M157,233 Q157,185 191,151 Q225,117 273,117 Q322,117 356,151 Q390,185 390,233 Q390,282 356,316 Q322,350 273,350 Q225,350 191,316 Q157,282 157,233"/> 
            <glyph glyph-name="e" unicode="&#x65;" horiz-adv-x="448" d=" M258,0 Q244,0 240,1 Q145,6 90,75 Q40,139 40,234 Q40,331 100,399 Q160,467 244,467 Q332,467 390,401 Q448,338 448,244 Q448,220 431,202.5 Q414,185 390,185 L163,185 Q183,119 246,117 L252,117 Q295,117 320,135 Q335,144 352,144 Q384,144 401,118 Q411,105 411,87 Q411,54 384,37 Q328,0 258,0 M174,302 L319,302 Q294,351 244,351 Q201,351 174,302"/> 
            <glyph glyph-name="f" unicode="&#x66;" horiz-adv-x="361" d=" M302,467 Q327,467 344,449.5 Q361,432 361,408 Q361,384 344,367 Q327,350 302,350 L244,350 L244,58 Q244,34 227,17 Q210,0 186,0 Q162,0 144.5,17 Q127,34 127,58 L127,350 L98,350 Q74,350 57,367 Q40,384 40,408 Q40,432 57,449.5 Q74,467 98,467 L127,467 L127,525 Q127,568 148,609 Q193,700 302,700 Q327,700 344,683 Q361,666 361,642 Q361,617 344,600 Q327,583 302,583 Q266,583 254,559 Q244,543 244,525 L244,467"/> 
            <glyph glyph-name="g" unicode="&#x67;" horiz-adv-x="477" d=" M477,234 L477,0 Q477,-88 423,-154 Q358,-233 258,-233 L244,-233 Q194,-229 150,-202 Q106,-175 78,-131 Q69,-116 69,-100 Q69,-68 96,-51 Q110,-41 128,-41 Q159,-41 176,-68 Q205,-113 252,-116 L258,-116 Q302,-116 333,-80 Q361,-46 361,0 L361,27 Q312,0 259,0 Q168,0 104,68.5 Q40,137 40,234 Q40,330 104,398.5 Q168,467 259,467 Q317,467 368,436 Q384,467 419,467 Q443,467 460,450 Q477,433 477,409 M259,117 Q301,117 331,151 Q361,185 361,234 Q361,282 331,316 Q301,350 259,350 Q216,350 186.5,316 Q157,282 157,234 Q157,185 186.5,151 Q216,117 259,117"/> 
            <glyph glyph-name="h" unicode="&#x68;" horiz-adv-x="448" d=" M420,364 Q448,314 448,262 L448,58 Q448,34 431,17 Q414,0 389,0 Q365,0 348,17 Q331,34 331,58 L331,262 Q331,286 317,310 Q292,350 226,350 L156,350 L156,58 Q156,34 139,17 Q122,0 98,0 Q74,0 57,17 Q40,34 40,58 L40,642 Q40,666 57,683 Q74,700 98,700 Q122,700 139,683 Q156,666 156,642 L156,467 L226,467 Q362,467 420,364"/> 
            <glyph glyph-name="i" unicode="&#x69;" horiz-adv-x="157" d=" M122,0 Q74,0 57,17 Q40,34 40,58 L40,408 Q40,432 57,449.5 Q74,467 98,467 Q122,467 139.5,449.5 Q157,432 157,408 L157,58 Q157,34 122,0 M157,612 Q157,587 139.5,570 Q122,553 98,553 Q74,553 57,570 Q40,587 40,612 Q40,636 57,653 Q74,670 98,670 Q122,670 139.5,653 Q157,636 157,612"/> 
            <glyph glyph-name="j" unicode="&#x6A;" horiz-adv-x="274" d=" M274,612 Q274,587 257,570 Q240,553 216,553 Q191,553 174,570 Q157,587 157,612 Q157,636 174,653 Q191,670 216,670 Q240,670 257,653 Q274,636 274,612 M98,-175 Q74,-175 57,-158 Q40,-141 40,-117 Q40,-92 57,-75 Q74,-58 98,-58 Q136,-58 148,-32 Q152,-25 154,-17 Q156,-9 156,-4 L157,0 L157,408 Q157,432 174,449.5 Q191,467 215,467 Q240,467 257,449.5 Q274,432 274,408 L274,0 Q274,-43 253,-84 Q208,-175 98,-175"/> 
            <glyph glyph-name="k" unicode="&#x6B;" horiz-adv-x="419" d=" M268,233 L402,100 Q419,83 419,58 Q419,34 402,17 Q385,0 361,0 Q337,0 320,17 L157,180 L157,58 Q157,34 139.5,17 Q122,0 98,0 Q74,0 57,17 Q40,34 40,58 L40,642 Q40,666 57,683 Q74,700 98,700 Q122,700 139.5,683 Q157,666 157,642 L157,287 L320,450 Q336,466 361,466 Q385,466 402,450 Q419,431 419,408 Q419,384 402,367"/> 
            <glyph glyph-name="l" unicode="&#x6C;" horiz-adv-x="157" d=" M98,700 Q123,700 140,683 Q157,666 157,642 L157,58 Q157,34 140,17 Q123,0 98,0 Q74,0 57,17 Q40,34 40,58 L40,642 Q40,666 57,683 Q74,700 98,700"/> 
            <glyph glyph-name="m" unicode="&#x6D;" horiz-adv-x="583" d=" M418,467 Q474,467 513.5,436 Q553,405 568,366 Q583,327 583,286 L583,58 Q583,34 565.5,17 Q548,0 524,0 Q500,0 483,17 Q466,34 466,58 L466,286 Q466,306 456,326 Q445,350 418,350 Q390,350 379,326 Q370,305 370,286 L370,58 Q370,34 352.5,17 Q335,0 311,0 Q287,0 270,17 Q253,34 253,58 L253,286 Q253,305 244,326 Q231,350 205,350 Q177,350 166,326 Q157,305 157,286 L157,58 Q157,34 140,17 Q123,0 98,0 Q74,0 57,17 Q40,34 40,58 L40,408 Q40,432 57,449.5 Q74,467 98,467 Q119,467 136,453 Q167,467 205,467 Q269,467 311,428 Q355,467 418,467"/> 
            <glyph glyph-name="n" unicode="&#x6E;" horiz-adv-x="448" d=" M366,467 Q414,467 431,450 Q448,433 448,408 L448,58 Q448,40 437.5,25 Q427,10 410,4 Q401,0 389,0 Q363,0 345,21 L157,247 L157,58 Q157,34 140,17 Q123,0 98,0 Q74,0 57,17 Q40,34 40,58 L40,408 Q40,427 50.5,442 Q61,457 78,463 Q87,467 99,467 Q125,467 143,446 L332,220 L332,408 Q332,433 366,467"/> 
            <glyph glyph-name="o" unicode="&#x6F;" horiz-adv-x="507" d=" M273,467 Q370,467 438.5,398.5 Q507,330 507,233 Q507,137 438.5,68.5 Q370,0 273,0 Q177,0 108.5,68.5 Q40,137 40,233 Q40,330 108.5,398.5 Q177,467 273,467 M273,117 Q322,117 356,151 Q390,185 390,233 Q390,282 356,316 Q322,350 273,350 Q225,350 191,316 Q157,282 157,233 Q157,185 191,151 Q225,117 273,117"/> 
            <glyph glyph-name="p" unicode="&#x70;" horiz-adv-x="507" d=" M122,-233 Q74,-233 57,-216 Q40,-199 40,-175 L40,409 Q40,433 57,450 Q74,467 98,467 Q136,467 151,433 Q209,467 273,467 Q370,467 438.5,398.5 Q507,330 507,234 Q507,137 438.5,68.5 Q370,0 273,0 Q211,0 157,32 L157,-175 Q157,-199 122,-233 M273,350 Q225,350 191,316 Q157,282 157,234 Q157,185 191,151 Q225,117 273,117 Q322,117 356,151 Q390,185 390,234 Q390,282 356,316 Q322,350 273,350"/> 
            <glyph glyph-name="q" unicode="&#x71;" horiz-adv-x="507" d=" M507,-175 Q507,-199 490,-216 Q473,-233 448,-233 Q424,-233 407,-216 Q390,-199 390,-175 L390,32 Q336,0 273,0 Q177,0 108.5,68.5 Q40,137 40,234 Q40,330 108.5,398.5 Q177,467 273,467 Q338,467 395,433 Q410,467 448,467 Q473,467 490,450 Q507,433 507,409 M390,234 Q390,282 356,316 Q322,350 273,350 Q225,350 191,316 Q157,282 157,234 Q157,185 191,151 Q225,117 273,117 Q322,117 356,151 Q390,185 390,234"/> 
            <glyph glyph-name="r" unicode="&#x72;" horiz-adv-x="273" d=" M215,467 Q239,467 256,450 Q273,433 273,408 Q273,384 256,367 Q239,350 215,350 Q173,350 161,332 L157,321 L157,58 Q157,34 140,17 Q123,0 98,0 Q74,0 57,17 Q40,34 40,58 L40,408 Q40,433 57,450 Q74,467 98,467 Q120,467 136,453 Q170,467 215,467"/> 
            <glyph glyph-name="s" unicode="&#x73;" horiz-adv-x="390" d=" M291,294 Q383,250 390,175 L390,164 Q390,103 349,59 Q295,0 204,0 Q155,0 113,23 Q71,46 48,85 Q40,99 40,115 Q40,148 69,165 Q83,173 98,173 Q132,173 149,143 Q164,117 204,117 Q245,117 263,138 Q274,149 274,165 Q270,174 244,187 Q218,200 192,206 Q189,206 188,207 Q58,244 58,352 Q58,410 106,449 Q154,488 226,488 Q277,488 320,461 Q348,444 348,411 Q348,395 339,380 Q322,353 290,353 Q273,353 258,362 Q244,371 226,371 Q210,371 197.5,367 Q185,363 180,359 Q175,355 175,352 Q175,332 219,319 Q254,311 291,294"/> 
            <glyph glyph-name="t" unicode="&#x74;" horiz-adv-x="390" d=" M332,467 Q356,467 373,450 Q390,433 390,408 Q390,384 373,367 Q356,350 332,350 L273,350 L273,58 Q273,34 256,17 Q239,0 215,0 Q191,0 174,17 Q157,34 157,58 L157,350 L98,350 Q74,350 57,367 Q40,384 40,408 Q40,433 57,450 Q74,467 98,467 L157,467 L157,642 Q157,666 174,683 Q191,700 215,700 Q239,700 256,683 Q273,666 273,642 L273,467"/> 
            <glyph glyph-name="u" unicode="&#x75;" horiz-adv-x="413" d=" M331,467 Q379,467 396,450 Q413,433 413,408 L413,181 Q413,136 391,93 Q341,0 227,0 Q111,0 63,93 Q40,136 40,181 L40,408 Q40,433 57,450 Q74,467 98,467 Q122,467 139.5,450 Q157,433 157,408 L157,181 Q157,163 167,144 Q184,117 227,117 Q271,117 286,144 Q297,163 297,181 L297,408 Q297,433 331,467"/> 
            <glyph glyph-name="v" unicode="&#x76;" horiz-adv-x="489" d=" M456,461 Q489,445 489,408 Q489,395 483,383 L317,33 Q302,0 265,0 Q228,0 212,33 L46,383 Q40,395 40,408 Q40,445 73,461 Q85,467 98,467 Q135,467 151,433 L265,194 L378,433 Q394,467 431,467 Q444,467 456,461"/> 
            <glyph glyph-name="w" unicode="&#x77;" horiz-adv-x="648" d=" M609,463 Q627,457 637.5,441.5 Q648,426 648,408 Q648,398 645,389 L522,39 Q508,0 467,0 Q426,0 412,39 L344,233 L276,39 Q262,0 221,0 Q180,0 166,39 L43,389 Q40,398 40,408 Q40,450 79,463 Q88,466 99,466 Q140,466 153,428 L221,235 L288,428 Q300,465 342,467 L346,467 Q386,465 399,428 L467,235 L535,428 Q548,466 589,466 Q598,466 609,463"/> 
            <glyph glyph-name="x" unicode="&#x78;" horiz-adv-x="419" d=" M304,235 L407,97 Q419,81 419,61 Q419,32 396,15 Q380,3 361,3 Q332,3 314,27 L231,138 L145,23 Q127,0 98,0 Q80,0 63,12 Q40,29 40,58 Q40,76 52,93 L158,235 L52,377 Q40,392 40,411 Q40,441 63,458 Q79,470 98,470 Q128,470 145,447 L231,332 L314,443 Q331,466 361,466 Q381,466 396,455 Q419,438 419,409 Q419,389 407,373"/> 
            <glyph glyph-name="y" unicode="&#x79;" horiz-adv-x="489" d=" M483,383 L317,33 L310,22 L210,-199 Q195,-233 157,-233 Q142,-233 132,-228 Q99,-214 99,-175 Q99,-161 104,-151 L199,60 L46,383 Q40,395 40,408 Q40,445 73,461 Q85,467 98,467 Q135,467 151,433 L265,194 L378,433 Q394,467 431,467 Q444,467 456,461 Q489,445 489,408 Q489,395 483,383"/> 
            <glyph glyph-name="z" unicode="&#x7A;" horiz-adv-x="448" d=" M390,117 Q414,117 431,100 Q448,83 448,58 Q448,34 431,17 Q414,0 390,0 L98,0 Q61,0 45,34 Q40,44 40,59 Q40,80 53,96 L265,350 L98,350 Q74,350 57,367 Q40,384 40,408 Q40,433 57,450 Q74,467 98,467 L390,467 Q427,467 443,433 Q448,420 448,409 Q448,387 435,371 L223,117"/> 
            <glyph glyph-name="{" unicode="&#x7B;" horiz-adv-x="361" d=" M273,117 L302,117 Q327,117 344,100 Q361,83 361,58 Q361,34 344,17 Q327,0 302,0 L244,0 Q220,0 203,17 Q182,38 163,76 Q127,148 127,233 Q127,242 108.5,263.5 Q90,285 66,302 L50,318 Q40,332 40,350 Q40,382 66,399 Q85,411 102,429 Q127,454 127,467 Q127,552 163,624 Q182,662 203,683 Q220,700 244,700 L302,700 Q327,700 344,683 Q361,666 361,642 Q361,617 344,600 Q327,583 302,583 L273,583 Q244,535 244,467 Q244,408 188,350 Q244,292 244,233 Q244,165 273,117"/> 
            <glyph glyph-name="|" unicode="&#x7C;" horiz-adv-x="156" d=" M122,-59 Q74,-59 57,-42 Q40,-25 40,-1 L40,750 Q40,774 57,791 Q74,808 98,808 Q122,808 139,791 Q156,774 156,750 L156,-1 Q156,-25 122,-59"/> 
            <glyph glyph-name="}" unicode="&#x7D;" horiz-adv-x="361" d=" M127,583 L98,583 Q74,583 57,600 Q40,617 40,642 Q40,666 57,683 Q74,700 98,700 L157,700 Q181,700 198,683 L203,678 Q208,672 212.5,665.5 Q217,659 224.5,647.5 Q232,636 238,624 Q273,554 273,467 Q273,458 292,436.5 Q311,415 335,398 L351,382 Q361,368 361,350 Q361,318 335,301 Q334,301 329,297.5 Q324,294 315.5,286.5 Q307,279 299,271 Q273,245 273,233 Q273,146 238,76 Q232,64 224.5,52.5 Q217,41 212.5,34.5 Q208,28 203,22 L198,17 Q181,0 157,0 L98,0 Q74,0 57,17 Q40,34 40,58 Q40,83 57,100 Q74,117 98,117 L127,117 Q157,163 157,233 Q157,292 213,350 Q157,408 157,467 Q157,537 127,583"/> 
            <glyph glyph-name="~" unicode="&#x7E;" horiz-adv-x="361" d=" M244,554 Q220,554 189,568.5 Q158,583 149,583 Q132,554 98,554 Q74,554 57,571 Q40,588 40,612 Q40,643 67.5,671.5 Q95,700 157,700 Q180,700 211,685.5 Q242,671 252,671 Q269,700 303,700 Q327,700 344,683 Q361,666 361,642 Q361,597 329,575.5 Q297,554 244,554"/> 
            <glyph glyph-name="¡" unicode="&#xA1;" horiz-adv-x="157" d=" M123,0 Q75,0 57.5,17 Q40,34 40,58 L40,467 Q40,491 57.5,508 Q75,525 99,525 Q123,525 140,508 Q157,491 157,467 L157,58 Q157,34 123,0 M123,583 Q75,583 57.5,600 Q40,617 40,642 Q40,666 57.5,683 Q75,700 99,700 Q123,700 140,683 Q157,666 157,642 Q157,617 123,583"/> 
            <glyph glyph-name="£" unicode="&#xA3;" horiz-adv-x="504" d=" M481,166 Q504,149 504,119 Q504,95 492,83 Q436,16 371,3 Q358,0 341,0 Q279,0 231,49 Q221,58 210,58 Q177,58 139,20 Q123,3 98,3 Q73,3 57,19 Q40,36 40,61 Q40,86 56,102 L62,107 Q67,112 72.5,116.5 Q78,121 88,128.5 Q98,136 107.5,142 Q117,148 130,155 Q143,162 156,166 L156,294 L127,294 Q103,294 86,310.5 Q69,327 69,352 Q69,376 86,393 Q103,410 127,410 L156,410 L156,526 Q156,569 177,610 Q222,700 330,700 L388,700 Q412,700 429,683 Q446,666 446,642 Q446,618 429,601 Q412,584 388,584 L330,584 Q294,584 280,558 L272,526 L272,410 L359,410 Q383,410 400,393 Q417,376 417,352 Q417,327 400,310.5 Q383,294 359,294 L272,294 L272,161 Q295,150 313,131 Q328,116 341,116 Q342,116 345,116 L348,117 Q373,121 400,154 Q417,177 446,177 Q466,177 481,166"/> 
            <glyph glyph-name="¤" unicode="&#xA4;" horiz-adv-x="527" d=" M510,577 Q527,558 527,535 Q527,511 510,494 L463,447 Q488,402 488,350 Q488,298 463,253 L510,206 Q527,187 527,164 Q527,140 510,123 Q493,106 469,106 Q445,106 428,123 L381,170 Q336,146 283,146 Q231,146 186,170 L139,123 Q122,106 98,106 Q74,106 57,123 Q40,139 40,164 Q40,189 57,206 L104,253 Q79,298 79,350 Q79,402 104,447 L57,494 Q40,510 40,535 Q40,560 57,577 Q74,594 98,594 Q120,594 139,577 L186,530 Q231,554 283,554 Q336,554 381,530 L428,577 Q445,594 469,594 Q493,594 510,577 M222,288 Q247,263 283,263 Q320,263 345,288 Q370,313 370,350 Q370,387 345,412 Q319,438 283,438 Q274,438 259,431.5 Q244,425 234,419.5 Q224,414 222,412 Q196,387 196,350 Q196,313 222,288"/> 
            <glyph glyph-name="¥" unicode="&#xA5;" horiz-adv-x="565" d=" M540,689 Q565,672 565,642 Q565,624 554,608 L394,379 L448,379 Q473,379 490,362 Q507,345 507,321 Q507,296 490,279 Q473,262 448,262 L361,262 L361,233 L448,233 Q473,233 490,216 Q507,199 507,175 Q507,151 490,134 Q473,117 448,117 L361,117 L361,58 Q361,34 344,17 Q327,0 302,0 Q278,0 261,17 Q244,34 244,58 L244,117 L157,117 Q132,117 115,134 Q98,151 98,175 Q98,199 115,216 Q132,233 157,233 L244,233 L244,262 L157,262 Q132,262 115,279 Q98,296 98,321 Q98,345 115,362 Q132,379 157,379 L211,379 L51,608 Q40,625 40,642 Q40,670 65,689 Q79,699 98,699 Q130,699 146,675 L302,452 L459,675 Q476,700 507,700 Q524,700 540,689"/> 
            <glyph glyph-name="¦" unicode="&#xA6;" horiz-adv-x="156" d=" M122,-58 Q74,-58 57,-41 Q40,-24 40,0 L40,262 Q40,287 57,304 Q74,321 98,321 Q122,321 139,304 Q156,287 156,262 L156,0 Q156,-24 122,-58 M122,379 Q74,379 57,396 Q40,413 40,437 L40,692 Q40,716 57,733 Q74,750 98,750 Q122,750 139,733 Q156,716 156,692 L156,437 Q156,413 122,379"/> 
            <glyph glyph-name="§" unicode="&#xA7;" horiz-adv-x="321" d=" M264,246 Q321,207 321,140 Q321,82 280,41 Q239,0 181,0 Q131,0 92,31.5 Q53,63 43,112 Q42,115 42,121 Q42,135 51.5,146.5 Q61,158 75,160 Q78,161 83,161 Q97,161 108.5,151.5 Q120,142 122,129 Q127,108 143,94.5 Q159,81 181,81 Q206,81 223,98.5 Q240,116 240,140 Q240,159 227,173 Q214,187 168,202 L163,204 Q141,211 125,219 Q109,227 87,242.5 Q65,258 52.5,283.5 Q40,309 40,341 Q40,412 97,454 Q40,494 40,559 Q40,618 81,659 Q122,700 181,700 Q231,700 269.5,668.5 Q308,637 318,588 Q319,585 319,579 Q319,565 310,553.5 Q301,542 287,540 Q284,539 278,539 Q264,539 252.5,548 Q241,557 239,571 Q234,592 218,605.5 Q202,619 181,619 Q156,619 138.5,601.5 Q121,584 121,559 Q121,541 134.5,527 Q148,513 193,498 L199,496 Q220,488 236,480.5 Q252,473 274,457.5 Q296,442 308.5,416.5 Q321,391 321,359 Q321,288 264,246 M202,401 Q160,401 141,385 Q122,369 122,347 Q127,326 143,312.5 Q159,299 181,299 Q203,299 221,315 Q239,331 239,353 Q234,374 202,401"/> 
            <glyph glyph-name="¨" unicode="&#xA8;" horiz-adv-x="320" d=" M157,584 Q157,559 140,542 Q123,525 99,525 Q74,525 57,542 Q40,559 40,584 Q40,608 57,625 Q74,642 99,642 Q123,642 140,625 Q157,608 157,584 M320,584 Q320,559 303,542 Q286,525 262,525 Q238,525 221,542 Q204,559 204,584 Q204,608 221,625 Q238,642 262,642 Q286,642 303,625 Q320,608 320,584"/> 
            <glyph glyph-name="©" unicode="&#xA9;" horiz-adv-x="740" d=" M461,426 Q429,458 384,458 Q339,458 308,427 Q276,395 276,350 Q276,305 307,274 Q339,242 384,242 Q429,242 461,274 Q468,281 480,281 Q491,281 499,274 Q506,266 506,254 Q506,242 499,235 Q450,188 384,188 Q317,188 270,235 Q222,283 222,350 Q222,417 270,465 Q317,512 384,512 Q450,512 499,465 Q506,457 506,445 Q506,433 499,426 Q489,418 480,418 Q469,418 461,426 M638,597 Q740,495 740,350 Q740,206 638,102 Q536,0 390,0 Q245,0 143,102 Q40,205 40,350 Q40,495 142,597 Q245,700 390,700 Q537,700 638,597 M555,185 Q624,254 624,350 Q624,446 555,515 Q487,583 390,583 Q293,583 225,515 Q157,447 157,350 Q157,252 225,185 Q293,117 390,117 Q487,117 555,185"/> 
            <glyph glyph-name="«" unicode="&#xAB;" horiz-adv-x="562" d=" M57,391 L232,566 Q249,583 273,583 Q296,583 313,566 Q330,549 330,525 Q330,500 313,484 L179,350 L313,216 Q330,199 330,175 Q330,150 313,134 Q296,117 273,117 Q249,117 232,134 L57,309 Q40,326 40,350 Q40,372 57,391 M288,391 L464,566 Q483,583 505,583 Q528,583 545,566 Q562,549 562,525 Q562,500 545,484 L411,350 L545,216 Q562,199 562,175 Q562,150 545,134 Q528,117 504,117 Q481,117 464,134 L288,309 Q271,326 271,349 Q271,372 288,391"/> 
            <glyph glyph-name="®" unicode="&#xAE;" horiz-adv-x="740" d=" M491,472 Q491,336 436,309 L430,306 L486,231 Q491,225 491,215 Q491,201 480,193 Q473,188 464,188 Q451,188 443,199 L362,307 Q357,313 357,324 Q357,331 359,335 Q367,350 383,350 Q398,350 412,357 Q437,370 437,404 Q437,437 413,450 Q397,458 383,458 L343,458 L343,215 Q343,204 335,196 Q327,188 316,188 Q305,188 297,196 Q289,204 289,215 L289,485 Q289,496 297,504 Q305,512 316,512 L383,512 Q411,512 436,499 M638,597 Q740,495 740,350 Q740,205 638,103 Q535,0 390,0 Q245,0 143,102 Q40,205 40,350 Q40,495 142,597 Q245,700 390,700 Q535,700 638,597 M487,117 Q623,253 623,350 Q623,447 555,515 Q487,583 390,583 Q293,583 225,515 Q157,447 157,350 Q157,252 225,185 Q293,117 487,117"/> 
            <glyph glyph-name="°" unicode="&#xB0;" horiz-adv-x="388" d=" M286,352 Q142,352 91,403 Q40,454 40,526 Q40,598 91,649 Q142,700 214,700 Q286,700 337,649 Q388,598 388,526 Q388,454 286,352 M238,584 Q190,584 173,567 Q156,550 156,526 Q156,502 173,485 Q190,468 214,468 Q238,468 255,485 Q272,502 272,526 Q272,550 238,584"/> 
            <glyph glyph-name="±" unicode="&#xB1;" horiz-adv-x="448" d=" M390,117 Q414,117 431,100 Q448,83 448,58 Q448,34 431,17 Q414,0 390,0 L98,0 Q74,0 57,17 Q40,34 40,58 Q40,83 57,100 Q74,117 98,117 M98,292 Q74,292 57,309 Q40,326 40,350 Q40,374 57,391 Q74,408 98,408 L186,408 L186,496 Q186,520 203,537 Q220,554 244,554 Q268,554 285,537 Q302,520 302,496 L302,408 L390,408 Q414,408 431,391 Q448,374 448,350 Q448,326 431,309 Q414,292 390,292 L302,292 L302,204 Q302,180 285,163 Q268,146 244,146 Q220,146 203,163 Q186,180 186,204 L186,292"/> 
            <glyph glyph-name="²" unicode="&#xB2;" horiz-adv-x="273" d=" M239,316 L74,316 Q57,316 46,330 Q40,339 40,350 Q40,353 42,361 Q44,368 52.5,387 Q61,406 87,440 Q113,474 145,495 Q181,518 193,530.5 Q205,543 205,561 Q205,580 191,594 Q177,608 157,608 Q137,608 122.5,594 Q108,580 108,561 Q108,547 98,537 Q88,527 74,527 Q60,527 50,537 Q40,547 40,561 Q40,608 74,642 Q108,676 157,676 Q205,676 239,642 Q273,608 273,561 Q273,531 257.5,506 Q242,481 227.5,469.5 Q213,458 183,438 Q151,417 130,384 L239,384 Q253,384 263,374 Q273,364 273,350 Q273,336 263,326 Q253,316 239,316"/> 
            <glyph glyph-name="³" unicode="&#xB3;" horiz-adv-x="283" d=" M244,512 Q283,480 283,429 Q283,382 247,349 Q211,316 161,316 Q111,316 75.5,349 Q40,382 40,429 Q40,443 50,453 Q60,463 74,463 Q88,463 98,453 Q108,443 108,429 Q108,410 123.5,397 Q139,384 161,384 Q184,384 199.5,397 Q215,410 215,429 Q215,448 199.5,461.5 Q184,475 161,475 Q147,475 137,485 Q127,495 127,509 Q127,523 137,533 Q147,543 161,543 Q177,543 188,552 Q199,561 199,574 Q199,587 188,596 Q177,605 161,605 Q145,605 134.5,596 Q124,587 124,574 Q124,560 114,550 Q104,540 90,540 Q76,540 66,550 Q56,560 56,574 Q56,615 86.5,644 Q117,673 161,673 Q205,673 236,644 Q267,615 267,574 Q267,540 244,512"/> 
            <glyph glyph-name="´" unicode="&#xB4;" horiz-adv-x="273" d=" M98,525 Q62,525 46,557 Q40,569 40,583 Q40,618 72,635 L189,694 Q201,700 214,700 Q251,700 267,668 Q273,654 273,641 Q273,606 241,589 L124,531 Q112,525 98,525"/> 
            <glyph glyph-name="µ" unicode="&#xB5;" horiz-adv-x="414" d=" M355,466 Q380,466 397,449 Q414,432 414,408 L414,181 Q414,135 391,92 Q343,0 227,0 Q190,0 157,11 L157,-59 Q157,-83 140,-100 Q123,-117 99,-117 Q74,-117 57,-100 Q40,-83 40,-59 L40,408 Q40,432 57,449 Q74,466 99,466 Q123,466 140,449 Q157,432 157,408 L157,181 Q157,163 168,144 Q183,116 227,116 Q271,116 288,146 Q297,165 297,181 L297,408 Q297,432 314,449 Q331,466 355,466"/> 
            <glyph glyph-name="¶" unicode="&#xB6;" horiz-adv-x="446" d=" M388,698 Q412,698 429,681 Q446,664 446,640 L446,58 Q446,34 429,17 Q412,0 388,0 Q363,0 346,17 Q329,34 329,58 L329,293 L302,293 L302,60 Q302,36 285,18.5 Q268,1 244,1 Q220,1 203,18.5 Q186,36 186,60 L186,301 Q122,320 81,374 Q40,428 40,496 Q40,580 100,639 Q160,698 244,698 M329,409 L329,583 L244,583 L244,409"/> 
            <glyph glyph-name="¹" unicode="&#xB9;" horiz-adv-x="141" d=" M121,316 Q93,316 83,326 Q73,336 73,350 L73,608 Q59,609 49.5,619 Q40,629 40,642 Q40,656 50,666 Q60,676 74,676 L107,676 Q120,676 130.5,666 Q141,656 141,642 L141,350 Q141,336 121,316"/> 
            <glyph glyph-name="»" unicode="&#xBB;" horiz-adv-x="562" d=" M545,391 Q562,372 562,350 Q562,326 545,309 L370,134 Q353,117 329,117 Q306,117 289,134 Q272,150 272,175 Q272,199 289,216 L423,350 L289,484 Q272,500 272,525 Q272,549 289,566 Q306,583 329,583 Q353,583 370,566 M314,391 Q331,372 331,349 Q331,326 314,309 L138,134 Q121,117 98,117 Q74,117 57,134 Q40,150 40,175 Q40,199 57,216 L191,350 L57,484 Q40,500 40,525 Q40,549 57,566 Q74,583 97,583 Q119,583 138,566"/> 
            <glyph glyph-name="¼" unicode="&#xBC;" horiz-adv-x="602" d=" M514,691 Q541,674 541,642 Q541,624 531,610 L152,27 Q136,0 103,0 Q86,0 71,9 Q45,26 45,58 Q45,75 54,90 L434,673 Q451,700 483,700 Q499,700 514,691 M72,608 Q59,609 49.5,618.5 Q40,628 40,642 Q40,656 50,666 Q60,676 74,676 L106,676 Q120,676 130,666 Q140,656 140,642 L140,350 Q140,336 130,326 Q120,316 106,316 Q92,316 82,326 Q72,336 72,350 M602,327 L602,65 Q602,51 592,41 Q582,31 568,31 Q554,31 544,41 Q534,51 534,65 L534,178 L422,178 Q408,178 398,188 Q388,198 388,212 L388,327 Q388,341 398,351 Q408,361 422,361 Q436,361 446.5,351 Q457,341 457,327 L457,246 L534,246 L534,327 Q534,341 544,351 Q554,361 568,361 Q582,361 592,351 Q602,341 602,327"/> 
            <glyph glyph-name="½" unicode="&#xBD;" horiz-adv-x="633" d=" M515,691 Q541,674 541,642 Q541,625 532,610 L152,27 Q136,0 104,0 Q87,0 72,9 Q45,26 45,58 Q45,76 55,90 L434,673 Q451,700 484,700 Q500,700 515,691 M543,146 Q515,129 490,92 L599,92 Q613,92 623,82 Q633,72 633,58 Q633,44 623,34 Q613,24 599,24 L435,24 Q417,24 407,39 Q400,47 400,59 Q400,62 402,70 L404,76 Q407,81 411,89.5 Q415,98 421,109 Q427,120 435.5,132.5 Q444,145 454,157 Q464,169 477.5,181.5 Q491,194 506,204 Q541,226 553,239 Q565,252 565,270 Q565,289 551,302.5 Q537,316 517,316 Q497,316 483,302.5 Q469,289 469,270 Q469,256 459,246 Q449,236 435,236 Q421,236 411,246 Q401,256 401,270 Q401,317 435,350.5 Q469,384 517,384 Q565,384 599,350.5 Q633,317 633,270 Q633,247 626,228 Q619,209 603.5,193.5 Q588,178 576.5,169.5 Q565,161 543,146 M72,608 Q59,609 49.5,619 Q40,629 40,642 Q40,656 50,666 Q60,676 74,676 L106,676 Q120,676 130.5,666 Q141,656 141,642 L141,350 Q141,336 130.5,326 Q120,316 106,316 Q92,316 82,326 Q72,336 72,350"/> 
            <glyph glyph-name="¾" unicode="&#xBE;" horiz-adv-x="664" d=" M573,691 Q599,674 599,642 Q599,625 590,610 L211,27 Q193,0 162,0 Q145,0 130,9 Q103,26 103,58 Q103,76 113,90 L492,673 Q509,700 542,700 Q558,700 573,691 M283,432 Q283,385 247.5,352 Q212,319 162,319 Q112,319 76,352 Q40,385 40,432 Q40,446 50,456 Q60,466 74,466 Q88,466 98,456 Q108,446 108,432 Q108,413 124,400 Q140,387 162,387 Q184,387 199.5,400 Q215,413 215,432 Q215,451 199.5,464.5 Q184,478 162,478 Q148,478 138,488 Q128,498 128,512 Q128,526 138,536 Q148,546 162,546 Q177,546 188,555 Q199,564 199,577 Q199,590 188,599 Q177,608 162,608 Q146,608 135,599 Q124,590 124,577 Q124,563 114,553 Q104,543 90,543 Q76,543 66,553 Q56,563 56,577 Q56,618 87,647 Q118,676 162,676 Q205,676 236,647 Q267,618 267,577 Q267,541 244,515 Q283,481 283,432 M664,321 L664,58 Q664,44 654,34 Q644,24 630,24 Q616,24 606,34 Q596,44 596,58 L596,172 L484,172 Q470,172 460,182 Q450,192 450,206 L450,321 Q450,335 460,345 Q470,355 484,355 Q498,355 508,345 Q518,335 518,321 L518,240 L596,240 L596,321 Q596,335 606,345 Q616,355 630,355 Q644,355 654,345 Q664,335 664,321"/> 
            <glyph glyph-name="¿" unicode="&#xBF;" horiz-adv-x="460" d=" M337,0 Q163,0 101.5,61.5 Q40,123 40,210 Q40,281 82.5,336.5 Q125,392 191,412 L191,438 Q191,462 208.5,479 Q226,496 250,496 Q274,496 291,479 Q308,462 308,438 L308,362 Q308,337 291,320 Q274,303 250,303 Q211,303 184,275.5 Q157,248 157,210 Q157,172 184.5,144.5 Q212,117 250,117 Q283,117 302.5,132.5 Q322,148 329.5,170 Q337,192 343.5,214.5 Q350,237 363.5,252.5 Q377,268 402,268 Q426,268 443,251 Q460,234 460,210 Q460,123 337,0 M277,583 Q229,583 212,600 Q195,617 195,642 Q195,666 212,683 Q229,700 253,700 Q277,700 294,683 Q311,666 311,642 Q311,617 277,583"/> 
            <glyph glyph-name="À" unicode="&#xC0;" horiz-adv-x="623" d=" M390,725 Q376,725 364,731 L247,789 Q215,804 215,842 Q215,856 221,868 Q236,899 275,899 Q289,899 299,894 L416,835 Q448,818 448,783 Q448,769 442,757 Q426,725 390,725 M386,663 L619,80 Q623,71 623,58 Q623,35 606.5,17.5 Q590,0 565,0 Q547,0 532.5,10 Q518,20 511,37 L467,146 L196,146 L152,37 Q145,20 130.5,10 Q116,0 98,0 Q73,0 56.5,17.5 Q40,35 40,58 Q40,71 44,80 L277,663 Q292,700 332,700 Q349,700 364,689.5 Q379,679 386,663 M243,262 L332,262 L420,262 L332,485"/> 
            <glyph glyph-name="Á" unicode="&#xC1;" horiz-adv-x="623" d=" M273,725 Q237,725 221,757 Q215,769 215,783 Q215,818 247,835 L364,894 Q376,900 389,900 Q426,900 442,868 Q448,856 448,842 Q448,805 416,789 L299,731 Q287,725 273,725 M44,80 L277,663 Q284,679 299,689.5 Q314,700 331,700 Q371,700 386,663 L619,80 Q623,71 623,58 Q623,35 606.5,17.5 Q590,0 565,0 Q547,0 532.5,10 Q518,20 511,37 L467,146 L196,146 L152,37 Q145,20 130.5,10 Q116,0 98,0 Q73,0 56.5,17.5 Q40,35 40,58 Q40,71 44,80 M331,485 L243,262 L420,262"/> 
            <glyph glyph-name="Â" unicode="&#xC2;" horiz-adv-x="623" d=" M44,80 L277,663 Q284,679 299,689.5 Q314,700 331,700 Q371,700 386,663 L619,80 Q623,71 623,58 Q623,35 606.5,17.5 Q590,0 565,0 Q547,0 532.5,10 Q518,20 511,37 L467,146 L196,146 L152,37 Q145,20 130.5,10 Q116,0 98,0 Q73,0 56.5,17.5 Q40,35 40,58 Q40,71 44,80 M331,485 L243,262 L420,262 M331,900 Q344,900 358,894 L474,835 Q506,817 506,784 Q506,770 500,757 Q485,725 448,725 Q434,725 422,731 L331,776 L241,731 Q227,725 215,725 Q179,725 163,757 Q157,770 157,784 Q157,817 189,835 L305,894 Q318,900 331,900"/> 
            <glyph glyph-name="Ã" unicode="&#xC3;" horiz-adv-x="623" d=" M375,754 Q352,754 320,768.5 Q288,783 280,783 Q263,754 229,754 Q205,754 188,771 Q171,788 171,812 Q171,843 198.5,871.5 Q226,900 288,900 Q311,900 342,885.5 Q373,871 383,871 Q400,900 434,900 Q458,900 475,883 Q492,866 492,842 Q492,797 460,775.5 Q428,754 375,754 M386,663 L619,80 Q623,71 623,58 Q623,35 606.5,17.5 Q590,0 565,0 Q547,0 532.5,10 Q518,20 511,37 L467,146 L196,146 L152,37 Q145,20 130.5,10 Q116,0 98,0 Q73,0 56.5,17.5 Q40,35 40,58 Q40,71 44,80 L277,663 Q292,700 332,700 Q349,700 364,689.5 Q379,679 386,663 M243,262 L332,262 L420,262 L332,485"/> 
            <glyph glyph-name="Ä" unicode="&#xC4;" horiz-adv-x="623" d=" M308,842 Q308,817 291,800 Q274,783 250,783 Q226,783 208.5,800 Q191,817 191,842 Q191,866 208.5,883 Q226,900 250,900 Q274,900 291,883 Q308,866 308,842 M471,842 Q471,817 454,800 Q437,783 413,783 Q389,783 372,800 Q355,817 355,842 Q355,866 372,883 Q389,900 413,900 Q437,900 454,883 Q471,866 471,842 M44,80 L277,663 Q284,679 299,689.5 Q314,700 331,700 Q371,700 386,663 L619,80 Q623,71 623,58 Q623,35 606.5,17.5 Q590,0 565,0 Q547,0 532.5,10 Q518,20 511,37 L467,146 L196,146 L152,37 Q145,20 130.5,10 Q116,0 98,0 Q73,0 56.5,17.5 Q40,35 40,58 Q40,71 44,80 M331,485 L243,262 L420,262"/> 
            <glyph glyph-name="Å" unicode="&#xC5;" horiz-adv-x="623" d=" M409,605 L619,80 Q623,71 623,58 Q623,35 606.5,17.5 Q590,0 565,0 Q547,0 532.5,10 Q518,20 511,37 L467,146 L196,146 L152,37 Q145,20 130.5,10 Q116,0 98,0 Q73,0 56.5,17.5 Q40,35 40,58 Q40,71 44,80 L254,605 Q210,627 183,669 Q156,711 156,762 Q156,834 207.5,885.5 Q259,937 331,937 Q404,937 455,885.5 Q506,834 506,762 Q506,711 479.5,669 Q453,627 409,605 M331,820 Q307,820 290,803 Q273,786 273,762 Q273,738 290,720.5 Q307,703 331,703 Q356,703 373,720.5 Q390,738 390,762 Q390,786 373,803 Q356,820 331,820 M243,262 L332,262 L420,262 L332,485"/> 
            <glyph glyph-name="Æ" unicode="&#xC6;" horiz-adv-x="827" d=" M604,117 L769,117 Q793,117 810,100 Q827,83 827,58 Q827,34 810,17 Q793,0 769,0 L565,0 Q526,0 511,37 L467,146 L196,146 L152,37 Q145,20 130.5,10 Q116,0 98,0 Q73,0 56.5,18 Q40,36 40,59 Q40,71 44,80 L277,663 Q292,700 332,700 L568,700 Q592,700 609.5,683 Q627,666 627,642 Q627,617 609.5,600 Q592,583 568,583 L418,583 L488,408 L652,408 Q677,408 694,391 Q711,374 711,350 Q711,326 694,309 Q677,292 652,292 L534,292 M243,262 L420,262 L332,485"/> 
            <glyph glyph-name="È" unicode="&#xC8;" horiz-adv-x="507" d=" M332,725 Q318,725 306,731 L189,789 Q157,804 157,842 Q157,856 163,868 Q178,900 216,900 Q229,900 241,894 L358,835 Q390,818 390,783 Q390,769 384,757 Q368,725 332,725 M157,117 L448,117 Q472,117 489.5,100 Q507,83 507,58 Q507,34 489.5,17 Q472,0 448,0 L98,0 Q74,0 57,17 Q40,34 40,58 L40,642 Q40,666 57,683 Q74,700 98,700 L448,700 Q472,700 489.5,683 Q507,666 507,642 Q507,617 489.5,600 Q472,583 448,583 L157,583 L157,408 L390,408 Q414,408 431,391 Q448,374 448,350 Q448,326 431,309 Q414,292 390,292 L157,292"/> 
            <glyph glyph-name="É" unicode="&#xC9;" horiz-adv-x="507" d=" M215,725 Q179,725 163,757 Q157,769 157,783 Q157,818 189,835 L306,894 Q318,900 331,900 Q368,900 384,868 Q390,856 390,842 Q390,805 358,789 L241,731 Q229,725 215,725 M157,117 L448,117 Q472,117 489.5,100 Q507,83 507,58 Q507,34 489.5,17 Q472,0 448,0 L98,0 Q74,0 57,17 Q40,34 40,58 L40,642 Q40,666 57,683 Q74,700 98,700 L448,700 Q472,700 489.5,683 Q507,666 507,642 Q507,617 489.5,600 Q472,583 448,583 L157,583 L157,408 L390,408 Q414,408 431,391 Q448,374 448,350 Q448,326 431,309 Q414,292 390,292 L157,292"/> 
            <glyph glyph-name="Ê" unicode="&#xCA;" horiz-adv-x="507" d=" M273,900 Q286,900 300,894 L416,835 Q448,817 448,784 Q448,770 442,757 Q427,725 390,725 Q376,725 364,731 L273,776 L183,731 Q170,725 157,725 Q121,725 105,757 Q99,770 99,784 Q99,817 131,835 L247,894 Q261,900 273,900 M157,117 L448,117 Q472,117 489.5,100 Q507,83 507,58 Q507,34 489.5,17 Q472,0 448,0 L98,0 Q74,0 57,17 Q40,34 40,58 L40,642 Q40,666 57,683 Q74,700 98,700 L448,700 Q472,700 489.5,683 Q507,666 507,642 Q507,617 489.5,600 Q472,583 448,583 L157,583 L157,408 L390,408 Q414,408 431,391 Q448,374 448,350 Q448,326 431,309 Q414,292 390,292 L157,292"/> 
            <glyph glyph-name="Ë" unicode="&#xCB;" horiz-adv-x="507" d=" M250,842 Q250,817 233,800 Q216,783 192,783 Q168,783 150.5,800 Q133,817 133,842 Q133,866 150.5,883 Q168,900 192,900 Q216,900 233,883 Q250,866 250,842 M413,842 Q413,817 396,800 Q379,783 355,783 Q331,783 314,800 Q297,817 297,842 Q297,866 314,883 Q331,900 355,900 Q379,900 396,883 Q413,866 413,842 M157,117 L448,117 Q472,117 489.5,100 Q507,83 507,58 Q507,34 489.5,17 Q472,0 448,0 L98,0 Q74,0 57,17 Q40,34 40,58 L40,642 Q40,666 57,683 Q74,700 98,700 L448,700 Q472,700 489.5,683 Q507,666 507,642 Q507,617 489.5,600 Q472,583 448,583 L157,583 L157,408 L390,408 Q414,408 431,391 Q448,374 448,350 Q448,326 431,309 Q414,292 390,292 L157,292"/> 
            <glyph glyph-name="Ì" unicode="&#xCC;" horiz-adv-x="218" d=" M160,725 Q146,725 134,731 L17,789 Q-15,804 -15,842 Q-15,856 -9,868 Q6,900 43,900 Q57,900 69,894 L186,835 Q218,819 218,784 Q218,770 212,757 Q196,725 160,725 M102,0 Q77,0 60,17 Q43,34 43,58 L43,642 Q43,666 60,683 Q77,700 102,700 Q126,700 143,683 Q160,666 160,642 L160,58 Q160,34 143,17 Q126,0 102,0"/> 
            <glyph glyph-name="Í" unicode="&#xCD;" horiz-adv-x="218" d=" M43,725 Q7,725 -9,757 Q-15,769 -15,783 Q-15,818 17,835 L134,894 Q146,900 159,900 Q196,900 212,868 Q218,854 218,841 Q218,806 186,789 L69,731 Q57,725 43,725 M102,0 Q77,0 60,17 Q43,34 43,58 L43,642 Q43,666 60,683 Q77,700 102,700 Q126,700 143,683 Q160,666 160,642 L160,58 Q160,34 143,17 Q126,0 102,0"/> 
            <glyph glyph-name="Î" unicode="&#xCE;" horiz-adv-x="335" d=" M146,900 Q174,900 186,894 L303,835 Q335,819 335,782 Q335,769 329,757 Q312,725 277,725 Q263,725 251,731 L160,776 L69,731 Q57,725 43,725 Q6,725 -9,757 Q-15,770 -15,783 Q-15,816 17,835 L134,894 M184,0 Q136,0 119,17 Q102,34 102,58 L102,642 Q102,666 119,683 Q136,700 160,700 Q184,700 201,683 Q218,666 218,642 L218,58 Q218,34 184,0"/> 
            <glyph glyph-name="Ï" unicode="&#xCF;" horiz-adv-x="265" d=" M102,842 Q102,817 85,800 Q68,783 43,783 Q19,783 2,800 Q-15,817 -15,842 Q-15,866 2,883 Q19,900 43,900 Q68,900 85,883 Q102,866 102,842 M265,842 Q265,817 248,800 Q231,783 207,783 Q182,783 165,800 Q148,817 148,842 Q148,866 165,883 Q182,900 207,900 Q231,900 248,883 Q265,866 265,842 M149,0 Q101,0 84,17 Q67,34 67,58 L67,642 Q67,666 84,683 Q101,700 125,700 Q149,700 166,683 Q183,666 183,642 L183,58 Q183,34 149,0"/> 
            <glyph glyph-name="Ð" unicode="&#xD0;" horiz-adv-x="682" d=" M535,655 Q682,565 682,350 Q682,135 535,45 Q461,0 385,0 L215,0 Q191,0 174,17 Q157,34 157,58 L157,292 L98,292 Q74,292 57,309 Q40,326 40,350 Q40,374 57,391 Q74,408 98,408 L157,408 L157,642 Q157,666 174,683 Q191,700 215,700 L385,700 Q461,700 535,655 M477,147 Q565,203 565,350 Q565,499 474,555 Q428,583 385,583 L273,583 L273,408 L332,408 Q356,408 373,391 Q390,374 390,350 Q390,326 373,309 Q356,292 332,292 L273,292 L273,117 L385,117 Q431,117 477,147"/> 
            <glyph glyph-name="Ñ" unicode="&#xD1;" horiz-adv-x="565" d=" M346,754 Q322,754 291,768.5 Q260,783 251,783 Q234,754 200,754 Q176,754 159,771 Q142,788 142,812 Q142,843 169.5,871.5 Q197,900 259,900 Q282,900 313,885.5 Q344,871 354,871 Q371,900 405,900 Q429,900 446,883 Q463,866 463,842 Q463,797 431,775.5 Q399,754 346,754 M507,0 Q476,0 459,25 L157,457 L157,58 Q157,34 139.5,17 Q122,0 98,0 Q74,0 57,17 Q40,34 40,58 L40,642 Q40,665 57,682.5 Q74,700 99,700 Q129,700 146,675 L448,243 L448,642 Q448,666 465,683 Q482,700 507,700 Q531,700 548,683 Q565,666 565,642 L565,58 Q565,35 548,17.5 Q531,0 507,0"/> 
            <glyph glyph-name="Ò" unicode="&#xD2;" horiz-adv-x="711" d=" M515,0 Q237,0 138.5,102.5 Q40,205 40,350 Q40,495 138.5,597.5 Q237,700 376,700 Q515,700 613,597.5 Q711,495 711,350 Q711,205 515,0 M157,447 Q157,253 221,185 Q285,117 376,117 Q466,117 530,185 Q594,253 594,350 Q594,447 530,515 Q466,583 376,583 Q285,583 157,447 M408,731 L291,789 Q259,805 259,843 Q259,856 265,868 Q280,900 318,900 Q332,900 344,894 L460,835 Q492,817 492,783 Q492,770 486,757 Q470,725 434,725 Q420,725 408,731"/> 
            <glyph glyph-name="Ó" unicode="&#xD3;" horiz-adv-x="711" d=" M514,0 Q236,0 138,102.5 Q40,205 40,350 Q40,495 138,597.5 Q236,700 375,700 Q514,700 612.5,597.5 Q711,495 711,350 Q711,205 514,0 M375,583 Q285,583 221,515 Q157,447 157,350 Q157,253 221,185 Q285,117 375,117 Q466,117 530,185 Q594,253 594,350 Q594,447 530,515 Q466,583 375,583 M318,725 Q282,725 266,757 Q260,770 260,783 Q260,817 292,835 L408,894 Q420,900 434,900 Q472,900 487,868 Q493,856 493,843 Q493,805 461,789 L344,731 Q332,725 318,725"/> 
            <glyph glyph-name="Ô" unicode="&#xD4;" horiz-adv-x="711" d=" M515,0 Q237,0 138.5,102.5 Q40,205 40,350 Q40,495 138.5,597.5 Q237,700 376,700 Q515,700 613,597.5 Q711,495 711,350 Q711,205 515,0 M157,447 Q157,253 221,185 Q285,117 376,117 Q466,117 530,185 Q594,253 594,350 Q594,447 530,515 Q466,583 376,583 Q285,583 157,447 M375,900 Q388,900 402,894 L518,835 Q550,817 550,784 Q550,770 544,757 Q529,725 492,725 Q478,725 466,731 L375,776 L285,731 Q271,725 259,725 Q223,725 207,757 Q201,770 201,784 Q201,817 233,835 L349,894 Q362,900 375,900"/> 
            <glyph glyph-name="Õ" unicode="&#xD5;" horiz-adv-x="711" d=" M515,0 Q237,0 138.5,102.5 Q40,205 40,350 Q40,495 138.5,597.5 Q237,700 376,700 Q515,700 613,597.5 Q711,495 711,350 Q711,205 515,0 M157,447 Q157,253 221,185 Q285,117 376,117 Q466,117 530,185 Q594,253 594,350 Q594,447 530,515 Q466,583 376,583 Q285,583 157,447 M419,754 Q396,754 364,768.5 Q332,783 324,783 Q307,754 273,754 Q249,754 232,771 Q215,788 215,812 Q215,843 242.5,871.5 Q270,900 332,900 Q355,900 386,885.5 Q417,871 427,871 Q444,900 478,900 Q502,900 519,883 Q536,866 536,842 Q536,797 504,775.5 Q472,754 419,754"/> 
            <glyph glyph-name="Ö" unicode="&#xD6;" horiz-adv-x="711" d=" M514,0 Q236,0 138,102.5 Q40,205 40,350 Q40,495 138,597.5 Q236,700 375,700 Q514,700 612.5,597.5 Q711,495 711,350 Q711,205 514,0 M375,583 Q285,583 221,515 Q157,447 157,350 Q157,253 221,185 Q285,117 375,117 Q466,117 530,185 Q594,253 594,350 Q594,447 530,515 Q466,583 375,583 M353,842 Q353,817 336,800 Q319,783 295,783 Q270,783 253,800 Q236,817 236,842 Q236,866 253,883 Q270,900 295,900 Q319,900 336,883 Q353,866 353,842 M516,842 Q516,817 499,800 Q482,783 458,783 Q434,783 417,800 Q400,817 400,842 Q400,866 417,883 Q434,900 458,900 Q482,900 499,883 Q516,866 516,842"/> 
            <glyph glyph-name="×" unicode="&#xD7;" horiz-adv-x="362" d=" M283,350 L345,288 Q362,269 362,247 Q362,223 345,206 Q329,189 304,189 Q282,189 263,206 L201,267 L139,206 Q122,189 98,189 Q73,189 57,206 Q40,222 40,247 Q40,271 57,288 L118,350 L57,412 Q40,429 40,453 Q40,478 57,494 Q74,511 98,511 Q120,511 139,494 L201,432 L263,494 Q280,511 304,511 Q328,511 345,494 Q362,477 362,453 Q362,429 345,412"/> 
            <glyph glyph-name="Ø" unicode="&#xD8;" horiz-adv-x="711" d=" M637,568 Q711,471 711,350 Q711,205 612.5,102.5 Q514,0 375,0 Q279,0 199,52 L172,21 Q154,0 127,0 Q107,0 90,14 Q69,32 69,59 Q69,79 83,96 L113,132 Q40,227 40,350 Q40,495 138,597.5 Q236,700 375,700 Q470,700 552,648 L579,679 Q597,700 624,700 Q644,700 661,686 Q682,668 682,641 Q682,621 668,604 M157,350 Q157,279 192,224 L475,557 Q429,583 375,583 Q285,583 221,515 Q157,447 157,350 M375,117 Q466,117 530,185 Q594,253 594,350 Q594,419 559,476 L276,142 Q321,117 375,117"/> 
            <glyph glyph-name="Ù" unicode="&#xD9;" horiz-adv-x="535" d=" M346,725 Q334,725 320,731 L204,789 Q182,799 174,822.5 Q166,846 177,868 Q187,890 211,897.5 Q235,905 256,894 L372,835 Q394,824 401.5,802 Q409,780 398,757 Q382,725 346,725 M363,0 Q213,0 156.5,35 Q100,70 69,136 Q40,199 40,263 L40,642 Q40,666 57,683 Q74,700 98,700 Q122,700 139,683 Q156,666 156,642 L156,263 Q156,252 160.5,233 Q165,214 176.5,185.5 Q188,157 217.5,137 Q247,117 288,117 Q328,117 356.5,136 Q385,155 397,182.5 Q409,210 414,230 Q419,250 419,263 L419,642 Q419,666 436,683 Q453,700 477,700 Q501,700 518,683 Q535,666 535,642 L535,263 Q535,199 506,136 Q475,70 363,0"/> 
            <glyph glyph-name="Ú" unicode="&#xDA;" horiz-adv-x="535" d=" M229,725 Q192,725 176,757 Q165,779 173.5,801.5 Q182,824 203,835 L319,894 Q341,905 363.5,897 Q386,889 397,868 Q408,846 400.5,822.5 Q393,799 371,789 L255,731 Q242,725 229,725 M287,0 Q131,0 69,136 Q40,197 40,263 L40,642 Q40,666 57,683 Q74,700 98,700 Q122,700 139,683 Q156,666 156,642 L156,263 Q156,250 161,230 Q166,210 178,182.5 Q190,155 218.5,136 Q247,117 287,117 Q328,117 357.5,137 Q387,157 398.5,185.5 Q410,214 414.5,233 Q419,252 419,263 L419,642 Q419,666 436,683 Q453,700 477,700 Q501,700 518,683 Q535,666 535,642 L535,263 Q535,199 506,136 Q475,70 418.5,35 Q362,0 287,0"/> 
            <glyph glyph-name="Û" unicode="&#xDB;" horiz-adv-x="535" d=" M287,900 Q300,900 314,894 L430,835 Q452,824 459.5,802 Q467,780 456,757 Q446,735 423,727.5 Q400,720 378,731 L287,776 L197,731 Q175,720 152.5,727.5 Q130,735 119,757 Q108,780 115.5,802 Q123,824 145,835 L261,894 Q274,900 287,900 M363,0 Q213,0 156.5,35 Q100,70 69,136 Q40,199 40,263 L40,642 Q40,666 57,683 Q74,700 98,700 Q122,700 139,683 Q156,666 156,642 L156,263 Q156,252 160.5,233 Q165,214 176.5,185.5 Q188,157 217.5,137 Q247,117 288,117 Q328,117 356.5,136 Q385,155 397,182.5 Q409,210 414,230 Q419,250 419,263 L419,642 Q419,666 436,683 Q453,700 477,700 Q501,700 518,683 Q535,666 535,642 L535,263 Q535,199 506,136 Q475,70 363,0"/> 
            <glyph glyph-name="Ü" unicode="&#xDC;" horiz-adv-x="535" d=" M265,842 Q265,817 248,800 Q231,783 206,783 Q182,783 165,800 Q148,817 148,842 Q148,866 165,883 Q182,900 206,900 Q231,900 248,883 Q265,866 265,842 M428,842 Q428,817 411,800 Q394,783 370,783 Q345,783 328,800 Q311,817 311,842 Q311,866 328,883 Q345,900 370,900 Q394,900 411,883 Q428,866 428,842 M287,0 Q212,0 156,35 Q100,70 69,136 Q40,199 40,263 L40,642 Q40,666 57,683 Q74,700 98,700 Q122,700 139,683 Q156,666 156,642 L156,263 Q156,250 161,230 Q166,210 178,182.5 Q190,155 219,136 Q248,117 288,117 Q329,117 358,137 Q387,157 398.5,185.5 Q410,214 414.5,233 Q419,252 419,263 L419,642 Q419,666 436,683 Q453,700 477,700 Q501,700 518,683 Q535,666 535,642 L535,263 Q535,199 506,136 Q475,70 419,35 Q363,0 287,0"/> 
            <glyph glyph-name="ß" unicode="&#xDF;" horiz-adv-x="507" d=" M417,400 Q507,341 507,219 Q507,116 447,61.5 Q387,7 307,1 Q306,0 303,0 L244,0 Q220,0 203,17 Q186,34 186,58 Q186,82 203,99.5 Q220,117 244,117 L300,117 Q331,120 354,136 Q390,160 390,219 Q390,282 347,306 Q321,321 295,321 L244,321 Q220,321 203,338 Q186,355 186,379 Q186,403 203,420.5 Q220,438 244,438 L258,438 Q281,438 301,449 Q332,467 332,510 Q332,554 301,572 Q292,577 281.5,579.5 Q271,582 265,583 L259,584 Q257,584 254.5,583.5 Q252,583 251,583 L157,583 L157,58 Q157,34 139.5,17 Q122,0 98,0 Q74,0 57,17 Q40,34 40,58 L40,642 Q40,666 57,683 Q74,700 98,700 L259,700 Q305,700 350,677 Q448,629 448,510 Q448,446 417,400"/> 
            <glyph glyph-name="à" unicode="&#xE0;" horiz-adv-x="448" d=" M447,122 L448,58 Q448,35 430.5,17.5 Q413,0 390,0 Q353,0 338,32 Q306,16 269,8 Q225,1 206,1 Q142,1 99.5,32 Q57,63 44,120 Q40,135 40,153 Q40,196 66,230 Q116,295 245,300 Q252,300 266.5,300.5 Q281,301 289,301 Q313,301 327,299 Q321,329 307,338 Q285,350 257,350 Q202,350 160,316 Q144,303 123,303 Q96,303 78,324 Q65,340 65,361 Q65,390 86,406 Q148,457 228,465 Q237,466 255,466 Q317,466 364,440 Q400,420 420.5,379.5 Q441,339 444,317 Q447,295 447,279 M318,170 Q322,178 322,182 Q308,184 289,184 Q262,184 249,183 Q175,180 159,160 Q156,157 156,153 Q156,149 157,147 Q159,138 161.5,133.5 Q164,129 175.5,123.5 Q187,118 206,118 Q224,118 244,122 Q246,123 248,123 Q297,132 318,170 M277,531 L160,589 Q128,606 128,641 Q128,654 134,668 Q150,700 187,700 Q200,700 212,694 L329,635 Q361,618 361,583 Q361,569 355,557 Q339,525 303,525 Q289,525 277,531"/> 
            <glyph glyph-name="á" unicode="&#xE1;" horiz-adv-x="448" d=" M447,122 L448,58 Q448,35 430.5,17.5 Q413,0 390,0 Q353,0 338,32 Q306,16 269,8 Q225,1 206,1 Q142,1 99.5,32 Q57,63 44,120 Q40,135 40,153 Q40,196 66,230 Q116,295 245,300 Q252,300 266.5,300.5 Q281,301 289,301 Q313,301 327,299 Q321,329 307,338 Q285,350 257,350 Q202,350 160,316 Q144,303 123,303 Q96,303 78,324 Q65,340 65,361 Q65,390 86,406 Q148,457 228,465 Q237,466 255,466 Q317,466 364,440 Q400,420 420.5,379.5 Q441,339 444,317 Q447,295 447,279 M318,170 Q322,178 322,182 Q308,184 289,184 Q262,184 249,183 Q175,180 159,160 Q156,157 156,153 Q156,149 157,147 Q159,138 161.5,133.5 Q164,129 175.5,123.5 Q187,118 206,118 Q224,118 244,122 Q246,123 248,123 Q297,132 318,170 M185,525 Q149,525 133,557 Q127,569 127,583 Q127,618 159,635 L276,694 Q288,700 301,700 Q338,700 354,668 Q360,654 360,641 Q360,606 328,589 L211,531 Q199,525 185,525"/> 
            <glyph glyph-name="â" unicode="&#xE2;" horiz-adv-x="448" d=" M447,122 L448,58 Q448,35 430.5,17.5 Q413,0 390,0 Q353,0 338,32 Q306,16 269,8 Q225,1 206,1 Q142,1 99.5,32 Q57,63 44,120 Q40,135 40,153 Q40,196 66,230 Q116,295 245,300 Q252,300 266.5,300.5 Q281,301 289,301 Q313,301 327,299 Q321,329 307,338 Q285,350 257,350 Q202,350 160,316 Q144,303 123,303 Q96,303 78,324 Q65,340 65,361 Q65,390 86,406 Q148,457 228,465 Q237,466 255,466 Q317,466 364,440 Q400,420 420.5,379.5 Q441,339 444,317 Q447,295 447,279 M318,170 Q322,178 322,182 Q308,184 289,184 Q262,184 249,183 Q175,180 159,160 Q156,157 156,153 Q156,149 157,147 Q159,138 161.5,133.5 Q164,129 175.5,123.5 Q187,118 206,118 Q224,118 244,122 Q246,123 248,123 Q297,132 318,170 M243,700 Q256,700 270,694 L386,635 Q418,617 418,584 Q418,570 412,557 Q397,525 360,525 Q346,525 334,531 L243,576 L153,531 Q140,525 127,525 Q91,525 75,557 Q69,570 69,584 Q69,617 101,635 L217,694 Q231,700 243,700"/> 
            <glyph glyph-name="ã" unicode="&#xE3;" horiz-adv-x="448" d=" M447,122 L448,58 Q448,35 430.5,17.5 Q413,0 390,0 Q353,0 338,32 Q306,16 269,8 Q225,1 206,1 Q142,1 99.5,32 Q57,63 44,120 Q40,135 40,153 Q40,196 66,230 Q116,295 245,300 Q252,300 266.5,300.5 Q281,301 289,301 Q313,301 327,299 Q321,329 307,338 Q285,350 257,350 Q202,350 160,316 Q144,303 123,303 Q96,303 78,324 Q65,340 65,361 Q65,390 86,406 Q148,457 228,465 Q237,466 255,466 Q317,466 364,440 Q400,420 420.5,379.5 Q441,339 444,317 Q447,295 447,279 M318,170 Q322,178 322,182 Q308,184 289,184 Q262,184 249,183 Q175,180 159,160 Q156,157 156,153 Q156,149 157,147 Q159,138 161.5,133.5 Q164,129 175.5,123.5 Q187,118 206,118 Q224,118 244,122 Q246,123 248,123 Q297,132 318,170 M287,554 Q264,554 232,568.5 Q200,583 192,583 Q175,554 141,554 Q117,554 100,571 Q83,588 83,612 Q83,643 110.5,671.5 Q138,700 200,700 Q223,700 254,685.5 Q285,671 295,671 Q312,700 346,700 Q370,700 387,683 Q404,666 404,642 Q404,597 372,575.5 Q340,554 287,554"/> 
            <glyph glyph-name="ä" unicode="&#xE4;" horiz-adv-x="448" d=" M447,122 L448,58 Q448,35 430.5,17.5 Q413,0 390,0 Q353,0 338,32 Q306,16 269,8 Q225,1 206,1 Q142,1 99.5,32 Q57,63 44,120 Q40,135 40,153 Q40,196 66,230 Q116,295 245,300 Q252,300 266.5,300.5 Q281,301 289,301 Q313,301 327,299 Q321,329 307,338 Q285,350 257,350 Q202,350 160,316 Q144,303 123,303 Q96,303 78,324 Q65,340 65,361 Q65,390 86,406 Q148,457 228,465 Q237,466 255,466 Q317,466 364,440 Q400,420 420.5,379.5 Q441,339 444,317 Q447,295 447,279 M318,170 Q322,178 322,182 Q308,184 289,184 Q262,184 249,183 Q175,180 159,160 Q156,157 156,153 Q156,149 157,147 Q159,138 161.5,133.5 Q164,129 175.5,123.5 Q187,118 206,118 Q224,118 244,122 Q246,123 248,123 Q297,132 318,170 M221,584 Q221,559 204,542 Q187,525 163,525 Q138,525 121,542 Q104,559 104,584 Q104,608 121,625 Q138,642 163,642 Q187,642 204,625 Q221,608 221,584 M384,584 Q384,559 367,542 Q350,525 326,525 Q302,525 285,542 Q268,559 268,584 Q268,608 285,625 Q302,642 326,642 Q350,642 367,625 Q384,608 384,584"/> 
            <glyph glyph-name="æ" unicode="&#xE6;" horiz-adv-x="740" d=" M740,243 Q740,219 723,202 Q706,185 682,185 L457,185 Q481,120 538,117 Q580,117 612,153 Q630,172 655,172 Q678,172 694,157 Q713,139 713,113 Q713,90 698,74 Q631,0 535,0 Q446,0 385,77 Q360,42 317.5,21 Q275,0 226,0 Q149,0 94.5,47 Q40,94 40,160 Q40,227 94.5,274 Q149,321 226,321 Q284,321 332,292 L332,350 L157,350 Q132,350 115,367 Q98,384 98,408 Q98,433 115,450 Q132,467 157,467 L390,467 Q423,467 439,439 Q484,467 536,467 Q622,467 682,401 Q740,337 740,243 M200,117 Q252,117 273.5,129.5 Q295,142 295,160 Q295,178 273.5,191 Q252,204 226,204 Q200,204 178.5,191 Q157,178 157,160 Q157,142 200,117 M465,301 L610,301 Q586,350 536,350 Q491,350 465,301"/> 
            <glyph glyph-name="è" unicode="&#xE8;" horiz-adv-x="448" d=" M277,531 L160,589 Q128,606 128,641 Q128,654 134,668 Q150,700 187,700 Q200,700 212,694 L329,635 Q361,618 361,583 Q361,569 355,557 Q339,525 303,525 Q289,525 277,531 M258,0 Q244,0 240,1 Q145,6 90,75 Q40,139 40,234 Q40,331 100,399 Q160,467 244,467 Q332,467 390,401 Q448,338 448,244 Q448,220 431,202.5 Q414,185 390,185 L163,185 Q183,119 246,117 L252,117 Q295,117 320,135 Q335,144 352,144 Q384,144 401,118 Q411,105 411,87 Q411,54 384,37 Q328,0 258,0 M174,302 L319,302 Q294,351 244,351 Q201,351 174,302"/> 
            <glyph glyph-name="é" unicode="&#xE9;" horiz-adv-x="448" d=" M185,525 Q149,525 133,557 Q127,569 127,583 Q127,618 159,635 L276,694 Q288,700 301,700 Q338,700 354,668 Q360,654 360,641 Q360,606 328,589 L211,531 Q199,525 185,525 M258,0 Q244,0 240,1 Q145,6 90,75 Q40,139 40,234 Q40,331 100,399 Q160,467 244,467 Q332,467 390,401 Q448,338 448,244 Q448,220 431,202.5 Q414,185 390,185 L163,185 Q183,119 246,117 L252,117 Q295,117 320,135 Q335,144 352,144 Q384,144 401,118 Q411,105 411,87 Q411,54 384,37 Q328,0 258,0 M174,302 L319,302 Q294,351 244,351 Q201,351 174,302"/> 
            <glyph glyph-name="ê" unicode="&#xEA;" horiz-adv-x="448" d=" M243,700 Q256,700 270,694 L386,635 Q418,617 418,584 Q418,570 412,557 Q397,525 360,525 Q346,525 334,531 L243,576 L153,531 Q140,525 127,525 Q91,525 75,557 Q69,570 69,584 Q69,617 101,635 L217,694 Q231,700 243,700 M258,0 Q244,0 240,1 Q145,6 90,75 Q40,139 40,234 Q40,331 100,399 Q160,467 244,467 Q332,467 390,401 Q448,338 448,244 Q448,220 431,202.5 Q414,185 390,185 L163,185 Q183,119 246,117 L252,117 Q295,117 320,135 Q335,144 352,144 Q384,144 401,118 Q411,105 411,87 Q411,54 384,37 Q328,0 258,0 M174,302 L319,302 Q294,351 244,351 Q201,351 174,302"/> 
            <glyph glyph-name="ë" unicode="&#xEB;" horiz-adv-x="448" d=" M221,584 Q221,559 204,542 Q187,525 163,525 Q138,525 121,542 Q104,559 104,584 Q104,608 121,625 Q138,642 163,642 Q187,642 204,625 Q221,608 221,584 M384,584 Q384,559 367,542 Q350,525 326,525 Q302,525 285,542 Q268,559 268,584 Q268,608 285,625 Q302,642 326,642 Q350,642 367,625 Q384,608 384,584 M258,0 Q244,0 240,1 Q145,6 90,75 Q40,139 40,234 Q40,331 100,399 Q160,467 244,467 Q332,467 390,401 Q448,338 448,244 Q448,220 431,202.5 Q414,185 390,185 L163,185 Q183,119 246,117 L252,117 Q295,117 320,135 Q335,144 352,144 Q384,144 401,118 Q411,105 411,87 Q411,54 384,37 Q328,0 258,0 M174,302 L319,302 Q294,351 244,351 Q201,351 174,302"/> 
            <glyph glyph-name="ì" unicode="&#xEC;" horiz-adv-x="273" d=" M189,531 L72,589 Q40,606 40,641 Q40,654 46,668 Q62,700 99,700 Q112,700 124,694 L241,635 Q273,618 273,583 Q273,569 267,557 Q251,525 215,525 Q201,525 189,531 M97,58 L97,408 Q97,432 114.5,449.5 Q132,467 156,467 Q180,467 197,449.5 Q214,432 214,408 L214,58 Q214,34 197,17 Q180,0 156,0 Q132,0 114.5,17 Q97,34 97,58"/> 
            <glyph glyph-name="í" unicode="&#xED;" horiz-adv-x="273" d=" M98,525 Q62,525 46,557 Q40,569 40,583 Q40,618 72,635 L189,694 Q201,700 214,700 Q251,700 267,668 Q273,654 273,641 Q273,606 241,589 L124,531 Q112,525 98,525 M180,0 Q132,0 115,17 Q98,34 98,58 L98,408 Q98,432 115,449.5 Q132,467 156,467 Q180,467 197.5,449.5 Q215,432 215,408 L215,58 Q215,34 180,0"/> 
            <glyph glyph-name="î" unicode="&#xEE;" horiz-adv-x="389" d=" M214,700 Q228,700 241,694 L357,635 Q389,617 389,584 Q389,570 383,557 Q368,525 331,525 Q317,525 305,531 L214,576 L124,531 Q110,525 98,525 Q62,525 46,557 Q40,570 40,584 Q40,617 72,635 L188,694 Q201,700 214,700 M156,58 L156,408 Q156,432 173.5,449.5 Q191,467 215,467 Q239,467 256,449.5 Q273,432 273,408 L273,58 Q273,34 256,17 Q239,0 215,0 Q191,0 173.5,17 Q156,34 156,58"/> 
            <glyph glyph-name="ï" unicode="&#xEF;" horiz-adv-x="320" d=" M157,584 Q157,559 140,542 Q123,525 99,525 Q74,525 57,542 Q40,559 40,584 Q40,608 57,625 Q74,642 99,642 Q123,642 140,625 Q157,608 157,584 M320,584 Q320,559 303,542 Q286,525 262,525 Q238,525 221,542 Q204,559 204,584 Q204,608 221,625 Q238,642 262,642 Q286,642 303,625 Q320,608 320,584 M203,0 Q155,0 138,17 Q121,34 121,58 L121,408 Q121,432 138,449.5 Q155,467 179,467 Q203,467 220.5,449.5 Q238,432 238,408 L238,58 Q238,34 203,0"/> 
            <glyph glyph-name="ñ" unicode="&#xF1;" horiz-adv-x="448" d=" M287,554 Q264,554 232,568.5 Q200,583 192,583 Q175,554 141,554 Q117,554 100,571 Q83,588 83,612 Q83,643 110.5,671.5 Q138,700 200,700 Q223,700 254,685.5 Q285,671 295,671 Q312,700 346,700 Q370,700 387,683 Q404,666 404,642 Q404,597 372,575.5 Q340,554 287,554 M366,467 Q414,467 431,450 Q448,433 448,408 L448,58 Q448,40 437.5,25 Q427,10 410,4 Q401,0 389,0 Q363,0 345,21 L157,247 L157,58 Q157,34 140,17 Q123,0 98,0 Q74,0 57,17 Q40,34 40,58 L40,408 Q40,427 50.5,442 Q61,457 78,463 Q87,467 99,467 Q125,467 143,446 L332,220 L332,408 Q332,433 366,467"/> 
            <glyph glyph-name="ò" unicode="&#xF2;" horiz-adv-x="507" d=" M307,531 L190,589 Q158,606 158,641 Q158,654 164,668 Q180,700 217,700 Q230,700 242,694 L359,635 Q391,618 391,583 Q391,569 385,557 Q369,525 333,525 Q319,525 307,531 M273,467 Q370,467 438.5,398.5 Q507,330 507,233 Q507,137 438.5,68.5 Q370,0 273,0 Q177,0 108.5,68.5 Q40,137 40,233 Q40,330 108.5,398.5 Q177,467 273,467 M273,117 Q322,117 356,151 Q390,185 390,233 Q390,282 356,316 Q322,350 273,350 Q225,350 191,316 Q157,282 157,233 Q157,185 191,151 Q225,117 273,117"/> 
            <glyph glyph-name="ó" unicode="&#xF3;" horiz-adv-x="507" d=" M215,525 Q179,525 163,557 Q157,569 157,583 Q157,618 189,635 L306,694 Q318,700 331,700 Q368,700 384,668 Q390,654 390,641 Q390,606 358,589 L241,531 Q229,525 215,525 M274,467 Q370,467 438.5,398.5 Q507,330 507,233 Q507,137 438.5,68.5 Q370,0 274,0 Q177,0 108.5,68.5 Q40,137 40,233 Q40,330 108.5,398.5 Q177,467 274,467 M157,233 Q157,185 191,151 Q225,117 274,117 Q322,117 356,151 Q390,185 390,233 Q390,282 356,316 Q322,350 274,350 Q225,350 191,316 Q157,282 157,233"/> 
            <glyph glyph-name="ô" unicode="&#xF4;" horiz-adv-x="507" d=" M273,700 Q286,700 300,694 L416,635 Q448,617 448,584 Q448,570 442,557 Q427,525 390,525 Q376,525 364,531 L273,576 L183,531 Q169,525 157,525 Q121,525 105,557 Q99,570 99,584 Q99,617 131,635 L247,694 Q261,700 273,700 M274,467 Q370,467 438.5,398.5 Q507,330 507,233 Q507,137 438.5,68.5 Q370,0 274,0 Q177,0 108.5,68.5 Q40,137 40,233 Q40,330 108.5,398.5 Q177,467 274,467 M157,233 Q157,185 191,151 Q225,117 274,117 Q322,117 356,151 Q390,185 390,233 Q390,282 356,316 Q322,350 274,350 Q225,350 191,316 Q157,282 157,233"/> 
            <glyph glyph-name="õ" unicode="&#xF5;" horiz-adv-x="507" d=" M317,554 Q293,554 261.5,568.5 Q230,583 222,583 Q205,554 171,554 Q147,554 130,571 Q113,588 113,612 Q113,643 140.5,671.5 Q168,700 230,700 Q253,700 284,685.5 Q315,671 325,671 Q342,700 376,700 Q400,700 417,683 Q434,666 434,642 Q434,597 402,575.5 Q370,554 317,554 M274,467 Q370,467 438.5,398.5 Q507,330 507,233 Q507,137 438.5,68.5 Q370,0 274,0 Q177,0 108.5,68.5 Q40,137 40,233 Q40,330 108.5,398.5 Q177,467 274,467 M157,233 Q157,185 191,151 Q225,117 274,117 Q322,117 356,151 Q390,185 390,233 Q390,282 356,316 Q322,350 274,350 Q225,350 191,316 Q157,282 157,233"/> 
            <glyph glyph-name="ö" unicode="&#xF6;" horiz-adv-x="507" d=" M274,467 Q370,467 438.5,398.5 Q507,330 507,233 Q507,137 438.5,68.5 Q370,0 274,0 Q177,0 108.5,68.5 Q40,137 40,233 Q40,330 108.5,398.5 Q177,467 274,467 M157,233 Q157,185 191,151 Q225,117 274,117 Q322,117 356,151 Q390,185 390,233 Q390,282 356,316 Q322,350 274,350 Q225,350 191,316 Q157,282 157,233 M251,584 Q251,559 234,542 Q217,525 193,525 Q168,525 151,542 Q134,559 134,584 Q134,608 151,625 Q168,642 193,642 Q217,642 234,625 Q251,608 251,584 M414,584 Q414,559 397,542 Q380,525 356,525 Q332,525 315,542 Q298,559 298,584 Q298,608 315,625 Q332,642 356,642 Q380,642 397,625 Q414,608 414,584"/> 
            <glyph glyph-name="ø" unicode="&#xF8;" horiz-adv-x="478" d=" M447,114 L462,98 Q478,82 478,58 Q478,31 459,15 Q442,0 419,0 Q394,0 376,19 L366,30 Q315,0 259,0 Q168,0 104,68.5 Q40,137 40,233 Q40,298 71,352 L56,369 Q40,385 40,409 Q40,435 59,451 Q75,466 99,466 Q124,466 142,448 L152,437 Q201,467 259,467 Q350,467 414,398.5 Q478,330 478,233 Q478,171 447,114 M259,350 Q246,350 234,347 L359,210 Q361,226 361,233 Q361,282 331,316 Q301,350 259,350 M259,117 Q272,117 284,120 L159,256 Q157,242 157,233 Q157,185 187,151 Q217,117 259,117"/> 
            <glyph glyph-name="ù" unicode="&#xF9;" horiz-adv-x="414" d=" M99,467 Q123,467 140,450 Q157,433 157,408 L157,181 Q157,163 168,144 Q183,117 227,117 Q271,117 286,144 Q297,163 297,181 L297,408 Q297,433 314,450 Q331,467 355,467 Q379,467 396.5,450 Q414,433 414,408 L414,181 Q414,136 391,93 Q343,0 227,0 Q111,0 63,93 Q40,136 40,181 L40,408 Q40,433 57,450 Q74,467 99,467 M260,531 L143,589 Q111,606 111,641 Q111,654 117,668 Q133,700 170,700 Q183,700 195,694 L312,635 Q344,618 344,583 Q344,569 338,557 Q322,525 286,525 Q272,525 260,531"/> 
            <glyph glyph-name="ú" unicode="&#xFA;" horiz-adv-x="414" d=" M331,467 Q379,467 396.5,450 Q414,433 414,408 L414,181 Q414,136 391,93 Q343,0 227,0 Q111,0 63,93 Q40,136 40,181 L40,408 Q40,433 57,450 Q74,467 99,467 Q123,467 140,450 Q157,433 157,408 L157,181 Q157,163 168,144 Q183,117 227,117 Q271,117 286,144 Q297,163 297,181 L297,408 Q297,433 331,467 M168,525 Q132,525 116,557 Q110,569 110,583 Q110,618 142,635 L259,694 Q271,700 284,700 Q321,700 337,668 Q343,654 343,641 Q343,606 311,589 L194,531 Q182,525 168,525"/> 
            <glyph glyph-name="û" unicode="&#xFB;" horiz-adv-x="414" d=" M331,467 Q379,467 396.5,450 Q414,433 414,408 L414,181 Q414,136 391,93 Q343,0 227,0 Q111,0 63,93 Q40,136 40,181 L40,408 Q40,433 57,450 Q74,467 99,467 Q123,467 140,450 Q157,433 157,408 L157,181 Q157,163 168,144 Q183,117 227,117 Q271,117 286,144 Q297,163 297,181 L297,408 Q297,433 331,467 M226,700 Q240,700 253,694 L369,635 Q401,617 401,584 Q401,570 395,557 Q380,525 343,525 Q329,525 317,531 L226,576 L136,531 Q123,525 110,525 Q74,525 58,557 Q52,570 52,584 Q52,617 84,635 L200,694 Q214,700 226,700"/> 
            <glyph glyph-name="ü" unicode="&#xFC;" horiz-adv-x="414" d=" M331,467 Q379,467 396.5,450 Q414,433 414,408 L414,181 Q414,136 391,93 Q343,0 227,0 Q111,0 63,93 Q40,136 40,181 L40,408 Q40,433 57,450 Q74,467 99,467 Q123,467 140,450 Q157,433 157,408 L157,181 Q157,163 168,144 Q183,117 227,117 Q271,117 286,144 Q297,163 297,181 L297,408 Q297,433 331,467 M204,584 Q204,559 187,542 Q170,525 146,525 Q121,525 104,542 Q87,559 87,584 Q87,608 104,625 Q121,642 146,642 Q170,642 187,625 Q204,608 204,584 M367,584 Q367,559 350,542 Q333,525 309,525 Q285,525 268,542 Q251,559 251,584 Q251,608 268,625 Q285,642 309,642 Q333,642 350,625 Q367,608 367,584"/> 
            <glyph glyph-name="ý" unicode="&#xFD;" horiz-adv-x="489" d=" M206,540 Q170,540 154,572 Q148,584 148,598 Q148,633 180,650 L297,709 Q309,715 322,715 Q359,715 375,683 Q381,671 381,657 Q381,620 349,604 L232,546 Q220,540 206,540 M483,383 L317,33 L310,22 L210,-199 Q195,-233 157,-233 Q142,-233 132,-228 Q99,-214 99,-175 Q99,-161 104,-151 L199,60 L46,383 Q40,395 40,408 Q40,445 73,461 Q85,467 98,467 Q135,467 151,433 L265,194 L378,433 Q394,467 431,467 Q444,467 456,461 Q489,445 489,408 Q489,395 483,383"/> 
            <glyph glyph-name="ÿ" unicode="&#xFF;" horiz-adv-x="489" d=" M242,599 Q242,574 225,557 Q208,540 184,540 Q159,540 142,557 Q125,574 125,599 Q125,623 142,640 Q159,657 184,657 Q208,657 225,640 Q242,623 242,599 M405,599 Q405,574 388,557 Q371,540 347,540 Q323,540 306,557 Q289,574 289,599 Q289,623 306,640 Q323,657 347,657 Q371,657 388,640 Q405,623 405,599 M483,383 L317,33 L310,22 L210,-199 Q195,-233 157,-233 Q142,-233 132,-228 Q99,-214 99,-175 Q99,-161 104,-151 L199,60 L46,383 Q40,395 40,408 Q40,445 73,461 Q85,467 98,467 Q135,467 151,433 L265,194 L378,433 Q394,467 431,467 Q444,467 456,461 Q489,445 489,408 Q489,395 483,383"/> 
            <glyph glyph-name="ı" unicode="&#x131;" horiz-adv-x="242" d=" M185,463 Q209,463 225.5,446 Q242,429 242,405 L242,58 Q242,34 225.5,17 Q209,0 185,0 Q161,0 144,17 Q127,34 127,58 L127,347 L98,347 Q74,347 57,364 Q40,381 40,405 Q40,429 57,446 Q74,463 98,463"/> 
            <glyph glyph-name="ĳ" unicode="&#x133;" horiz-adv-x="390" d=" M332,467 Q356,467 373,450 Q390,433 390,409 L390,-58 Q390,-101 369,-142 Q324,-233 215,-233 Q191,-233 174,-216 Q157,-199 157,-175 Q157,-150 174,-133 Q191,-116 215,-116 Q251,-116 265,-90 Q269,-83 271,-75 Q273,-67 273,-62 L273,-58 L273,350 L157,350 L157,59 Q157,34 140,17 Q123,0 98,0 Q74,0 57,17 Q40,34 40,59 L40,409 Q40,433 57,450 Q74,467 98,467 M98,642 Q123,642 140,624.5 Q157,607 157,583 Q157,559 140,542 Q123,525 98,525 Q74,525 57,542 Q40,559 40,583 Q40,607 57,624.5 Q74,642 98,642 M332,642 Q356,642 373,624.5 Q390,607 390,583 Q390,559 373,542 Q356,525 332,525 Q307,525 290,542 Q273,559 273,583 Q273,607 290,624.5 Q307,642 332,642"/> 
            <glyph glyph-name="ō" unicode="&#x14D;" horiz-adv-x="536" d=" M185,525 Q391,525 463.5,448 Q536,371 536,262 Q536,154 463.5,77 Q391,0 288,0 Q185,0 112.5,77 Q40,154 40,262 Q40,371 185,525 M288,117 Q342,117 380.5,159.5 Q419,202 419,262 Q419,323 380.5,365.5 Q342,408 288,408 Q233,408 195,365.5 Q157,323 157,262 Q157,202 195,159.5 Q233,117 288,117 M448,583 L127,583 Q103,583 86,600 Q69,617 69,642 Q69,666 86,683 Q103,700 127,700 L448,700 Q472,700 489.5,683 Q507,666 507,642 Q507,617 489.5,600 Q472,583 448,583"/> 
            <glyph glyph-name="Œ" unicode="&#x152;" horiz-adv-x="612" d=" M404,117 L554,117 Q578,117 595,100 Q612,83 612,58 Q612,34 595,17 Q578,0 554,0 L346,0 Q219,0 129.5,102.5 Q40,205 40,350 Q40,438 77.5,517.5 Q115,597 187,648.5 Q259,700 349,700 L554,700 Q578,700 595,683 Q612,666 612,642 Q612,617 595,600 Q578,583 554,583 L404,583 L404,408 L521,408 Q545,408 562,391 Q579,374 579,350 Q579,326 562,309 Q545,292 521,292 L404,292 M288,128 L288,572 Q230,549 193.5,488 Q157,427 157,350 Q157,273 193.5,212 Q230,151 288,128"/> 
            <glyph glyph-name="œ" unicode="&#x153;" horiz-adv-x="808" d=" M808,244 Q808,220 791,202.5 Q774,185 750,185 L523,185 Q543,119 606,117 L612,117 Q655,117 680,135 Q695,144 712,144 Q744,144 761,118 Q771,105 771,87 Q771,54 744,37 Q688,0 618,0 Q604,0 600,1 Q505,6 450,75 L447,78 Q379,0 273,0 Q177,0 108.5,68.5 Q40,137 40,233 Q40,330 108.5,398.5 Q177,467 273,467 Q380,467 450,386 Q510,467 604,467 Q692,467 750,401 Q808,338 808,244 M273,117 Q322,117 356,151 Q390,185 390,233 Q390,282 356,316 Q322,350 273,350 Q225,350 191,316 Q157,282 157,233 Q157,185 191,151 Q225,117 273,117 M534,302 L679,302 Q654,351 604,351 Q561,351 534,302"/> 
            <glyph glyph-name="Ÿ" unicode="&#x178;" horiz-adv-x="565" d=" M540,689 Q565,672 565,642 Q565,624 554,608 L361,332 L361,58 Q361,34 344,17 Q327,0 302,0 Q278,0 261,17 Q244,34 244,58 L244,332 L51,608 Q40,622 40,639 Q40,663 56,681.5 Q72,700 98,700 Q129,700 146,675 L302,452 L459,675 Q476,700 507,700 Q524,700 540,689 M279,842 Q279,817 262,800 Q245,783 221,783 Q196,783 179,800 Q162,817 162,842 Q162,866 179,883 Q196,900 221,900 Q245,900 262,883 Q279,866 279,842 M442,842 Q442,817 425,800 Q408,783 384,783 Q360,783 343,800 Q326,817 326,842 Q326,866 343,883 Q360,900 384,900 Q408,900 425,883 Q442,866 442,842"/> 
            <glyph glyph-name="ž" unicode="&#x17E;" horiz-adv-x="448" d=" M244,540 Q230,540 217,546 L101,605 Q69,623 69,656 Q69,670 75,683 Q90,715 127,715 Q141,715 153,709 L244,664 L334,709 Q348,715 360,715 Q396,715 412,683 Q418,670 418,656 Q418,623 386,605 L270,546 Q256,540 244,540 M390,117 Q414,117 431,100 Q448,83 448,58 Q448,34 431,17 Q414,0 390,0 L98,0 Q61,0 45,34 Q40,44 40,59 Q40,80 53,96 L265,350 L98,350 Q74,350 57,367 Q40,384 40,408 Q40,433 57,450 Q74,467 98,467 L390,467 Q427,467 443,433 Q448,420 448,409 Q448,387 435,371 L223,117"/> 
            <glyph glyph-name="ƒ" unicode="&#x192;" horiz-adv-x="388" d=" M330,469 Q354,469 371,452 Q388,435 388,411 Q388,387 371,370 Q354,353 330,353 L272,353 L272,34 Q272,-8 251,-49 Q206,-139 98,-139 Q74,-139 57,-122 Q40,-105 40,-81 Q40,-57 57,-40 Q74,-23 98,-23 Q132,-23 147,0 Q156,18 156,35 L156,353 L127,353 Q103,353 86,370 Q69,387 69,411 Q69,435 86,452 Q103,469 127,469 L156,469 L156,526 Q156,569 177,610 Q222,700 330,700 Q354,700 371,683 Q388,666 388,642 Q388,618 371,601 Q354,584 330,584 Q296,584 281,561 Q272,543 272,526 L272,469"/> 
            <glyph glyph-name="ˆ" unicode="&#x2C6;" horiz-adv-x="389" d=" M214,900 Q228,900 241,894 L357,835 Q389,817 389,784 Q389,770 383,757 Q368,725 331,725 Q317,725 305,731 L214,776 L124,731 Q110,725 98,725 Q62,725 46,757 Q40,770 40,784 Q40,817 72,835 L188,894 Q201,900 214,900"/> 
            <glyph glyph-name="˜" unicode="&#x2DC;" horiz-adv-x="361" d=" M244,754 Q220,754 189,768.5 Q158,783 149,783 Q132,754 98,754 Q74,754 57,771 Q40,788 40,812 Q40,843 67.5,871.5 Q95,900 157,900 Q180,900 211,885.5 Q242,871 252,871 Q269,900 303,900 Q327,900 344,883 Q361,866 361,842 Q361,797 329,775.5 Q297,754 244,754"/> 
            <glyph glyph-name="Γ" unicode="&#x393;" horiz-adv-x="387" d=" M329,700 Q353,700 370,683 Q387,666 387,641 Q387,617 370,600 Q353,583 329,583 L157,583 L157,58 Q157,34 140,17 Q123,0 98,0 Q74,0 57,17 Q40,34 40,58 L40,642 Q40,666 57,683 Q74,700 99,700"/> 
            <glyph glyph-name="Ε" unicode="&#x395;" horiz-adv-x="448" d=" M390,292 L156,292 L156,117 L390,117 Q414,117 431,100 Q448,83 448,58 Q448,34 431,17 Q414,0 390,0 L98,0 Q74,0 57,17 Q40,34 40,58 L40,642 Q40,666 57,683 Q74,700 98,700 L390,700 Q414,700 431,683 Q448,666 448,642 Q448,617 431,600 Q414,583 390,583 L156,583 L156,408 L390,408 Q414,408 431,391 Q448,374 448,350 Q448,326 431,309 Q414,292 390,292"/> 
            <glyph glyph-name="Θ" unicode="&#x398;" horiz-adv-x="740" d=" M637,597 Q740,494 740,350 Q740,205 637,102 Q535,0 390,0 Q246,0 142,102 Q40,204 40,350 Q40,495 142,597 Q245,700 390,700 Q536,700 637,597 M487,117 Q623,253 623,350 Q623,445 555,515 Q487,583 390,583 Q293,583 225,515 Q157,447 157,350 Q157,252 225,185 Q293,117 487,117 M354,437 Q426,437 451.5,411.5 Q477,386 477,350 Q477,314 451.5,288 Q426,262 390,262 Q354,262 328,288 Q302,314 302,350 Q302,386 354,437"/> 
            <glyph glyph-name="Ι" unicode="&#x399;" horiz-adv-x="274" d=" M215,117 Q240,117 257,100 Q274,83 274,58 Q274,34 257,17 Q240,0 215,0 L99,0 Q74,0 57,17 Q40,34 40,58 Q40,83 57,100 Q74,117 99,117 L99,583 Q74,583 57,600 Q40,617 40,642 Q40,666 57,683 Q74,700 99,700 L215,700 Q240,700 257,683 Q274,666 274,642 Q274,617 257,600 Q240,583 215,583"/> 
            <glyph glyph-name="Λ" unicode="&#x39B;" horiz-adv-x="570" d=" M562,78 Q570,55 560,33 Q550,11 527,3 Q516,0 507,0 Q467,0 452,39 L303,465 L154,39 Q146,17 124.5,6 Q103,-5 80,3 Q57,11 46.5,33 Q36,55 44,78 L248,661 Q262,700 303,700 Q344,700 358,661"/> 
            <glyph glyph-name="Ξ" unicode="&#x39E;" horiz-adv-x="506" d=" M98,583 Q74,583 57,600 Q40,617 40,642 Q40,666 57,683 Q74,700 98,700 L448,700 Q472,700 489,683 Q506,666 506,642 Q506,617 489,600 Q472,583 448,583 M448,117 Q472,117 489,100 Q506,83 506,58 Q506,34 489,17 Q472,0 448,0 L98,0 Q74,0 57,17 Q40,34 40,58 Q40,83 57,100 Q74,117 98,117 M393,408 Q417,408 434,391 Q451,374 451,350 Q451,326 434,309 Q417,292 393,292 L156,292 Q132,292 115,309 Q98,326 98,350 Q98,374 115,391 Q132,408 156,408"/> 
            <glyph glyph-name="Π" unicode="&#x3A0;" horiz-adv-x="448" d=" M390,700 Q414,700 431,683 Q448,666 448,642 L448,58 Q448,34 431,17 Q414,0 390,0 Q366,0 349,17 Q332,34 332,58 L332,583 L157,583 L157,58 Q157,34 139.5,17 Q122,0 98,0 Q74,0 57,17 Q40,34 40,58 L40,642 Q40,666 57,683 Q74,700 98,700"/> 
            <glyph glyph-name="θ" unicode="&#x3B8;" horiz-adv-x="740" d=" M245,700 Q535,700 637.5,597.5 Q740,495 740,350 Q740,205 637.5,102.5 Q535,0 390,0 Q245,0 142.5,102.5 Q40,205 40,350 Q40,495 245,700 M472,583 Q308,583 245,532.5 Q182,482 163,405 L617,405 Q598,482 472,583 M310,117 Q470,117 532.5,165 Q595,213 615,288 L165,288 Q185,213 310,117"/> 
            <glyph glyph-name="υ" unicode="&#x3C5;" horiz-adv-x="482" d=" M366,455 Q370,452 380.5,443.5 Q391,435 409.5,414 Q428,393 443.5,369.5 Q459,346 470.5,311.5 Q482,277 482,242 Q482,217 476,190 Q456,114 405,65 Q335,0 226,0 Q111,0 63,93 Q40,136 40,181 L40,408 Q40,433 57,450 Q74,467 98,467 Q122,467 139,450 Q156,433 156,408 L156,181 L157,175 Q158,169 160.5,160.5 Q163,152 167,144 Q184,117 226,117 Q338,117 362,218 Q365,230 365,242 Q365,269 349,298.5 Q333,328 317,345 Q301,362 296,362 Q273,379 273,409 Q273,428 285,443 Q302,466 332,466 Q352,466 366,455"/> 
            <glyph glyph-name="φ" unicode="&#x3C6;" horiz-adv-x="507" d=" M332,576 Q409,556 458,493.5 Q507,431 507,350 Q507,270 457.5,207 Q408,144 332,124 L332,58 Q332,34 315,17 Q298,0 274,0 Q249,0 232,17 Q215,34 215,58 L215,124 Q139,144 89.5,207 Q40,270 40,350 Q40,431 89.5,493.5 Q139,556 215,576 L215,642 Q215,666 232,683 Q249,700 274,700 Q298,700 315,683 Q332,666 332,642 M157,418 Q157,282 215,249 L215,451 M332,249 Q390,282 390,350 Q390,418 332,451"/> 
            <glyph glyph-name="χ" unicode="&#x3C7;" horiz-adv-x="594" d=" M551,115 Q570,110 582,94.5 Q594,79 594,59 Q594,54 592,44 Q587,24 571.5,12 Q556,0 536,0 Q531,0 521,2 Q440,23 393.5,78 Q347,133 296,243 L179,30 Q162,0 128,0 Q112,0 99,7 Q69,24 69,59 Q69,74 76,87 L234,373 Q177,481 62,596 Q40,613 40,642 Q40,662 53,678 Q70,700 98,700 Q119,700 135,687 Q144,680 162,663.5 Q180,647 222,598 Q264,549 299,492 L397,670 Q414,700 448,700 Q463,700 476,693 Q507,676 507,642 Q507,628 499,614 L365,369 L384,329 Q440,209 469.5,168.5 Q499,128 551,115"/> 
            <glyph glyph-name="Џ" unicode="&#x40F;" horiz-adv-x="448" d=" M366,700 Q414,700 431,683 Q448,666 448,642 L448,58 Q448,34 431,17 Q414,0 390,0 L302,0 L302,-112 Q302,-137 285,-154 Q268,-171 244,-171 Q220,-171 203,-154 Q186,-137 186,-112 L186,0 L98,0 Q74,0 57,17 Q40,34 40,58 L40,642 Q40,666 57,683 Q74,700 98,700 Q122,700 139,683 Q156,666 156,642 L156,117 L331,117 L331,642 Q331,666 366,700"/> 
            <glyph glyph-name="Б" unicode="&#x411;" horiz-adv-x="439" d=" M320,439 Q439,379 439,233 Q439,88 320,28 Q263,0 206,0 L99,0 Q74,0 57,17 Q40,34 40,58 L40,642 Q40,666 57,683 Q74,700 99,700 L329,700 Q353,700 370,683 Q387,666 387,641 Q387,617 370,600 Q353,583 329,583 L157,583 L157,467 L206,467 Q263,467 320,439 M270,134 Q323,162 323,233 Q323,305 270,333 Q238,350 206,350 L157,350 L157,117 L206,117 Q238,117 270,134"/> 
            <glyph glyph-name="Е" unicode="&#x415;" horiz-adv-x="448" d=" M390,292 L156,292 L156,117 L390,117 Q414,117 431,100 Q448,83 448,58 Q448,34 431,17 Q414,0 390,0 L98,0 Q74,0 57,17 Q40,34 40,58 L40,642 Q40,666 57,683 Q74,700 98,700 L390,700 Q414,700 431,683 Q448,666 448,642 Q448,617 431,600 Q414,583 390,583 L156,583 L156,408 L390,408 Q414,408 431,391 Q448,374 448,350 Q448,326 431,309 Q414,292 390,292"/> 
            <glyph glyph-name="З" unicode="&#x417;" horiz-adv-x="390" d=" M186,700 Q270,700 330,640 Q390,580 390,496 Q390,410 328,350 Q390,290 390,204 Q390,120 330,60 Q270,0 186,0 L98,0 Q74,0 57,17 Q40,34 40,58 Q40,83 57,100 Q74,117 98,117 L186,117 Q222,117 247.5,142.5 Q273,168 273,204 Q273,240 248.5,266 Q224,292 189,292 L157,292 Q132,292 115,309 Q98,326 98,350 Q98,374 115,391 Q132,408 157,408 L186,408 Q222,408 247.5,434 Q273,460 273,496 Q273,532 247.5,557.5 Q222,583 186,583 L98,583 Q74,583 57,600 Q40,617 40,642 Q40,666 57,683 Q74,700 98,700"/> 
            <glyph glyph-name="Л" unicode="&#x41B;" horiz-adv-x="536" d=" M477,700 Q502,700 519,683 Q536,666 536,642 L536,58 Q536,34 519,17 Q502,0 477,0 Q453,0 436,17 Q419,34 419,58 L419,583 L244,583 L244,146 Q244,92 207.5,46 Q171,0 98,0 Q74,0 57,17 Q40,34 40,58 Q40,83 57,100 Q74,117 98,117 Q117,117 122,127 Q127,136 127,147 L127,642 Q127,666 144.5,683 Q162,700 186,700"/> 
            <glyph glyph-name="П" unicode="&#x41F;" horiz-adv-x="595" d=" M536,0 Q512,0 495,17 Q478,34 478,58 L478,583 L157,583 L157,58 Q157,34 140,17 Q123,0 98,0 Q74,0 57,17 Q40,34 40,58 L40,642 Q40,666 57,683 Q74,700 99,700 L536,700 Q560,700 577.5,683 Q595,666 595,642 L595,58 Q595,34 578,17 Q561,0 536,0"/> 
            <glyph glyph-name="Ч" unicode="&#x427;" horiz-adv-x="419" d=" M337,700 Q385,700 402,683 Q419,666 419,642 L419,58 Q419,34 402,17 Q385,0 361,0 Q337,0 320,17 Q303,34 303,58 L303,233 L244,233 Q118,233 65,339 Q40,388 40,438 L40,642 Q40,666 57,683 Q74,700 99,700 Q123,700 140,683 Q157,666 157,642 L157,438 Q157,413 170,388 Q191,350 244,350 L303,350 L303,642 Q303,666 337,700"/> 
            </font>
</defs>
</svg>
