<?xml version="1.0" standalone="no"?>
<!DOCTYPE svg PUBLIC "-//W3C//DTD SVG 1.1//EN" "http://www.w3.org/Graphics/SVG/1.1/DTD/svg11.dtd" >
<svg xmlns="http://www.w3.org/2000/svg">
    <defs>
        <font id="OpenSans-CondensedBold">
            <font-face font-family="OpenSans-CondensedBold"
                       units-per-em="2048"
                       ascent="2189"
                       descent="-600"
                       bbox="-1366 -592 2142 2173"
                    />
            <missing-glyph horiz-adv-x="0" />
            
            <glyph glyph-name="!" unicode="&#x21;" horiz-adv-x="442" d=" M387,471 L168,471 L119,1462 L438,1462 M111,137 Q111,215 152.5,258 Q194,301 276,301 Q358,301 400,258.5 Q442,216 442,137 Q442,59 398.5,16 Q355,-27 276,-27 Q195,-27 153,16.5 Q111,60 111,137"/> 
            <glyph glyph-name="&quot;" unicode="&#x22;" horiz-adv-x="793" d=" M383,1462 L342,934 L162,934 L121,1462 M793,1462 L752,934 L571,934 L530,1462"/> 
            <glyph glyph-name="#" unicode="&#x23;" horiz-adv-x="1075" d=" M856,856 L819,604 L1022,604 L1022,410 L793,410 L733,0 L541,0 L602,410 L420,410 L362,0 L170,0 L229,410 L41,410 L41,604 L258,604 L295,856 L94,856 L94,1049 L324,1049 L383,1462 L571,1462 L512,1049 L694,1049 L756,1462 L944,1462 L885,1049 L1075,1049 L1075,856 M449,604 L629,604 L666,856 L483,856"/> 
            <glyph glyph-name="$" unicode="&#x24;" horiz-adv-x="874" d=" M874,457 Q874,298 784.5,202.5 Q695,107 530,90 L530,-119 L414,-119 L414,86 Q224,92 74,170 L74,416 Q154,369 243,339 Q332,309 414,305 L414,643 L379,659 Q209,740 141.5,826.5 Q74,913 74,1044 Q74,1194 163,1285.5 Q252,1377 414,1395 L414,1556 L530,1556 L530,1397 Q685,1387 838,1311 L758,1098 Q630,1160 530,1169 L530,852 Q561,840 561,838 Q688,783 751,731.5 Q814,680 844,613.5 Q874,547 874,457 M639,451 Q639,496 619.5,525.5 Q600,555 530,590 L530,311 Q639,330 639,451 M309,1044 Q309,993 333,961.5 Q357,930 414,907 L414,1169 Q309,1153 309,1044"/> 
            <glyph glyph-name="%" unicode="&#x25;" horiz-adv-x="1491" d=" M276,1024 Q276,885 294,821.5 Q312,758 354,758 Q396,758 415,821.5 Q434,885 434,1024 Q434,1163 414.5,1226.5 Q395,1290 354,1290 Q312,1290 294,1226.5 Q276,1163 276,1024 M647,1026 Q647,800 571.5,682.5 Q496,565 352,565 Q203,565 133,680 Q63,795 63,1022 Q63,1483 352,1483 Q647,1483 647,1026 M1120,440 Q1120,301 1138,237.5 Q1156,174 1198,174 Q1240,174 1259,237.5 Q1278,301 1278,440 Q1278,579 1258.5,642 Q1239,705 1198,705 Q1157,705 1138.5,642 Q1120,579 1120,440 M1491,442 Q1491,216 1415,99 Q1339,-18 1196,-18 Q1046,-18 976.5,96.5 Q907,211 907,438 Q907,662 978.5,780.5 Q1050,899 1196,899 Q1491,899 1491,442 M1182,1462 L578,0 L371,0 L973,1462"/> 
            <glyph glyph-name="&amp;" unicode="&#x26;" horiz-adv-x="1171" d=" M872,0 L801,102 Q665,-20 463,-20 Q271,-20 165,89 Q59,198 59,391 Q59,639 303,807 Q226,926 201,995 Q176,1064 176,1141 Q176,1297 273,1390 Q370,1483 528,1483 Q680,1483 770,1396.5 Q860,1310 860,1157 Q860,1052 805,957.5 Q750,863 621,766 L825,479 Q859,541 878,617 Q897,693 911,768 L1143,768 Q1105,488 977,270 L1171,0 M328,416 Q328,323 372,270 Q416,217 492,217 Q592,217 668,291 L428,637 Q328,547 328,416 M614,1133 Q614,1198 587.5,1227.5 Q561,1257 524,1257 Q478,1257 451,1224.5 Q424,1192 424,1130 Q424,1075 447.5,1028.5 Q471,982 506,934 Q567,981 590.5,1025 Q614,1069 614,1133"/> 
            <glyph glyph-name="'" unicode="&#x27;" horiz-adv-x="383" d=" M383,1462 L342,934 L162,934 L121,1462"/> 
            <glyph glyph-name="(" unicode="&#x28;" horiz-adv-x="610" d=" M74,561 Q74,826 151.5,1057 Q229,1288 375,1462 L610,1462 Q470,1269 398,1038 Q326,807 326,563 Q326,316 401,86 Q476,-144 608,-324 L375,-324 Q228,-154 151,73 Q74,300 74,561"/> 
            <glyph glyph-name=")" unicode="&#x29;" horiz-adv-x="592" d=" M592,561 Q592,298 514.5,71 Q437,-156 291,-324 L57,-324 Q192,-140 266,88.5 Q340,317 340,563 Q340,807 268,1038 Q196,1269 55,1462 L291,1462 Q438,1287 515,1055.5 Q592,824 592,561"/> 
            <glyph glyph-name="*" unicode="&#x2A;" horiz-adv-x="901" d=" M594,1556 L557,1249 L868,1335 L901,1110 L616,1092 L801,846 L602,737 L473,997 L356,737 L152,846 L334,1092 L53,1114 L90,1335 L393,1249 L356,1556"/> 
            <glyph glyph-name="+" unicode="&#x2B;" horiz-adv-x="811" d=" M360,618 L106,618 L106,825 L360,825 L360,1198 L557,1198 L557,825 L811,825 L811,618 L557,618 L557,250 L360,250"/> 
            <glyph glyph-name="," unicode="&#x2C;" horiz-adv-x="430" d=" M430,215 Q378,13 254,-264 L51,-264 Q116,2 152,238 L416,238"/> 
            <glyph glyph-name="-" unicode="&#x2D;" horiz-adv-x="575" d=" M72,432 L72,666 L575,666 L575,432"/> 
            <glyph glyph-name="." unicode="&#x2E;" horiz-adv-x="442" d=" M111,137 Q111,215 152.5,258 Q194,301 276,301 Q358,301 400,258.5 Q442,216 442,137 Q442,59 398.5,16 Q355,-27 276,-27 Q195,-27 153,16.5 Q111,60 111,137"/> 
            <glyph glyph-name="/" unicode="&#x2F;" horiz-adv-x="817" d=" M817,1462 L272,0 L16,0 L561,1462"/> 
            <glyph glyph-name="0" unicode="&#x30;" horiz-adv-x="874" d=" M874,731 Q874,334 778.5,157 Q683,-20 471,-20 Q259,-20 166.5,158 Q74,336 74,731 Q74,1127 171,1306 Q268,1485 475,1485 Q686,1485 780,1310 Q874,1135 874,731 M346,731 Q346,424 372.5,317.5 Q399,211 473,211 Q523,211 550.5,257 Q578,303 590,409.5 Q602,516 602,731 Q602,1033 574,1143 Q546,1253 473,1253 Q399,1253 372.5,1143.5 Q346,1034 346,731"/> 
            <glyph glyph-name="1" unicode="&#x31;" horiz-adv-x="729" d=" M729,0 L461,0 L461,858 Q461,998 475,1180 Q468,1170 423.5,1119 Q379,1068 250,936 L98,1102 L487,1462 L729,1462"/> 
            <glyph glyph-name="2" unicode="&#x32;" horiz-adv-x="858" d=" M858,0 L74,0 L74,203 L334,571 Q441,723 481,796.5 Q521,870 540,937.5 Q559,1005 559,1077 Q559,1161 521.5,1203 Q484,1245 424,1245 Q371,1245 325,1217 Q279,1189 213,1116 L61,1276 Q166,1395 256,1439 Q346,1483 451,1483 Q628,1483 727.5,1379 Q827,1275 827,1090 Q827,1006 809,931 Q791,856 754.5,780.5 Q718,705 663,623.5 Q608,542 379,250 L379,242 L858,242"/> 
            <glyph glyph-name="3" unicode="&#x33;" horiz-adv-x="858" d=" M829,1133 Q829,995 761,901.5 Q693,808 569,772 L569,764 Q707,742 782.5,656 Q858,570 858,422 Q858,220 732.5,100 Q607,-20 389,-20 Q195,-20 63,49 L63,293 Q129,253 206,230 Q283,207 354,207 Q470,207 529,260.5 Q588,314 588,430 Q588,649 319,649 L236,649 L236,852 L315,852 Q434,852 497.5,908 Q561,964 561,1075 Q561,1162 520.5,1206.5 Q480,1251 406,1251 Q293,1251 186,1155 L63,1335 Q211,1483 436,1483 Q621,1483 725,1389.5 Q829,1296 829,1133"/> 
            <glyph glyph-name="4" unicode="&#x34;" horiz-adv-x="918" d=" M918,307 L770,307 L770,0 L514,0 L514,307 L37,307 L37,528 L479,1462 L770,1462 L770,532 L918,532 M514,532 L514,840 L519,976 L526,1106 L518,1106 Q483,997 442,909 L266,532"/> 
            <glyph glyph-name="5" unicode="&#x35;" horiz-adv-x="860" d=" M500,915 Q665,915 762.5,800 Q860,685 860,485 Q860,246 738.5,113 Q617,-20 401,-20 Q209,-20 90,53 L90,307 Q141,270 221.5,241.5 Q302,213 371,213 Q586,213 586,463 Q586,696 377,696 Q294,696 201,664 L113,729 L158,1462 L782,1462 L782,1219 L391,1219 L371,903 Q427,915 500,915"/> 
            <glyph glyph-name="6" unicode="&#x36;" horiz-adv-x="874" d=" M74,621 Q74,1068 213,1274.5 Q352,1481 637,1481 Q682,1481 727,1475.5 Q772,1470 795,1464 L795,1239 Q726,1255 659,1255 Q545,1255 472,1205 Q399,1155 361,1055.5 Q323,956 315,776 L326,776 Q361,859 422,901.5 Q483,944 563,944 Q710,944 792,824.5 Q874,705 874,483 Q874,251 766,115.5 Q658,-20 473,-20 Q277,-20 175.5,142 Q74,304 74,621 M475,209 Q535,209 571.5,275 Q608,341 608,481 Q608,594 575.5,659.5 Q543,725 477,725 Q418,725 381,664 Q344,603 344,510 Q344,364 378.5,286.5 Q413,209 475,209"/> 
            <glyph glyph-name="7" unicode="&#x37;" horiz-adv-x="864" d=" M180,0 L590,1219 L80,1219 L80,1460 L864,1460 L864,1276 L461,0"/> 
            <glyph glyph-name="8" unicode="&#x38;" horiz-adv-x="877" d=" M475,1481 Q646,1481 748,1384 Q850,1287 850,1120 Q850,1017 802.5,933.5 Q755,850 641,774 Q769,683 823,587.5 Q877,492 877,379 Q877,200 767,90 Q657,-20 475,-20 Q286,-20 179,81.5 Q72,183 72,371 Q72,497 125.5,593.5 Q179,690 291,762 Q187,845 142.5,929.5 Q98,1014 98,1120 Q98,1284 203.5,1382.5 Q309,1481 475,1481 M330,385 Q330,297 366.5,245 Q403,193 471,193 Q545,193 581.5,245 Q618,297 618,385 Q618,448 589,504 Q560,560 477,633 L463,647 Q398,599 364,537.5 Q330,476 330,385 M473,1270 Q416,1270 387,1228.5 Q358,1187 358,1110 Q358,1044 382,995 Q406,946 475,891 Q541,942 565.5,993 Q590,1044 590,1110 Q590,1270 473,1270"/> 
            <glyph glyph-name="9" unicode="&#x39;" horiz-adv-x="868" d=" M868,825 Q868,-20 303,-20 Q209,-20 147,-4 L147,225 Q215,203 274,203 Q441,203 527.5,319 Q614,435 623,684 L614,684 Q582,605 522.5,560.5 Q463,516 381,516 Q232,516 150,638 Q68,760 68,973 Q68,1207 175.5,1344 Q283,1481 463,1481 Q659,1481 763.5,1312 Q868,1143 868,825 M465,1249 Q405,1249 369.5,1184 Q334,1119 334,979 Q334,864 365,799.5 Q396,735 459,735 Q516,735 558,800.5 Q600,866 600,950 Q600,1080 563,1164.5 Q526,1249 465,1249"/> 
            <glyph glyph-name=":" unicode="&#x3A;" horiz-adv-x="442" d=" M111,137 Q111,215 152.5,258 Q194,301 276,301 Q358,301 400,258.5 Q442,216 442,137 Q442,59 398.5,16 Q355,-27 276,-27 Q195,-27 153,16.5 Q111,60 111,137 M111,973 Q111,1051 152.5,1094 Q194,1137 276,1137 Q358,1137 400,1094.5 Q442,1052 442,973 Q442,895 398.5,852 Q355,809 276,809 Q195,809 153,852.5 Q111,896 111,973"/> 
            <glyph glyph-name=";" unicode="&#x3B;" horiz-adv-x="442" d=" M416,238 L430,215 Q378,13 254,-264 L51,-264 Q116,2 152,238 M111,973 Q111,1051 152.5,1094 Q194,1137 276,1137 Q358,1137 400,1094.5 Q442,1052 442,973 Q442,895 398.5,852 Q355,809 276,809 Q195,809 153,852.5 Q111,896 111,973"/> 
            <glyph glyph-name="&lt;" unicode="&#x3C;" horiz-adv-x="811" d=" M811,209 L106,645 L106,801 L811,1235 L811,1010 L324,723 L811,434"/> 
            <glyph glyph-name="=" unicode="&#x3D;" horiz-adv-x="811" d=" M106,815 L106,1020 L811,1020 L811,815 M106,422 L106,629 L811,629 L811,422"/> 
            <glyph glyph-name="&gt;" unicode="&#x3E;" horiz-adv-x="811" d=" M106,434 L596,723 L106,1010 L106,1235 L811,801 L811,645 L106,209"/> 
            <glyph glyph-name="?" unicode="&#x3F;" horiz-adv-x="729" d=" M219,471 L219,541 Q219,637 248.5,708.5 Q278,780 356,862 Q430,943 450.5,989 Q471,1035 471,1106 Q471,1171 441,1212 Q411,1253 346,1253 Q238,1253 119,1176 L25,1376 Q182,1483 373,1483 Q538,1483 633.5,1391.5 Q729,1300 729,1137 Q729,1023 696,943.5 Q663,864 559,752 Q492,679 473.5,639.5 Q455,600 455,532 L455,471 M172,137 Q172,216 214.5,258.5 Q257,301 338,301 Q420,301 462,257.5 Q504,214 504,137 Q504,61 461,17 Q418,-27 338,-27 Q258,-27 215,16 Q172,59 172,137"/> 
            <glyph glyph-name="@" unicode="&#x40;" horiz-adv-x="1411" d=" M1411,748 Q1411,504 1328.5,367.5 Q1246,231 1098,231 Q1029,231 977,269.5 Q925,308 909,371 L901,371 Q867,308 814,269.5 Q761,231 692,231 Q569,231 499.5,323.5 Q430,416 430,604 Q430,827 528.5,960.5 Q627,1094 793,1094 Q911,1094 1049,1051 L1028,585 L1028,547 Q1028,465 1045.5,434 Q1063,403 1100,403 Q1150,403 1179,496.5 Q1208,590 1208,750 Q1208,1024 1098,1161 Q988,1298 786,1298 Q637,1298 521,1210 Q405,1122 342,962.5 Q279,803 279,604 Q279,325 401.5,168.5 Q524,12 739,12 Q917,12 1104,102 L1104,-80 Q939,-168 737,-168 Q535,-168 384.5,-76.5 Q234,15 154,188 Q74,361 74,594 Q74,854 163.5,1056 Q253,1258 417,1367.5 Q581,1477 791,1477 Q1085,1477 1248,1285 Q1411,1093 1411,748 M637,604 Q637,508 659.5,455.5 Q682,403 725,403 Q775,403 799,471.5 Q823,540 831,682 L844,911 Q820,922 782,922 Q717,922 677,832 Q637,742 637,604"/> 
            <glyph glyph-name="A" unicode="&#x41;" horiz-adv-x="1094" d=" M821,0 L737,369 L356,369 L272,0 L0,0 L362,1468 L731,1468 L1094,0 M686,610 L608,950 Q601,981 576.5,1105.5 Q552,1230 547,1272 Q534,1186 514,1082.5 Q494,979 410,610"/> 
            <glyph glyph-name="B" unicode="&#x42;" horiz-adv-x="967" d=" M129,1462 L502,1462 Q730,1462 834,1373.5 Q938,1285 938,1092 Q938,965 883,879.5 Q828,794 733,776 L733,766 Q857,735 912,650 Q967,565 967,424 Q967,225 860.5,112.5 Q754,0 569,0 L129,0 M385,874 L510,874 Q596,874 631,920 Q666,966 666,1057 Q666,1148 626,1187.5 Q586,1227 500,1227 L385,1227 M385,647 L385,238 L522,238 Q607,238 648.5,290 Q690,342 690,451 Q690,647 518,647"/> 
            <glyph glyph-name="C" unicode="&#x43;" horiz-adv-x="911" d=" M614,1245 Q497,1245 429.5,1108 Q362,971 362,727 Q362,219 627,219 Q743,219 870,293 L870,51 Q763,-20 596,-20 Q349,-20 216.5,176.5 Q84,373 84,729 Q84,1085 220.5,1284 Q357,1483 600,1483 Q680,1483 753.5,1461 Q827,1439 911,1384 L821,1163 Q776,1194 725,1219.5 Q674,1245 614,1245"/> 
            <glyph glyph-name="D" unicode="&#x44;" horiz-adv-x="1059" d=" M1059,745 Q1059,383 911.5,191.5 Q764,0 487,0 L129,0 L129,1462 L520,1462 Q775,1462 917,1273.5 Q1059,1085 1059,745 M780,737 Q780,1227 510,1227 L401,1227 L401,238 L489,238 Q638,238 709,362.5 Q780,487 780,737"/> 
            <glyph glyph-name="E" unicode="&#x45;" horiz-adv-x="788" d=" M788,0 L129,0 L129,1462 L788,1462 L788,1227 L401,1227 L401,879 L760,879 L760,643 L401,643 L401,238 L788,238"/> 
            <glyph glyph-name="F" unicode="&#x46;" horiz-adv-x="784" d=" M399,0 L129,0 L129,1462 L784,1462 L784,1227 L399,1227 L399,821 L758,821 L758,586 L399,586"/> 
            <glyph glyph-name="G" unicode="&#x47;" horiz-adv-x="1018" d=" M571,811 L1018,811 L1018,61 Q828,-20 614,-20 Q359,-20 221.5,174 Q84,368 84,733 Q84,1085 241.5,1284 Q399,1483 682,1483 Q857,1483 1016,1393 L930,1171 Q806,1243 698,1243 Q543,1243 452.5,1104.5 Q362,966 362,727 Q362,481 427.5,350 Q493,219 618,219 Q684,219 752,236 L752,571 L571,571"/> 
            <glyph glyph-name="H" unicode="&#x48;" horiz-adv-x="1032" d=" M1032,0 L760,0 L760,641 L401,641 L401,0 L129,0 L129,1462 L401,1462 L401,881 L760,881 L760,1462 L1032,1462"/> 
            <glyph glyph-name="I" unicode="&#x49;" horiz-adv-x="434" d=" M178,0 L178,1462 L434,1462 L434,0"/> 
            <glyph glyph-name="J" unicode="&#x4A;" horiz-adv-x="401" d=" M14,-422 Q-92,-422 -154,-397 L-154,-160 Q-89,-180 -31,-180 Q52,-180 90.5,-127 Q129,-74 129,31 L129,1462 L401,1462 L401,45 Q401,-99 352.5,-205 Q304,-311 215.5,-366.5 Q127,-422 14,-422"/> 
            <glyph glyph-name="K" unicode="&#x4B;" horiz-adv-x="1040" d=" M1040,0 L750,0 L510,625 L401,516 L401,0 L129,0 L129,1462 L401,1462 L401,737 L496,956 L745,1462 L1036,1462 L698,829"/> 
            <glyph glyph-name="L" unicode="&#x4C;" horiz-adv-x="778" d=" M129,0 L129,1462 L401,1462 L401,238 L778,238 L778,0"/> 
            <glyph glyph-name="M" unicode="&#x4D;" horiz-adv-x="1477" d=" M651,0 L373,1245 L362,1245 Q381,1101 381,981 L381,0 L129,0 L129,1462 L547,1462 L797,313 L805,313 L1053,1462 L1477,1462 L1477,0 L1219,0 L1219,991 Q1219,1114 1233,1243 L1225,1243 L948,0"/> 
            <glyph glyph-name="N" unicode="&#x4E;" horiz-adv-x="1153" d=" M1153,0 L821,0 L369,1059 L356,1059 Q381,938 381,799 L381,0 L129,0 L129,1462 L463,1462 L911,414 L922,414 Q903,519 903,664 L903,1462 L1153,1462"/> 
            <glyph glyph-name="O" unicode="&#x4F;" horiz-adv-x="1135" d=" M1135,733 Q1135,370 999,175 Q863,-20 610,-20 Q356,-20 220,174.5 Q84,369 84,735 Q84,1098 220,1291.5 Q356,1485 612,1485 Q865,1485 1000,1290.5 Q1135,1096 1135,733 M362,733 Q362,483 425,352 Q488,221 610,221 Q856,221 856,733 Q856,1245 612,1245 Q488,1245 425,1114.5 Q362,984 362,733"/> 
            <glyph glyph-name="P" unicode="&#x50;" horiz-adv-x="926" d=" M926,1012 Q926,779 808.5,654.5 Q691,530 469,530 L401,530 L401,0 L129,0 L129,1462 L500,1462 Q926,1462 926,1012 M401,766 L453,766 Q553,766 602,821 Q651,876 651,1001 Q651,1116 606,1171.5 Q561,1227 467,1227 L401,1227"/> 
            <glyph glyph-name="Q" unicode="&#x51;" horiz-adv-x="1141" d=" M1135,733 Q1135,482 1068.5,309 Q1002,136 872,51 L1141,-348 L827,-348 L625,-20 L610,-20 Q356,-20 220,174.5 Q84,369 84,735 Q84,1098 220,1291.5 Q356,1485 612,1485 Q865,1485 1000,1290.5 Q1135,1096 1135,733 M362,733 Q362,483 425,352 Q488,221 610,221 Q856,221 856,733 Q856,1245 612,1245 Q488,1245 425,1114.5 Q362,984 362,733"/> 
            <glyph glyph-name="R" unicode="&#x52;" horiz-adv-x="1020" d=" M401,569 L401,0 L129,0 L129,1462 L485,1462 Q711,1462 818.5,1355 Q926,1248 926,1028 Q926,751 739,641 L1020,0 L729,0 L498,569 M401,803 L471,803 Q567,803 609,857.5 Q651,912 651,1020 Q651,1132 606.5,1179.5 Q562,1227 469,1227 L401,1227"/> 
            <glyph glyph-name="S" unicode="&#x53;" horiz-adv-x="795" d=" M795,403 Q795,198 691.5,89 Q588,-20 393,-20 Q202,-20 68,55 L68,324 Q232,217 369,217 Q447,217 486.5,260 Q526,303 526,377 Q526,450 479,510.5 Q432,571 324,645 Q230,710 181.5,769.5 Q133,829 106.5,903 Q80,977 80,1075 Q80,1263 184.5,1373 Q289,1483 465,1483 Q633,1483 788,1389 L698,1171 Q650,1199 597.5,1221 Q545,1243 485,1243 Q419,1243 383.5,1199.5 Q348,1156 348,1081 Q348,1007 390.5,952 Q433,897 539,827 Q682,731 738.5,631 Q795,531 795,403"/> 
            <glyph glyph-name="T" unicode="&#x54;" horiz-adv-x="858" d=" M578,0 L307,0 L307,1223 L27,1223 L27,1462 L858,1462 L858,1223 L578,1223"/> 
            <glyph glyph-name="U" unicode="&#x55;" horiz-adv-x="1028" d=" M1028,1462 L1028,516 Q1028,255 910,117.5 Q792,-20 569,-20 Q351,-20 237,116.5 Q123,253 123,520 L123,1462 L393,1462 L393,500 Q393,221 578,221 Q664,221 711,292 Q758,363 758,494 L758,1462"/> 
            <glyph glyph-name="V" unicode="&#x56;" horiz-adv-x="1032" d=" M758,1462 L1032,1462 L688,0 L342,0 L0,1462 L274,1462 L465,569 Q491,455 516,242 Q537,423 569,569"/> 
            <glyph glyph-name="W" unicode="&#x57;" horiz-adv-x="1604" d=" M1341,0 L1001,0 L858,766 Q825,923 811,1137 L803,1063 L762,762 L623,0 L283,0 L18,1462 L285,1462 L416,637 Q435,513 467,248 Q492,516 514,631 L670,1462 L952,1462 L1108,631 Q1139,446 1157,246 Q1192,542 1208,637 L1335,1462 L1604,1462"/> 
            <glyph glyph-name="X" unicode="&#x58;" horiz-adv-x="969" d=" M969,0 L686,0 L477,524 L283,0 L0,0 L334,760 L25,1462 L299,1462 L492,981 L659,1462 L944,1462 L635,748"/> 
            <glyph glyph-name="Y" unicode="&#x59;" horiz-adv-x="961" d=" M481,885 L676,1462 L961,1462 L614,586 L614,0 L346,0 L346,575 L0,1462 L287,1462"/> 
            <glyph glyph-name="Z" unicode="&#x5A;" horiz-adv-x="834" d=" M834,0 L43,0 L43,190 L510,1225 L57,1225 L57,1462 L819,1462 L819,1272 L352,238 L834,238"/> 
            <glyph glyph-name="[" unicode="&#x5B;" horiz-adv-x="602" d=" M602,-324 L133,-324 L133,1462 L602,1462 L602,1264 L379,1264 L379,-125 L602,-125"/> 
            <glyph glyph-name="\" unicode="&#x5C;" horiz-adv-x="817" d=" M272,1462 L817,0 L559,0 L14,1462"/> 
            <glyph glyph-name="]" unicode="&#x5D;" horiz-adv-x="516" d=" M47,-125 L270,-125 L270,1264 L47,1264 L47,1462 L516,1462 L516,-324 L47,-324"/> 
            <glyph glyph-name="^" unicode="&#x5E;" horiz-adv-x="1079" d=" M14,526 L451,1470 L586,1470 L1079,526 L854,526 L524,1186 L236,526"/> 
            <glyph glyph-name="_" unicode="&#x5F;" horiz-adv-x="700" d=" M700,-324 L-4,-324 L-4,-184 L700,-184"/> 
            <glyph glyph-name="`" unicode="&#x60;" horiz-adv-x="801" d=" M614,1241 Q539,1301 438,1401.5 Q337,1502 311,1548 L311,1569 L629,1569 Q656,1509 709.5,1413.5 Q763,1318 801,1268 L801,1241"/> 
            <glyph glyph-name="a" unicode="&#x61;" horiz-adv-x="854" d=" M659,0 L606,152 L600,152 Q541,54 478,17 Q415,-20 319,-20 Q196,-20 125.5,72 Q55,164 55,328 Q55,504 151.5,589.5 Q248,675 440,684 L588,690 L588,770 Q588,926 453,926 Q353,926 223,848 L131,1032 Q297,1137 492,1137 Q669,1137 761.5,1035.5 Q854,934 854,748 L854,0 M428,188 Q501,188 544.5,253.5 Q588,319 588,428 L588,522 L506,518 Q415,513 372.5,466 Q330,419 330,326 Q330,188 428,188"/> 
            <glyph glyph-name="b" unicode="&#x62;" horiz-adv-x="942" d=" M616,1135 Q768,1135 855,984 Q942,833 942,559 Q942,282 854.5,131 Q767,-20 612,-20 Q537,-20 479.5,12.5 Q422,45 371,127 L354,127 L309,0 L113,0 L113,1556 L379,1556 L379,1192 Q379,1169 378,1144 Q377,1119 365,969 L379,969 Q428,1061 485,1098 Q542,1135 616,1135 M524,909 Q448,909 414.5,838 Q381,767 379,588 L379,561 Q379,367 413.5,288 Q448,209 526,209 Q670,209 670,563 Q670,909 524,909"/> 
            <glyph glyph-name="c" unicode="&#x63;" horiz-adv-x="729" d=" M481,-20 Q282,-20 178,125 Q74,270 74,551 Q74,845 172.5,990 Q271,1135 477,1135 Q539,1135 607,1117 Q675,1099 729,1065 L653,858 Q570,907 506,907 Q421,907 383.5,818.5 Q346,730 346,553 Q346,380 383,294.5 Q420,209 504,209 Q604,209 713,279 L713,45 Q608,-20 481,-20"/> 
            <glyph glyph-name="d" unicode="&#x64;" horiz-adv-x="905" d=" M406,-20 Q252,-20 163,132 Q74,284 74,555 Q74,827 161,981 Q248,1135 401,1135 Q477,1135 532.5,1097.5 Q588,1060 635,971 L651,971 Q639,1123 639,1184 L639,1556 L905,1556 L905,0 L707,0 L662,145 L653,145 Q568,-20 406,-20 M492,205 Q566,205 600,272.5 Q634,340 637,518 L637,553 Q637,747 602.5,826 Q568,905 489,905 Q415,905 381.5,814.5 Q348,724 348,551 Q348,378 382,291.5 Q416,205 492,205"/> 
            <glyph glyph-name="e" unicode="&#x65;" horiz-adv-x="879" d=" M524,-20 Q315,-20 194.5,128.5 Q74,277 74,549 Q74,825 183,980 Q292,1135 487,1135 Q669,1135 774,1002.5 Q879,870 879,631 L879,489 L344,489 Q347,340 405,267.5 Q463,195 565,195 Q695,195 831,276 L831,57 Q703,-20 524,-20 M485,930 Q428,930 391,869.5 Q354,809 348,682 L618,682 Q616,804 581,867 Q546,930 485,930"/> 
            <glyph glyph-name="f" unicode="&#x66;" horiz-adv-x="684" d=" M608,903 L424,903 L424,0 L158,0 L158,903 L29,903 L29,1036 L158,1116 L158,1200 Q158,1386 235,1476.5 Q312,1567 483,1567 Q591,1567 684,1522 L614,1319 Q564,1343 512,1343 Q466,1343 445,1307 Q424,1271 424,1196 L424,1114 L608,1114"/> 
            <glyph glyph-name="g" unicode="&#x67;" horiz-adv-x="915" d=" M915,1112 L915,956 L782,926 Q821,856 821,750 Q821,573 725,473 Q629,373 457,373 Q407,373 383,381 Q364,364 347,343 Q330,322 330,291 Q330,221 451,221 L612,221 Q754,221 830.5,144.5 Q907,68 907,-86 Q907,-280 777,-386 Q647,-492 403,-492 Q218,-492 118,-411.5 Q18,-331 18,-182 Q18,-89 75,-18.5 Q132,52 233,84 Q182,104 149.5,146 Q117,188 117,244 Q117,278 127,305.5 Q137,333 155.5,357.5 Q174,382 231,430 Q162,472 122,559 Q82,646 82,752 Q82,935 178,1035 Q274,1135 453,1135 Q487,1135 531,1127.5 Q575,1120 598,1112 M260,-162 Q260,-228 301.5,-263.5 Q343,-299 420,-299 Q541,-299 601.5,-253 Q662,-207 662,-127 Q662,-64 629.5,-38 Q597,-12 508,-12 L379,-12 Q325,-12 292.5,-52.5 Q260,-93 260,-162 M342,750 Q342,553 453,553 Q561,553 561,752 Q561,956 453,956 Q342,956 342,750"/> 
            <glyph glyph-name="h" unicode="&#x68;" horiz-adv-x="936" d=" M668,0 L668,664 Q668,909 545,909 Q453,909 416,812.5 Q379,716 379,535 L379,0 L113,0 L113,1556 L379,1556 L379,1210 Q379,1143 367,971 L381,971 Q461,1135 627,1135 Q780,1135 858,1031.5 Q936,928 936,727 L936,0"/> 
            <glyph glyph-name="i" unicode="&#x69;" horiz-adv-x="393" d=" M381,0 L115,0 L115,1114 L381,1114 M104,1405 Q104,1471 142.5,1509.5 Q181,1548 250,1548 Q315,1548 354,1509.5 Q393,1471 393,1405 Q393,1337 353,1299.5 Q313,1262 250,1262 Q184,1262 144,1299.5 Q104,1337 104,1405"/> 
            <glyph glyph-name="j" unicode="&#x6A;" horiz-adv-x="399" d=" M80,-492 Q-4,-492 -59,-467 L-59,-246 Q-13,-264 27,-264 Q121,-264 121,-94 L121,1114 L387,1114 L387,-129 Q387,-303 306.5,-397.5 Q226,-492 80,-492 M111,1405 Q111,1471 149.5,1509.5 Q188,1548 256,1548 Q323,1548 361,1509 Q399,1470 399,1405 Q399,1338 360,1300 Q321,1262 256,1262 Q191,1262 151,1299 Q111,1336 111,1405"/> 
            <glyph glyph-name="k" unicode="&#x6B;" horiz-adv-x="963" d=" M375,600 L442,733 L662,1114 L944,1114 L662,657 L963,0 L684,0 L483,471 L379,377 L379,0 L113,0 L113,1556 L379,1556 L379,823 L367,600"/> 
            <glyph glyph-name="l" unicode="&#x6C;" horiz-adv-x="379" d=" M379,0 L113,0 L113,1556 L379,1556"/> 
            <glyph glyph-name="m" unicode="&#x6D;" horiz-adv-x="1487" d=" M1219,0 L1219,664 Q1219,909 1098,909 Q1010,909 972,821.5 Q934,734 934,541 L934,0 L666,0 L666,664 Q666,909 543,909 Q457,909 418,822 Q379,735 379,535 L379,0 L113,0 L113,1114 L324,1114 L356,971 L373,971 Q413,1056 482.5,1095.5 Q552,1135 631,1135 Q835,1135 903,942 L913,942 Q998,1135 1186,1135 Q1334,1135 1410.5,1031 Q1487,927 1487,727 L1487,0"/> 
            <glyph glyph-name="n" unicode="&#x6E;" horiz-adv-x="936" d=" M668,0 L668,664 Q668,785 639,847 Q610,909 545,909 Q459,909 419,823.5 Q379,738 379,535 L379,0 L113,0 L113,1114 L324,1114 L356,971 L373,971 Q409,1048 476,1091.5 Q543,1135 633,1135 Q785,1135 860.5,1031 Q936,927 936,727 L936,0"/> 
            <glyph glyph-name="o" unicode="&#x6F;" horiz-adv-x="938" d=" M938,559 Q938,285 822,132.5 Q706,-20 504,-20 Q376,-20 278,50 Q180,120 127,251.5 Q74,383 74,559 Q74,830 189,982.5 Q304,1135 508,1135 Q705,1135 821.5,979.5 Q938,824 938,559 M346,559 Q346,385 384,296 Q422,207 506,207 Q666,207 666,559 Q666,734 627.5,820.5 Q589,907 506,907 Q422,907 384,820.5 Q346,734 346,559"/> 
            <glyph glyph-name="p" unicode="&#x70;" horiz-adv-x="942" d=" M610,-20 Q538,-20 482.5,12.5 Q427,45 379,127 L365,127 Q381,-9 381,-37 L381,-492 L113,-492 L113,1114 L319,1114 L365,969 L377,969 Q460,1135 618,1135 Q770,1135 856,984.5 Q942,834 942,559 Q942,288 853,134 Q764,-20 610,-20 M528,909 Q450,909 415.5,836.5 Q381,764 379,596 L379,561 Q379,377 414,293 Q449,209 530,209 Q670,209 670,563 Q670,737 635.5,823 Q601,909 528,909"/> 
            <glyph glyph-name="q" unicode="&#x71;" horiz-adv-x="905" d=" M406,-20 Q250,-20 162,132 Q74,284 74,555 Q74,828 160.5,981.5 Q247,1135 399,1135 Q477,1135 534,1097 Q591,1059 637,971 L651,971 L680,1114 L905,1114 L905,-492 L639,-492 L639,-23 Q639,13 651,145 L641,145 Q599,59 541,19.5 Q483,-20 406,-20 M487,203 Q566,203 600.5,275.5 Q635,348 637,516 L637,553 Q637,737 602,821 Q567,905 487,905 Q348,905 348,551 Q348,374 381.5,288.5 Q415,203 487,203"/> 
            <glyph glyph-name="r" unicode="&#x72;" horiz-adv-x="684" d=" M588,1135 Q637,1135 684,1120 L653,862 Q625,872 580,872 Q483,872 431,795.5 Q379,719 379,573 L379,0 L113,0 L113,1114 L332,1114 L362,940 L371,940 Q415,1045 467,1090 Q519,1135 588,1135"/> 
            <glyph glyph-name="s" unicode="&#x73;" horiz-adv-x="711" d=" M711,326 Q711,163 615.5,71.5 Q520,-20 334,-20 Q169,-20 61,45 L61,276 Q116,238 189.5,213 Q263,188 319,188 Q381,188 413.5,218.5 Q446,249 446,299 Q446,350 412,388 Q378,426 287,481 Q166,553 113.5,634.5 Q61,716 61,827 Q61,969 158.5,1052 Q256,1135 426,1135 Q574,1135 705,1057 L618,866 Q511,924 430,924 Q379,924 353.5,897 Q328,870 328,831 Q328,786 359.5,751 Q391,716 477,664 Q581,601 623,557 Q665,513 688,457 Q711,401 711,326"/> 
            <glyph glyph-name="t" unicode="&#x74;" horiz-adv-x="621" d=" M500,205 Q556,205 621,233 L621,25 Q556,-20 426,-20 Q281,-20 211,66.5 Q141,153 141,326 L141,903 L33,903 L33,1022 L172,1118 L240,1354 L410,1354 L410,1114 L612,1114 L612,903 L410,903 L410,317 Q410,205 500,205"/> 
            <glyph glyph-name="u" unicode="&#x75;" horiz-adv-x="928" d=" M715,0 L682,143 L668,143 Q631,67 562.5,23.5 Q494,-20 406,-20 Q256,-20 179,82 Q102,184 102,387 L102,1114 L371,1114 L371,451 Q371,329 400,267 Q429,205 494,205 Q580,205 619.5,291 Q659,377 659,580 L659,1114 L928,1114 L928,0"/> 
            <glyph glyph-name="v" unicode="&#x76;" horiz-adv-x="913" d=" M291,0 L0,1114 L276,1114 L418,469 Q427,424 439.5,337.5 Q452,251 455,213 L459,213 Q460,243 467.5,299 Q475,355 483,402 Q491,449 637,1114 L913,1114 L621,0"/> 
            <glyph glyph-name="w" unicode="&#x77;" horiz-adv-x="1458" d=" M889,0 L778,647 L739,920 L735,920 Q720,787 711,727.5 Q702,668 584,0 L242,0 L20,1114 L287,1114 L389,500 Q407,398 422,201 L428,201 Q430,254 442,362.5 Q454,471 459,502 L569,1114 L911,1114 L1020,500 Q1039,402 1053,201 L1057,201 Q1071,380 1092,500 L1198,1114 L1458,1114 L1235,0"/> 
            <glyph glyph-name="x" unicode="&#x78;" horiz-adv-x="874" d=" M305,569 L27,1114 L303,1114 L451,774 L588,1114 L862,1114 L582,569 L874,0 L596,0 L438,356 L291,0 L14,0"/> 
            <glyph glyph-name="y" unicode="&#x79;" horiz-adv-x="913" d=" M0,1114 L276,1114 L430,485 Q453,401 467,250 L473,250 Q474,274 482,335.5 Q490,397 495,432 Q500,467 633,1114 L913,1114 L594,-80 Q536,-300 440,-396 Q344,-492 184,-492 Q105,-492 43,-475 L43,-252 Q84,-264 135,-264 Q269,-264 311,-88 L330,-18"/> 
            <glyph glyph-name="z" unicode="&#x7A;" horiz-adv-x="690" d=" M690,0 L41,0 L41,170 L383,899 L63,899 L63,1114 L676,1114 L676,926 L344,215 L690,215"/> 
            <glyph glyph-name="{" unicode="&#x7B;" horiz-adv-x="705" d=" M283,276 Q283,375 216,416 Q149,457 25,457 L25,680 Q149,680 216,720 Q283,760 283,852 L283,860 L283,1180 Q283,1288 324.5,1347.5 Q366,1407 457.5,1434.5 Q549,1462 705,1462 L705,1251 Q604,1248 567,1213.5 Q530,1179 530,1106 L530,803 Q527,609 299,575 L299,563 Q530,529 530,348 L530,336 L530,33 Q530,-40 566.5,-75 Q603,-110 705,-113 L705,-324 Q547,-324 456.5,-296.5 Q366,-269 324.5,-209 Q283,-149 283,-41"/> 
            <glyph glyph-name="|" unicode="&#x7C;" horiz-adv-x="623" d=" M416,1552 L623,1552 L623,-471 L416,-471"/> 
            <glyph glyph-name="}" unicode="&#x7D;" horiz-adv-x="713" d=" M457,-41 Q457,-197 361.5,-260.5 Q266,-324 33,-324 L33,-113 Q135,-110 172,-75.5 Q209,-41 209,33 L209,336 L209,345 Q209,436 268.5,491 Q328,546 442,563 L442,575 Q213,609 209,803 L209,1106 Q209,1180 172,1214 Q135,1248 33,1251 L33,1462 Q267,1462 362,1398.5 Q457,1335 457,1180 L457,860 L457,852 Q457,760 522.5,720 Q588,680 713,680 L713,457 Q588,457 522.5,416 Q457,375 457,276"/> 
            <glyph glyph-name="~" unicode="&#x7E;" horiz-adv-x="844" d=" M264,678 Q176,678 74,557 L74,776 Q164,885 281,885 Q324,885 361.5,874.5 Q399,864 485,821 Q552,787 584,776.5 Q616,766 657,766 Q744,766 844,887 L844,668 Q763,559 637,559 Q586,559 537.5,575.5 Q489,592 430,623 Q348,664 322,671 Q296,678 264,678"/> 
            <glyph glyph-name="¡" unicode="&#xA1;" horiz-adv-x="442" d=" M164,621 L385,621 L436,-369 L113,-369 M442,954 Q442,875 399,833 Q356,791 274,791 Q196,791 153.5,833 Q111,875 111,954 Q111,1032 154.5,1075 Q198,1118 274,1118 Q356,1118 399,1074.5 Q442,1031 442,954"/> 
            <glyph glyph-name="¢" unicode="&#xA2;" horiz-adv-x="805" d=" M786,233 Q709,183 612,172 L612,-20 L446,-20 L446,180 Q147,259 147,737 Q147,989 220.5,1132 Q294,1275 446,1311 L446,1479 L612,1479 L612,1319 Q718,1303 805,1253 L727,1044 Q642,1094 580,1094 Q495,1094 457.5,1006.5 Q420,919 420,739 Q420,568 457,481.5 Q494,395 578,395 Q678,395 786,467"/> 
            <glyph glyph-name="£" unicode="&#xA3;" horiz-adv-x="903" d=" M598,1483 Q755,1483 881,1411 L797,1200 Q705,1253 614,1253 Q500,1253 500,1067 L500,854 L741,854 L741,651 L500,651 L500,518 Q500,427 469.5,359.5 Q439,292 369,242 L903,242 L903,0 L76,0 L76,229 Q168,278 200.5,337.5 Q233,397 233,494 L233,651 L78,651 L78,854 L233,854 L233,1073 Q233,1272 326.5,1377.5 Q420,1483 598,1483"/> 
            <glyph glyph-name="¤" unicode="&#xA4;" horiz-adv-x="1022" d=" M162,723 Q162,825 219,924 L90,1051 L227,1188 L354,1061 Q447,1116 555,1116 Q662,1116 754,1059 L883,1188 L1022,1055 L893,926 Q948,833 948,723 Q948,609 893,520 L1018,395 L883,260 L754,385 Q661,332 555,332 Q435,332 352,385 L227,262 L92,397 L219,522 Q162,614 162,723 M356,723 Q356,640 414,582 Q472,524 555,524 Q640,524 699,582.5 Q758,641 758,723 Q758,807 699,865.5 Q640,924 555,924 Q472,924 414,866 Q356,808 356,723"/> 
            <glyph glyph-name="¥" unicode="&#xA5;" horiz-adv-x="942" d=" M475,844 L659,1462 L942,1462 L666,711 L852,711 L852,541 L608,541 L608,399 L852,399 L852,229 L608,229 L608,0 L342,0 L342,229 L96,229 L96,399 L342,399 L342,541 L96,541 L96,711 L283,711 L6,1462 L289,1462"/> 
            <glyph glyph-name="¦" unicode="&#xA6;" horiz-adv-x="623" d=" M416,1552 L623,1552 L623,743 L416,743 M416,338 L623,338 L623,-471 L416,-471"/> 
            <glyph glyph-name="§" unicode="&#xA7;" horiz-adv-x="778" d=" M94,776 Q94,855 128.5,918.5 Q163,982 223,1022 Q164,1062 132,1128 Q100,1194 100,1270 Q100,1403 192.5,1481 Q285,1559 446,1559 Q543,1559 621.5,1538.5 Q700,1518 772,1489 L707,1305 Q644,1332 580,1354 Q516,1376 444,1376 Q386,1376 358,1347.5 Q330,1319 330,1274 Q330,1237 361,1203 Q392,1169 465,1128 L549,1079 Q674,1008 726,930 Q778,852 778,752 Q778,585 653,492 Q709,451 738.5,402 Q768,353 768,281 Q768,133 674,49 Q580,-35 403,-35 Q290,-35 216,-20.5 Q142,-6 82,23 L82,215 Q234,143 377,143 Q458,143 497.5,171 Q537,199 537,262 Q537,296 505.5,328.5 Q474,361 403,402 Q260,482 205,532.5 Q150,583 122,642.5 Q94,702 94,776 M307,797 Q307,741 339,703 Q371,665 453,616 L514,580 Q557,642 557,717 Q557,780 508,835.5 Q459,891 373,934 Q347,918 327,882 Q307,846 307,797"/> 
            <glyph glyph-name="¨" unicode="&#xA8;" horiz-adv-x="897" d=" M233,1403 Q233,1464 268,1498 Q303,1532 365,1532 Q427,1532 462.5,1496.5 Q498,1461 498,1403 Q498,1346 462.5,1311 Q427,1276 365,1276 Q303,1276 268,1309.5 Q233,1343 233,1403 M631,1403 Q631,1463 666,1497.5 Q701,1532 764,1532 Q825,1532 861,1498 Q897,1464 897,1403 Q897,1344 861.5,1310 Q826,1276 764,1276 Q702,1276 666.5,1310.5 Q631,1345 631,1403"/> 
            <glyph glyph-name="©" unicode="&#xA9;" horiz-adv-x="1595" d=" M887,1018 Q785,1018 729.5,942.5 Q674,867 674,731 Q674,591 723.5,516.5 Q773,442 887,442 Q943,442 1011,458.5 Q1079,475 1126,500 L1126,319 Q1010,264 881,264 Q680,264 568.5,387.5 Q457,511 457,733 Q457,952 567,1074 Q677,1196 874,1196 Q1016,1196 1169,1122 L1098,961 Q987,1018 887,1018 M92,731 Q92,931 192,1106 Q292,1281 467,1382 Q642,1483 844,1483 Q1041,1483 1214,1386 Q1387,1289 1491,1114 Q1595,939 1595,731 Q1595,527 1494.5,354.5 Q1394,182 1221.5,81 Q1049,-20 844,-20 Q637,-20 462,83.5 Q287,187 189.5,360 Q92,533 92,731 M227,731 Q227,566 310,422.5 Q393,279 535.5,197 Q678,115 844,115 Q1010,115 1153,197 Q1296,279 1378,422 Q1460,565 1460,731 Q1460,897 1378,1039.5 Q1296,1182 1153,1265 Q1010,1348 844,1348 Q679,1348 535.5,1265.5 Q392,1183 309.5,1040 Q227,897 227,731"/> 
            <glyph glyph-name="ª" unicode="&#xAA;" horiz-adv-x="586" d=" M469,770 L442,874 Q410,819 361,788.5 Q312,758 252,758 Q163,758 110,811 Q57,864 57,977 Q57,1085 123.5,1138.5 Q190,1192 336,1200 L418,1204 L418,1212 Q418,1331 315,1331 Q246,1331 152,1274 L96,1401 Q224,1479 352,1479 Q468,1479 527,1410.5 Q586,1342 586,1217 L586,770 M229,979 Q229,901 293,901 Q350,901 384,941 Q418,981 418,1053 L418,1092 L346,1085 Q288,1080 258.5,1055 Q229,1030 229,979"/> 
            <glyph glyph-name="«" unicode="&#xAB;" horiz-adv-x="1067" d=" M74,569 L381,1016 L580,905 L360,557 L580,209 L381,98 L74,543 M561,569 L868,1016 L1067,905 L848,557 L1067,209 L868,98 L561,543"/> 
            <glyph glyph-name="¬" unicode="&#xAC;" horiz-adv-x="811" d=" M811,250 L616,250 L616,618 L106,618 L106,825 L811,825"/> 
            <glyph glyph-name="­" unicode="&#xAD;" horiz-adv-x="575" d=" M72,432 L72,666 L575,666 L575,432"/> 
            <glyph glyph-name="®" unicode="&#xAE;" horiz-adv-x="1595" d=" M1147,907 Q1147,737 999,674 L1018,645 L1237,274 L999,274 L815,616 L758,616 L758,274 L543,274 L543,1186 L801,1186 Q981,1186 1064,1118 Q1147,1050 1147,907 M758,776 L797,776 Q868,776 899,805.5 Q930,835 930,903 Q930,973 897,998.5 Q864,1024 795,1024 L758,1024 M92,731 Q92,931 192,1106 Q292,1281 467,1382 Q642,1483 844,1483 Q1041,1483 1214,1386 Q1387,1289 1491,1114 Q1595,939 1595,731 Q1595,527 1494.5,354.5 Q1394,182 1221.5,81 Q1049,-20 844,-20 Q637,-20 462,83.5 Q287,187 189.5,360 Q92,533 92,731 M227,731 Q227,566 310,422.5 Q393,279 535.5,197 Q678,115 844,115 Q1010,115 1153,197 Q1296,279 1378,422 Q1460,565 1460,731 Q1460,897 1378,1039.5 Q1296,1182 1153,1265 Q1010,1348 844,1348 Q679,1348 535.5,1265.5 Q392,1183 309.5,1040 Q227,897 227,731"/> 
            <glyph glyph-name="¯" unicode="&#xAF;" horiz-adv-x="1030" d=" M1030,1556 L-6,1556 L-6,1745 L1030,1745"/> 
            <glyph glyph-name="°" unicode="&#xB0;" horiz-adv-x="756" d=" M76,1143 Q76,1282 175,1382.5 Q274,1483 416,1483 Q555,1483 655.5,1383 Q756,1283 756,1143 Q756,1002 657,903.5 Q558,805 416,805 Q273,805 174.5,903.5 Q76,1002 76,1143 M252,1143 Q252,1076 301,1028.5 Q350,981 416,981 Q482,981 530,1028.5 Q578,1076 578,1143 Q578,1211 530.5,1259 Q483,1307 416,1307 Q349,1307 300.5,1258 Q252,1209 252,1143"/> 
            <glyph glyph-name="±" unicode="&#xB1;" horiz-adv-x="811" d=" M360,618 L106,618 L106,825 L360,825 L360,1198 L557,1198 L557,825 L811,825 L811,618 L557,618 L557,250 L360,250 M106,0 L106,207 L811,207 L811,0"/> 
            <glyph glyph-name="²" unicode="&#xB2;" horiz-adv-x="623" d=" M623,586 L53,586 L53,743 L252,965 Q347,1072 374,1118.5 Q401,1165 401,1217 Q401,1259 377.5,1282 Q354,1305 315,1305 Q240,1305 152,1217 L49,1356 Q176,1483 338,1483 Q460,1483 529,1416 Q598,1349 598,1233 Q598,1152 559.5,1079 Q521,1006 399,879 L297,772 L623,772"/> 
            <glyph glyph-name="³" unicode="&#xB3;" horiz-adv-x="614" d=" M588,1251 Q588,1102 440,1051 L440,1040 Q529,1019 571.5,961.5 Q614,904 614,831 Q614,710 536,639.5 Q458,569 307,569 Q151,569 63,625 L63,801 Q169,729 293,729 Q428,729 428,846 Q428,958 274,958 L176,958 L176,1108 L260,1108 Q333,1108 370.5,1135.5 Q408,1163 408,1225 Q408,1268 384,1293.5 Q360,1319 313,1319 Q269,1319 230.5,1300 Q192,1281 143,1241 L57,1374 Q128,1433 194,1457 Q260,1481 334,1481 Q445,1481 516.5,1418.5 Q588,1356 588,1251"/> 
            <glyph glyph-name="´" unicode="&#xB4;" horiz-adv-x="801" d=" M311,1241 L311,1268 Q352,1321 406,1419 Q460,1517 483,1569 L801,1569 L801,1548 Q777,1505 682,1409.5 Q587,1314 498,1241"/> 
            <glyph glyph-name="µ" unicode="&#xB5;" horiz-adv-x="928" d=" M371,414 Q371,300 401,252.5 Q431,205 494,205 Q580,205 619.5,291 Q659,377 659,580 L659,1114 L928,1114 L928,0 L715,0 L682,143 L666,143 Q603,-20 467,-20 Q408,-20 362,20 Q371,-110 371,-252 L371,-492 L102,-492 L102,1114 L371,1114"/> 
            <glyph glyph-name="¶" unicode="&#xB6;" horiz-adv-x="948" d=" M948,-260 L795,-260 L795,1364 L633,1364 L633,-260 L479,-260 L479,559 Q434,541 373,541 Q213,541 138,666 Q63,791 63,1042 Q63,1299 143.5,1427.5 Q224,1556 399,1556 L948,1556"/> 
            <glyph glyph-name="·" unicode="&#xB7;" horiz-adv-x="442" d=" M111,723 Q111,801 152.5,844 Q194,887 276,887 Q358,887 400,844.5 Q442,802 442,723 Q442,645 398.5,602 Q355,559 276,559 Q195,559 153,602.5 Q111,646 111,723"/> 
            <glyph glyph-name="¸" unicode="&#xB8;" horiz-adv-x="397" d=" M397,-260 Q397,-367 326,-429.5 Q255,-492 106,-492 Q33,-492 -25,-471 L-25,-317 Q36,-334 96,-334 Q184,-334 184,-268 Q184,-184 27,-158 L106,0 L279,0 L242,-76 Q310,-93 353.5,-139 Q397,-185 397,-260"/> 
            <glyph glyph-name="¹" unicode="&#xB9;" horiz-adv-x="500" d=" M500,586 L303,586 L303,1047 L306,1159 L311,1255 Q304,1245 289,1231 Q274,1217 158,1118 L66,1235 L338,1462 L500,1462"/> 
            <glyph glyph-name="º" unicode="&#xBA;" horiz-adv-x="625" d=" M625,1120 Q625,949 549,853.5 Q473,758 342,758 Q212,758 136.5,856.5 Q61,955 61,1120 Q61,1290 136,1384.5 Q211,1479 344,1479 Q472,1479 548.5,1382.5 Q625,1286 625,1120 M233,1120 Q233,1014 260,962.5 Q287,911 344,911 Q401,911 427,962.5 Q453,1014 453,1120 Q453,1226 427,1275.5 Q401,1325 344,1325 Q287,1325 260,1275.5 Q233,1226 233,1120"/> 
            <glyph glyph-name="»" unicode="&#xBB;" horiz-adv-x="1067" d=" M1067,543 L760,98 L561,209 L780,557 L561,905 L760,1016 L1067,569 M580,543 L272,98 L74,209 L293,557 L74,905 L272,1016 L580,569"/> 
            <glyph glyph-name="¼" unicode="&#xBC;" horiz-adv-x="1481" d=" M1481,65696 L1370,65696 L1370,65537 L1174,65537 L1174,65696 L829,65696 L829,65842 L1176,66419 L1370,66419 L1370,65856 L1481,65856 M1174,65856 L1174,66026 L1178,66213 Q1166,66180 1143.5,66129 Q1121,66078 1108,66057 L987,65856 M749,586 L552,586 L552,1047 L555,1159 L560,1255 Q553,1245 538,1231 Q523,1217 407,1118 L315,1235 L587,1462 L749,1462 M1222,1462 L479,0 L276,0 L1018,1462"/> 
            <glyph glyph-name="½" unicode="&#xBD;" horiz-adv-x="1518" d=" M1518,65537 L948,65537 L948,65694 L1147,65916 Q1242,66023 1269,66069.5 Q1296,66116 1296,66168 Q1296,66210 1272.5,66233 Q1249,66256 1210,66256 Q1135,66256 1047,66168 L944,66307 Q1071,66434 1233,66434 Q1355,66434 1424,66367 Q1493,66300 1493,66184 Q1493,66103 1454.5,66030 Q1416,65957 1294,65830 L1192,65723 L1518,65723 M749,586 L552,586 L552,1047 L555,1159 L560,1255 Q553,1245 538,1231 Q523,1217 407,1118 L315,1235 L587,1462 L749,1462 M1222,1462 L479,0 L276,0 L1018,1462"/> 
            <glyph glyph-name="¾" unicode="&#xBE;" horiz-adv-x="1487" d=" M1487,65696 L1376,65696 L1376,65537 L1180,65537 L1180,65696 L835,65696 L835,65842 L1182,66419 L1376,66419 L1376,65856 L1487,65856 M1180,65856 L1180,66026 L1184,66213 Q1172,66180 1149.5,66129 Q1127,66078 1114,66057 L993,65856 M592,1251 Q592,1102 444,1051 L444,1040 Q533,1019 575.5,961.5 Q618,904 618,831 Q618,710 540,639.5 Q462,569 311,569 Q155,569 67,625 L67,801 Q173,729 297,729 Q432,729 432,846 Q432,958 278,958 L180,958 L180,1108 L264,1108 Q337,1108 374.5,1135.5 Q412,1163 412,1225 Q412,1268 388,1293.5 Q364,1319 317,1319 Q273,1319 234.5,1300 Q196,1281 147,1241 L61,1374 Q132,1433 198,1457 Q264,1481 338,1481 Q449,1481 520.5,1418.5 Q592,1356 592,1251 M1257,1462 L514,0 L311,0 L1053,1462"/> 
            <glyph glyph-name="¿" unicode="&#xBF;" horiz-adv-x="758" d=" M563,621 L563,549 Q563,455 533.5,383.5 Q504,312 426,227 Q352,146 331.5,100 Q311,54 311,-16 Q311,-79 342,-120.5 Q373,-162 436,-162 Q545,-162 662,-84 L758,-285 Q600,-391 410,-391 Q243,-391 148,-300.5 Q53,-210 53,-45 Q53,31 67,89 Q81,147 111,198.5 Q141,250 223,340 Q289,410 308.5,451.5 Q328,493 328,559 L328,621 M610,954 Q610,875 567,833 Q524,791 442,791 Q364,791 321.5,833 Q279,875 279,954 Q279,1032 322.5,1075 Q366,1118 442,1118 Q524,1118 567,1074.5 Q610,1031 610,954"/> 
            <glyph glyph-name="À" unicode="&#xC0;" horiz-adv-x="1094" d=" M821,0 L737,369 L356,369 L272,0 L0,0 L362,1468 L731,1468 L1094,0 M686,610 L608,950 Q601,981 576.5,1105.5 Q552,1230 547,1272 Q534,1186 514,1082.5 Q494,979 410,610 M66032,1579 Q65957,1639 65856,1739.5 Q65755,1840 65729,1886 L65729,1907 L66047,1907 Q66074,1847 66127.5,1751.5 Q66181,1656 66219,1606 L66219,1579"/> 
            <glyph glyph-name="Á" unicode="&#xC1;" horiz-adv-x="1094" d=" M821,0 L737,369 L356,369 L272,0 L0,0 L362,1468 L731,1468 L1094,0 M686,610 L608,950 Q601,981 576.5,1105.5 Q552,1230 547,1272 Q534,1186 514,1082.5 Q494,979 410,610 M405,1579 L405,1606 Q446,1659 500,1757 Q554,1855 577,1907 L895,1907 L895,1886 Q871,1843 776,1747.5 Q681,1652 592,1579"/> 
            <glyph glyph-name="Â" unicode="&#xC2;" horiz-adv-x="1094" d=" M821,0 L737,369 L356,369 L272,0 L0,0 L362,1468 L731,1468 L1094,0 M686,610 L608,950 Q601,981 576.5,1105.5 Q552,1230 547,1272 Q534,1186 514,1082.5 Q494,979 410,610 M66271,1579 Q66175,1651 66082,1757 Q65993,1657 65896,1579 L65728,1579 L65728,1606 Q65905,1829 65945,1907 L66222,1907 Q66269,1820 66439,1606 L66439,1579"/> 
            <glyph glyph-name="Ã" unicode="&#xC3;" horiz-adv-x="1094" d=" M821,0 L737,369 L356,369 L272,0 L0,0 L362,1468 L731,1468 L1094,0 M686,610 L608,950 Q601,981 576.5,1105.5 Q552,1230 547,1272 Q534,1186 514,1082.5 Q494,979 410,610 M65965,1686 Q65934,1686 65915.5,1662.5 Q65897,1639 65887,1577 L65746,1577 Q65757,1730 65814.5,1804 Q65872,1878 65965,1878 Q66008,1878 66042.5,1861.5 Q66077,1845 66107,1825 Q66137,1805 66165,1788.5 Q66193,1772 66223,1772 Q66257,1772 66272.5,1798 Q66288,1824 66299,1880 L66440,1880 Q66429,1728 66370.5,1653.5 Q66312,1579 66221,1579 Q66177,1579 66142.5,1595.5 Q66108,1612 66078.5,1632.5 Q66049,1653 66022,1669.5 Q65995,1686 65965,1686"/> 
            <glyph glyph-name="Ä" unicode="&#xC4;" horiz-adv-x="1094" d=" M821,0 L737,369 L356,369 L272,0 L0,0 L362,1468 L731,1468 L1094,0 M686,610 L608,950 Q601,981 576.5,1105.5 Q552,1230 547,1272 Q534,1186 514,1082.5 Q494,979 410,610 M65752,1741 Q65752,1802 65787,1836 Q65822,1870 65884,1870 Q65946,1870 65981.5,1834.5 Q66017,1799 66017,1741 Q66017,1684 65981.5,1649 Q65946,1614 65884,1614 Q65822,1614 65787,1647.5 Q65752,1681 65752,1741 M66150,1741 Q66150,1801 66185,1835.5 Q66220,1870 66283,1870 Q66344,1870 66380,1836 Q66416,1802 66416,1741 Q66416,1682 66380.5,1648 Q66345,1614 66283,1614 Q66221,1614 66185.5,1648.5 Q66150,1683 66150,1741"/> 
            <glyph glyph-name="Å" unicode="&#xC5;" horiz-adv-x="1094" d=" M821,0 L737,369 L356,369 L272,0 L0,0 L362,1468 L731,1468 L1094,0 M686,610 L608,950 Q601,981 576.5,1105.5 Q552,1230 547,1272 Q534,1186 514,1082.5 Q494,979 410,610 M1052,1571 Q1052,1464 982.5,1399.5 Q913,1335 802,1335 Q692,1335 625,1397.5 Q558,1460 558,1569 Q558,1677 625,1739.5 Q692,1802 802,1802 Q911,1802 981.5,1738 Q1052,1674 1052,1571 M902,1569 Q902,1615 873.5,1642 Q845,1669 802,1669 Q759,1669 730.5,1642 Q702,1615 702,1569 Q702,1522 727,1495 Q752,1468 802,1468 Q845,1468 873.5,1495 Q902,1522 902,1569"/> 
            <glyph glyph-name="Æ" unicode="&#xC6;" horiz-adv-x="1339" d=" M1339,0 L684,0 L684,369 L385,369 L272,0 L0,0 L473,1462 L1339,1462 L1339,1227 L956,1227 L956,879 L1311,879 L1311,643 L956,643 L956,238 L1339,238 M645,1227 L631,1178 L461,610 L684,610 L684,1227"/> 
            <glyph glyph-name="Ç" unicode="&#xC7;" horiz-adv-x="911" d=" M614,1245 Q497,1245 429.5,1108 Q362,971 362,727 Q362,219 627,219 Q743,219 870,293 L870,51 Q763,-20 596,-20 Q349,-20 216.5,176.5 Q84,373 84,729 Q84,1085 220.5,1284 Q357,1483 600,1483 Q680,1483 753.5,1461 Q827,1439 911,1384 L821,1163 Q776,1194 725,1219.5 Q674,1245 614,1245 M747,-260 Q747,-367 676,-429.5 Q605,-492 456,-492 Q383,-492 325,-471 L325,-317 Q386,-334 446,-334 Q534,-334 534,-268 Q534,-184 377,-158 L456,0 L629,0 L592,-76 Q660,-93 703.5,-139 Q747,-185 747,-260"/> 
            <glyph glyph-name="È" unicode="&#xC8;" horiz-adv-x="788" d=" M788,0 L129,0 L129,1462 L788,1462 L788,1227 L401,1227 L401,879 L760,879 L760,643 L401,643 L401,238 L788,238 M65928,1579 Q65853,1639 65752,1739.5 Q65651,1840 65625,1886 L65625,1907 L65943,1907 Q65970,1847 66023.5,1751.5 Q66077,1656 66115,1606 L66115,1579"/> 
            <glyph glyph-name="É" unicode="&#xC9;" horiz-adv-x="826" d=" M788,0 L129,0 L129,1462 L788,1462 L788,1227 L401,1227 L401,879 L760,879 L760,643 L401,643 L401,238 L788,238 M336,1579 L336,1606 Q377,1659 431,1757 Q485,1855 508,1907 L826,1907 L826,1886 Q802,1843 707,1747.5 Q612,1652 523,1579"/> 
            <glyph glyph-name="Ê" unicode="&#xCA;" horiz-adv-x="814" d=" M788,0 L129,0 L129,1462 L788,1462 L788,1227 L401,1227 L401,879 L760,879 L760,643 L401,643 L401,238 L788,238 M66182,1579 Q66086,1651 65993,1757 Q65904,1657 65807,1579 L65639,1579 L65639,1606 Q65816,1829 65856,1907 L66133,1907 Q66180,1820 66350,1606 L66350,1579"/> 
            <glyph glyph-name="Ë" unicode="&#xCB;" horiz-adv-x="794" d=" M788,0 L129,0 L129,1462 L788,1462 L788,1227 L401,1227 L401,879 L760,879 L760,643 L401,643 L401,238 L788,238 M65666,1741 Q65666,1802 65701,1836 Q65736,1870 65798,1870 Q65860,1870 65895.5,1834.5 Q65931,1799 65931,1741 Q65931,1684 65895.5,1649 Q65860,1614 65798,1614 Q65736,1614 65701,1647.5 Q65666,1681 65666,1741 M66064,1741 Q66064,1801 66099,1835.5 Q66134,1870 66197,1870 Q66258,1870 66294,1836 Q66330,1802 66330,1741 Q66330,1682 66294.5,1648 Q66259,1614 66197,1614 Q66135,1614 66099.5,1648.5 Q66064,1683 66064,1741"/> 
            <glyph glyph-name="Ì" unicode="&#xCC;" horiz-adv-x="440" d=" M178,0 L178,1462 L434,1462 L434,0 M65789,1579 Q65714,1639 65613,1739.5 Q65512,1840 65486,1886 L65486,1907 L65804,1907 Q65831,1847 65884.5,1751.5 Q65938,1656 65976,1606 L65976,1579"/> 
            <glyph glyph-name="Í" unicode="&#xCD;" horiz-adv-x="657" d=" M178,0 L178,1462 L434,1462 L434,0 M65703,1579 L65703,1606 Q65744,1659 65798,1757 Q65852,1855 65875,1907 L66193,1907 L66193,1886 Q66169,1843 66074,1747.5 Q65979,1652 65890,1579"/> 
            <glyph glyph-name="Î" unicode="&#xCE;" horiz-adv-x="663" d=" M178,0 L178,1462 L434,1462 L434,0 M66031,1579 Q65935,1651 65842,1757 Q65753,1657 65656,1579 L65488,1579 L65488,1606 Q65665,1829 65705,1907 L65982,1907 Q66029,1820 66199,1606 L66199,1579"/> 
            <glyph glyph-name="Ï" unicode="&#xCF;" horiz-adv-x="640" d=" M178,0 L178,1462 L434,1462 L434,0 M65512,1741 Q65512,1802 65547,1836 Q65582,1870 65644,1870 Q65706,1870 65741.5,1834.5 Q65777,1799 65777,1741 Q65777,1684 65741.5,1649 Q65706,1614 65644,1614 Q65582,1614 65547,1647.5 Q65512,1681 65512,1741 M65910,1741 Q65910,1801 65945,1835.5 Q65980,1870 66043,1870 Q66104,1870 66140,1836 Q66176,1802 66176,1741 Q66176,1682 66140.5,1648 Q66105,1614 66043,1614 Q65981,1614 65945.5,1648.5 Q65910,1683 65910,1741"/> 
            <glyph glyph-name="Ð" unicode="&#xD0;" horiz-adv-x="1059" d=" M0,842 L129,842 L129,1462 L520,1462 Q775,1462 917,1273.5 Q1059,1085 1059,745 Q1059,383 911.5,191.5 Q764,0 487,0 L129,0 L129,604 L0,604 M780,737 Q780,1227 510,1227 L401,1227 L401,842 L584,842 L584,604 L401,604 L401,238 L489,238 Q638,238 709,362.5 Q780,487 780,737"/> 
            <glyph glyph-name="Ñ" unicode="&#xD1;" horiz-adv-x="1153" d=" M1153,0 L821,0 L369,1059 L356,1059 Q381,938 381,799 L381,0 L129,0 L129,1462 L463,1462 L911,414 L922,414 Q903,519 903,664 L903,1462 L1153,1462 M522,1686 Q491,1686 472.5,1662.5 Q454,1639 444,1577 L303,1577 Q314,1730 371.5,1804 Q429,1878 522,1878 Q565,1878 599.5,1861.5 Q634,1845 664,1825 Q694,1805 722,1788.5 Q750,1772 780,1772 Q814,1772 829.5,1798 Q845,1824 856,1880 L997,1880 Q986,1728 927.5,1653.5 Q869,1579 778,1579 Q734,1579 699.5,1595.5 Q665,1612 635.5,1632.5 Q606,1653 579,1669.5 Q552,1686 522,1686"/> 
            <glyph glyph-name="Ò" unicode="&#xD2;" horiz-adv-x="1135" d=" M1135,733 Q1135,370 999,175 Q863,-20 610,-20 Q356,-20 220,174.5 Q84,369 84,735 Q84,1098 220,1291.5 Q356,1485 612,1485 Q865,1485 1000,1290.5 Q1135,1096 1135,733 M362,733 Q362,483 425,352 Q488,221 610,221 Q856,221 856,733 Q856,1245 612,1245 Q488,1245 425,1114.5 Q362,984 362,733 M66083,1579 Q66008,1639 65907,1739.5 Q65806,1840 65780,1886 L65780,1907 L66098,1907 Q66125,1847 66178.5,1751.5 Q66232,1656 66270,1606 L66270,1579"/> 
            <glyph glyph-name="Ó" unicode="&#xD3;" horiz-adv-x="1135" d=" M1135,733 Q1135,370 999,175 Q863,-20 610,-20 Q356,-20 220,174.5 Q84,369 84,735 Q84,1098 220,1291.5 Q356,1485 612,1485 Q865,1485 1000,1290.5 Q1135,1096 1135,733 M362,733 Q362,483 425,352 Q488,221 610,221 Q856,221 856,733 Q856,1245 612,1245 Q488,1245 425,1114.5 Q362,984 362,733 M477,1579 L477,1606 Q518,1659 572,1757 Q626,1855 649,1907 L967,1907 L967,1886 Q943,1843 848,1747.5 Q753,1652 664,1579"/> 
            <glyph glyph-name="Ô" unicode="&#xD4;" horiz-adv-x="1135" d=" M1135,733 Q1135,370 999,175 Q863,-20 610,-20 Q356,-20 220,174.5 Q84,369 84,735 Q84,1098 220,1291.5 Q356,1485 612,1485 Q865,1485 1000,1290.5 Q1135,1096 1135,733 M362,733 Q362,483 425,352 Q488,221 610,221 Q856,221 856,733 Q856,1245 612,1245 Q488,1245 425,1114.5 Q362,984 362,733 M795,1579 Q699,1651 606,1757 Q517,1657 420,1579 L252,1579 L252,1606 Q429,1829 469,1907 L746,1907 Q793,1820 963,1606 L963,1579"/> 
            <glyph glyph-name="Õ" unicode="&#xD5;" horiz-adv-x="1135" d=" M1135,733 Q1135,370 999,175 Q863,-20 610,-20 Q356,-20 220,174.5 Q84,369 84,735 Q84,1098 220,1291.5 Q356,1485 612,1485 Q865,1485 1000,1290.5 Q1135,1096 1135,733 M362,733 Q362,483 425,352 Q488,221 610,221 Q856,221 856,733 Q856,1245 612,1245 Q488,1245 425,1114.5 Q362,984 362,733 M491,1686 Q460,1686 441.5,1662.5 Q423,1639 413,1577 L272,1577 Q283,1730 340.5,1804 Q398,1878 491,1878 Q534,1878 568.5,1861.5 Q603,1845 633,1825 Q663,1805 691,1788.5 Q719,1772 749,1772 Q783,1772 798.5,1798 Q814,1824 825,1880 L966,1880 Q955,1728 896.5,1653.5 Q838,1579 747,1579 Q703,1579 668.5,1595.5 Q634,1612 604.5,1632.5 Q575,1653 548,1669.5 Q521,1686 491,1686"/> 
            <glyph glyph-name="Ö" unicode="&#xD6;" horiz-adv-x="1135" d=" M1135,733 Q1135,370 999,175 Q863,-20 610,-20 Q356,-20 220,174.5 Q84,369 84,735 Q84,1098 220,1291.5 Q356,1485 612,1485 Q865,1485 1000,1290.5 Q1135,1096 1135,733 M362,733 Q362,483 425,352 Q488,221 610,221 Q856,221 856,733 Q856,1245 612,1245 Q488,1245 425,1114.5 Q362,984 362,733 M276,1741 Q276,1802 311,1836 Q346,1870 408,1870 Q470,1870 505.5,1834.5 Q541,1799 541,1741 Q541,1684 505.5,1649 Q470,1614 408,1614 Q346,1614 311,1647.5 Q276,1681 276,1741 M674,1741 Q674,1801 709,1835.5 Q744,1870 807,1870 Q868,1870 904,1836 Q940,1802 940,1741 Q940,1682 904.5,1648 Q869,1614 807,1614 Q745,1614 709.5,1648.5 Q674,1683 674,1741"/> 
            <glyph glyph-name="×" unicode="&#xD7;" horiz-adv-x="823" d=" M92,389 L338,723 L92,1053 L244,1165 L457,883 L672,1165 L823,1053 L578,723 L823,389 L672,276 L457,565 L244,276"/> 
            <glyph glyph-name="Ø" unicode="&#xD8;" horiz-adv-x="1135" d=" M1135,733 Q1135,370 999,175 Q863,-20 610,-20 Q475,-20 369,37 L299,-102 L133,-25 L229,162 Q84,355 84,735 Q84,1098 220,1291.5 Q356,1485 612,1485 Q749,1485 864,1417 L936,1559 L1102,1483 L1001,1286 Q1135,1094 1135,733 M856,733 Q856,885 844,969 L481,260 Q529,221 610,221 Q856,221 856,733 M362,733 Q362,575 383,467 L754,1196 Q701,1245 612,1245 Q488,1245 425,1114.5 Q362,984 362,733"/> 
            <glyph glyph-name="Ù" unicode="&#xD9;" horiz-adv-x="1028" d=" M1028,1462 L1028,516 Q1028,255 910,117.5 Q792,-20 569,-20 Q351,-20 237,116.5 Q123,253 123,520 L123,1462 L393,1462 L393,500 Q393,221 578,221 Q664,221 711,292 Q758,363 758,494 L758,1462 M66049,1579 Q65974,1639 65873,1739.5 Q65772,1840 65746,1886 L65746,1907 L66064,1907 Q66091,1847 66144.5,1751.5 Q66198,1656 66236,1606 L66236,1579"/> 
            <glyph glyph-name="Ú" unicode="&#xDA;" horiz-adv-x="1028" d=" M1028,1462 L1028,516 Q1028,255 910,117.5 Q792,-20 569,-20 Q351,-20 237,116.5 Q123,253 123,520 L123,1462 L393,1462 L393,500 Q393,221 578,221 Q664,221 711,292 Q758,363 758,494 L758,1462 M444,1579 L444,1606 Q485,1659 539,1757 Q593,1855 616,1907 L934,1907 L934,1886 Q910,1843 815,1747.5 Q720,1652 631,1579"/> 
            <glyph glyph-name="Û" unicode="&#xDB;" horiz-adv-x="1028" d=" M1028,1462 L1028,516 Q1028,255 910,117.5 Q792,-20 569,-20 Q351,-20 237,116.5 Q123,253 123,520 L123,1462 L393,1462 L393,500 Q393,221 578,221 Q664,221 711,292 Q758,363 758,494 L758,1462 M762,1579 Q666,1651 573,1757 Q484,1657 387,1579 L219,1579 L219,1606 Q396,1829 436,1907 L713,1907 Q760,1820 930,1606 L930,1579"/> 
            <glyph glyph-name="Ü" unicode="&#xDC;" horiz-adv-x="1028" d=" M1028,1462 L1028,516 Q1028,255 910,117.5 Q792,-20 569,-20 Q351,-20 237,116.5 Q123,253 123,520 L123,1462 L393,1462 L393,500 Q393,221 578,221 Q664,221 711,292 Q758,363 758,494 L758,1462 M243,1741 Q243,1802 278,1836 Q313,1870 375,1870 Q437,1870 472.5,1834.5 Q508,1799 508,1741 Q508,1684 472.5,1649 Q437,1614 375,1614 Q313,1614 278,1647.5 Q243,1681 243,1741 M641,1741 Q641,1801 676,1835.5 Q711,1870 774,1870 Q835,1870 871,1836 Q907,1802 907,1741 Q907,1682 871.5,1648 Q836,1614 774,1614 Q712,1614 676.5,1648.5 Q641,1683 641,1741"/> 
            <glyph glyph-name="Ý" unicode="&#xDD;" horiz-adv-x="961" d=" M481,885 L676,1462 L961,1462 L614,586 L614,0 L346,0 L346,575 L0,1462 L287,1462 M346,1579 L346,1606 Q387,1659 441,1757 Q495,1855 518,1907 L836,1907 L836,1886 Q812,1843 717,1747.5 Q622,1652 533,1579"/> 
            <glyph glyph-name="Þ" unicode="&#xDE;" horiz-adv-x="926" d=" M926,778 Q926,545 809,420 Q692,295 469,295 L401,295 L401,0 L129,0 L129,1462 L401,1462 L401,1229 L498,1229 Q926,1229 926,778 M401,530 L453,530 Q553,530 602,586 Q651,642 651,768 Q651,995 469,995 L401,995"/> 
            <glyph glyph-name="ß" unicode="&#xDF;" horiz-adv-x="1065" d=" M963,1245 Q963,1094 857,982 L806,929 Q750,871 750,836 Q750,800 776.5,767 Q803,734 903,653 Q998,577 1031.5,506.5 Q1065,436 1065,338 Q1065,169 965,74.5 Q865,-20 682,-20 Q542,-20 451,33 L451,258 Q556,188 659,188 Q793,188 793,317 Q793,372 766,412.5 Q739,453 651,522 Q562,588 523.5,651 Q485,714 485,799 Q485,861 510,912.5 Q535,964 589,1017 Q647,1074 669.5,1113.5 Q692,1153 692,1200 Q692,1268 653.5,1307 Q615,1346 541,1346 Q379,1346 379,1143 L379,0 L113,0 L113,1151 Q113,1353 225.5,1460 Q338,1567 545,1567 Q741,1567 852,1482 Q963,1397 963,1245"/> 
            <glyph glyph-name="à" unicode="&#xE0;" horiz-adv-x="854" d=" M659,0 L606,152 L600,152 Q541,54 478,17 Q415,-20 319,-20 Q196,-20 125.5,72 Q55,164 55,328 Q55,504 151.5,589.5 Q248,675 440,684 L588,690 L588,770 Q588,926 453,926 Q353,926 223,848 L131,1032 Q297,1137 492,1137 Q669,1137 761.5,1035.5 Q854,934 854,748 L854,0 M428,188 Q501,188 544.5,253.5 Q588,319 588,428 L588,522 L506,518 Q415,513 372.5,466 Q330,419 330,326 Q330,188 428,188 M65985,1241 Q65910,1301 65809,1401.5 Q65708,1502 65682,1548 L65682,1569 L66000,1569 Q66027,1509 66080.5,1413.5 Q66134,1318 66172,1268 L66172,1241"/> 
            <glyph glyph-name="á" unicode="&#xE1;" horiz-adv-x="854" d=" M659,0 L606,152 L600,152 Q541,54 478,17 Q415,-20 319,-20 Q196,-20 125.5,72 Q55,164 55,328 Q55,504 151.5,589.5 Q248,675 440,684 L588,690 L588,770 Q588,926 453,926 Q353,926 223,848 L131,1032 Q297,1137 492,1137 Q669,1137 761.5,1035.5 Q854,934 854,748 L854,0 M428,188 Q501,188 544.5,253.5 Q588,319 588,428 L588,522 L506,518 Q415,513 372.5,466 Q330,419 330,326 Q330,188 428,188 M362,1241 L362,1268 Q403,1321 457,1419 Q511,1517 534,1569 L852,1569 L852,1548 Q828,1505 733,1409.5 Q638,1314 549,1241"/> 
            <glyph glyph-name="â" unicode="&#xE2;" horiz-adv-x="854" d=" M659,0 L606,152 L600,152 Q541,54 478,17 Q415,-20 319,-20 Q196,-20 125.5,72 Q55,164 55,328 Q55,504 151.5,589.5 Q248,675 440,684 L588,690 L588,770 Q588,926 453,926 Q353,926 223,848 L131,1032 Q297,1137 492,1137 Q669,1137 761.5,1035.5 Q854,934 854,748 L854,0 M428,188 Q501,188 544.5,253.5 Q588,319 588,428 L588,522 L506,518 Q415,513 372.5,466 Q330,419 330,326 Q330,188 428,188 M939,1496 Q843,1568 750,1674 Q661,1574 564,1496 L396,1496 L396,1523 Q573,1746 613,1824 L890,1824 Q937,1737 1107,1523 L1107,1496"/> 
            <glyph glyph-name="ã" unicode="&#xE3;" horiz-adv-x="855" d=" M659,0 L606,152 L600,152 Q541,54 478,17 Q415,-20 319,-20 Q196,-20 125.5,72 Q55,164 55,328 Q55,504 151.5,589.5 Q248,675 440,684 L588,690 L588,770 Q588,926 453,926 Q353,926 223,848 L131,1032 Q297,1137 492,1137 Q669,1137 761.5,1035.5 Q854,934 854,748 L854,0 M428,188 Q501,188 544.5,253.5 Q588,319 588,428 L588,522 L506,518 Q415,513 372.5,466 Q330,419 330,326 Q330,188 428,188 M636,1348 Q605,1348 586.5,1324.5 Q568,1301 558,1239 L417,1239 Q428,1392 485.5,1466 Q543,1540 636,1540 Q679,1540 713.5,1523.5 Q748,1507 778,1487 Q808,1467 836,1450.5 Q864,1434 894,1434 Q928,1434 943.5,1460 Q959,1486 970,1542 L1111,1542 Q1100,1390 1041.5,1315.5 Q983,1241 892,1241 Q848,1241 813.5,1257.5 Q779,1274 749.5,1294.5 Q720,1315 693,1331.5 Q666,1348 636,1348"/> 
            <glyph glyph-name="ä" unicode="&#xE4;" horiz-adv-x="854" d=" M659,0 L606,152 L600,152 Q541,54 478,17 Q415,-20 319,-20 Q196,-20 125.5,72 Q55,164 55,328 Q55,504 151.5,589.5 Q248,675 440,684 L588,690 L588,770 Q588,926 453,926 Q353,926 223,848 L131,1032 Q297,1137 492,1137 Q669,1137 761.5,1035.5 Q854,934 854,748 L854,0 M428,188 Q501,188 544.5,253.5 Q588,319 588,428 L588,522 L506,518 Q415,513 372.5,466 Q330,419 330,326 Q330,188 428,188 M420,1403 Q420,1464 455,1498 Q490,1532 552,1532 Q614,1532 649.5,1496.5 Q685,1461 685,1403 Q685,1346 649.5,1311 Q614,1276 552,1276 Q490,1276 455,1309.5 Q420,1343 420,1403 M818,1403 Q818,1463 853,1497.5 Q888,1532 951,1532 Q1012,1532 1048,1498 Q1084,1464 1084,1403 Q1084,1344 1048.5,1310 Q1013,1276 951,1276 Q889,1276 853.5,1310.5 Q818,1345 818,1403"/> 
            <glyph glyph-name="å" unicode="&#xE5;" horiz-adv-x="854" d=" M659,0 L606,152 L600,152 Q541,54 478,17 Q415,-20 319,-20 Q196,-20 125.5,72 Q55,164 55,328 Q55,504 151.5,589.5 Q248,675 440,684 L588,690 L588,770 Q588,926 453,926 Q353,926 223,848 L131,1032 Q297,1137 492,1137 Q669,1137 761.5,1035.5 Q854,934 854,748 L854,0 M428,188 Q501,188 544.5,253.5 Q588,319 588,428 L588,522 L506,518 Q415,513 372.5,466 Q330,419 330,326 Q330,188 428,188 M999,1475 Q999,1368 929.5,1303.5 Q860,1239 749,1239 Q639,1239 572,1301.5 Q505,1364 505,1473 Q505,1581 572,1643.5 Q639,1706 749,1706 Q858,1706 928.5,1642 Q999,1578 999,1475 M849,1473 Q849,1519 820.5,1546 Q792,1573 749,1573 Q706,1573 677.5,1546 Q649,1519 649,1473 Q649,1426 674,1399 Q699,1372 749,1372 Q792,1372 820.5,1399 Q849,1426 849,1473"/> 
            <glyph glyph-name="æ" unicode="&#xE6;" horiz-adv-x="1382" d=" M1028,-20 Q797,-20 684,160 Q627,67 551.5,23.5 Q476,-20 371,-20 Q217,-20 136,68.5 Q55,157 55,328 Q55,504 151.5,589.5 Q248,675 440,684 L588,690 L588,768 Q588,926 453,926 Q353,926 223,848 L131,1032 Q297,1137 492,1137 Q657,1137 750,1044 Q849,1135 991,1135 Q1175,1135 1278.5,1001 Q1382,867 1382,631 L1382,489 L848,489 Q851,340 909,267.5 Q967,195 1069,195 Q1204,195 1335,276 L1335,57 Q1208,-20 1028,-20 M588,522 L506,518 Q415,513 372.5,466 Q330,419 330,326 Q330,188 428,188 Q501,188 544.5,253.5 Q588,319 588,428 M991,930 Q866,930 854,682 L1124,682 Q1122,804 1087,867 Q1052,930 991,930"/> 
            <glyph glyph-name="ç" unicode="&#xE7;" horiz-adv-x="729" d=" M481,-20 Q282,-20 178,125 Q74,270 74,551 Q74,845 172.5,990 Q271,1135 477,1135 Q539,1135 607,1117 Q675,1099 729,1065 L653,858 Q570,907 506,907 Q421,907 383.5,818.5 Q346,730 346,553 Q346,380 383,294.5 Q420,209 504,209 Q604,209 713,279 L713,45 Q608,-20 481,-20 M643,-260 Q643,-367 572,-429.5 Q501,-492 352,-492 Q279,-492 221,-471 L221,-317 Q282,-334 342,-334 Q430,-334 430,-268 Q430,-184 273,-158 L352,0 L525,0 L488,-76 Q556,-93 599.5,-139 Q643,-185 643,-260"/> 
            <glyph glyph-name="è" unicode="&#xE8;" horiz-adv-x="879" d=" M524,-20 Q315,-20 194.5,128.5 Q74,277 74,549 Q74,825 183,980 Q292,1135 487,1135 Q669,1135 774,1002.5 Q879,870 879,631 L879,489 L344,489 Q347,340 405,267.5 Q463,195 565,195 Q695,195 831,276 L831,57 Q703,-20 524,-20 M485,930 Q428,930 391,869.5 Q354,809 348,682 L618,682 Q616,804 581,867 Q546,930 485,930 M65983,1241 Q65908,1301 65807,1401.5 Q65706,1502 65680,1548 L65680,1569 L65998,1569 Q66025,1509 66078.5,1413.5 Q66132,1318 66170,1268 L66170,1241"/> 
            <glyph glyph-name="é" unicode="&#xE9;" horiz-adv-x="879" d=" M524,-20 Q315,-20 194.5,128.5 Q74,277 74,549 Q74,825 183,980 Q292,1135 487,1135 Q669,1135 774,1002.5 Q879,870 879,631 L879,489 L344,489 Q347,340 405,267.5 Q463,195 565,195 Q695,195 831,276 L831,57 Q703,-20 524,-20 M485,930 Q428,930 391,869.5 Q354,809 348,682 L618,682 Q616,804 581,867 Q546,930 485,930 M348,1241 L348,1268 Q389,1321 443,1419 Q497,1517 520,1569 L838,1569 L838,1548 Q814,1505 719,1409.5 Q624,1314 535,1241"/> 
            <glyph glyph-name="ê" unicode="&#xEA;" horiz-adv-x="879" d=" M524,-20 Q315,-20 194.5,128.5 Q74,277 74,549 Q74,825 183,980 Q292,1135 487,1135 Q669,1135 774,1002.5 Q879,870 879,631 L879,489 L344,489 Q347,340 405,267.5 Q463,195 565,195 Q695,195 831,276 L831,57 Q703,-20 524,-20 M485,930 Q428,930 391,869.5 Q354,809 348,682 L618,682 Q616,804 581,867 Q546,930 485,930 M931,1241 Q835,1313 742,1419 Q653,1319 556,1241 L388,1241 L388,1268 Q565,1491 605,1569 L882,1569 Q929,1482 1099,1268 L1099,1241"/> 
            <glyph glyph-name="ë" unicode="&#xEB;" horiz-adv-x="879" d=" M524,-20 Q315,-20 194.5,128.5 Q74,277 74,549 Q74,825 183,980 Q292,1135 487,1135 Q669,1135 774,1002.5 Q879,870 879,631 L879,489 L344,489 Q347,340 405,267.5 Q463,195 565,195 Q695,195 831,276 L831,57 Q703,-20 524,-20 M485,930 Q428,930 391,869.5 Q354,809 348,682 L618,682 Q616,804 581,867 Q546,930 485,930 M412,1403 Q412,1464 447,1498 Q482,1532 544,1532 Q606,1532 641.5,1496.5 Q677,1461 677,1403 Q677,1346 641.5,1311 Q606,1276 544,1276 Q482,1276 447,1309.5 Q412,1343 412,1403 M810,1403 Q810,1463 845,1497.5 Q880,1532 943,1532 Q1004,1532 1040,1498 Q1076,1464 1076,1403 Q1076,1344 1040.5,1310 Q1005,1276 943,1276 Q881,1276 845.5,1310.5 Q810,1345 810,1403"/> 
            <glyph glyph-name="ì" unicode="&#xEC;" horiz-adv-x="381" d=" M381,0 L115,0 L115,1114 L381,1114 M65729,1241 Q65654,1301 65553,1401.5 Q65452,1502 65426,1548 L65426,1569 L65744,1569 Q65771,1509 65824.5,1413.5 Q65878,1318 65916,1268 L65916,1241"/> 
            <glyph glyph-name="í" unicode="&#xED;" horiz-adv-x="603" d=" M381,0 L115,0 L115,1114 L381,1114 M65649,1241 L65649,1268 Q65690,1321 65744,1419 Q65798,1517 65821,1569 L66139,1569 L66139,1548 Q66115,1505 66020,1409.5 Q65925,1314 65836,1241"/> 
            <glyph glyph-name="î" unicode="&#xEE;" horiz-adv-x="601" d=" M381,0 L115,0 L115,1114 L381,1114 M65969,1241 Q65873,1313 65780,1419 Q65691,1319 65594,1241 L65426,1241 L65426,1268 Q65603,1491 65643,1569 L65920,1569 Q65967,1482 66137,1268 L66137,1241"/> 
            <glyph glyph-name="ï" unicode="&#xEF;" horiz-adv-x="579" d=" M381,0 L115,0 L115,1114 L381,1114 M65451,1403 Q65451,1464 65486,1498 Q65521,1532 65583,1532 Q65645,1532 65680.5,1496.5 Q65716,1461 65716,1403 Q65716,1346 65680.5,1311 Q65645,1276 65583,1276 Q65521,1276 65486,1309.5 Q65451,1343 65451,1403 M65849,1403 Q65849,1463 65884,1497.5 Q65919,1532 65982,1532 Q66043,1532 66079,1498 Q66115,1464 66115,1403 Q66115,1344 66079.5,1310 Q66044,1276 65982,1276 Q65920,1276 65884.5,1310.5 Q65849,1345 65849,1403"/> 
            <glyph glyph-name="ð" unicode="&#xF0;" horiz-adv-x="938" d=" M938,569 Q938,294 823.5,137 Q709,-20 502,-20 Q304,-20 189,115.5 Q74,251 74,483 Q74,723 174.5,857 Q275,991 459,991 Q580,991 664,874 L676,877 Q628,1055 494,1194 L274,1049 L178,1194 L371,1317 Q322,1355 217,1413 L311,1571 Q459,1494 545,1427 L752,1567 L846,1423 L676,1313 Q811,1172 874.5,987.5 Q938,803 938,569 M666,530 Q666,646 623.5,713 Q581,780 510,780 Q422,780 384,706 Q346,632 346,483 Q346,350 387.5,278.5 Q429,207 508,207 Q593,207 629.5,288 Q666,369 666,530"/> 
            <glyph glyph-name="ñ" unicode="&#xF1;" horiz-adv-x="936" d=" M668,0 L668,664 Q668,785 639,847 Q610,909 545,909 Q459,909 419,823.5 Q379,738 379,535 L379,0 L113,0 L113,1114 L324,1114 L356,971 L373,971 Q409,1048 476,1091.5 Q543,1135 633,1135 Q785,1135 860.5,1031 Q936,927 936,727 L936,0 M658,1348 Q627,1348 608.5,1324.5 Q590,1301 580,1239 L439,1239 Q450,1392 507.5,1466 Q565,1540 658,1540 Q701,1540 735.5,1523.5 Q770,1507 800,1487 Q830,1467 858,1450.5 Q886,1434 916,1434 Q950,1434 965.5,1460 Q981,1486 992,1542 L1133,1542 Q1122,1390 1063.5,1315.5 Q1005,1241 914,1241 Q870,1241 835.5,1257.5 Q801,1274 771.5,1294.5 Q742,1315 715,1331.5 Q688,1348 658,1348"/> 
            <glyph glyph-name="ò" unicode="&#xF2;" horiz-adv-x="938" d=" M938,559 Q938,285 822,132.5 Q706,-20 504,-20 Q376,-20 278,50 Q180,120 127,251.5 Q74,383 74,559 Q74,830 189,982.5 Q304,1135 508,1135 Q705,1135 821.5,979.5 Q938,824 938,559 M346,559 Q346,385 384,296 Q422,207 506,207 Q666,207 666,559 Q666,734 627.5,820.5 Q589,907 506,907 Q422,907 384,820.5 Q346,734 346,559 M65995,1241 Q65920,1301 65819,1401.5 Q65718,1502 65692,1548 L65692,1569 L66010,1569 Q66037,1509 66090.5,1413.5 Q66144,1318 66182,1268 L66182,1241"/> 
            <glyph glyph-name="ó" unicode="&#xF3;" horiz-adv-x="938" d=" M938,559 Q938,285 822,132.5 Q706,-20 504,-20 Q376,-20 278,50 Q180,120 127,251.5 Q74,383 74,559 Q74,830 189,982.5 Q304,1135 508,1135 Q705,1135 821.5,979.5 Q938,824 938,559 M346,559 Q346,385 384,296 Q422,207 506,207 Q666,207 666,559 Q666,734 627.5,820.5 Q589,907 506,907 Q422,907 384,820.5 Q346,734 346,559 M366,1241 L366,1268 Q407,1321 461,1419 Q515,1517 538,1569 L856,1569 L856,1548 Q832,1505 737,1409.5 Q642,1314 553,1241"/> 
            <glyph glyph-name="ô" unicode="&#xF4;" horiz-adv-x="938" d=" M938,559 Q938,285 822,132.5 Q706,-20 504,-20 Q376,-20 278,50 Q180,120 127,251.5 Q74,383 74,559 Q74,830 189,982.5 Q304,1135 508,1135 Q705,1135 821.5,979.5 Q938,824 938,559 M346,559 Q346,385 384,296 Q422,207 506,207 Q666,207 666,559 Q666,734 627.5,820.5 Q589,907 506,907 Q422,907 384,820.5 Q346,734 346,559 M950,1241 Q854,1313 761,1419 Q672,1319 575,1241 L407,1241 L407,1268 Q584,1491 624,1569 L901,1569 Q948,1482 1118,1268 L1118,1241"/> 
            <glyph glyph-name="õ" unicode="&#xF5;" horiz-adv-x="938" d=" M938,559 Q938,285 822,132.5 Q706,-20 504,-20 Q376,-20 278,50 Q180,120 127,251.5 Q74,383 74,559 Q74,830 189,982.5 Q304,1135 508,1135 Q705,1135 821.5,979.5 Q938,824 938,559 M346,559 Q346,385 384,296 Q422,207 506,207 Q666,207 666,559 Q666,734 627.5,820.5 Q589,907 506,907 Q422,907 384,820.5 Q346,734 346,559 M644,1348 Q613,1348 594.5,1324.5 Q576,1301 566,1239 L425,1239 Q436,1392 493.5,1466 Q551,1540 644,1540 Q687,1540 721.5,1523.5 Q756,1507 786,1487 Q816,1467 844,1450.5 Q872,1434 902,1434 Q936,1434 951.5,1460 Q967,1486 978,1542 L1119,1542 Q1108,1390 1049.5,1315.5 Q991,1241 900,1241 Q856,1241 821.5,1257.5 Q787,1274 757.5,1294.5 Q728,1315 701,1331.5 Q674,1348 644,1348"/> 
            <glyph glyph-name="ö" unicode="&#xF6;" horiz-adv-x="938" d=" M938,559 Q938,285 822,132.5 Q706,-20 504,-20 Q376,-20 278,50 Q180,120 127,251.5 Q74,383 74,559 Q74,830 189,982.5 Q304,1135 508,1135 Q705,1135 821.5,979.5 Q938,824 938,559 M346,559 Q346,385 384,296 Q422,207 506,207 Q666,207 666,559 Q666,734 627.5,820.5 Q589,907 506,907 Q422,907 384,820.5 Q346,734 346,559 M431,1403 Q431,1464 466,1498 Q501,1532 563,1532 Q625,1532 660.5,1496.5 Q696,1461 696,1403 Q696,1346 660.5,1311 Q625,1276 563,1276 Q501,1276 466,1309.5 Q431,1343 431,1403 M829,1403 Q829,1463 864,1497.5 Q899,1532 962,1532 Q1023,1532 1059,1498 Q1095,1464 1095,1403 Q1095,1344 1059.5,1310 Q1024,1276 962,1276 Q900,1276 864.5,1310.5 Q829,1345 829,1403"/> 
            <glyph glyph-name="÷" unicode="&#xF7;" horiz-adv-x="811" d=" M106,618 L106,825 L811,825 L811,618 M332,373 Q332,518 457,518 Q518,518 549,480.5 Q580,443 580,373 Q580,305 547.5,266 Q515,227 457,227 Q403,227 367.5,261.5 Q332,296 332,373 M332,1071 Q332,1217 457,1217 Q518,1217 549,1179.5 Q580,1142 580,1071 Q580,1004 547.5,965 Q515,926 457,926 Q403,926 367.5,960 Q332,994 332,1071"/> 
            <glyph glyph-name="ø" unicode="&#xF8;" horiz-adv-x="938" d=" M938,559 Q938,285 822,132.5 Q706,-20 504,-20 Q412,-20 338,16 L281,-96 L119,-20 L197,131 Q140,202 107,310.5 Q74,419 74,559 Q74,830 189,982.5 Q304,1135 508,1135 Q606,1135 684,1094 L735,1190 L895,1116 L823,975 Q938,827 938,559 M338,559 L338,486 L340,416 L584,891 Q550,907 506,907 Q338,907 338,559 M676,559 L672,676 L438,219 Q463,207 506,207 Q589,207 632.5,296 Q676,385 676,559"/> 
            <glyph glyph-name="ù" unicode="&#xF9;" horiz-adv-x="928" d=" M715,0 L682,143 L668,143 Q631,67 562.5,23.5 Q494,-20 406,-20 Q256,-20 179,82 Q102,184 102,387 L102,1114 L371,1114 L371,451 Q371,329 400,267 Q429,205 494,205 Q580,205 619.5,291 Q659,377 659,580 L659,1114 L928,1114 L928,0 M65999,1241 Q65924,1301 65823,1401.5 Q65722,1502 65696,1548 L65696,1569 L66014,1569 Q66041,1509 66094.5,1413.5 Q66148,1318 66186,1268 L66186,1241"/> 
            <glyph glyph-name="ú" unicode="&#xFA;" horiz-adv-x="928" d=" M715,0 L682,143 L668,143 Q631,67 562.5,23.5 Q494,-20 406,-20 Q256,-20 179,82 Q102,184 102,387 L102,1114 L371,1114 L371,451 Q371,329 400,267 Q429,205 494,205 Q580,205 619.5,291 Q659,377 659,580 L659,1114 L928,1114 L928,0 M381,1241 L381,1268 Q422,1321 476,1419 Q530,1517 553,1569 L871,1569 L871,1548 Q847,1505 752,1409.5 Q657,1314 568,1241"/> 
            <glyph glyph-name="û" unicode="&#xFB;" horiz-adv-x="928" d=" M715,0 L682,143 L668,143 Q631,67 562.5,23.5 Q494,-20 406,-20 Q256,-20 179,82 Q102,184 102,387 L102,1114 L371,1114 L371,451 Q371,329 400,267 Q429,205 494,205 Q580,205 619.5,291 Q659,377 659,580 L659,1114 L928,1114 L928,0 M962,1241 Q866,1313 773,1419 Q684,1319 587,1241 L419,1241 L419,1268 Q596,1491 636,1569 L913,1569 Q960,1482 1130,1268 L1130,1241"/> 
            <glyph glyph-name="ü" unicode="&#xFC;" horiz-adv-x="928" d=" M715,0 L682,143 L668,143 Q631,67 562.5,23.5 Q494,-20 406,-20 Q256,-20 179,82 Q102,184 102,387 L102,1114 L371,1114 L371,451 Q371,329 400,267 Q429,205 494,205 Q580,205 619.5,291 Q659,377 659,580 L659,1114 L928,1114 L928,0 M441,1403 Q441,1464 476,1498 Q511,1532 573,1532 Q635,1532 670.5,1496.5 Q706,1461 706,1403 Q706,1346 670.5,1311 Q635,1276 573,1276 Q511,1276 476,1309.5 Q441,1343 441,1403 M839,1403 Q839,1463 874,1497.5 Q909,1532 972,1532 Q1033,1532 1069,1498 Q1105,1464 1105,1403 Q1105,1344 1069.5,1310 Q1034,1276 972,1276 Q910,1276 874.5,1310.5 Q839,1345 839,1403"/> 
            <glyph glyph-name="ý" unicode="&#xFD;" horiz-adv-x="913" d=" M0,1114 L276,1114 L430,485 Q453,401 467,250 L473,250 Q474,274 482,335.5 Q490,397 495,432 Q500,467 633,1114 L913,1114 L594,-80 Q536,-300 440,-396 Q344,-492 184,-492 Q105,-492 43,-475 L43,-252 Q84,-264 135,-264 Q269,-264 311,-88 L330,-18 M566,1241 L566,1268 Q607,1321 661,1419 Q715,1517 738,1569 L1056,1569 L1056,1548 Q1032,1505 937,1409.5 Q842,1314 753,1241"/> 
            <glyph glyph-name="þ" unicode="&#xFE;" horiz-adv-x="942" d=" M379,969 Q428,1062 485,1098.5 Q542,1135 618,1135 Q770,1135 856,984.5 Q942,834 942,559 Q942,288 853,134 Q764,-20 608,-20 Q538,-20 482,13 Q426,46 379,127 L365,127 Q381,-9 381,-37 L381,-492 L113,-492 L113,1556 L379,1556 L379,1192 Q379,1169 378,1144 Q377,1119 365,969 M528,909 Q450,909 415.5,836.5 Q381,764 379,596 L379,561 Q379,377 414,293 Q449,209 530,209 Q670,209 670,563 Q670,737 635.5,823 Q601,909 528,909"/> 
            <glyph glyph-name="ÿ" unicode="&#xFF;" horiz-adv-x="913" d=" M0,1114 L276,1114 L430,485 Q453,401 467,250 L473,250 Q474,274 482,335.5 Q490,397 495,432 Q500,467 633,1114 L913,1114 L594,-80 Q536,-300 440,-396 Q344,-492 184,-492 Q105,-492 43,-475 L43,-252 Q84,-264 135,-264 Q269,-264 311,-88 L330,-18 M381,1403 Q381,1464 416,1498 Q451,1532 513,1532 Q575,1532 610.5,1496.5 Q646,1461 646,1403 Q646,1346 610.5,1311 Q575,1276 513,1276 Q451,1276 416,1309.5 Q381,1343 381,1403 M779,1403 Q779,1463 814,1497.5 Q849,1532 912,1532 Q973,1532 1009,1498 Q1045,1464 1045,1403 Q1045,1344 1009.5,1310 Q974,1276 912,1276 Q850,1276 814.5,1310.5 Q779,1345 779,1403"/> 
            <glyph glyph-name="Ā" unicode="&#x100;" horiz-adv-x="1094" d=" M821,0 L737,369 L356,369 L272,0 L0,0 L362,1468 L731,1468 L1094,0 M686,610 L608,950 Q601,981 576.5,1105.5 Q552,1230 547,1272 Q534,1186 514,1082.5 Q494,979 410,610 M244,1813 L850,1813 L850,1614 L244,1614"/> 
            <glyph glyph-name="ā" unicode="&#x101;" horiz-adv-x="854" d=" M659,0 L606,152 L600,152 Q541,54 478,17 Q415,-20 319,-20 Q196,-20 125.5,72 Q55,164 55,328 Q55,504 151.5,589.5 Q248,675 440,684 L588,690 L588,770 Q588,926 453,926 Q353,926 223,848 L131,1032 Q297,1137 492,1137 Q669,1137 761.5,1035.5 Q854,934 854,748 L854,0 M428,188 Q501,188 544.5,253.5 Q588,319 588,428 L588,522 L506,518 Q415,513 372.5,466 Q330,419 330,326 Q330,188 428,188 M450,1475 L1056,1475 L1056,1276 L450,1276"/> 
            <glyph glyph-name="Ă" unicode="&#x102;" horiz-adv-x="1094" d=" M821,0 L737,369 L356,369 L272,0 L0,0 L362,1468 L731,1468 L1094,0 M686,610 L608,950 Q601,981 576.5,1105.5 Q552,1230 547,1272 Q534,1186 514,1082.5 Q494,979 410,610 M66393,1905 Q66382,1748 66300.5,1663.5 Q66219,1579 66080,1579 Q65934,1579 65856.5,1664.5 Q65779,1750 65773,1905 L65933,1905 Q65940,1834 65969.5,1807 Q65999,1780 66082,1780 Q66160,1780 66191,1808.5 Q66222,1837 66232,1905"/> 
            <glyph glyph-name="ă" unicode="&#x103;" horiz-adv-x="854" d=" M659,0 L606,152 L600,152 Q541,54 478,17 Q415,-20 319,-20 Q196,-20 125.5,72 Q55,164 55,328 Q55,504 151.5,589.5 Q248,675 440,684 L588,690 L588,770 Q588,926 453,926 Q353,926 223,848 L131,1032 Q297,1137 492,1137 Q669,1137 761.5,1035.5 Q854,934 854,748 L854,0 M428,188 Q501,188 544.5,253.5 Q588,319 588,428 L588,522 L506,518 Q415,513 372.5,466 Q330,419 330,326 Q330,188 428,188 M1061,1567 Q1050,1410 968.5,1325.5 Q887,1241 748,1241 Q602,1241 524.5,1326.5 Q447,1412 441,1567 L601,1567 Q608,1496 637.5,1469 Q667,1442 750,1442 Q828,1442 859,1470.5 Q890,1499 900,1567"/> 
            <glyph glyph-name="Ą" unicode="&#x104;" horiz-adv-x="1094" d=" M821,0 L737,369 L356,369 L272,0 L0,0 L362,1468 L731,1468 L1094,0 M686,610 L608,950 Q601,981 576.5,1105.5 Q552,1230 547,1272 Q534,1186 514,1082.5 Q494,979 410,610 M936,-229 Q936,-273 956.5,-293 Q977,-313 1008,-313 Q1048,-313 1088,-299 L1088,-467 Q1019,-483 967,-483 Q863,-483 799.5,-424 Q736,-365 736,-264 Q736,-123 895,0 L1063,0 Q936,-131 936,-229"/> 
            <glyph glyph-name="ą" unicode="&#x105;" horiz-adv-x="887" d=" M659,0 L606,152 L600,152 Q541,54 478,17 Q415,-20 319,-20 Q196,-20 125.5,72 Q55,164 55,328 Q55,504 151.5,589.5 Q248,675 440,684 L588,690 L588,770 Q588,926 453,926 Q353,926 223,848 L131,1032 Q297,1137 492,1137 Q669,1137 761.5,1035.5 Q854,934 854,748 L854,0 M428,188 Q501,188 544.5,253.5 Q588,319 588,428 L588,522 L506,518 Q415,513 372.5,466 Q330,419 330,326 Q330,188 428,188 M735,-229 Q735,-273 755.5,-293 Q776,-313 807,-313 Q847,-313 887,-299 L887,-467 Q818,-483 766,-483 Q662,-483 598.5,-424 Q535,-365 535,-264 Q535,-123 694,0 L862,0 Q735,-131 735,-229"/> 
            <glyph glyph-name="Ć" unicode="&#x106;" horiz-adv-x="911" d=" M614,1245 Q497,1245 429.5,1108 Q362,971 362,727 Q362,219 627,219 Q743,219 870,293 L870,51 Q763,-20 596,-20 Q349,-20 216.5,176.5 Q84,373 84,729 Q84,1085 220.5,1284 Q357,1483 600,1483 Q680,1483 753.5,1461 Q827,1439 911,1384 L821,1163 Q776,1194 725,1219.5 Q674,1245 614,1245 M415,1579 L415,1606 Q456,1659 510,1757 Q564,1855 587,1907 L905,1907 L905,1886 Q881,1843 786,1747.5 Q691,1652 602,1579"/> 
            <glyph glyph-name="ć" unicode="&#x107;" horiz-adv-x="777" d=" M481,-20 Q282,-20 178,125 Q74,270 74,551 Q74,845 172.5,990 Q271,1135 477,1135 Q539,1135 607,1117 Q675,1099 729,1065 L653,858 Q570,907 506,907 Q421,907 383.5,818.5 Q346,730 346,553 Q346,380 383,294.5 Q420,209 504,209 Q604,209 713,279 L713,45 Q608,-20 481,-20 M543,1241 L543,1268 Q584,1321 638,1419 Q692,1517 715,1569 L1033,1569 L1033,1548 Q1009,1505 914,1409.5 Q819,1314 730,1241"/> 
            <glyph glyph-name="Ĉ" unicode="&#x108;" horiz-adv-x="911" d=" M614,1245 Q497,1245 429.5,1108 Q362,971 362,727 Q362,219 627,219 Q743,219 870,293 L870,51 Q763,-20 596,-20 Q349,-20 216.5,176.5 Q84,373 84,729 Q84,1085 220.5,1284 Q357,1483 600,1483 Q680,1483 753.5,1461 Q827,1439 911,1384 L821,1163 Q776,1194 725,1219.5 Q674,1245 614,1245 M66277,1579 Q66181,1651 66088,1757 Q65999,1657 65902,1579 L65734,1579 L65734,1606 Q65911,1829 65951,1907 L66228,1907 Q66275,1820 66445,1606 L66445,1579"/> 
            <glyph glyph-name="ĉ" unicode="&#x109;" horiz-adv-x="800" d=" M481,-20 Q282,-20 178,125 Q74,270 74,551 Q74,845 172.5,990 Q271,1135 477,1135 Q539,1135 607,1117 Q675,1099 729,1065 L653,858 Q570,907 506,907 Q421,907 383.5,818.5 Q346,730 346,553 Q346,380 383,294.5 Q420,209 504,209 Q604,209 713,279 L713,45 Q608,-20 481,-20 M888,1241 Q792,1313 699,1419 Q610,1319 513,1241 L345,1241 L345,1268 Q522,1491 562,1569 L839,1569 Q886,1482 1056,1268 L1056,1241"/> 
            <glyph glyph-name="Ċ" unicode="&#x10A;" horiz-adv-x="911" d=" M614,1245 Q497,1245 429.5,1108 Q362,971 362,727 Q362,219 627,219 Q743,219 870,293 L870,51 Q763,-20 596,-20 Q349,-20 216.5,176.5 Q84,373 84,729 Q84,1085 220.5,1284 Q357,1483 600,1483 Q680,1483 753.5,1461 Q827,1439 911,1384 L821,1163 Q776,1194 725,1219.5 Q674,1245 614,1245 M393,1743 Q393,1886 547,1886 Q700,1886 700,1743 Q700,1672 660,1636 Q620,1600 547,1600 Q472,1600 432.5,1636 Q393,1672 393,1743"/> 
            <glyph glyph-name="ċ" unicode="&#x10B;" horiz-adv-x="729" d=" M481,-20 Q282,-20 178,125 Q74,270 74,551 Q74,845 172.5,990 Q271,1135 477,1135 Q539,1135 607,1117 Q675,1099 729,1065 L653,858 Q570,907 506,907 Q421,907 383.5,818.5 Q346,730 346,553 Q346,380 383,294.5 Q420,209 504,209 Q604,209 713,279 L713,45 Q608,-20 481,-20 M293,1405 Q293,1548 447,1548 Q600,1548 600,1405 Q600,1334 560,1298 Q520,1262 447,1262 Q372,1262 332.5,1298 Q293,1334 293,1405"/> 
            <glyph glyph-name="Č" unicode="&#x10C;" horiz-adv-x="911" d=" M614,1245 Q497,1245 429.5,1108 Q362,971 362,727 Q362,219 627,219 Q743,219 870,293 L870,51 Q763,-20 596,-20 Q349,-20 216.5,176.5 Q84,373 84,729 Q84,1085 220.5,1284 Q357,1483 600,1483 Q680,1483 753.5,1461 Q827,1439 911,1384 L821,1163 Q776,1194 725,1219.5 Q674,1245 614,1245 M66445,1907 L66445,1880 Q66280,1672 66228,1579 L65951,1579 Q65907,1661 65734,1880 L65734,1907 L65902,1907 Q65997,1838 66092,1729 Q66185,1832 66277,1907"/> 
            <glyph glyph-name="č" unicode="&#x10D;" horiz-adv-x="798" d=" M481,-20 Q282,-20 178,125 Q74,270 74,551 Q74,845 172.5,990 Q271,1135 477,1135 Q539,1135 607,1117 Q675,1099 729,1065 L653,858 Q570,907 506,907 Q421,907 383.5,818.5 Q346,730 346,553 Q346,380 383,294.5 Q420,209 504,209 Q604,209 713,279 L713,45 Q608,-20 481,-20 M1054,1569 L1054,1542 Q889,1334 837,1241 L560,1241 Q516,1323 343,1542 L343,1569 L511,1569 Q606,1500 701,1391 Q794,1494 886,1569"/> 
            <glyph glyph-name="Ď" unicode="&#x10E;" horiz-adv-x="1059" d=" M1059,745 Q1059,383 911.5,191.5 Q764,0 487,0 L129,0 L129,1462 L520,1462 Q775,1462 917,1273.5 Q1059,1085 1059,745 M780,737 Q780,1227 510,1227 L401,1227 L401,238 L489,238 Q638,238 709,362.5 Q780,487 780,737 M66430,1907 L66430,1880 Q66265,1672 66213,1579 L65936,1579 Q65892,1661 65719,1880 L65719,1907 L65887,1907 Q65982,1838 66077,1729 Q66170,1832 66262,1907"/> 
            <glyph glyph-name="ď" unicode="&#x10F;" horiz-adv-x="1319" d=" M406,-20 Q252,-20 163,132 Q74,284 74,555 Q74,827 161,981 Q248,1135 401,1135 Q477,1135 532.5,1097.5 Q588,1060 635,971 L651,971 Q639,1123 639,1184 L639,1556 L905,1556 L905,0 L707,0 L662,145 L653,145 Q568,-20 406,-20 M492,205 Q566,205 600,272.5 Q634,340 637,518 L637,553 Q637,747 602.5,826 Q568,905 489,905 Q415,905 381.5,814.5 Q348,724 348,551 Q348,378 382,291.5 Q416,205 492,205 M996,1255 Q1041,1424 1057,1556 L1319,1556 L1319,1536 Q1244,1365 1157,1229 L996,1229"/> 
            <glyph glyph-name="Đ" unicode="&#x110;" horiz-adv-x="1059" d=" M0,842 L129,842 L129,1462 L520,1462 Q775,1462 917,1273.5 Q1059,1085 1059,745 Q1059,383 911.5,191.5 Q764,0 487,0 L129,0 L129,604 L0,604 M780,737 Q780,1227 510,1227 L401,1227 L401,842 L584,842 L584,604 L401,604 L401,238 L489,238 Q638,238 709,362.5 Q780,487 780,737"/> 
            <glyph glyph-name="đ" unicode="&#x111;" horiz-adv-x="1028" d=" M406,-20 Q253,-20 163.5,124 Q74,268 74,530 Q74,789 161,937 Q248,1085 403,1085 Q478,1085 533.5,1047.5 Q589,1010 635,922 L651,922 Q639,1070 639,1171 L639,1204 L399,1204 L399,1391 L639,1391 L639,1556 L905,1556 L905,1391 L1028,1391 L1028,1204 L905,1204 L905,0 L707,0 L664,145 L653,145 Q568,-20 406,-20 M492,205 Q574,205 605.5,283.5 Q637,362 637,520 L637,549 Q637,718 603,787 Q569,856 489,856 Q346,856 346,526 Q346,365 381,285 Q416,205 492,205"/> 
            <glyph glyph-name="Ē" unicode="&#x112;" horiz-adv-x="788" d=" M788,0 L129,0 L129,1462 L788,1462 L788,1227 L401,1227 L401,879 L760,879 L760,643 L401,643 L401,238 L788,238 M65693,1813 L66299,1813 L66299,1614 L65693,1614"/> 
            <glyph glyph-name="ē" unicode="&#x113;" horiz-adv-x="879" d=" M524,-20 Q315,-20 194.5,128.5 Q74,277 74,549 Q74,825 183,980 Q292,1135 487,1135 Q669,1135 774,1002.5 Q879,870 879,631 L879,489 L344,489 Q347,340 405,267.5 Q463,195 565,195 Q695,195 831,276 L831,57 Q703,-20 524,-20 M485,930 Q428,930 391,869.5 Q354,809 348,682 L618,682 Q616,804 581,867 Q546,930 485,930 M442,1475 L1048,1475 L1048,1276 L442,1276"/> 
            <glyph glyph-name="Ĕ" unicode="&#x114;" horiz-adv-x="788" d=" M788,0 L129,0 L129,1462 L788,1462 L788,1227 L401,1227 L401,879 L760,879 L760,643 L401,643 L401,238 L788,238 M66305,1905 Q66294,1748 66212.5,1663.5 Q66131,1579 65992,1579 Q65846,1579 65768.5,1664.5 Q65691,1750 65685,1905 L65845,1905 Q65852,1834 65881.5,1807 Q65911,1780 65994,1780 Q66072,1780 66103,1808.5 Q66134,1837 66144,1905"/> 
            <glyph glyph-name="ĕ" unicode="&#x115;" horiz-adv-x="879" d=" M524,-20 Q315,-20 194.5,128.5 Q74,277 74,549 Q74,825 183,980 Q292,1135 487,1135 Q669,1135 774,1002.5 Q879,870 879,631 L879,489 L344,489 Q347,340 405,267.5 Q463,195 565,195 Q695,195 831,276 L831,57 Q703,-20 524,-20 M485,930 Q428,930 391,869.5 Q354,809 348,682 L618,682 Q616,804 581,867 Q546,930 485,930 M1053,1567 Q1042,1410 960.5,1325.5 Q879,1241 740,1241 Q594,1241 516.5,1326.5 Q439,1412 433,1567 L593,1567 Q600,1496 629.5,1469 Q659,1442 742,1442 Q820,1442 851,1470.5 Q882,1499 892,1567"/> 
            <glyph glyph-name="Ė" unicode="&#x116;" horiz-adv-x="788" d=" M788,0 L129,0 L129,1462 L788,1462 L788,1227 L401,1227 L401,879 L760,879 L760,643 L401,643 L401,238 L788,238 M305,1714 Q305,1857 459,1857 Q612,1857 612,1714 Q612,1643 572,1607 Q532,1571 459,1571 Q384,1571 344.5,1607 Q305,1643 305,1714"/> 
            <glyph glyph-name="ė" unicode="&#x117;" horiz-adv-x="879" d=" M524,-20 Q315,-20 194.5,128.5 Q74,277 74,549 Q74,825 183,980 Q292,1135 487,1135 Q669,1135 774,1002.5 Q879,870 879,631 L879,489 L344,489 Q347,340 405,267.5 Q463,195 565,195 Q695,195 831,276 L831,57 Q703,-20 524,-20 M485,930 Q428,930 391,869.5 Q354,809 348,682 L618,682 Q616,804 581,867 Q546,930 485,930 M332,1405 Q332,1548 486,1548 Q639,1548 639,1405 Q639,1334 599,1298 Q559,1262 486,1262 Q411,1262 371.5,1298 Q332,1334 332,1405"/> 
            <glyph glyph-name="Ę" unicode="&#x118;" horiz-adv-x="788" d=" M788,0 L129,0 L129,1462 L788,1462 L788,1227 L401,1227 L401,879 L760,879 L760,643 L401,643 L401,238 L788,238 M602,-229 Q602,-273 622.5,-293 Q643,-313 674,-313 Q714,-313 754,-299 L754,-467 Q685,-483 633,-483 Q529,-483 465.5,-424 Q402,-365 402,-264 Q402,-123 561,0 L729,0 Q602,-131 602,-229"/> 
            <glyph glyph-name="ę" unicode="&#x119;" horiz-adv-x="879" d=" M524,-20 Q315,-20 194.5,128.5 Q74,277 74,549 Q74,825 183,980 Q292,1135 487,1135 Q669,1135 774,1002.5 Q879,870 879,631 L879,489 L344,489 Q347,340 405,267.5 Q463,195 565,195 Q695,195 831,276 L831,57 Q703,-20 524,-20 M485,930 Q428,930 391,869.5 Q354,809 348,682 L618,682 Q616,804 581,867 Q546,930 485,930 M630,-206 Q630,-250 650.5,-270 Q671,-290 702,-290 Q742,-290 782,-276 L782,-444 Q713,-460 661,-460 Q557,-460 493.5,-401 Q430,-342 430,-241 Q430,-100 589,23 L757,23 Q630,-108 630,-206"/> 
            <glyph glyph-name="Ě" unicode="&#x11A;" horiz-adv-x="814" d=" M788,0 L129,0 L129,1462 L788,1462 L788,1227 L401,1227 L401,879 L760,879 L760,643 L401,643 L401,238 L788,238 M66350,1907 L66350,1880 Q66185,1672 66133,1579 L65856,1579 Q65812,1661 65639,1880 L65639,1907 L65807,1907 Q65902,1838 65997,1729 Q66090,1832 66182,1907"/> 
            <glyph glyph-name="ě" unicode="&#x11B;" horiz-adv-x="879" d=" M524,-20 Q315,-20 194.5,128.5 Q74,277 74,549 Q74,825 183,980 Q292,1135 487,1135 Q669,1135 774,1002.5 Q879,870 879,631 L879,489 L344,489 Q347,340 405,267.5 Q463,195 565,195 Q695,195 831,276 L831,57 Q703,-20 524,-20 M485,930 Q428,930 391,869.5 Q354,809 348,682 L618,682 Q616,804 581,867 Q546,930 485,930 M1097,1569 L1097,1542 Q932,1334 880,1241 L603,1241 Q559,1323 386,1542 L386,1569 L554,1569 Q649,1500 744,1391 Q837,1494 929,1569"/> 
            <glyph glyph-name="Ĝ" unicode="&#x11C;" horiz-adv-x="1018" d=" M571,811 L1018,811 L1018,61 Q828,-20 614,-20 Q359,-20 221.5,174 Q84,368 84,733 Q84,1085 241.5,1284 Q399,1483 682,1483 Q857,1483 1016,1393 L930,1171 Q806,1243 698,1243 Q543,1243 452.5,1104.5 Q362,966 362,727 Q362,481 427.5,350 Q493,219 618,219 Q684,219 752,236 L752,571 L571,571 M801,1579 Q705,1651 612,1757 Q523,1657 426,1579 L258,1579 L258,1606 Q435,1829 475,1907 L752,1907 Q799,1820 969,1606 L969,1579"/> 
            <glyph glyph-name="ĝ" unicode="&#x11D;" horiz-adv-x="915" d=" M915,1112 L915,956 L782,926 Q821,856 821,750 Q821,573 725,473 Q629,373 457,373 Q407,373 383,381 Q364,364 347,343 Q330,322 330,291 Q330,221 451,221 L612,221 Q754,221 830.5,144.5 Q907,68 907,-86 Q907,-280 777,-386 Q647,-492 403,-492 Q218,-492 118,-411.5 Q18,-331 18,-182 Q18,-89 75,-18.5 Q132,52 233,84 Q182,104 149.5,146 Q117,188 117,244 Q117,278 127,305.5 Q137,333 155.5,357.5 Q174,382 231,430 Q162,472 122,559 Q82,646 82,752 Q82,935 178,1035 Q274,1135 453,1135 Q487,1135 531,1127.5 Q575,1120 598,1112 M260,-162 Q260,-228 301.5,-263.5 Q343,-299 420,-299 Q541,-299 601.5,-253 Q662,-207 662,-127 Q662,-64 629.5,-38 Q597,-12 508,-12 L379,-12 Q325,-12 292.5,-52.5 Q260,-93 260,-162 M342,750 Q342,553 453,553 Q561,553 561,752 Q561,956 453,956 Q342,956 342,750 M921,1241 Q825,1313 732,1419 Q643,1319 546,1241 L378,1241 L378,1268 Q555,1491 595,1569 L872,1569 Q919,1482 1089,1268 L1089,1241"/> 
            <glyph glyph-name="Ğ" unicode="&#x11E;" horiz-adv-x="1018" d=" M571,811 L1018,811 L1018,61 Q828,-20 614,-20 Q359,-20 221.5,174 Q84,368 84,733 Q84,1085 241.5,1284 Q399,1483 682,1483 Q857,1483 1016,1393 L930,1171 Q806,1243 698,1243 Q543,1243 452.5,1104.5 Q362,966 362,727 Q362,481 427.5,350 Q493,219 618,219 Q684,219 752,236 L752,571 L571,571 M923,1905 Q912,1748 830.5,1663.5 Q749,1579 610,1579 Q464,1579 386.5,1664.5 Q309,1750 303,1905 L463,1905 Q470,1834 499.5,1807 Q529,1780 612,1780 Q690,1780 721,1808.5 Q752,1837 762,1905"/> 
            <glyph glyph-name="ğ" unicode="&#x11F;" horiz-adv-x="915" d=" M915,1112 L915,956 L782,926 Q821,856 821,750 Q821,573 725,473 Q629,373 457,373 Q407,373 383,381 Q364,364 347,343 Q330,322 330,291 Q330,221 451,221 L612,221 Q754,221 830.5,144.5 Q907,68 907,-86 Q907,-280 777,-386 Q647,-492 403,-492 Q218,-492 118,-411.5 Q18,-331 18,-182 Q18,-89 75,-18.5 Q132,52 233,84 Q182,104 149.5,146 Q117,188 117,244 Q117,278 127,305.5 Q137,333 155.5,357.5 Q174,382 231,430 Q162,472 122,559 Q82,646 82,752 Q82,935 178,1035 Q274,1135 453,1135 Q487,1135 531,1127.5 Q575,1120 598,1112 M260,-162 Q260,-228 301.5,-263.5 Q343,-299 420,-299 Q541,-299 601.5,-253 Q662,-207 662,-127 Q662,-64 629.5,-38 Q597,-12 508,-12 L379,-12 Q325,-12 292.5,-52.5 Q260,-93 260,-162 M342,750 Q342,553 453,553 Q561,553 561,752 Q561,956 453,956 Q342,956 342,750 M1033,1567 Q1022,1410 940.5,1325.5 Q859,1241 720,1241 Q574,1241 496.5,1326.5 Q419,1412 413,1567 L573,1567 Q580,1496 609.5,1469 Q639,1442 722,1442 Q800,1442 831,1470.5 Q862,1499 872,1567"/> 
            <glyph glyph-name="Ġ" unicode="&#x120;" horiz-adv-x="1018" d=" M571,811 L1018,811 L1018,61 Q828,-20 614,-20 Q359,-20 221.5,174 Q84,368 84,733 Q84,1085 241.5,1284 Q399,1483 682,1483 Q857,1483 1016,1393 L930,1171 Q806,1243 698,1243 Q543,1243 452.5,1104.5 Q362,966 362,727 Q362,481 427.5,350 Q493,219 618,219 Q684,219 752,236 L752,571 L571,571 M457,1743 Q457,1886 611,1886 Q764,1886 764,1743 Q764,1672 724,1636 Q684,1600 611,1600 Q536,1600 496.5,1636 Q457,1672 457,1743"/> 
            <glyph glyph-name="ġ" unicode="&#x121;" horiz-adv-x="915" d=" M915,1112 L915,956 L782,926 Q821,856 821,750 Q821,573 725,473 Q629,373 457,373 Q407,373 383,381 Q364,364 347,343 Q330,322 330,291 Q330,221 451,221 L612,221 Q754,221 830.5,144.5 Q907,68 907,-86 Q907,-280 777,-386 Q647,-492 403,-492 Q218,-492 118,-411.5 Q18,-331 18,-182 Q18,-89 75,-18.5 Q132,52 233,84 Q182,104 149.5,146 Q117,188 117,244 Q117,278 127,305.5 Q137,333 155.5,357.5 Q174,382 231,430 Q162,472 122,559 Q82,646 82,752 Q82,935 178,1035 Q274,1135 453,1135 Q487,1135 531,1127.5 Q575,1120 598,1112 M260,-162 Q260,-228 301.5,-263.5 Q343,-299 420,-299 Q541,-299 601.5,-253 Q662,-207 662,-127 Q662,-64 629.5,-38 Q597,-12 508,-12 L379,-12 Q325,-12 292.5,-52.5 Q260,-93 260,-162 M342,750 Q342,553 453,553 Q561,553 561,752 Q561,956 453,956 Q342,956 342,750 M307,1405 Q307,1548 461,1548 Q614,1548 614,1405 Q614,1334 574,1298 Q534,1262 461,1262 Q386,1262 346.5,1298 Q307,1334 307,1405"/> 
            <glyph glyph-name="Ģ" unicode="&#x122;" horiz-adv-x="1018" d=" M571,811 L1018,811 L1018,61 Q828,-20 614,-20 Q359,-20 221.5,174 Q84,368 84,733 Q84,1085 241.5,1284 Q399,1483 682,1483 Q857,1483 1016,1393 L930,1171 Q806,1243 698,1243 Q543,1243 452.5,1104.5 Q362,966 362,727 Q362,481 427.5,350 Q493,219 618,219 Q684,219 752,236 L752,571 L571,571 M417,-426 Q437,-360 456.5,-271.5 Q476,-183 483,-125 L745,-125 L745,-145 Q669,-321 579,-453 L417,-453"/> 
            <glyph glyph-name="ģ" unicode="&#x123;" horiz-adv-x="915" d=" M915,1112 L915,956 L782,926 Q821,856 821,750 Q821,573 725,473 Q629,373 457,373 Q407,373 383,381 Q364,364 347,343 Q330,322 330,291 Q330,221 451,221 L612,221 Q754,221 830.5,144.5 Q907,68 907,-86 Q907,-280 777,-386 Q647,-492 403,-492 Q218,-492 118,-411.5 Q18,-331 18,-182 Q18,-89 75,-18.5 Q132,52 233,84 Q182,104 149.5,146 Q117,188 117,244 Q117,278 127,305.5 Q137,333 155.5,357.5 Q174,382 231,430 Q162,472 122,559 Q82,646 82,752 Q82,935 178,1035 Q274,1135 453,1135 Q487,1135 531,1127.5 Q575,1120 598,1112 M260,-162 Q260,-228 301.5,-263.5 Q343,-299 420,-299 Q541,-299 601.5,-253 Q662,-207 662,-127 Q662,-64 629.5,-38 Q597,-12 508,-12 L379,-12 Q325,-12 292.5,-52.5 Q260,-93 260,-162 M342,750 Q342,553 453,553 Q561,553 561,752 Q561,956 453,956 Q342,956 342,750 M653,1542 Q633,1476 613.5,1387.5 Q594,1299 587,1241 L323,1241 L323,1262 Q391,1421 489,1569 L653,1569"/> 
            <glyph glyph-name="Ĥ" unicode="&#x124;" horiz-adv-x="1032" d=" M1032,0 L760,0 L760,641 L401,641 L401,0 L129,0 L129,1462 L401,1462 L401,881 L760,881 L760,1462 L1032,1462 M66289,1579 Q66193,1651 66100,1757 Q66011,1657 65914,1579 L65746,1579 L65746,1606 Q65923,1829 65963,1907 L66240,1907 Q66287,1820 66457,1606 L66457,1579"/> 
            <glyph glyph-name="ĥ" unicode="&#x125;" horiz-adv-x="936" d=" M668,0 L668,664 Q668,909 545,909 Q453,909 416,812.5 Q379,716 379,535 L379,0 L113,0 L113,1556 L379,1556 L379,1210 Q379,1143 367,971 L381,971 Q461,1135 627,1135 Q780,1135 858,1031.5 Q936,928 936,727 L936,0 M66248,1634 Q66152,1706 66059,1812 Q65970,1712 65873,1634 L65705,1634 L65705,1661 Q65882,1884 65922,1962 L66199,1962 Q66246,1875 66416,1661 L66416,1634"/> 
            <glyph glyph-name="Ħ" unicode="&#x126;" horiz-adv-x="1174" d=" M1032,1257 L1174,1257 L1174,1069 L1032,1069 L1032,0 L760,0 L760,641 L401,641 L401,0 L129,0 L129,1069 L-12,1069 L-12,1257 L129,1257 L129,1462 L401,1462 L401,1257 L760,1257 L760,1462 L1032,1462 M760,881 L760,1069 L401,1069 L401,881"/> 
            <glyph glyph-name="ħ" unicode="&#x127;" horiz-adv-x="936" d=" M936,0 L668,0 L668,627 Q668,858 545,858 Q458,858 418.5,773.5 Q379,689 379,506 L379,0 L113,0 L113,1204 L-12,1204 L-12,1391 L113,1391 L113,1556 L379,1556 L379,1391 L625,1391 L625,1204 L379,1204 L373,1010 L367,920 L381,920 Q418,1001 481.5,1043 Q545,1085 627,1085 Q780,1085 858,986 Q936,887 936,696"/> 
            <glyph glyph-name="Ĩ" unicode="&#x128;" horiz-adv-x="664" d=" M178,0 L178,1462 L434,1462 L434,0 M65725,1686 Q65694,1686 65675.5,1662.5 Q65657,1639 65647,1577 L65506,1577 Q65517,1730 65574.5,1804 Q65632,1878 65725,1878 Q65768,1878 65802.5,1861.5 Q65837,1845 65867,1825 Q65897,1805 65925,1788.5 Q65953,1772 65983,1772 Q66017,1772 66032.5,1798 Q66048,1824 66059,1880 L66200,1880 Q66189,1728 66130.5,1653.5 Q66072,1579 65981,1579 Q65937,1579 65902.5,1595.5 Q65868,1612 65838.5,1632.5 Q65809,1653 65782,1669.5 Q65755,1686 65725,1686"/> 
            <glyph glyph-name="ĩ" unicode="&#x129;" horiz-adv-x="603" d=" M381,0 L115,0 L115,1114 L381,1114 M65664,1348 Q65633,1348 65614.5,1324.5 Q65596,1301 65586,1239 L65445,1239 Q65456,1392 65513.5,1466 Q65571,1540 65664,1540 Q65707,1540 65741.5,1523.5 Q65776,1507 65806,1487 Q65836,1467 65864,1450.5 Q65892,1434 65922,1434 Q65956,1434 65971.5,1460 Q65987,1486 65998,1542 L66139,1542 Q66128,1390 66069.5,1315.5 Q66011,1241 65920,1241 Q65876,1241 65841.5,1257.5 Q65807,1274 65777.5,1294.5 Q65748,1315 65721,1331.5 Q65694,1348 65664,1348"/> 
            <glyph glyph-name="Ī" unicode="&#x12A;" horiz-adv-x="611" d=" M178,0 L178,1462 L434,1462 L434,0 M65541,1813 L66147,1813 L66147,1614 L65541,1614"/> 
            <glyph glyph-name="ī" unicode="&#x12B;" horiz-adv-x="550" d=" M381,0 L115,0 L115,1114 L381,1114 M65480,1475 L66086,1475 L66086,1276 L65480,1276"/> 
            <glyph glyph-name="Ĭ" unicode="&#x12C;" horiz-adv-x="617" d=" M178,0 L178,1462 L434,1462 L434,0 M66153,1905 Q66142,1748 66060.5,1663.5 Q65979,1579 65840,1579 Q65694,1579 65616.5,1664.5 Q65539,1750 65533,1905 L65693,1905 Q65700,1834 65729.5,1807 Q65759,1780 65842,1780 Q65920,1780 65951,1808.5 Q65982,1837 65992,1905"/> 
            <glyph glyph-name="ĭ" unicode="&#x12D;" horiz-adv-x="554" d=" M381,0 L115,0 L115,1114 L381,1114 M66090,1567 Q66079,1410 65997.5,1325.5 Q65916,1241 65777,1241 Q65631,1241 65553.5,1326.5 Q65476,1412 65470,1567 L65630,1567 Q65637,1496 65666.5,1469 Q65696,1442 65779,1442 Q65857,1442 65888,1470.5 Q65919,1499 65929,1567"/> 
            <glyph glyph-name="Į" unicode="&#x12E;" horiz-adv-x="459" d=" M178,0 L178,1462 L434,1462 L434,0 M307,-229 Q307,-273 327.5,-293 Q348,-313 379,-313 Q419,-313 459,-299 L459,-467 Q390,-483 338,-483 Q234,-483 170.5,-424 Q107,-365 107,-264 Q107,-123 266,0 L434,0 Q307,-131 307,-229"/> 
            <glyph glyph-name="į" unicode="&#x12F;" horiz-adv-x="408" d=" M381,0 L115,0 L115,1114 L381,1114 M104,1405 Q104,1471 142.5,1509.5 Q181,1548 250,1548 Q315,1548 354,1509.5 Q393,1471 393,1405 Q393,1337 353,1299.5 Q313,1262 250,1262 Q184,1262 144,1299.5 Q104,1337 104,1405 M256,-229 Q256,-273 276.5,-293 Q297,-313 328,-313 Q368,-313 408,-299 L408,-467 Q339,-483 287,-483 Q183,-483 119.5,-424 Q56,-365 56,-264 Q56,-123 215,0 L383,0 Q256,-131 256,-229"/> 
            <glyph glyph-name="İ" unicode="&#x130;" horiz-adv-x="456" d=" M178,0 L178,1462 L434,1462 L434,0 M149,1743 Q149,1886 303,1886 Q456,1886 456,1743 Q456,1672 416,1636 Q376,1600 303,1600 Q228,1600 188.5,1636 Q149,1672 149,1743"/> 
            <glyph glyph-name="ı" unicode="&#x131;" horiz-adv-x="381" d=" M381,0 L115,0 L115,1114 L381,1114"/> 
            <glyph glyph-name="Ĳ" unicode="&#x132;" horiz-adv-x="1034" d=" M178,0 L178,1462 L434,1462 L434,0 M647,-422 Q541,-422 479,-397 L479,-160 Q544,-180 602,-180 Q685,-180 723.5,-127 Q762,-74 762,31 L762,1462 L1034,1462 L1034,45 Q1034,-99 985.5,-205 Q937,-311 848.5,-366.5 Q760,-422 647,-422"/> 
            <glyph glyph-name="ĳ" unicode="&#x133;" horiz-adv-x="911" d=" M381,0 L115,0 L115,1114 L381,1114 M104,1405 Q104,1471 142.5,1509.5 Q181,1548 250,1548 Q315,1548 354,1509.5 Q393,1471 393,1405 Q393,1337 353,1299.5 Q313,1262 250,1262 Q184,1262 144,1299.5 Q104,1337 104,1405 M592,-492 Q508,-492 453,-467 L453,-246 Q499,-264 539,-264 Q633,-264 633,-94 L633,1114 L899,1114 L899,-129 Q899,-303 818.5,-397.5 Q738,-492 592,-492 M623,1405 Q623,1471 661.5,1509.5 Q700,1548 768,1548 Q835,1548 873,1509 Q911,1470 911,1405 Q911,1338 872,1300 Q833,1262 768,1262 Q703,1262 663,1299 Q623,1336 623,1405"/> 
            <glyph glyph-name="Ĵ" unicode="&#x134;" horiz-adv-x="622" d=" M14,-422 Q-92,-422 -154,-397 L-154,-160 Q-89,-180 -31,-180 Q52,-180 90.5,-127 Q129,-74 129,31 L129,1462 L401,1462 L401,45 Q401,-99 352.5,-205 Q304,-311 215.5,-366.5 Q127,-422 14,-422 M65990,1579 Q65894,1651 65801,1757 Q65712,1657 65615,1579 L65447,1579 L65447,1606 Q65624,1829 65664,1907 L65941,1907 Q65988,1820 66158,1606 L66158,1579"/> 
            <glyph glyph-name="ĵ" unicode="&#x135;" horiz-adv-x="612" d=" M80,-492 Q-4,-492 -59,-467 L-59,-246 Q-13,-264 27,-264 Q121,-264 121,-94 L121,1114 L387,1114 L387,-129 Q387,-303 306.5,-397.5 Q226,-492 80,-492 M65980,1241 Q65884,1313 65791,1419 Q65702,1319 65605,1241 L65437,1241 L65437,1268 Q65614,1491 65654,1569 L65931,1569 Q65978,1482 66148,1268 L66148,1241"/> 
            <glyph glyph-name="Ķ" unicode="&#x136;" horiz-adv-x="1040" d=" M1040,0 L750,0 L510,625 L401,516 L401,0 L129,0 L129,1462 L401,1462 L401,737 L496,956 L745,1462 L1036,1462 L698,829 M374,-426 Q394,-360 413.5,-271.5 Q433,-183 440,-125 L702,-125 L702,-145 Q626,-321 536,-453 L374,-453"/> 
            <glyph glyph-name="ķ" unicode="&#x137;" horiz-adv-x="963" d=" M375,600 L442,733 L662,1114 L944,1114 L662,657 L963,0 L684,0 L483,471 L379,377 L379,0 L113,0 L113,1556 L379,1556 L379,823 L367,600 M329,-426 Q349,-360 368.5,-271.5 Q388,-183 395,-125 L657,-125 L657,-145 Q581,-321 491,-453 L329,-453"/> 
            <glyph glyph-name="ĸ" unicode="&#x138;" horiz-adv-x="963" d=" M662,1114 L944,1114 L662,659 L963,0 L684,0 L483,471 L379,377 L379,0 L113,0 L113,1114 L379,1114 L379,827 L367,590 L453,758"/> 
            <glyph glyph-name="Ĺ" unicode="&#x139;" horiz-adv-x="778" d=" M129,0 L129,1462 L401,1462 L401,238 L778,238 L778,0 M65696,1579 L65696,1606 Q65737,1659 65791,1757 Q65845,1855 65868,1907 L66186,1907 L66186,1886 Q66162,1843 66067,1747.5 Q65972,1652 65883,1579"/> 
            <glyph glyph-name="ĺ" unicode="&#x13A;" horiz-adv-x="607" d=" M379,0 L113,0 L113,1556 L379,1556 M65653,1636 L65653,1663 Q65694,1716 65748,1814 Q65802,1912 65825,1964 L66143,1964 L66143,1943 Q66119,1900 66024,1804.5 Q65929,1709 65840,1636"/> 
            <glyph glyph-name="Ļ" unicode="&#x13B;" horiz-adv-x="778" d=" M129,0 L129,1462 L401,1462 L401,238 L778,238 L778,0 M513,-426 Q533,-360 552.5,-271.5 Q572,-183 579,-125 L841,-125 L841,-145 Q765,-321 675,-453 L513,-453"/> 
            <glyph glyph-name="ļ" unicode="&#x13C;" horiz-adv-x="385" d=" M385,0 L119,0 L119,1556 L385,1556 M65592,-426 Q65612,-360 65631.5,-271.5 Q65651,-183 65658,-125 L65920,-125 L65920,-145 Q65844,-321 65754,-453 L65592,-453"/> 
            <glyph glyph-name="Ľ" unicode="&#x13D;" horiz-adv-x="831" d=" M129,0 L129,1462 L401,1462 L401,238 L778,238 L778,0 M508,66698 Q553,66867 569,66999 L831,66999 L831,66979 Q756,66808 669,66672 L508,66672"/> 
            <glyph glyph-name="ľ" unicode="&#x13E;" horiz-adv-x="792" d=" M379,0 L113,0 L113,1556 L379,1556 M469,1255 Q514,1424 530,1556 L792,1556 L792,1536 Q717,1365 630,1229 L469,1229"/> 
            <glyph glyph-name="Ŀ" unicode="&#x13F;" horiz-adv-x="823" d=" M129,0 L129,1462 L401,1462 L401,238 L778,238 L778,0 M516,66283 Q516,66426 670,66426 Q823,66426 823,66283 Q823,66212 783,66176 Q743,66140 670,66140 Q595,66140 555.5,66176 Q516,66212 516,66283"/> 
            </font>
</defs>
</svg>
