<?xml version="1.0" standalone="no"?>
<!DOCTYPE svg PUBLIC "-//W3C//DTD SVG 1.1//EN" "http://www.w3.org/Graphics/SVG/1.1/DTD/svg11.dtd" >
<svg xmlns="http://www.w3.org/2000/svg">
    <defs>
        <font id="OpenSans-CondensedLightItalic">
            <font-face font-family="OpenSans-CondensedLightItalic"
                       units-per-em="2048"
                       ascent="2189"
                       descent="-600"
                       bbox="-750 -508 2042 2132"
                    />
            <missing-glyph horiz-adv-x="0" />
            
            <glyph glyph-name="!" unicode="&#x21;" horiz-adv-x="530" d=" M266,367 L205,367 L408,1462 L530,1462 M96,53 Q96,114 124,155.5 Q152,197 199,197 Q226,197 241,176 Q256,155 256,121 Q256,60 228.5,22 Q201,-16 158,-16 Q133,-16 114.5,1.5 Q96,19 96,53"/> 
            <glyph glyph-name="&quot;" unicode="&#x22;" horiz-adv-x="680" d=" M412,1462 L274,934 L213,934 L295,1462 M680,1462 L541,934 L479,934 L563,1462"/> 
            <glyph glyph-name="#" unicode="&#x23;" horiz-adv-x="889" d=" M53,467 L72,557 L223,557 L350,956 L199,956 L217,1042 L379,1042 L508,1462 L590,1462 L459,1042 L662,1042 L795,1462 L870,1462 L741,1042 L889,1042 L870,956 L713,956 L586,557 L743,557 L725,467 L559,467 L412,0 L330,0 L479,467 L276,467 L131,0 L51,0 L197,467 M305,557 L506,557 L635,956 L430,956"/> 
            <glyph glyph-name="$" unicode="&#x24;" horiz-adv-x="834" d=" M223,-119 L274,123 Q122,128 53,176 L53,279 Q82,257 142.5,237 Q203,217 293,215 L406,743 Q321,808 290,845.5 Q259,883 241,929 Q223,975 223,1034 Q223,1177 306.5,1265 Q390,1353 539,1370 L580,1556 L662,1556 L623,1374 Q742,1371 834,1317 L786,1227 Q687,1281 602,1284 L498,795 Q579,729 611.5,683.5 Q644,638 663,581.5 Q682,525 682,451 Q682,314 598,227.5 Q514,141 356,125 L305,-119 M588,449 Q588,534 555.5,590.5 Q523,647 475,688 L377,219 Q479,233 533.5,292 Q588,351 588,449 M319,1040 Q319,989 344,944 Q369,899 428,850 L520,1278 Q319,1251 319,1040"/> 
            <glyph glyph-name="%" unicode="&#x25;" horiz-adv-x="1067" d=" M1014,1462 L279,0 L190,0 L930,1462 M924,819 Q876,819 827,723 Q778,627 740,457 Q702,287 702,180 Q702,63 764,63 Q817,63 866.5,161 Q916,259 950.5,421.5 Q985,584 985,694 Q985,819 924,819 M1067,696 Q1067,530 1020.5,354.5 Q974,179 902.5,79.5 Q831,-20 750,-20 Q687,-20 655,34 Q623,88 623,182 Q623,340 668.5,517.5 Q714,695 785.5,796 Q857,897 938,897 Q1001,897 1034,842 Q1067,787 1067,696 M453,1405 Q405,1405 356,1309 Q307,1213 269,1043 Q231,873 231,766 Q231,649 293,649 Q346,649 395.5,747 Q445,845 479.5,1007.5 Q514,1170 514,1280 Q514,1405 453,1405 M596,1282 Q596,1115 549,938.5 Q502,762 430.5,663.5 Q359,565 279,565 Q218,565 185,618 Q152,671 152,768 Q152,924 197,1100.5 Q242,1277 313.5,1380 Q385,1483 467,1483 Q528,1483 562,1429.5 Q596,1376 596,1282"/> 
            <glyph glyph-name="&amp;" unicode="&#x26;" horiz-adv-x="766" d=" M582,0 L535,166 Q458,58 397,19 Q336,-20 262,-20 Q158,-20 99.5,49 Q41,118 41,236 Q41,401 112.5,535 Q184,669 350,795 Q309,937 309,1063 Q309,1260 374,1371.5 Q439,1483 553,1483 Q615,1483 653.5,1437 Q692,1391 692,1303 Q692,1159 629,1018.5 Q566,878 451,770 L569,350 Q637,475 682,645 L766,645 Q746,550 692.5,429.5 Q639,309 598,252 L680,0 M373,717 Q135,527 135,254 Q135,72 268,72 Q328,72 379.5,109 Q431,146 508,260 M428,852 Q514,932 560,1046.5 Q606,1161 606,1286 Q606,1393 537,1393 Q472,1393 433.5,1309 Q395,1225 395,1081 Q395,958 428,852"/> 
            <glyph glyph-name="'" unicode="&#x27;" horiz-adv-x="412" d=" M412,1462 L274,934 L213,934 L295,1462"/> 
            <glyph glyph-name="(" unicode="&#x28;" horiz-adv-x="682" d=" M102,219 Q102,555 232.5,876 Q363,1197 606,1462 L682,1462 Q447,1175 327,860.5 Q207,546 207,219 Q207,73 231,-72.5 Q255,-218 301,-324 L225,-324 Q170,-227 136,-77 Q102,73 102,219"/> 
            <glyph glyph-name=")" unicode="&#x29;" horiz-adv-x="498" d=" M498,920 Q498,587 369.5,267 Q241,-53 -6,-324 L-82,-324 Q153,-37 273,277.5 Q393,592 393,920 Q393,1067 368.5,1213.5 Q344,1360 299,1462 L375,1462 Q430,1364 464,1215 Q498,1066 498,920"/> 
            <glyph glyph-name="*" unicode="&#x2A;" horiz-adv-x="743" d=" M578,1546 L520,1315 L743,1339 L743,1235 L528,1257 L645,1024 L549,993 L479,1231 L338,1020 L256,1075 L426,1270 L221,1307 L250,1405 L461,1323 L465,1563"/> 
            <glyph glyph-name="+" unicode="&#x2B;" horiz-adv-x="764" d=" M485,782 L764,782 L764,709 L485,709 L485,373 L408,373 L408,709 L131,709 L131,782 L408,782 L408,1120 L485,1120"/> 
            <glyph glyph-name="," unicode="&#x2C;" horiz-adv-x="289" d=" M289,182 Q187,-32 45,-264 L-20,-264 Q21,-176 76.5,-40 Q132,96 166,205 L281,205"/> 
            <glyph glyph-name="-" unicode="&#x2D;" horiz-adv-x="485" d=" M94,502 L117,604 L485,604 L463,502"/> 
            <glyph glyph-name="." unicode="&#x2E;" horiz-adv-x="258" d=" M98,53 Q98,114 126,155.5 Q154,197 201,197 Q228,197 243,176 Q258,155 258,121 Q258,60 230.5,22 Q203,-16 160,-16 Q135,-16 116.5,1.5 Q98,19 98,53"/> 
            <glyph glyph-name="/" unicode="&#x2F;" horiz-adv-x="838" d=" M838,1462 L59,0 L-33,0 L745,1462"/> 
            <glyph glyph-name="0" unicode="&#x30;" horiz-adv-x="791" d=" M791,1178 Q791,981 748.5,747 Q706,513 634.5,333.5 Q563,154 477,67 Q391,-20 295,-20 Q193,-20 143.5,57 Q94,134 94,289 Q94,538 168,846 Q242,1154 352,1318.5 Q462,1483 590,1483 Q687,1483 739,1405.5 Q791,1328 791,1178 M584,1389 Q488,1389 401.5,1225.5 Q315,1062 254,778 Q193,494 193,289 Q193,180 218.5,127 Q244,74 303,74 Q399,74 485,231 Q571,388 631.5,673.5 Q692,959 692,1178 Q692,1278 667.5,1333.5 Q643,1389 584,1389"/> 
            <glyph glyph-name="1" unicode="&#x31;" horiz-adv-x="692" d=" M383,0 L287,0 L512,1063 L545,1211 L578,1346 Q551,1317 523,1289.5 Q495,1262 332,1126 L287,1194 L600,1462 L692,1462"/> 
            <glyph glyph-name="2" unicode="&#x32;" horiz-adv-x="805" d=" M575,0 L-8,0 L2,78 L354,512 Q515,709 575.5,805 Q636,901 671.5,997.5 Q707,1094 707,1196 Q707,1393 543,1393 Q494,1393 448,1376 Q402,1359 332,1309 L287,1386 Q342,1425 407,1454 Q472,1483 555,1483 Q673,1483 739,1410.5 Q805,1338 805,1206 Q805,1064 726.5,900 Q648,736 442,483 L121,90 L594,90"/> 
            <glyph glyph-name="3" unicode="&#x33;" horiz-adv-x="805" d=" M805,1206 Q805,1034 721.5,915.5 Q638,797 498,764 L496,758 Q666,695 666,463 Q666,325 614,213.5 Q562,102 468,41 Q374,-20 254,-20 Q101,-20 16,29 L16,137 Q109,68 242,68 Q342,68 415,116.5 Q488,165 527.5,252.5 Q567,340 567,449 Q567,580 510.5,645.5 Q454,711 348,711 L283,711 L301,803 L360,803 Q509,803 609,915 Q709,1027 709,1194 Q709,1288 667,1341.5 Q625,1395 545,1395 Q479,1395 426,1372.5 Q373,1350 315,1307 L270,1378 Q328,1424 394.5,1453.5 Q461,1483 547,1483 Q666,1483 735.5,1407 Q805,1331 805,1206"/> 
            <glyph glyph-name="4" unicode="&#x34;" horiz-adv-x="809" d=" M705,332 L565,332 L494,0 L399,0 L471,332 L16,332 L33,416 L684,1479 L809,1479 L584,422 L723,422 M489,422 L645,1142 L700,1366 L692,1366 L667,1318 L592,1178 L131,422"/> 
            <glyph glyph-name="5" unicode="&#x35;" horiz-adv-x="815" d=" M596,492 Q596,633 542.5,712 Q489,791 379,791 Q346,791 315.5,786 Q285,781 219,758 L180,821 L358,1462 L815,1462 L795,1368 L430,1368 L285,860 Q341,874 403,874 Q543,874 618.5,779.5 Q694,685 694,508 Q694,357 637.5,236 Q581,115 475.5,47.5 Q370,-20 229,-20 Q165,-20 106.5,-6 Q48,8 16,27 L16,137 Q92,68 233,68 Q396,68 496,184.5 Q596,301 596,492"/> 
            <glyph glyph-name="6" unicode="&#x36;" horiz-adv-x="840" d=" M104,317 Q104,609 189,894.5 Q274,1180 406,1331.5 Q538,1483 696,1483 Q787,1483 840,1460 L813,1366 Q767,1389 698,1389 Q550,1389 435,1223.5 Q320,1058 240,741 L246,741 Q292,816 361.5,859.5 Q431,903 512,903 Q608,903 664.5,825.5 Q721,748 721,621 Q721,452 667.5,295.5 Q614,139 527,59.5 Q440,-20 332,-20 Q226,-20 165,69.5 Q104,159 104,317 M344,72 Q421,72 483,140 Q545,208 586,345.5 Q627,483 627,608 Q627,702 589.5,756.5 Q552,811 485,811 Q400,811 332.5,751 Q265,691 231,592 Q197,493 197,317 Q197,202 236,137 Q275,72 344,72"/> 
            <glyph glyph-name="7" unicode="&#x37;" horiz-adv-x="877" d=" M125,0 L762,1368 L244,1368 L262,1462 L877,1462 L866,1380 L227,0"/> 
            <glyph glyph-name="8" unicode="&#x38;" horiz-adv-x="821" d=" M35,287 Q35,456 117,572 Q199,688 375,776 Q304,855 271,938.5 Q238,1022 238,1122 Q238,1279 330,1381 Q422,1483 571,1483 Q684,1483 752.5,1410 Q821,1337 821,1210 Q821,1068 741,952.5 Q661,837 514,760 Q608,666 647,573 Q686,480 686,377 Q686,203 588.5,91.5 Q491,-20 334,-20 Q190,-20 112.5,61.5 Q35,143 35,287 M588,373 Q588,468 553,547.5 Q518,627 430,717 Q268,633 200.5,534 Q133,435 133,293 Q133,194 187.5,132 Q242,70 332,70 Q450,70 519,151.5 Q588,233 588,373 M336,1116 Q336,1024 367,952 Q398,880 459,815 Q589,883 657,981 Q725,1079 725,1192 Q725,1285 682.5,1339 Q640,1393 565,1393 Q456,1393 396,1320 Q336,1247 336,1116"/> 
            <glyph glyph-name="9" unicode="&#x39;" horiz-adv-x="784" d=" M784,1163 Q784,853 705.5,565 Q627,277 497,128.5 Q367,-20 203,-20 Q105,-20 49,2 L49,96 Q98,74 203,74 Q356,74 469.5,239.5 Q583,405 651,723 L645,723 Q599,649 528.5,604 Q458,559 381,559 Q286,559 228,644 Q170,729 170,866 Q170,1032 224.5,1182.5 Q279,1333 365,1408 Q451,1483 561,1483 Q670,1483 727,1401 Q784,1319 784,1163 M549,1391 Q470,1391 407,1324 Q344,1257 303,1127.5 Q262,998 262,877 Q262,769 299,710 Q336,651 403,651 Q487,651 555.5,713 Q624,775 658,885.5 Q692,996 692,1151 Q692,1264 655.5,1327.5 Q619,1391 549,1391"/> 
            <glyph glyph-name=":" unicode="&#x3A;" horiz-adv-x="420" d=" M70,53 Q70,113 97,155 Q124,197 172,197 Q199,197 214,176 Q229,155 229,121 Q229,60 201.5,22 Q174,-16 131,-16 Q106,-16 88,1.5 Q70,19 70,53 M260,944 Q260,1005 288,1046 Q316,1087 362,1087 Q393,1087 406.5,1063.5 Q420,1040 420,1012 Q420,952 393,913 Q366,874 322,874 Q297,874 278.5,892 Q260,910 260,944"/> 
            <glyph glyph-name=";" unicode="&#x3B;" horiz-adv-x="434" d=" M276,182 Q179,-25 33,-264 L-33,-264 Q89,-1 154,205 L268,205 M274,944 Q274,1005 302,1046 Q330,1087 377,1087 Q408,1087 421,1063.5 Q434,1040 434,1012 Q434,952 407,913 Q380,874 336,874 Q311,874 292.5,892 Q274,910 274,944"/> 
            <glyph glyph-name="&lt;" unicode="&#x3C;" horiz-adv-x="709" d=" M709,307 L76,711 L76,778 L709,1178 L709,1077 L168,743 L709,410"/> 
            <glyph glyph-name="=" unicode="&#x3D;" horiz-adv-x="768" d=" M768,547 L768,465 L135,465 L135,547 M768,977 L768,895 L135,895 L135,977"/> 
            <glyph glyph-name="&gt;" unicode="&#x3E;" horiz-adv-x="803" d=" M170,389 L711,723 L170,1057 L170,1157 L803,758 L803,690 L170,287"/> 
            <glyph glyph-name="?" unicode="&#x3F;" horiz-adv-x="664" d=" M164,367 L174,418 Q214,617 350,801 L420,895 Q507,1013 535,1088 Q563,1163 563,1247 Q563,1323 527.5,1358 Q492,1393 438,1393 Q398,1393 365,1382 Q332,1371 274,1329 L236,1407 Q343,1483 446,1483 Q550,1483 607,1423 Q664,1363 664,1257 Q664,1187 645.5,1125.5 Q627,1064 594,1005.5 Q561,947 461,817 Q378,711 340.5,647 Q303,583 276.5,514 Q250,445 238,367 M72,53 Q72,113 99,155 Q126,197 174,197 Q201,197 216,176 Q231,155 231,121 Q231,60 203.5,22 Q176,-16 133,-16 Q108,-16 90,1.5 Q72,19 72,53"/> 
            <glyph glyph-name="@" unicode="&#x40;" horiz-adv-x="1137" d=" M1137,1024 Q1137,857 1086,658.5 Q1035,460 959,348 Q883,236 799,236 Q742,236 714,268 Q686,300 686,354 Q686,396 696,444 Q623,231 504,231 Q393,231 393,410 Q393,554 446.5,722.5 Q500,891 578,976 Q656,1061 750,1061 Q830,1061 891,1032 L773,561 Q748,464 748,412 Q748,315 813,315 Q864,315 918.5,423 Q973,531 1014,710 Q1055,889 1055,1012 Q1055,1196 994.5,1292.5 Q934,1389 813,1389 Q657,1389 515.5,1244 Q374,1099 286.5,841.5 Q199,584 199,291 Q199,106 267.5,3 Q336,-100 455,-100 Q513,-100 567.5,-84.5 Q622,-69 657,-47 L668,-125 Q564,-180 446,-180 Q294,-180 202.5,-57.5 Q111,65 111,279 Q111,607 210.5,881.5 Q310,1156 478,1314.5 Q646,1473 834,1473 Q974,1473 1055.5,1354.5 Q1137,1236 1137,1024 M725,981 Q665,981 608.5,902 Q552,823 514.5,687 Q477,551 477,428 Q477,319 535,319 Q579,319 619,402.5 Q659,486 707,666 L788,973 Q764,981 725,981"/> 
            <glyph glyph-name="A" unicode="&#x41;" horiz-adv-x="651" d=" M555,0 L555,530 L248,530 L27,0 L-78,0 L528,1468 L651,1468 L651,0 M555,629 L555,999 L561,1354 Q546,1302 509,1202 Q472,1102 283,629"/> 
            <glyph glyph-name="B" unicode="&#x42;" horiz-adv-x="887" d=" M375,1462 L600,1462 Q730,1462 808.5,1387 Q887,1312 887,1188 Q887,1021 812.5,909 Q738,797 608,772 L606,766 Q679,747 724.5,676.5 Q770,606 770,510 Q770,359 719,243 Q668,127 571,63.5 Q474,0 338,0 L66,0 M336,813 L483,813 Q573,813 641,859 Q709,905 746.5,988.5 Q784,1072 784,1176 Q784,1273 733,1319.5 Q682,1366 578,1366 L455,1366 M317,719 L184,94 L342,94 Q496,94 582,201.5 Q668,309 668,494 Q668,598 617,658.5 Q566,719 475,719"/> 
            <glyph glyph-name="C" unicode="&#x43;" horiz-adv-x="946" d=" M739,1389 Q609,1389 493.5,1260 Q378,1131 305.5,904.5 Q233,678 233,467 Q233,263 284.5,167.5 Q336,72 457,72 Q533,72 629,111 L629,16 Q535,-20 442,-20 Q289,-20 212,95.5 Q135,211 135,449 Q135,705 220.5,953.5 Q306,1202 446.5,1343.5 Q587,1485 750,1485 Q872,1485 946,1423 L885,1337 Q825,1389 739,1389"/> 
            <glyph glyph-name="D" unicode="&#x44;" horiz-adv-x="913" d=" M913,1047 Q913,747 830.5,502.5 Q748,258 600.5,129 Q453,0 256,0 L66,0 L375,1462 L592,1462 Q746,1462 829.5,1357 Q913,1252 913,1047 M276,94 Q427,94 546.5,210 Q666,326 737.5,555 Q809,784 809,1047 Q809,1366 578,1366 L455,1366 L184,94"/> 
            <glyph glyph-name="E" unicode="&#x45;" horiz-adv-x="852" d=" M543,0 L66,0 L375,1462 L852,1462 L831,1366 L455,1366 L338,813 L692,813 L672,719 L317,719 L184,94 L561,94"/> 
            <glyph glyph-name="F" unicode="&#x46;" horiz-adv-x="854" d=" M166,0 L66,0 L375,1462 L854,1462 L834,1366 L455,1366 L326,752 L682,752 L662,657 L305,657"/> 
            <glyph glyph-name="G" unicode="&#x47;" horiz-adv-x="1065" d=" M645,741 L940,741 L788,33 Q651,-20 500,-20 Q135,-20 135,438 Q135,622 186,827 Q237,1032 324.5,1184 Q412,1336 523.5,1410.5 Q635,1485 764,1485 Q934,1485 1065,1391 L1001,1303 Q933,1353 876.5,1371 Q820,1389 758,1389 Q647,1389 553.5,1317 Q460,1245 388.5,1108.5 Q317,972 275,787.5 Q233,603 233,432 Q233,241 301.5,156.5 Q370,72 510,72 Q610,72 702,100 L819,647 L625,647"/> 
            <glyph glyph-name="H" unicode="&#x48;" horiz-adv-x="1012" d=" M702,0 L604,0 L756,717 L315,717 L164,0 L66,0 L375,1462 L473,1462 L336,815 L776,815 L913,1462 L1012,1462"/> 
            <glyph glyph-name="I" unicode="&#x49;" horiz-adv-x="473" d=" M66,0 L375,1462 L473,1462 L164,0"/> 
            <glyph glyph-name="J" unicode="&#x4A;" horiz-adv-x="475" d=" M-113,-369 Q-183,-369 -227,-344 L-199,-252 Q-157,-272 -109,-272 Q-41,-272 -4,-217 Q33,-162 59,-35 L377,1462 L475,1462 L154,-57 Q120,-218 56,-293.5 Q-8,-369 -113,-369"/> 
            <glyph glyph-name="K" unicode="&#x4B;" horiz-adv-x="948" d=" M666,0 L565,0 L416,709 L287,580 L164,0 L66,0 L375,1462 L473,1462 L309,688 L432,868 L848,1462 L948,1462 L496,795"/> 
            <glyph glyph-name="L" unicode="&#x4C;" horiz-adv-x="543" d=" M66,0 L375,1462 L473,1462 L184,94 L543,94 L524,0"/> 
            <glyph glyph-name="M" unicode="&#x4D;" horiz-adv-x="1343" d=" M494,0 L442,1331 L436,1331 L392,1091 L162,0 L66,0 L375,1462 L535,1462 L569,354 L573,190 L571,102 L573,102 Q590,152 680,352 L1174,1462 L1343,1462 L1034,0 L934,0 L1172,1122 L1221,1329 L1217,1329 L621,0"/> 
            <glyph glyph-name="N" unicode="&#x4E;" horiz-adv-x="1069" d=" M760,0 L639,0 L438,1311 L430,1311 Q416,1196 385,1049 L164,0 L66,0 L375,1462 L506,1462 L698,166 L705,166 L719,252 L754,440 L971,1462 L1069,1462"/> 
            <glyph glyph-name="O" unicode="&#x4F;" horiz-adv-x="977" d=" M412,-20 Q135,-20 135,379 Q135,575 181,793 Q227,1011 305.5,1169.5 Q384,1328 484,1405.5 Q584,1483 702,1483 Q977,1483 977,1100 Q977,816 897,543 Q817,270 690,125 Q563,-20 412,-20 M233,377 Q233,74 420,74 Q512,74 593.5,154.5 Q675,235 738,384.5 Q801,534 840,734 Q879,934 879,1100 Q879,1389 692,1389 Q601,1389 520.5,1315.5 Q440,1242 376,1095 Q312,948 272.5,745 Q233,542 233,377"/> 
            <glyph glyph-name="P" unicode="&#x50;" horiz-adv-x="858" d=" M858,1155 Q858,998 801,872 Q744,746 637,675 Q530,604 387,604 L291,604 L164,0 L66,0 L375,1462 L545,1462 Q690,1462 774,1378.5 Q858,1295 858,1155 M311,698 L381,698 Q559,698 656.5,813.5 Q754,929 754,1139 Q754,1246 695.5,1306 Q637,1366 530,1366 L453,1366"/> 
            <glyph glyph-name="Q" unicode="&#x51;" horiz-adv-x="977" d=" M412,-20 Q135,-20 135,379 Q135,575 181,793 Q227,1011 305.5,1169.5 Q384,1328 484,1405.5 Q584,1483 702,1483 Q977,1483 977,1081 Q977,849 917,609.5 Q857,370 759,214.5 Q661,59 541,8 L655,-348 L539,-348 L442,-18 M233,371 Q233,74 420,74 Q544,74 648,221 Q752,368 815.5,625 Q879,882 879,1108 Q879,1389 692,1389 Q565,1389 462,1248.5 Q359,1108 296,850.5 Q233,593 233,371"/> 
            <glyph glyph-name="R" unicode="&#x52;" horiz-adv-x="856" d=" M299,639 L164,0 L66,0 L375,1462 L555,1462 Q695,1462 775.5,1380 Q856,1298 856,1153 Q856,1033 817.5,925 Q779,817 708,746 Q637,675 547,657 L668,0 L561,0 L444,639 M317,729 L422,729 Q579,729 666.5,837.5 Q754,946 754,1145 Q754,1252 695.5,1309 Q637,1366 530,1366 L453,1366"/> 
            <glyph glyph-name="S" unicode="&#x53;" horiz-adv-x="844" d=" M655,399 Q655,203 551,91.5 Q447,-20 264,-20 Q185,-20 116,-3 Q47,14 10,37 L10,145 Q131,74 272,74 Q405,74 479,160.5 Q553,247 553,397 Q553,461 537,512 Q521,563 493,607.5 Q465,652 383,739 Q305,822 275,869 Q245,916 229,968.5 Q213,1021 213,1085 Q213,1199 261.5,1291.5 Q310,1384 397.5,1433.5 Q485,1483 602,1483 Q667,1483 738,1465 Q809,1447 844,1423 L791,1329 Q700,1386 592,1386 Q508,1386 445.5,1349 Q383,1312 349,1246 Q315,1180 315,1100 Q315,1025 345,962 Q375,899 461,813 Q553,719 585,666 Q617,613 636,548.5 Q655,484 655,399"/> 
            <glyph glyph-name="T" unicode="&#x54;" horiz-adv-x="856" d=" M291,0 L190,0 L479,1366 L223,1366 L244,1462 L856,1462 L836,1366 L580,1366"/> 
            <glyph glyph-name="U" unicode="&#x55;" horiz-adv-x="1012" d=" M1012,1462 L797,459 Q742,206 645.5,93 Q549,-20 385,-20 Q260,-20 194.5,58 Q129,136 129,276 Q129,351 147,440 L367,1462 L465,1462 L244,428 Q225,348 225,276 Q225,74 397,74 Q511,74 583.5,164 Q656,254 698,457 L913,1462"/> 
            <glyph glyph-name="V" unicode="&#x56;" horiz-adv-x="950" d=" M850,1462 L950,1462 L340,0 L231,0 L231,1462 L330,1462 L330,553 Q330,386 307,121 Q341,226 432,455"/> 
            <glyph glyph-name="W" unicode="&#x57;" horiz-adv-x="1477" d=" M1376,1462 L1477,1462 L889,0 L768,0 L815,1094 L831,1333 L752,1096 L326,0 L205,0 L231,1462 L332,1462 L305,455 Q298,244 287,111 L313,185 L412,451 L801,1462 L909,1462 L877,492 Q866,239 852,111 Q937,352 979,455"/> 
            <glyph glyph-name="X" unicode="&#x58;" horiz-adv-x="856" d=" M547,0 L446,0 L393,666 L45,0 L-57,0 L362,791 L281,1462 L381,1462 L449,856 L756,1462 L856,1462 L479,743"/> 
            <glyph glyph-name="Y" unicode="&#x59;" horiz-adv-x="848" d=" M379,707 L745,1462 L848,1462 L401,571 L281,0 L180,0 L301,571 L227,1462 L328,1462"/> 
            <glyph glyph-name="Z" unicode="&#x5A;" horiz-adv-x="762" d=" M465,0 L-25,0 L-6,88 L635,1366 L268,1366 L289,1462 L762,1462 L743,1372 L92,94 L483,94"/> 
            <glyph glyph-name="[" unicode="&#x5B;" horiz-adv-x="764" d=" M383,-324 L25,-324 L406,1462 L764,1462 L743,1372 L481,1372 L139,-233 L403,-233"/> 
            <glyph glyph-name="\" unicode="&#x5C;" horiz-adv-x="528" d=" M365,1462 L528,0 L432,0 L270,1462"/> 
            <glyph glyph-name="]" unicode="&#x5D;" horiz-adv-x="674" d=" M-43,-233 L217,-233 L559,1372 L295,1372 L315,1462 L674,1462 L293,-324 L-63,-324"/> 
            <glyph glyph-name="^" unicode="&#x5E;" horiz-adv-x="784" d=" M692,758 L569,1348 L217,758 L111,758 L543,1462 L625,1462 L784,758"/> 
            <glyph glyph-name="_" unicode="&#x5F;" horiz-adv-x="745" d=" M729,-266 L-35,-266 L-18,-184 L745,-184"/> 
            <glyph glyph-name="`" unicode="&#x60;" horiz-adv-x="782" d=" M743,1241 Q695,1298 641.5,1392 Q588,1486 571,1552 L571,1569 L698,1569 Q724,1413 782,1260 L782,1241"/> 
            <glyph glyph-name="a" unicode="&#x61;" horiz-adv-x="860" d=" M319,-20 Q119,-20 119,262 Q119,471 181.5,676 Q244,881 343.5,993.5 Q443,1106 561,1106 Q695,1106 735,956 L741,956 L780,1085 L860,1085 L631,0 L555,0 L573,156 L569,156 Q455,-20 319,-20 M338,63 Q428,63 506,167 Q584,271 638,471 Q692,671 692,848 Q692,931 656.5,973.5 Q621,1016 557,1016 Q469,1016 394,914.5 Q319,813 268,617 Q217,421 217,248 Q217,157 243.5,110 Q270,63 338,63"/> 
            <glyph glyph-name="b" unicode="&#x62;" horiz-adv-x="813" d=" M612,1106 Q813,1106 813,823 Q813,612 750,407.5 Q687,203 587.5,91.5 Q488,-20 371,-20 Q303,-20 256,21 Q209,62 197,131 L190,131 L145,0 L72,0 L399,1556 L494,1556 L375,1001 L354,920 L358,920 Q410,1011 476,1058.5 Q542,1106 612,1106 M594,1022 Q500,1022 421,917.5 Q342,813 291,623.5 Q240,434 240,252 Q240,66 375,66 Q463,66 538.5,169.5 Q614,273 664.5,469 Q715,665 715,838 Q715,929 688.5,975.5 Q662,1022 594,1022"/> 
            <glyph glyph-name="c" unicode="&#x63;" horiz-adv-x="713" d=" M358,-20 Q242,-20 180.5,60 Q119,140 119,291 Q119,508 182,704.5 Q245,901 345,1003.5 Q445,1106 569,1106 Q655,1106 713,1073 L674,987 Q621,1016 561,1016 Q469,1016 392.5,919 Q316,822 266.5,642 Q217,462 217,289 Q217,66 377,66 Q440,66 520,106 L520,20 Q445,-20 358,-20"/> 
            <glyph glyph-name="d" unicode="&#x64;" horiz-adv-x="961" d=" M319,-20 Q119,-20 119,262 Q119,471 181.5,676 Q244,881 343.5,993.5 Q443,1106 561,1106 Q630,1106 676.5,1064 Q723,1022 735,954 L741,954 L866,1556 L961,1556 L631,0 L555,0 L573,156 L569,156 Q455,-20 319,-20 M338,63 Q428,63 506,165.5 Q584,268 638,465.5 Q692,663 692,844 Q692,929 660,972.5 Q628,1016 557,1016 Q469,1016 394,914.5 Q319,813 268,617 Q217,421 217,248 Q217,157 243.5,110 Q270,63 338,63"/> 
            <glyph glyph-name="e" unicode="&#x65;" horiz-adv-x="743" d=" M373,-20 Q253,-20 186,63.5 Q119,147 119,297 Q119,511 179.5,698.5 Q240,886 343.5,996 Q447,1106 561,1106 Q648,1106 695.5,1055.5 Q743,1005 743,903 Q743,780 683.5,688 Q624,596 513.5,551 Q403,506 250,506 L238,506 Q217,407 217,307 Q217,66 401,66 Q448,66 489.5,79 Q531,92 584,123 L584,27 Q500,-20 373,-20 M545,1018 Q456,1018 376,900 Q296,782 250,588 Q649,588 649,905 Q649,958 626.5,988 Q604,1018 545,1018"/> 
            <glyph glyph-name="f" unicode="&#x66;" horiz-adv-x="709" d=" M-113,-492 Q-164,-492 -201,-481 L-201,-389 Q-164,-401 -117,-401 Q-70,-401 -44,-374.5 Q-18,-348 3.5,-286 Q25,-224 51,-100 L287,1001 L166,1001 L176,1055 L307,1096 L328,1194 Q357,1337 391.5,1417 Q426,1497 472,1532 Q518,1567 598,1567 Q664,1567 709,1542 L668,1454 Q626,1475 586,1475 Q539,1475 513.5,1448.5 Q488,1422 466.5,1359 Q445,1296 401,1085 L545,1085 L526,1001 L383,1001 L143,-106 Q109,-266 78,-345 Q47,-424 5,-458 Q-37,-492 -113,-492"/> 
            <glyph glyph-name="g" unicode="&#x67;" horiz-adv-x="821" d=" M821,1085 L807,1018 L670,1001 Q700,944 700,858 Q700,749 655.5,633.5 Q611,518 537.5,452.5 Q464,387 375,387 L350,387 L328,389 Q203,302 203,231 Q203,208 211,193.5 Q219,179 236,169.5 Q253,160 354,129 Q480,90 531,30.5 Q582,-29 582,-129 Q582,-290 476,-391 Q370,-492 203,-492 Q71,-492 -1.5,-425 Q-74,-358 -74,-236 Q-74,-131 -9,-44.5 Q56,42 176,96 Q113,138 113,209 Q113,261 145,310 Q177,359 260,418 Q174,490 174,627 Q174,750 223.5,867.5 Q273,985 348.5,1045.5 Q424,1106 516,1106 Q580,1106 614,1085 M16,-229 Q16,-327 65.5,-370.5 Q115,-414 211,-414 Q333,-414 413.5,-340 Q494,-266 494,-147 Q494,-83 453.5,-36 Q413,11 330,35 L240,59 Q144,27 80,-54 Q16,-135 16,-229 M266,612 Q266,538 294.5,499.5 Q323,461 377,461 Q439,461 489.5,513.5 Q540,566 573,671.5 Q606,777 606,874 Q606,1028 498,1028 Q437,1028 385.5,972 Q334,916 300,807.5 Q266,699 266,612"/> 
            <glyph glyph-name="h" unicode="&#x68;" horiz-adv-x="780" d=" M504,0 L676,815 Q686,855 686,899 Q686,1012 586,1012 Q481,1012 410,911 Q339,810 295,596 L168,0 L74,0 L403,1556 L498,1556 L399,1102 L358,934 L362,934 Q455,1106 604,1106 Q688,1106 734,1057.5 Q780,1009 780,918 Q780,862 766,797 L598,0"/> 
            <glyph glyph-name="i" unicode="&#x69;" horiz-adv-x="475" d=" M162,0 L68,0 L299,1085 L393,1085 M346,1356 Q346,1407 369,1444 Q392,1481 428,1481 Q475,1481 475,1423 Q475,1366 453,1329 Q431,1292 395,1292 Q346,1292 346,1356"/> 
            <glyph glyph-name="j" unicode="&#x6A;" horiz-adv-x="475" d=" M346,1356 Q346,1407 369,1444 Q392,1481 428,1481 Q475,1481 475,1423 Q475,1366 453,1329 Q431,1292 395,1292 Q346,1292 346,1356 M299,1085 L393,1085 L139,-106 Q105,-266 74,-344 Q43,-422 0.5,-457 Q-42,-492 -117,-492 Q-168,-492 -205,-481 L-205,-389 Q-168,-401 -121,-401 Q-74,-401 -48,-374.5 Q-22,-348 -0.5,-286 Q21,-224 47,-100"/> 
            <glyph glyph-name="k" unicode="&#x6B;" horiz-adv-x="778" d=" M276,549 L324,608 L406,713 L676,1085 L778,1085 L471,655 L567,0 L469,0 L385,573 L258,434 L166,0 L72,0 L403,1556 L498,1556 L319,739 Q311,699 274,549"/> 
            <glyph glyph-name="l" unicode="&#x6C;" horiz-adv-x="498" d=" M166,0 L72,0 L403,1556 L498,1556"/> 
            <glyph glyph-name="m" unicode="&#x6D;" horiz-adv-x="1165" d=" M891,0 L1063,813 Q1073,860 1073,897 Q1073,1012 979,1012 Q897,1012 833,940.5 Q769,869 745,752 L588,0 L494,0 L662,799 Q674,857 674,897 Q674,1012 575,1012 Q474,1012 407,916 Q340,820 293,596 L166,0 L72,0 L301,1085 L381,1085 L356,934 L360,934 Q451,1106 600,1106 Q673,1106 714.5,1070 Q756,1034 766,956 Q817,1031 873,1068.5 Q929,1106 1004,1106 Q1081,1106 1123,1056 Q1165,1006 1165,907 Q1165,850 1151,786 L985,0"/> 
            <glyph glyph-name="n" unicode="&#x6E;" horiz-adv-x="778" d=" M502,0 L674,815 Q684,855 684,899 Q684,1012 584,1012 Q479,1012 408,911 Q337,810 293,596 L166,0 L72,0 L301,1085 L381,1085 L356,934 L360,934 Q453,1106 602,1106 Q686,1106 732,1057.5 Q778,1009 778,918 Q778,862 764,797 L596,0"/> 
            <glyph glyph-name="o" unicode="&#x6F;" horiz-adv-x="784" d=" M340,-20 Q233,-20 176,60 Q119,140 119,287 Q119,429 155,592 Q191,755 249,868.5 Q307,982 385,1044 Q463,1106 559,1106 Q665,1106 724.5,1023.5 Q784,941 784,791 Q784,652 747.5,492.5 Q711,333 652,218.5 Q593,104 514,42 Q435,-20 340,-20 M217,268 Q217,66 352,66 Q441,66 516,167.5 Q591,269 638.5,454 Q686,639 686,811 Q686,1016 547,1016 Q463,1016 389.5,918 Q316,820 266.5,632 Q217,444 217,268"/> 
            <glyph glyph-name="p" unicode="&#x70;" horiz-adv-x="815" d=" M614,1106 Q815,1106 815,823 Q815,613 752,408.5 Q689,204 590,92 Q491,-20 373,-20 Q305,-20 258,21 Q211,62 199,131 L193,131 L68,-471 L-27,-471 L303,1085 L385,1085 L360,930 L365,930 Q479,1106 614,1106 M596,1022 Q502,1022 423,917.5 Q344,813 293,623.5 Q242,434 242,252 Q242,66 377,66 Q465,66 540.5,169.5 Q616,273 666.5,469 Q717,665 717,838 Q717,929 690.5,975.5 Q664,1022 596,1022"/> 
            <glyph glyph-name="q" unicode="&#x71;" horiz-adv-x="860" d=" M319,-20 Q119,-20 119,262 Q119,471 181.5,676 Q244,881 343.5,993.5 Q443,1106 561,1106 Q695,1106 735,956 L741,956 L780,1085 L860,1085 L526,-492 L432,-492 L535,-4 L578,158 L573,158 Q458,-20 319,-20 M338,63 Q428,63 506,167 Q584,271 638,471 Q692,671 692,848 Q692,931 656.5,973.5 Q621,1016 557,1016 Q469,1016 394,914.5 Q319,813 268,617 Q217,421 217,248 Q217,157 243.5,110 Q270,63 338,63"/> 
            <glyph glyph-name="r" unicode="&#x72;" horiz-adv-x="655" d=" M582,1106 Q621,1106 655,1094 L629,997 Q599,1012 563,1012 Q478,1012 405,895 Q332,778 289,575 L166,0 L72,0 L301,1085 L371,1085 L342,895 L346,895 Q434,1106 582,1106"/> 
            <glyph glyph-name="s" unicode="&#x73;" horiz-adv-x="680" d=" M229,-20 Q173,-20 112,-6 Q51,8 29,25 L29,135 Q53,111 109.5,90.5 Q166,70 223,70 Q320,70 374,126.5 Q428,183 428,287 Q428,331 417,367.5 Q406,404 388.5,435 Q371,466 311,532 Q246,603 223,639.5 Q200,676 187,718 Q174,760 174,815 Q174,945 254,1025.5 Q334,1106 461,1106 Q597,1106 680,1044 L629,958 Q558,1016 457,1016 Q375,1016 321.5,964.5 Q268,913 268,827 Q268,768 289.5,720 Q311,672 371,606 Q443,528 468.5,488 Q494,448 509,401 Q524,354 524,297 Q524,145 447.5,62.5 Q371,-20 229,-20"/> 
            <glyph glyph-name="t" unicode="&#x74;" horiz-adv-x="526" d=" M328,80 L328,0 Q272,-20 223,-20 Q96,-20 96,131 Q96,169 109,231 L272,1001 L174,1001 L186,1057 L289,1085 L369,1343 L438,1343 L383,1085 L526,1085 L508,1001 L365,1001 L207,258 Q193,194 193,152 Q193,107 209.5,87.5 Q226,68 262,68 Q293,68 328,80"/> 
            <glyph glyph-name="u" unicode="&#x75;" horiz-adv-x="827" d=" M395,1085 L233,330 Q215,252 215,195 Q215,72 309,72 Q518,72 606,489 L733,1085 L827,1085 L596,0 L522,0 L530,135 L526,135 Q425,-20 287,-20 Q123,-20 123,178 Q123,257 143,344 L301,1085"/> 
            <glyph glyph-name="v" unicode="&#x76;" horiz-adv-x="750" d=" M178,0 L178,1085 L272,1085 L272,426 Q272,388 267.5,284.5 Q263,181 256,123 L262,123 Q283,185 313,264 Q343,343 651,1085 L750,1085 L291,0"/> 
            <glyph glyph-name="w" unicode="&#x77;" horiz-adv-x="1165" d=" M608,0 L637,735 L649,963 Q609,845 595,805 Q581,765 287,0 L170,0 L190,1085 L285,1085 L272,453 Q268,277 250,123 L254,123 Q262,151 293.5,238 Q325,325 618,1085 L727,1085 L711,453 Q708,363 696,191 L692,123 L696,123 L756,280 L1069,1085 L1165,1085 L729,0"/> 
            <glyph glyph-name="x" unicode="&#x78;" horiz-adv-x="737" d=" M313,571 L221,1085 L317,1085 L387,651 L637,1085 L737,1085 L410,547 L518,0 L422,0 L342,461 L74,0 L-27,0"/> 
            <glyph glyph-name="y" unicode="&#x79;" horiz-adv-x="752" d=" M-68,-492 Q-114,-492 -158,-473 L-158,-387 Q-121,-403 -70,-403 Q-16,-403 22.5,-359.5 Q61,-316 117,-186 L188,-16 L180,1085 L274,1085 L274,446 Q274,285 262,123 L268,123 Q321,280 365,387 L653,1085 L752,1085 L190,-244 Q132,-382 74,-437 Q16,-492 -68,-492"/> 
            <glyph glyph-name="z" unicode="&#x7A;" horiz-adv-x="604" d=" M389,0 L-4,0 L10,76 L485,1001 L221,1001 L240,1085 L604,1085 L588,1008 L111,84 L408,84"/> 
            <glyph glyph-name="{" unicode="&#x7B;" horiz-adv-x="838" d=" M838,1462 L819,1382 Q706,1380 654.5,1334 Q603,1288 582,1184 L506,831 Q483,720 423.5,656.5 Q364,593 256,571 L256,567 Q333,550 369.5,508 Q406,466 406,395 Q406,362 395,307 L328,-8 Q317,-63 317,-94 Q317,-169 352.5,-205.5 Q388,-242 469,-244 L469,-324 Q340,-320 281.5,-264 Q223,-208 223,-100 Q223,-55 236,-4 L303,319 Q311,351 311,389 Q311,535 125,535 L141,604 Q260,604 323.5,658.5 Q387,713 410,819 L489,1190 Q519,1335 600,1398.5 Q681,1462 838,1462"/> 
            <glyph glyph-name="|" unicode="&#x7C;" horiz-adv-x="659" d=" M225,-492 L133,-492 L567,1556 L659,1556"/> 
            <glyph glyph-name="}" unicode="&#x7D;" horiz-adv-x="653" d=" M-59,-324 L-41,-244 Q71,-242 123,-197 Q175,-152 197,-45 L272,307 Q295,419 354.5,482.5 Q414,546 522,567 L522,571 Q445,588 409,630 Q373,672 373,743 Q373,783 383,831 L451,1147 Q461,1197 461,1233 Q461,1307 425.5,1343.5 Q390,1380 309,1382 L309,1462 Q438,1459 496.5,1402.5 Q555,1346 555,1239 Q555,1195 543,1143 L475,819 Q467,787 467,750 Q467,604 653,604 L637,535 Q518,535 455,480.5 Q392,426 369,319 L289,-51 Q259,-197 177.5,-260.5 Q96,-324 -59,-324"/> 
            <glyph glyph-name="~" unicode="&#x7E;" horiz-adv-x="788" d=" M602,625 Q521,625 434,680 Q396,702 360,720.5 Q324,739 281,739 Q210,739 111,618 L111,717 Q197,823 299,823 Q348,823 394.5,803.5 Q441,784 490,755 Q563,711 621,711 Q664,711 703.5,740 Q743,769 788,827 L788,729 Q706,625 602,625"/> 
            <glyph glyph-name="¡" unicode="&#xA1;" horiz-adv-x="487" d=" M317,705 L379,705 L176,-391 L53,-391 M487,1018 Q487,958 460,916 Q433,874 385,874 Q358,874 343,895 Q328,916 328,950 Q328,1011 355.5,1049 Q383,1087 426,1087 Q451,1087 469,1069.5 Q487,1052 487,1018"/> 
            <glyph glyph-name="¢" unicode="&#xA2;" horiz-adv-x="786" d=" M301,-20 L348,199 Q193,243 193,487 Q193,683 245.5,869 Q298,1055 385.5,1169 Q473,1283 584,1309 L621,1483 L705,1483 L670,1313 Q740,1307 786,1282 L748,1196 Q695,1225 635,1225 Q542,1225 465.5,1125 Q389,1025 340,842.5 Q291,660 291,489 Q291,374 328.5,324 Q366,274 438,274 Q483,274 515.5,287.5 Q548,301 571,313 L594,229 Q568,213 522,201.5 Q476,190 430,188 L385,-20"/> 
            <glyph glyph-name="£" unicode="&#xA3;" horiz-adv-x="887" d=" M680,1483 Q740,1483 786.5,1465.5 Q833,1448 887,1401 L823,1323 Q760,1393 672,1393 Q591,1393 543.5,1327 Q496,1261 467,1120 L393,768 L616,768 L598,682 L375,682 L313,395 Q266,172 154,94 L610,94 L590,0 L8,0 L27,82 Q90,110 139.5,189.5 Q189,269 215,393 L276,682 L135,682 L154,768 L295,768 L377,1153 Q411,1311 483,1397 Q555,1483 680,1483"/> 
            <glyph glyph-name="¤" unicode="&#xA4;" horiz-adv-x="977" d=" M227,723 Q227,841 305,944 L184,1067 L236,1118 L356,995 Q460,1077 582,1077 Q704,1077 803,997 L924,1118 L977,1067 L856,946 Q936,847 936,723 Q936,599 856,500 L977,377 L926,326 L803,446 Q700,369 582,369 Q455,369 356,449 L238,326 L184,381 L305,500 Q227,603 227,723 M309,723 Q309,611 387.5,531 Q466,451 582,451 Q698,451 776,531.5 Q854,612 854,723 Q854,836 774.5,915.5 Q695,995 582,995 Q468,995 388.5,915.5 Q309,836 309,723"/> 
            <glyph glyph-name="¥" unicode="&#xA5;" horiz-adv-x="870" d=" M358,655 L322,1462 L414,1462 L438,717 L776,1462 L870,1462 L494,655 L674,655 L655,573 L455,573 L414,373 L612,373 L596,291 L397,291 L334,0 L238,0 L299,291 L104,291 L121,373 L315,373 L356,573 L164,573 L182,655"/> 
            <glyph glyph-name="¦" unicode="&#xA6;" horiz-adv-x="659" d=" M492,758 L399,758 L567,1556 L659,1556 M225,-492 L133,-492 L303,307 L395,307"/> 
            <glyph glyph-name="§" unicode="&#xA7;" horiz-adv-x="762" d=" M553,1556 Q680,1556 762,1493 L713,1419 Q637,1477 553,1477 Q463,1477 407.5,1424 Q352,1371 352,1292 Q352,1237 376,1197 Q400,1157 481,1100 Q570,1036 605.5,981.5 Q641,927 641,866 Q641,776 600.5,708 Q560,640 467,584 Q547,504 547,406 Q547,313 506,243.5 Q465,174 394.5,136 Q324,98 240,98 Q174,98 115.5,111.5 Q57,125 27,147 L27,248 Q64,217 123,198.5 Q182,180 240,180 Q327,180 389,239 Q451,298 451,391 Q451,427 441.5,455.5 Q432,484 413,507.5 Q394,531 338,573 Q227,654 189.5,710.5 Q152,767 152,831 Q152,1002 348,1092 Q300,1137 280,1183.5 Q260,1230 260,1284 Q260,1399 343.5,1477.5 Q427,1556 553,1556 M545,850 Q545,904 519.5,942 Q494,980 436,1020 L406,1042 Q244,980 244,844 Q244,785 286,737.5 Q328,690 418,635 Q545,718 545,850"/> 
            <glyph glyph-name="¨" unicode="&#xA8;" horiz-adv-x="854" d=" M453,1362 Q453,1411 475.5,1443 Q498,1475 535,1475 Q582,1475 582,1417 Q582,1364 560.5,1331 Q539,1298 502,1298 Q453,1298 453,1362 M725,1362 Q725,1411 748,1443 Q771,1475 807,1475 Q854,1475 854,1417 Q854,1364 832.5,1331 Q811,1298 774,1298 Q725,1298 725,1362"/> 
            <glyph glyph-name="©" unicode="&#xA9;" horiz-adv-x="1677" d=" M971,1092 Q829,1092 748.5,997.5 Q668,903 668,733 Q668,547 742.5,458 Q817,369 963,369 Q1047,369 1161,412 L1161,324 Q1059,279 952,279 Q765,279 664,395 Q563,511 563,725 Q563,933 674,1057.5 Q785,1182 971,1182 Q1090,1182 1198,1130 L1161,1047 Q1063,1092 971,1092 M174,731 Q174,931 274,1106 Q374,1281 549,1382 Q724,1483 926,1483 Q1125,1483 1299.5,1384 Q1474,1285 1575.5,1108.5 Q1677,932 1677,731 Q1677,532 1578.5,358 Q1480,184 1306,82 Q1132,-20 926,-20 Q719,-20 544,83.5 Q369,187 271.5,360 Q174,533 174,731 M266,731 Q266,549 358,396 Q450,243 601,157.5 Q752,72 926,72 Q1104,72 1255.5,160.5 Q1407,249 1496,401 Q1585,553 1585,731 Q1585,905 1499.5,1056 Q1414,1207 1260.5,1299 Q1107,1391 926,1391 Q748,1391 596,1302 Q444,1213 355,1061.5 Q266,910 266,731"/> 
            <glyph glyph-name="ª" unicode="&#xAA;" horiz-adv-x="592" d=" M426,817 L428,901 L422,901 Q384,848 346.5,826.5 Q309,805 264,805 Q212,805 177.5,843 Q143,881 143,944 Q143,1050 207,1114 Q271,1178 389,1190 L487,1200 L502,1270 Q510,1302 510,1335 Q510,1379 490,1394 Q470,1409 436,1409 Q390,1409 333,1381 L309,1370 L289,1436 Q320,1452 367,1465.5 Q414,1479 459,1479 Q592,1479 592,1360 Q592,1324 580,1272 L483,817 M225,950 Q225,874 293,874 Q348,874 394,927 Q440,980 459,1069 L473,1135 L414,1128 Q225,1109 225,950"/> 
            <glyph glyph-name="«" unicode="&#xAB;" horiz-adv-x="831" d=" M465,907 L522,866 L246,526 L371,176 L307,147 L127,514 L131,541 M776,907 L831,866 L557,526 L680,176 L618,147 L436,514 L440,541"/> 
            <glyph glyph-name="¬" unicode="&#xAC;" horiz-adv-x="737" d=" M737,776 L737,315 L664,315 L664,694 L104,694 L104,776"/> 
            <glyph glyph-name="­" unicode="&#xAD;" horiz-adv-x="485" d=" M94,502 L117,604 L485,604 L463,502"/> 
            <glyph glyph-name="®" unicode="&#xAE;" horiz-adv-x="1677" d=" M782,731 L895,731 Q986,731 1038,777.5 Q1090,824 1090,913 Q1090,1085 893,1085 L782,1085 M1194,918 Q1194,839 1155,778 Q1116,717 1044,684 L1282,291 L1161,291 L950,651 L782,651 L782,291 L682,291 L682,1171 L893,1171 Q1035,1171 1114.5,1109 Q1194,1047 1194,918 M174,731 Q174,931 274,1106 Q374,1281 549,1382 Q724,1483 926,1483 Q1125,1483 1299.5,1384 Q1474,1285 1575.5,1108.5 Q1677,932 1677,731 Q1677,532 1578.5,358 Q1480,184 1306,82 Q1132,-20 926,-20 Q719,-20 544,83.5 Q369,187 271.5,360 Q174,533 174,731 M266,731 Q266,549 358,396 Q450,243 601,157.5 Q752,72 926,72 Q1104,72 1255.5,160.5 Q1407,249 1496,401 Q1585,553 1585,731 Q1585,905 1499.5,1056 Q1414,1207 1260.5,1299 Q1107,1391 926,1391 Q748,1391 596,1302 Q444,1213 355,1061.5 Q266,910 266,731"/> 
            <glyph glyph-name="¯" unicode="&#xAF;" horiz-adv-x="1018" d=" M999,1556 L227,1556 L246,1638 L1018,1638"/> 
            <glyph glyph-name="°" unicode="&#xB0;" horiz-adv-x="838" d=" M240,1184 Q240,1316 326.5,1399.5 Q413,1483 539,1483 Q667,1483 752.5,1398 Q838,1313 838,1184 Q838,1055 752.5,970 Q667,885 539,885 Q409,885 324.5,968 Q240,1051 240,1184 M324,1184 Q324,1089 387,1025 Q450,961 539,961 Q626,961 690,1024.5 Q754,1088 754,1184 Q754,1280 691,1343.5 Q628,1407 539,1407 Q447,1407 385.5,1342.5 Q324,1278 324,1184"/> 
            <glyph glyph-name="±" unicode="&#xB1;" horiz-adv-x="674" d=" M41,74 L674,74 L674,0 L41,0 M393,688 L674,688 L674,614 L393,614 L393,264 L319,264 L319,614 L41,614 L41,688 L319,688 L319,1038 L393,1038"/> 
            <glyph glyph-name="²" unicode="&#xB2;" horiz-adv-x="600" d=" M471,586 L51,586 L59,664 L347,973 Q430,1059 471,1137 Q512,1215 512,1292 Q512,1348 483.5,1377.5 Q455,1407 410,1407 Q368,1407 334.5,1392.5 Q301,1378 248,1333 L209,1403 Q260,1447 309.5,1466 Q359,1485 420,1485 Q503,1485 551.5,1432.5 Q600,1380 600,1296 Q600,1226 575,1164.5 Q550,1103 506,1042 Q462,981 330,844 L162,666 L487,666"/> 
            <glyph glyph-name="³" unicode="&#xB3;" horiz-adv-x="600" d=" M600,1292 Q600,1203 554,1139.5 Q508,1076 434,1047 L432,1038 Q528,985 528,862 Q528,734 447,651.5 Q366,569 238,569 Q123,569 57,602 L57,690 Q97,666 136.5,655.5 Q176,645 238,645 Q326,645 383,705 Q440,765 440,854 Q440,928 400,968 Q360,1008 295,1008 L240,1008 L254,1081 L311,1081 Q397,1081 454.5,1139.5 Q512,1198 512,1286 Q512,1343 484.5,1374 Q457,1405 408,1405 Q358,1405 320,1388.5 Q282,1372 242,1343 L207,1413 Q248,1442 296.5,1463.5 Q345,1485 414,1485 Q499,1485 549.5,1432 Q600,1379 600,1292"/> 
            <glyph glyph-name="´" unicode="&#xB4;" horiz-adv-x="862" d=" M500,1241 L500,1257 Q654,1443 723,1569 L862,1569 L862,1552 Q820,1489 726,1396 Q632,1303 551,1241"/> 
            <glyph glyph-name="µ" unicode="&#xB5;" horiz-adv-x="827" d=" M395,1085 L233,330 Q215,252 215,195 Q215,72 309,72 Q518,72 606,489 L733,1085 L827,1085 L596,0 L522,0 L530,135 L526,135 Q425,-20 295,-20 Q206,-20 170,61 Q159,-8 149,-63.5 Q139,-119 57,-492 L-33,-492 L301,1085"/> 
            <glyph glyph-name="¶" unicode="&#xB6;" horiz-adv-x="950" d=" M565,-260 L477,-260 L842,1460 L715,1460 L350,-260 L262,-260 L434,553 Q412,541 362,541 Q302,541 263.5,602.5 Q225,664 225,766 Q225,973 291,1164.5 Q357,1356 462.5,1456 Q568,1556 696,1556 L950,1556"/> 
            <glyph glyph-name="·" unicode="&#xB7;" horiz-adv-x="346" d=" M186,686 Q186,747 214,788 Q242,829 289,829 Q320,829 333,805.5 Q346,782 346,754 Q346,694 319,655 Q292,616 248,616 Q223,616 204.5,634 Q186,652 186,686"/> 
            <glyph glyph-name="¸" unicode="&#xB8;" horiz-adv-x="330" d=" M330,-266 Q330,-366 261.5,-429 Q193,-492 82,-492 Q58,-492 22,-488.5 Q-14,-485 -27,-481 L-27,-403 Q-1,-414 76,-414 Q154,-414 198,-377.5 Q242,-341 242,-279 Q242,-234 207,-205 Q172,-176 90,-160 L193,0 L274,0 L195,-115 Q260,-133 295,-173.5 Q330,-214 330,-266"/> 
            <glyph glyph-name="¹" unicode="&#xB9;" horiz-adv-x="547" d=" M360,586 L274,586 L425,1278 L446,1364 Q401,1326 377.5,1308.5 Q354,1291 248,1219 L213,1288 L457,1462 L547,1462"/> 
            <glyph glyph-name="º" unicode="&#xBA;" horiz-adv-x="637" d=" M637,1282 Q637,1165 595,1046.5 Q553,928 488,866.5 Q423,805 342,805 Q259,805 211.5,855.5 Q164,906 164,999 Q164,1122 206,1241 Q248,1360 315,1419.5 Q382,1479 465,1479 Q543,1479 590,1430 Q637,1381 637,1282 M457,1409 Q399,1409 354.5,1357.5 Q310,1306 281,1204 Q252,1102 252,1004 Q252,935 272,902.5 Q292,870 342,870 Q400,870 446.5,920 Q493,970 521,1072 Q549,1174 549,1280 Q549,1346 527.5,1377.5 Q506,1409 457,1409"/> 
            <glyph glyph-name="»" unicode="&#xBB;" horiz-adv-x="754" d=" M416,147 L358,188 L635,528 L510,879 L573,907 L754,541 L750,514 M104,147 L49,188 L324,528 L201,879 L262,907 L444,541 L440,514"/> 
            <glyph glyph-name="¼" unicode="&#xBC;" horiz-adv-x="1315" d=" M1150,65746 L1060,65746 L1015,65537 L937,65537 L976,65746 L675,65746 L684,65811 L1120,66419 L1204,66419 L1077,65828 L1167,65828 M993,65828 L1054,66110 Q1079,66231 1093,66280 L1073,66247 L993,66125 L782,65828 M378,586 L292,586 L443,1278 L464,1364 Q419,1326 395.5,1308.5 Q372,1291 266,1219 L231,1288 L475,1462 L565,1462 M1315,1462 L193,0 L96,0 L1219,1462"/> 
            <glyph glyph-name="½" unicode="&#xBD;" horiz-adv-x="1315" d=" M1186,65537 L766,65537 L774,65615 L1062,65924 Q1145,66010 1186,66088 Q1227,66166 1227,66243 Q1227,66299 1198.5,66328.5 Q1170,66358 1125,66358 Q1083,66358 1049.5,66343.5 Q1016,66329 963,66284 L924,66354 Q975,66398 1024.5,66417 Q1074,66436 1135,66436 Q1218,66436 1266.5,66383.5 Q1315,66331 1315,66247 Q1315,66177 1290,66115.5 Q1265,66054 1221,65993 Q1177,65932 1045,65795 L877,65617 L1202,65617 M378,586 L292,586 L443,1278 L464,1364 Q419,1326 395.5,1308.5 Q372,1291 266,1219 L231,1288 L475,1462 L565,1462 M1303,1462 L181,0 L84,0 L1207,1462"/> 
            <glyph glyph-name="¾" unicode="&#xBE;" horiz-adv-x="1366" d=" M1193,65746 L1103,65746 L1058,65537 L980,65537 L1019,65746 L718,65746 L727,65811 L1163,66419 L1247,66419 L1120,65828 L1210,65828 M1036,65828 L1097,66110 Q1122,66231 1136,66280 L1116,66247 L1036,66125 L825,65828 M643,1292 Q643,1203 597,1139.5 Q551,1076 477,1047 L475,1038 Q571,985 571,862 Q571,734 490,651.5 Q409,569 281,569 Q166,569 100,602 L100,690 Q140,666 179.5,655.5 Q219,645 281,645 Q369,645 426,705 Q483,765 483,854 Q483,928 443,968 Q403,1008 338,1008 L283,1008 L297,1081 L354,1081 Q440,1081 497.5,1139.5 Q555,1198 555,1286 Q555,1343 527.5,1374 Q500,1405 451,1405 Q401,1405 363,1388.5 Q325,1372 285,1343 L250,1413 Q291,1442 339.5,1463.5 Q388,1485 457,1485 Q542,1485 592.5,1432 Q643,1379 643,1292 M1366,1462 L244,0 L147,0 L1270,1462"/> 
            <glyph glyph-name="¿" unicode="&#xBF;" horiz-adv-x="563" d=" M467,705 Q448,608 434,561.5 Q420,515 396.5,464 Q373,413 344,365 Q315,317 211,176 Q133,74 102.5,-7.5 Q72,-89 72,-176 Q72,-251 104,-286.5 Q136,-322 190,-322 Q230,-322 263,-311 Q296,-300 354,-258 L393,-336 Q286,-412 182,-412 Q79,-412 25,-352 Q-29,-292 -29,-186 Q-29,-115 -10.5,-53.5 Q8,8 41.5,67 Q75,126 174,254 Q262,367 298,428.5 Q334,490 359,557 Q384,624 397,705 M563,1018 Q563,957 535,915.5 Q507,874 461,874 Q430,874 416.5,898 Q403,922 403,950 Q403,1011 430,1049 Q457,1087 502,1087 Q527,1087 545,1069.5 Q563,1052 563,1018"/> 
            <glyph glyph-name="À" unicode="&#xC0;" horiz-adv-x="679" d=" M555,0 L555,530 L248,530 L27,0 L-78,0 L528,1468 L651,1468 L651,0 M555,629 L555,999 L561,1354 Q546,1302 509,1202 Q472,1102 283,629 M66176,1579 Q66128,1636 66074.5,1730 Q66021,1824 66004,1890 L66004,1907 L66131,1907 Q66157,1751 66215,1598 L66215,1579"/> 
            <glyph glyph-name="Á" unicode="&#xC1;" horiz-adv-x="882" d=" M555,0 L555,530 L248,530 L27,0 L-78,0 L528,1468 L651,1468 L651,0 M555,629 L555,999 L561,1354 Q546,1302 509,1202 Q472,1102 283,629 M520,1579 L520,1595 Q674,1781 743,1907 L882,1907 L882,1890 Q840,1827 746,1734 Q652,1641 571,1579"/> 
            <glyph glyph-name="Â" unicode="&#xC2;" horiz-adv-x="814" d=" M555,0 L555,530 L248,530 L27,0 L-78,0 L528,1468 L651,1468 L651,0 M555,629 L555,999 L561,1354 Q546,1302 509,1202 Q472,1102 283,629 M66299,1579 Q66240,1667 66174,1782 Q66042,1650 65955,1579 L65910,1579 L65914,1598 Q66074,1780 66153,1907 L66239,1907 Q66250,1856 66286.5,1756.5 Q66323,1657 66350,1598 L66346,1579"/> 
            <glyph glyph-name="Ã" unicode="&#xC3;" horiz-adv-x="896" d=" M555,0 L555,530 L248,530 L27,0 L-78,0 L528,1468 L651,1468 L651,0 M555,629 L555,999 L561,1354 Q546,1302 509,1202 Q472,1102 283,629 M66274,1589 Q66239,1589 66209.5,1609.5 Q66180,1630 66152.5,1654.5 Q66125,1679 66099.5,1699.5 Q66074,1720 66049,1720 Q66009,1720 65986.5,1685 Q65964,1650 65947,1587 L65877,1587 Q65908,1707 65952.5,1762 Q65997,1817 66057,1817 Q66093,1817 66122,1796.5 Q66151,1776 66176.5,1751.5 Q66202,1727 66226,1706.5 Q66250,1686 66274,1686 Q66304,1686 66321.5,1708.5 Q66339,1731 66362,1821 L66432,1821 Q66403,1687 66366.5,1638 Q66330,1589 66274,1589"/> 
            <glyph glyph-name="Ä" unicode="&#xC4;" horiz-adv-x="824" d=" M555,0 L555,530 L248,530 L27,0 L-78,0 L528,1468 L651,1468 L651,0 M555,629 L555,999 L561,1354 Q546,1302 509,1202 Q472,1102 283,629 M65959,1700 Q65959,1749 65981.5,1781 Q66004,1813 66041,1813 Q66088,1813 66088,1755 Q66088,1702 66066.5,1669 Q66045,1636 66008,1636 Q65959,1636 65959,1700 M66231,1700 Q66231,1749 66254,1781 Q66277,1813 66313,1813 Q66360,1813 66360,1755 Q66360,1702 66338.5,1669 Q66317,1636 66280,1636 Q66231,1636 66231,1700"/> 
            <glyph glyph-name="Å" unicode="&#xC5;" horiz-adv-x="781" d=" M555,0 L555,530 L248,530 L27,0 L-78,0 L528,1468 L651,1468 L651,0 M555,629 L555,999 L561,1354 Q546,1302 509,1202 Q472,1102 283,629 M66317,1598 Q66317,1510 66266,1458.5 Q66215,1407 66127,1407 Q66037,1407 65986.5,1458 Q65936,1509 65936,1594 Q65936,1679 65986.5,1729.5 Q66037,1780 66127,1780 Q66211,1780 66264,1729 Q66317,1678 66317,1598 M66246,1594 Q66246,1646 66214.5,1680.5 Q66183,1715 66127,1715 Q66071,1715 66039.5,1680.5 Q66008,1646 66008,1594 Q66008,1540 66036.5,1507.5 Q66065,1475 66127,1475 Q66180,1475 66213,1507.5 Q66246,1540 66246,1594"/> 
            <glyph glyph-name="Æ" unicode="&#xC6;" horiz-adv-x="1180" d=" M870,0 L393,0 L506,530 L270,530 L25,0 L-76,0 L608,1462 L1180,1462 L1159,1366 L782,1366 L666,813 L1022,813 L1001,719 L645,719 L512,94 L889,94 M313,629 L526,629 L682,1364 L653,1364"/> 
            <glyph glyph-name="Ç" unicode="&#xC7;" horiz-adv-x="946" d=" M739,1389 Q609,1389 493.5,1260 Q378,1131 305.5,904.5 Q233,678 233,467 Q233,263 284.5,167.5 Q336,72 457,72 Q533,72 629,111 L629,16 Q535,-20 442,-20 Q289,-20 212,95.5 Q135,211 135,449 Q135,705 220.5,953.5 Q306,1202 446.5,1343.5 Q587,1485 750,1485 Q872,1485 946,1423 L885,1337 Q825,1389 739,1389 M520,-266 Q520,-366 451.5,-429 Q383,-492 272,-492 Q248,-492 212,-488.5 Q176,-485 163,-481 L163,-403 Q189,-414 266,-414 Q344,-414 388,-377.5 Q432,-341 432,-279 Q432,-234 397,-205 Q362,-176 280,-160 L383,0 L464,0 L385,-115 Q450,-133 485,-173.5 Q520,-214 520,-266"/> 
            <glyph glyph-name="È" unicode="&#xC8;" horiz-adv-x="852" d=" M543,0 L66,0 L375,1462 L852,1462 L831,1366 L455,1366 L338,813 L692,813 L672,719 L317,719 L184,94 L561,94 M66182,1579 Q66134,1636 66080.5,1730 Q66027,1824 66010,1890 L66010,1907 L66137,1907 Q66163,1751 66221,1598 L66221,1579"/> 
            <glyph glyph-name="É" unicode="&#xC9;" horiz-adv-x="895" d=" M543,0 L66,0 L375,1462 L852,1462 L831,1366 L455,1366 L338,813 L692,813 L672,719 L317,719 L184,94 L561,94 M533,1579 L533,1595 Q687,1781 756,1907 L895,1907 L895,1890 Q853,1827 759,1734 Q665,1641 584,1579"/> 
            <glyph glyph-name="Ê" unicode="&#xCA;" horiz-adv-x="852" d=" M543,0 L66,0 L375,1462 L852,1462 L831,1366 L455,1366 L338,813 L692,813 L672,719 L317,719 L184,94 L561,94 M66330,1579 Q66271,1667 66205,1782 Q66073,1650 65986,1579 L65941,1579 L65945,1598 Q66105,1780 66184,1907 L66270,1907 Q66281,1856 66317.5,1756.5 Q66354,1657 66381,1598 L66377,1579"/> 
            <glyph glyph-name="Ë" unicode="&#xCB;" horiz-adv-x="852" d=" M543,0 L66,0 L375,1462 L852,1462 L831,1366 L455,1366 L338,813 L692,813 L672,719 L317,719 L184,94 L561,94 M65986,1700 Q65986,1749 66008.5,1781 Q66031,1813 66068,1813 Q66115,1813 66115,1755 Q66115,1702 66093.5,1669 Q66072,1636 66035,1636 Q65986,1636 65986,1700 M66258,1700 Q66258,1749 66281,1781 Q66304,1813 66340,1813 Q66387,1813 66387,1755 Q66387,1702 66365.5,1669 Q66344,1636 66307,1636 Q66258,1636 66258,1700"/> 
            <glyph glyph-name="Ì" unicode="&#xCC;" horiz-adv-x="473" d=" M66,0 L375,1462 L473,1462 L164,0 M65963,1579 Q65915,1636 65861.5,1730 Q65808,1824 65791,1890 L65791,1907 L65918,1907 Q65944,1751 66002,1598 L66002,1579"/> 
            <glyph glyph-name="Í" unicode="&#xCD;" horiz-adv-x="761" d=" M66,0 L375,1462 L473,1462 L164,0 M65935,1579 L65935,1595 Q66089,1781 66158,1907 L66297,1907 L66297,1890 Q66255,1827 66161,1734 Q66067,1641 65986,1579"/> 
            <glyph glyph-name="Î" unicode="&#xCE;" horiz-adv-x="654" d=" M66,0 L375,1462 L473,1462 L164,0 M66139,1579 Q66080,1667 66014,1782 Q65882,1650 65795,1579 L65750,1579 L65754,1598 Q65914,1780 65993,1907 L66079,1907 Q66090,1856 66126.5,1756.5 Q66163,1657 66190,1598 L66186,1579"/> 
            <glyph glyph-name="Ï" unicode="&#xCF;" horiz-adv-x="656" d=" M66,0 L375,1462 L473,1462 L164,0 M65791,1700 Q65791,1749 65813.5,1781 Q65836,1813 65873,1813 Q65920,1813 65920,1755 Q65920,1702 65898.5,1669 Q65877,1636 65840,1636 Q65791,1636 65791,1700 M66063,1700 Q66063,1749 66086,1781 Q66109,1813 66145,1813 Q66192,1813 66192,1755 Q66192,1702 66170.5,1669 Q66149,1636 66112,1636 Q66063,1636 66063,1700"/> 
            <glyph glyph-name="Ð" unicode="&#xD0;" horiz-adv-x="913" d=" M913,1047 Q913,747 830.5,502.5 Q748,258 600.5,129 Q453,0 256,0 L66,0 L215,715 L127,715 L145,807 L233,807 L375,1462 L592,1462 Q746,1462 829.5,1357 Q913,1252 913,1047 M276,94 Q427,94 546.5,210 Q666,326 737.5,555 Q809,784 809,1047 Q809,1366 578,1366 L455,1366 L334,807 L524,807 L506,715 L313,715 L184,94"/> 
            <glyph glyph-name="Ñ" unicode="&#xD1;" horiz-adv-x="1069" d=" M760,0 L639,0 L438,1311 L430,1311 Q416,1196 385,1049 L164,0 L66,0 L375,1462 L506,1462 L698,166 L705,166 L719,252 L754,440 L971,1462 L1069,1462 M868,1589 Q833,1589 803.5,1609.5 Q774,1630 746.5,1654.5 Q719,1679 693.5,1699.5 Q668,1720 643,1720 Q603,1720 580.5,1685 Q558,1650 541,1587 L471,1587 Q502,1707 546.5,1762 Q591,1817 651,1817 Q687,1817 716,1796.5 Q745,1776 770.5,1751.5 Q796,1727 820,1706.5 Q844,1686 868,1686 Q898,1686 915.5,1708.5 Q933,1731 956,1821 L1026,1821 Q997,1687 960.5,1638 Q924,1589 868,1589"/> 
            <glyph glyph-name="Ò" unicode="&#xD2;" horiz-adv-x="977" d=" M412,-20 Q135,-20 135,379 Q135,575 181,793 Q227,1011 305.5,1169.5 Q384,1328 484,1405.5 Q584,1483 702,1483 Q977,1483 977,1100 Q977,816 897,543 Q817,270 690,125 Q563,-20 412,-20 M233,377 Q233,74 420,74 Q512,74 593.5,154.5 Q675,235 738,384.5 Q801,534 840,734 Q879,934 879,1100 Q879,1389 692,1389 Q601,1389 520.5,1315.5 Q440,1242 376,1095 Q312,948 272.5,745 Q233,542 233,377 M761,1579 Q713,1636 659.5,1730 Q606,1824 589,1890 L589,1907 L716,1907 Q742,1751 800,1598 L800,1579"/> 
            <glyph glyph-name="Ó" unicode="&#xD3;" horiz-adv-x="1024" d=" M412,-20 Q135,-20 135,379 Q135,575 181,793 Q227,1011 305.5,1169.5 Q384,1328 484,1405.5 Q584,1483 702,1483 Q977,1483 977,1100 Q977,816 897,543 Q817,270 690,125 Q563,-20 412,-20 M233,377 Q233,74 420,74 Q512,74 593.5,154.5 Q675,235 738,384.5 Q801,534 840,734 Q879,934 879,1100 Q879,1389 692,1389 Q601,1389 520.5,1315.5 Q440,1242 376,1095 Q312,948 272.5,745 Q233,542 233,377 M662,1579 L662,1595 Q816,1781 885,1907 L1024,1907 L1024,1890 Q982,1827 888,1734 Q794,1641 713,1579"/> 
            <glyph glyph-name="Ô" unicode="&#xD4;" horiz-adv-x="977" d=" M412,-20 Q135,-20 135,379 Q135,575 181,793 Q227,1011 305.5,1169.5 Q384,1328 484,1405.5 Q584,1483 702,1483 Q977,1483 977,1100 Q977,816 897,543 Q817,270 690,125 Q563,-20 412,-20 M233,377 Q233,74 420,74 Q512,74 593.5,154.5 Q675,235 738,384.5 Q801,534 840,734 Q879,934 879,1100 Q879,1389 692,1389 Q601,1389 520.5,1315.5 Q440,1242 376,1095 Q312,948 272.5,745 Q233,542 233,377 M877,1579 Q818,1667 752,1782 Q620,1650 533,1579 L488,1579 L492,1598 Q652,1780 731,1907 L817,1907 Q828,1856 864.5,1756.5 Q901,1657 928,1598 L924,1579"/> 
            <glyph glyph-name="Õ" unicode="&#xD5;" horiz-adv-x="1005" d=" M412,-20 Q135,-20 135,379 Q135,575 181,793 Q227,1011 305.5,1169.5 Q384,1328 484,1405.5 Q584,1483 702,1483 Q977,1483 977,1100 Q977,816 897,543 Q817,270 690,125 Q563,-20 412,-20 M233,377 Q233,74 420,74 Q512,74 593.5,154.5 Q675,235 738,384.5 Q801,534 840,734 Q879,934 879,1100 Q879,1389 692,1389 Q601,1389 520.5,1315.5 Q440,1242 376,1095 Q312,948 272.5,745 Q233,542 233,377 M847,1589 Q812,1589 782.5,1609.5 Q753,1630 725.5,1654.5 Q698,1679 672.5,1699.5 Q647,1720 622,1720 Q582,1720 559.5,1685 Q537,1650 520,1587 L450,1587 Q481,1707 525.5,1762 Q570,1817 630,1817 Q666,1817 695,1796.5 Q724,1776 749.5,1751.5 Q775,1727 799,1706.5 Q823,1686 847,1686 Q877,1686 894.5,1708.5 Q912,1731 935,1821 L1005,1821 Q976,1687 939.5,1638 Q903,1589 847,1589"/> 
            <glyph glyph-name="Ö" unicode="&#xD6;" horiz-adv-x="977" d=" M412,-20 Q135,-20 135,379 Q135,575 181,793 Q227,1011 305.5,1169.5 Q384,1328 484,1405.5 Q584,1483 702,1483 Q977,1483 977,1100 Q977,816 897,543 Q817,270 690,125 Q563,-20 412,-20 M233,377 Q233,74 420,74 Q512,74 593.5,154.5 Q675,235 738,384.5 Q801,534 840,734 Q879,934 879,1100 Q879,1389 692,1389 Q601,1389 520.5,1315.5 Q440,1242 376,1095 Q312,948 272.5,745 Q233,542 233,377 M547,1700 Q547,1749 569.5,1781 Q592,1813 629,1813 Q676,1813 676,1755 Q676,1702 654.5,1669 Q633,1636 596,1636 Q547,1636 547,1700 M819,1700 Q819,1749 842,1781 Q865,1813 901,1813 Q948,1813 948,1755 Q948,1702 926.5,1669 Q905,1636 868,1636 Q819,1636 819,1700"/> 
            <glyph glyph-name="×" unicode="&#xD7;" horiz-adv-x="764" d=" M446,774 L711,1038 L764,987 L500,723 L758,463 L707,412 L446,672 L184,408 L133,461 L395,723 L135,983 L186,1034"/> 
            <glyph glyph-name="Ø" unicode="&#xD8;" horiz-adv-x="1096" d=" M412,-20 Q273,-20 203,82 L92,-94 L23,-53 L162,170 Q135,253 135,379 Q135,575 181,793 Q227,1011 305.5,1169.5 Q384,1328 484,1405.5 Q584,1483 702,1483 Q847,1483 915,1374 L1024,1546 L1096,1501 L956,1280 Q977,1200 977,1100 Q977,816 897,543 Q817,270 690,125 Q563,-20 412,-20 M233,377 Q233,316 238,291 L852,1272 Q807,1389 692,1389 Q601,1389 520.5,1315.5 Q440,1242 376,1095 Q312,948 272.5,745 Q233,542 233,377 M420,74 Q512,74 593.5,154.5 Q675,235 738,384.5 Q801,534 840,734 Q879,934 879,1100 L877,1153 L264,180 Q309,74 420,74"/> 
            <glyph glyph-name="Ù" unicode="&#xD9;" horiz-adv-x="1012" d=" M1012,1462 L797,459 Q742,206 645.5,93 Q549,-20 385,-20 Q260,-20 194.5,58 Q129,136 129,276 Q129,351 147,440 L367,1462 L465,1462 L244,428 Q225,348 225,276 Q225,74 397,74 Q511,74 583.5,164 Q656,254 698,457 L913,1462 M66253,1579 Q66205,1636 66151.5,1730 Q66098,1824 66081,1890 L66081,1907 L66208,1907 Q66234,1751 66292,1598 L66292,1579"/> 
            <glyph glyph-name="Ú" unicode="&#xDA;" horiz-adv-x="1012" d=" M1012,1462 L797,459 Q742,206 645.5,93 Q549,-20 385,-20 Q260,-20 194.5,58 Q129,136 129,276 Q129,351 147,440 L367,1462 L465,1462 L244,428 Q225,348 225,276 Q225,74 397,74 Q511,74 583.5,164 Q656,254 698,457 L913,1462 M602,1579 L602,1595 Q756,1781 825,1907 L964,1907 L964,1890 Q922,1827 828,1734 Q734,1641 653,1579"/> 
            <glyph glyph-name="Û" unicode="&#xDB;" horiz-adv-x="1012" d=" M1012,1462 L797,459 Q742,206 645.5,93 Q549,-20 385,-20 Q260,-20 194.5,58 Q129,136 129,276 Q129,351 147,440 L367,1462 L465,1462 L244,428 Q225,348 225,276 Q225,74 397,74 Q511,74 583.5,164 Q656,254 698,457 L913,1462 M871,1579 Q812,1667 746,1782 Q614,1650 527,1579 L482,1579 L486,1598 Q646,1780 725,1907 L811,1907 Q822,1856 858.5,1756.5 Q895,1657 922,1598 L918,1579"/> 
            <glyph glyph-name="Ü" unicode="&#xDC;" horiz-adv-x="1012" d=" M1012,1462 L797,459 Q742,206 645.5,93 Q549,-20 385,-20 Q260,-20 194.5,58 Q129,136 129,276 Q129,351 147,440 L367,1462 L465,1462 L244,428 Q225,348 225,276 Q225,74 397,74 Q511,74 583.5,164 Q656,254 698,457 L913,1462 M527,1700 Q527,1749 549.5,1781 Q572,1813 609,1813 Q656,1813 656,1755 Q656,1702 634.5,1669 Q613,1636 576,1636 Q527,1636 527,1700 M799,1700 Q799,1749 822,1781 Q845,1813 881,1813 Q928,1813 928,1755 Q928,1702 906.5,1669 Q885,1636 848,1636 Q799,1636 799,1700"/> 
            <glyph glyph-name="Ý" unicode="&#xDD;" horiz-adv-x="848" d=" M379,707 L745,1462 L848,1462 L401,571 L281,0 L180,0 L301,571 L227,1462 L328,1462 M66006,1579 L66006,1595 Q66160,1781 66229,1907 L66368,1907 L66368,1890 Q66326,1827 66232,1734 Q66138,1641 66057,1579"/> 
            <glyph glyph-name="Þ" unicode="&#xDE;" horiz-adv-x="801" d=" M473,1462 L416,1192 L481,1192 Q627,1192 714,1108 Q801,1024 801,885 Q801,722 739,593 Q677,464 571.5,399 Q466,334 330,334 L233,334 L164,0 L66,0 L375,1462 M254,428 L324,428 Q502,428 599,544.5 Q696,661 696,868 Q696,1096 473,1096 L395,1096"/> 
            <glyph glyph-name="ß" unicode="&#xDF;" horiz-adv-x="813" d=" M623,1567 Q712,1567 762.5,1509.5 Q813,1452 813,1358 Q813,1283 782,1212.5 Q751,1142 662,1038 Q591,954 568,903 Q545,852 545,803 Q545,749 569,694 Q593,639 621,578 Q647,521 667.5,457.5 Q688,394 688,319 Q688,169 606,74.5 Q524,-20 389,-20 Q338,-20 295,-7 Q252,6 229,25 L229,125 Q306,70 393,70 Q484,70 538,134 Q592,198 592,307 Q592,407 541,524 L510,592 Q449,713 449,793 Q449,865 476.5,927.5 Q504,990 563,1055 Q647,1147 682,1212 Q717,1277 717,1358 Q717,1417 687,1445 Q657,1473 606,1473 Q533,1473 485,1409 Q437,1345 410,1214 L125,-106 Q89,-270 58,-347.5 Q27,-425 -15,-458.5 Q-57,-492 -131,-492 Q-182,-492 -219,-481 L-219,-389 Q-183,-401 -135,-401 Q-88,-401 -62,-374.5 Q-36,-348 -14.5,-286 Q7,-224 33,-100 L311,1204 Q349,1385 424,1476 Q499,1567 623,1567"/> 
            <glyph glyph-name="à" unicode="&#xE0;" horiz-adv-x="860" d=" M319,-20 Q119,-20 119,262 Q119,471 181.5,676 Q244,881 343.5,993.5 Q443,1106 561,1106 Q695,1106 735,956 L741,956 L780,1085 L860,1085 L631,0 L555,0 L573,156 L569,156 Q455,-20 319,-20 M338,63 Q428,63 506,167 Q584,271 638,471 Q692,671 692,848 Q692,931 656.5,973.5 Q621,1016 557,1016 Q469,1016 394,914.5 Q319,813 268,617 Q217,421 217,248 Q217,157 243.5,110 Q270,63 338,63 M66122,1241 Q66074,1298 66020.5,1392 Q65967,1486 65950,1552 L65950,1569 L66077,1569 Q66103,1413 66161,1260 L66161,1241"/> 
            <glyph glyph-name="á" unicode="&#xE1;" horiz-adv-x="860" d=" M319,-20 Q119,-20 119,262 Q119,471 181.5,676 Q244,881 343.5,993.5 Q443,1106 561,1106 Q695,1106 735,956 L741,956 L780,1085 L860,1085 L631,0 L555,0 L573,156 L569,156 Q455,-20 319,-20 M338,63 Q428,63 506,167 Q584,271 638,471 Q692,671 692,848 Q692,931 656.5,973.5 Q621,1016 557,1016 Q469,1016 394,914.5 Q319,813 268,617 Q217,421 217,248 Q217,157 243.5,110 Q270,63 338,63 M724,1241 L724,1257 Q878,1443 947,1569 L1086,1569 L1086,1552 Q1044,1489 950,1396 Q856,1303 775,1241"/> 
            <glyph glyph-name="â" unicode="&#xE2;" horiz-adv-x="860" d=" M319,-20 Q119,-20 119,262 Q119,471 181.5,676 Q244,881 343.5,993.5 Q443,1106 561,1106 Q695,1106 735,956 L741,956 L780,1085 L860,1085 L631,0 L555,0 L573,156 L569,156 Q455,-20 319,-20 M338,63 Q428,63 506,167 Q584,271 638,471 Q692,671 692,848 Q692,931 656.5,973.5 Q621,1016 557,1016 Q469,1016 394,914.5 Q319,813 268,617 Q217,421 217,248 Q217,157 243.5,110 Q270,63 338,63 M999,1243 Q940,1331 874,1446 Q742,1314 655,1243 L610,1243 L614,1262 Q774,1444 853,1571 L939,1571 Q950,1520 986.5,1420.5 Q1023,1321 1050,1262 L1046,1243"/> 
            <glyph glyph-name="ã" unicode="&#xE3;" horiz-adv-x="871" d=" M319,-20 Q119,-20 119,262 Q119,471 181.5,676 Q244,881 343.5,993.5 Q443,1106 561,1106 Q695,1106 735,956 L741,956 L780,1085 L860,1085 L631,0 L555,0 L573,156 L569,156 Q455,-20 319,-20 M338,63 Q428,63 506,167 Q584,271 638,471 Q692,671 692,848 Q692,931 656.5,973.5 Q621,1016 557,1016 Q469,1016 394,914.5 Q319,813 268,617 Q217,421 217,248 Q217,157 243.5,110 Q270,63 338,63 M969,1251 Q934,1251 904.5,1271.5 Q875,1292 847.5,1316.5 Q820,1341 794.5,1361.5 Q769,1382 744,1382 Q704,1382 681.5,1347 Q659,1312 642,1249 L572,1249 Q603,1369 647.5,1424 Q692,1479 752,1479 Q788,1479 817,1458.5 Q846,1438 871.5,1413.5 Q897,1389 921,1368.5 Q945,1348 969,1348 Q999,1348 1016.5,1370.5 Q1034,1393 1057,1483 L1127,1483 Q1098,1349 1061.5,1300 Q1025,1251 969,1251"/> 
            <glyph glyph-name="ä" unicode="&#xE4;" horiz-adv-x="860" d=" M319,-20 Q119,-20 119,262 Q119,471 181.5,676 Q244,881 343.5,993.5 Q443,1106 561,1106 Q695,1106 735,956 L741,956 L780,1085 L860,1085 L631,0 L555,0 L573,156 L569,156 Q455,-20 319,-20 M338,63 Q428,63 506,167 Q584,271 638,471 Q692,671 692,848 Q692,931 656.5,973.5 Q621,1016 557,1016 Q469,1016 394,914.5 Q319,813 268,617 Q217,421 217,248 Q217,157 243.5,110 Q270,63 338,63 M669,1362 Q669,1411 691.5,1443 Q714,1475 751,1475 Q798,1475 798,1417 Q798,1364 776.5,1331 Q755,1298 718,1298 Q669,1298 669,1362 M941,1362 Q941,1411 964,1443 Q987,1475 1023,1475 Q1070,1475 1070,1417 Q1070,1364 1048.5,1331 Q1027,1298 990,1298 Q941,1298 941,1362"/> 
            <glyph glyph-name="å" unicode="&#xE5;" horiz-adv-x="860" d=" M319,-20 Q119,-20 119,262 Q119,471 181.5,676 Q244,881 343.5,993.5 Q443,1106 561,1106 Q695,1106 735,956 L741,956 L780,1085 L860,1085 L631,0 L555,0 L573,156 L569,156 Q455,-20 319,-20 M338,63 Q428,63 506,167 Q584,271 638,471 Q692,671 692,848 Q692,931 656.5,973.5 Q621,1016 557,1016 Q469,1016 394,914.5 Q319,813 268,617 Q217,421 217,248 Q217,157 243.5,110 Q270,63 338,63 M1029,1442 Q1029,1354 978,1302.5 Q927,1251 839,1251 Q749,1251 698.5,1302 Q648,1353 648,1438 Q648,1523 698.5,1573.5 Q749,1624 839,1624 Q923,1624 976,1573 Q1029,1522 1029,1442 M958,1438 Q958,1490 926.5,1524.5 Q895,1559 839,1559 Q783,1559 751.5,1524.5 Q720,1490 720,1438 Q720,1384 748.5,1351.5 Q777,1319 839,1319 Q892,1319 925,1351.5 Q958,1384 958,1438"/> 
            <glyph glyph-name="æ" unicode="&#xE6;" horiz-adv-x="1212" d=" M319,-20 Q119,-20 119,262 Q119,471 181.5,676 Q244,881 343.5,993.5 Q443,1106 561,1106 Q620,1106 657.5,1071.5 Q695,1037 715,952 L754,1085 L834,1085 L801,944 Q911,1106 1030,1106 Q1117,1106 1164.5,1055.5 Q1212,1005 1212,903 Q1212,780 1152.5,688 Q1093,596 982.5,551 Q872,506 719,506 L707,506 Q686,407 686,307 Q686,183 733,124.5 Q780,66 874,66 Q963,66 1059,121 L1059,35 Q1008,6 963,-7 Q918,-20 858,-20 Q770,-20 712,28 Q654,76 637,164 L604,0 L528,0 L551,156 Q463,-20 319,-20 M338,63 Q426,63 497.5,164 Q569,265 614,461 Q659,657 659,848 Q659,929 632.5,972.5 Q606,1016 557,1016 Q469,1016 394,914.5 Q319,813 268,617 Q217,421 217,248 Q217,157 243.5,110 Q270,63 338,63 M1014,1018 Q930,1018 854,909.5 Q778,801 721,588 Q916,588 1017,667.5 Q1118,747 1118,905 Q1118,958 1095.5,988 Q1073,1018 1014,1018"/> 
            <glyph glyph-name="ç" unicode="&#xE7;" horiz-adv-x="713" d=" M358,-20 Q242,-20 180.5,60 Q119,140 119,291 Q119,508 182,704.5 Q245,901 345,1003.5 Q445,1106 569,1106 Q655,1106 713,1073 L674,987 Q621,1016 561,1016 Q469,1016 392.5,919 Q316,822 266.5,642 Q217,462 217,289 Q217,66 377,66 Q440,66 520,106 L520,20 Q445,-20 358,-20 M428,-266 Q428,-366 359.5,-429 Q291,-492 180,-492 Q156,-492 120,-488.5 Q84,-485 71,-481 L71,-403 Q97,-414 174,-414 Q252,-414 296,-377.5 Q340,-341 340,-279 Q340,-234 305,-205 Q270,-176 188,-160 L291,0 L372,0 L293,-115 Q358,-133 393,-173.5 Q428,-214 428,-266"/> 
            <glyph glyph-name="è" unicode="&#xE8;" horiz-adv-x="743" d=" M373,-20 Q253,-20 186,63.5 Q119,147 119,297 Q119,511 179.5,698.5 Q240,886 343.5,996 Q447,1106 561,1106 Q648,1106 695.5,1055.5 Q743,1005 743,903 Q743,780 683.5,688 Q624,596 513.5,551 Q403,506 250,506 L238,506 Q217,407 217,307 Q217,66 401,66 Q448,66 489.5,79 Q531,92 584,123 L584,27 Q500,-20 373,-20 M545,1018 Q456,1018 376,900 Q296,782 250,588 Q649,588 649,905 Q649,958 626.5,988 Q604,1018 545,1018 M66108,1241 Q66060,1298 66006.5,1392 Q65953,1486 65936,1552 L65936,1569 L66063,1569 Q66089,1413 66147,1260 L66147,1241"/> 
            <glyph glyph-name="é" unicode="&#xE9;" horiz-adv-x="840" d=" M373,-20 Q253,-20 186,63.5 Q119,147 119,297 Q119,511 179.5,698.5 Q240,886 343.5,996 Q447,1106 561,1106 Q648,1106 695.5,1055.5 Q743,1005 743,903 Q743,780 683.5,688 Q624,596 513.5,551 Q403,506 250,506 L238,506 Q217,407 217,307 Q217,66 401,66 Q448,66 489.5,79 Q531,92 584,123 L584,27 Q500,-20 373,-20 M545,1018 Q456,1018 376,900 Q296,782 250,588 Q649,588 649,905 Q649,958 626.5,988 Q604,1018 545,1018 M734,1241 L734,1257 Q888,1443 957,1569 L1096,1569 L1096,1552 Q1054,1489 960,1396 Q866,1303 785,1241"/> 
            <glyph glyph-name="ê" unicode="&#xEA;" horiz-adv-x="796" d=" M373,-20 Q253,-20 186,63.5 Q119,147 119,297 Q119,511 179.5,698.5 Q240,886 343.5,996 Q447,1106 561,1106 Q648,1106 695.5,1055.5 Q743,1005 743,903 Q743,780 683.5,688 Q624,596 513.5,551 Q403,506 250,506 L238,506 Q217,407 217,307 Q217,66 401,66 Q448,66 489.5,79 Q531,92 584,123 L584,27 Q500,-20 373,-20 M545,1018 Q456,1018 376,900 Q296,782 250,588 Q649,588 649,905 Q649,958 626.5,988 Q604,1018 545,1018 M1001,1241 Q942,1329 876,1444 Q744,1312 657,1241 L612,1241 L616,1260 Q776,1442 855,1569 L941,1569 Q952,1518 988.5,1418.5 Q1025,1319 1052,1260 L1048,1241"/> 
            <glyph glyph-name="ë" unicode="&#xEB;" horiz-adv-x="814" d=" M373,-20 Q253,-20 186,63.5 Q119,147 119,297 Q119,511 179.5,698.5 Q240,886 343.5,996 Q447,1106 561,1106 Q648,1106 695.5,1055.5 Q743,1005 743,903 Q743,780 683.5,688 Q624,596 513.5,551 Q403,506 250,506 L238,506 Q217,407 217,307 Q217,66 401,66 Q448,66 489.5,79 Q531,92 584,123 L584,27 Q500,-20 373,-20 M545,1018 Q456,1018 376,900 Q296,782 250,588 Q649,588 649,905 Q649,958 626.5,988 Q604,1018 545,1018 M669,1362 Q669,1411 691.5,1443 Q714,1475 751,1475 Q798,1475 798,1417 Q798,1364 776.5,1331 Q755,1298 718,1298 Q669,1298 669,1362 M941,1362 Q941,1411 964,1443 Q987,1475 1023,1475 Q1070,1475 1070,1417 Q1070,1364 1048.5,1331 Q1027,1298 990,1298 Q941,1298 941,1362"/> 
            <glyph glyph-name="ì" unicode="&#xEC;" horiz-adv-x="441" d=" M162,0 L68,0 L299,1085 L393,1085 M65938,1241 Q65890,1298 65836.5,1392 Q65783,1486 65766,1552 L65766,1569 L65893,1569 Q65919,1413 65977,1260 L65977,1241"/> 
            <glyph glyph-name="í" unicode="&#xED;" horiz-adv-x="660" d=" M162,0 L68,0 L299,1085 L393,1085 M65834,1241 L65834,1257 Q65988,1443 66057,1569 L66196,1569 L66196,1552 Q66154,1489 66060,1396 Q65966,1303 65885,1241"/> 
            <glyph glyph-name="î" unicode="&#xEE;" horiz-adv-x="566" d=" M162,0 L68,0 L299,1085 L393,1085 M66051,1241 Q65992,1329 65926,1444 Q65794,1312 65707,1241 L65662,1241 L65666,1260 Q65826,1442 65905,1569 L65991,1569 Q66002,1518 66038.5,1418.5 Q66075,1319 66102,1260 L66098,1241"/> 
            <glyph glyph-name="ï" unicode="&#xEF;" horiz-adv-x="583" d=" M162,0 L68,0 L299,1085 L393,1085 M65718,1362 Q65718,1411 65740.5,1443 Q65763,1475 65800,1475 Q65847,1475 65847,1417 Q65847,1364 65825.5,1331 Q65804,1298 65767,1298 Q65718,1298 65718,1362 M65990,1362 Q65990,1411 66013,1443 Q66036,1475 66072,1475 Q66119,1475 66119,1417 Q66119,1364 66097.5,1331 Q66076,1298 66039,1298 Q65990,1298 65990,1362"/> 
            <glyph glyph-name="ð" unicode="&#xF0;" horiz-adv-x="821" d=" M756,883 Q756,633 700.5,422 Q645,211 545,95.5 Q445,-20 313,-20 Q204,-20 142,58 Q80,136 80,283 Q80,439 138.5,609 Q197,779 288,866.5 Q379,954 487,954 Q547,954 584.5,930 Q622,906 643.5,863.5 Q665,821 678,715 Q678,954 643,1094 Q608,1234 524,1329 L297,1194 L264,1253 L479,1378 Q433,1434 324,1513 L377,1573 Q474,1512 569,1419 L791,1548 L821,1495 L610,1370 Q689,1258 722.5,1141.5 Q756,1025 756,883 M317,66 Q402,66 471,137 Q540,208 584.5,349.5 Q629,491 629,637 Q629,747 593,805.5 Q557,864 489,864 Q403,864 334,791.5 Q265,719 221.5,574 Q178,429 178,291 Q178,175 212.5,120.5 Q247,66 317,66"/> 
            <glyph glyph-name="ñ" unicode="&#xF1;" horiz-adv-x="875" d=" M502,0 L674,815 Q684,855 684,899 Q684,1012 584,1012 Q479,1012 408,911 Q337,810 293,596 L166,0 L72,0 L301,1085 L381,1085 L356,934 L360,934 Q453,1106 602,1106 Q686,1106 732,1057.5 Q778,1009 778,918 Q778,862 764,797 L596,0 M973,1251 Q938,1251 908.5,1271.5 Q879,1292 851.5,1316.5 Q824,1341 798.5,1361.5 Q773,1382 748,1382 Q708,1382 685.5,1347 Q663,1312 646,1249 L576,1249 Q607,1369 651.5,1424 Q696,1479 756,1479 Q792,1479 821,1458.5 Q850,1438 875.5,1413.5 Q901,1389 925,1368.5 Q949,1348 973,1348 Q1003,1348 1020.5,1370.5 Q1038,1393 1061,1483 L1131,1483 Q1102,1349 1065.5,1300 Q1029,1251 973,1251"/> 
            <glyph glyph-name="ò" unicode="&#xF2;" horiz-adv-x="784" d=" M340,-20 Q233,-20 176,60 Q119,140 119,287 Q119,429 155,592 Q191,755 249,868.5 Q307,982 385,1044 Q463,1106 559,1106 Q665,1106 724.5,1023.5 Q784,941 784,791 Q784,652 747.5,492.5 Q711,333 652,218.5 Q593,104 514,42 Q435,-20 340,-20 M217,268 Q217,66 352,66 Q441,66 516,167.5 Q591,269 638.5,454 Q686,639 686,811 Q686,1016 547,1016 Q463,1016 389.5,918 Q316,820 266.5,632 Q217,444 217,268 M66128,1241 Q66080,1298 66026.5,1392 Q65973,1486 65956,1552 L65956,1569 L66083,1569 Q66109,1413 66167,1260 L66167,1241"/> 
            <glyph glyph-name="ó" unicode="&#xF3;" horiz-adv-x="851" d=" M340,-20 Q233,-20 176,60 Q119,140 119,287 Q119,429 155,592 Q191,755 249,868.5 Q307,982 385,1044 Q463,1106 559,1106 Q665,1106 724.5,1023.5 Q784,941 784,791 Q784,652 747.5,492.5 Q711,333 652,218.5 Q593,104 514,42 Q435,-20 340,-20 M217,268 Q217,66 352,66 Q441,66 516,167.5 Q591,269 638.5,454 Q686,639 686,811 Q686,1016 547,1016 Q463,1016 389.5,918 Q316,820 266.5,632 Q217,444 217,268 M745,1241 L745,1257 Q899,1443 968,1569 L1107,1569 L1107,1552 Q1065,1489 971,1396 Q877,1303 796,1241"/> 
            <glyph glyph-name="ô" unicode="&#xF4;" horiz-adv-x="796" d=" M340,-20 Q233,-20 176,60 Q119,140 119,287 Q119,429 155,592 Q191,755 249,868.5 Q307,982 385,1044 Q463,1106 559,1106 Q665,1106 724.5,1023.5 Q784,941 784,791 Q784,652 747.5,492.5 Q711,333 652,218.5 Q593,104 514,42 Q435,-20 340,-20 M217,268 Q217,66 352,66 Q441,66 516,167.5 Q591,269 638.5,454 Q686,639 686,811 Q686,1016 547,1016 Q463,1016 389.5,918 Q316,820 266.5,632 Q217,444 217,268 M1001,1241 Q942,1329 876,1444 Q744,1312 657,1241 L612,1241 L616,1260 Q776,1442 855,1569 L941,1569 Q952,1518 988.5,1418.5 Q1025,1319 1052,1260 L1048,1241"/> 
            <glyph glyph-name="õ" unicode="&#xF5;" horiz-adv-x="861" d=" M340,-20 Q233,-20 176,60 Q119,140 119,287 Q119,429 155,592 Q191,755 249,868.5 Q307,982 385,1044 Q463,1106 559,1106 Q665,1106 724.5,1023.5 Q784,941 784,791 Q784,652 747.5,492.5 Q711,333 652,218.5 Q593,104 514,42 Q435,-20 340,-20 M217,268 Q217,66 352,66 Q441,66 516,167.5 Q591,269 638.5,454 Q686,639 686,811 Q686,1016 547,1016 Q463,1016 389.5,918 Q316,820 266.5,632 Q217,444 217,268 M959,1251 Q924,1251 894.5,1271.5 Q865,1292 837.5,1316.5 Q810,1341 784.5,1361.5 Q759,1382 734,1382 Q694,1382 671.5,1347 Q649,1312 632,1249 L562,1249 Q593,1369 637.5,1424 Q682,1479 742,1479 Q778,1479 807,1458.5 Q836,1438 861.5,1413.5 Q887,1389 911,1368.5 Q935,1348 959,1348 Q989,1348 1006.5,1370.5 Q1024,1393 1047,1483 L1117,1483 Q1088,1349 1051.5,1300 Q1015,1251 959,1251"/> 
            <glyph glyph-name="ö" unicode="&#xF6;" horiz-adv-x="810" d=" M340,-20 Q233,-20 176,60 Q119,140 119,287 Q119,429 155,592 Q191,755 249,868.5 Q307,982 385,1044 Q463,1106 559,1106 Q665,1106 724.5,1023.5 Q784,941 784,791 Q784,652 747.5,492.5 Q711,333 652,218.5 Q593,104 514,42 Q435,-20 340,-20 M217,268 Q217,66 352,66 Q441,66 516,167.5 Q591,269 638.5,454 Q686,639 686,811 Q686,1016 547,1016 Q463,1016 389.5,918 Q316,820 266.5,632 Q217,444 217,268 M665,1362 Q665,1411 687.5,1443 Q710,1475 747,1475 Q794,1475 794,1417 Q794,1364 772.5,1331 Q751,1298 714,1298 Q665,1298 665,1362 M937,1362 Q937,1411 960,1443 Q983,1475 1019,1475 Q1066,1475 1066,1417 Q1066,1364 1044.5,1331 Q1023,1298 986,1298 Q937,1298 937,1362"/> 
            <glyph glyph-name="÷" unicode="&#xF7;" horiz-adv-x="764" d=" M764,760 L764,686 L131,686 L131,760 M377,408 Q377,504 446,504 Q475,504 495.5,482 Q516,460 516,408 Q516,357 495.5,334 Q475,311 446,311 Q416,311 396.5,334 Q377,357 377,408 M377,1036 Q377,1133 446,1133 Q475,1133 495.5,1111 Q516,1089 516,1036 Q516,985 495.5,962.5 Q475,940 446,940 Q377,940 377,1036"/> 
            <glyph glyph-name="ø" unicode="&#xF8;" horiz-adv-x="903" d=" M340,-20 Q241,-20 184,49 L74,-117 L10,-74 L141,125 Q119,189 119,287 Q119,429 155,592 Q191,755 249,868.5 Q307,982 385,1044 Q463,1106 559,1106 Q672,1106 731,1014 L836,1171 L903,1128 L768,926 Q784,868 784,791 Q784,652 747.5,492.5 Q711,333 652,218.5 Q593,104 514,42 Q435,-20 340,-20 M670,922 Q638,1016 547,1016 Q461,1016 386.5,913.5 Q312,811 263.5,619 Q215,427 215,240 M352,66 Q440,66 514,163.5 Q588,261 636.5,439 Q685,617 688,803 L240,133 Q273,66 352,66"/> 
            <glyph glyph-name="ù" unicode="&#xF9;" horiz-adv-x="827" d=" M395,1085 L233,330 Q215,252 215,195 Q215,72 309,72 Q518,72 606,489 L733,1085 L827,1085 L596,0 L522,0 L530,135 L526,135 Q425,-20 287,-20 Q123,-20 123,178 Q123,257 143,344 L301,1085 M66143,1241 Q66095,1298 66041.5,1392 Q65988,1486 65971,1552 L65971,1569 L66098,1569 Q66124,1413 66182,1260 L66182,1241"/> 
            <glyph glyph-name="ú" unicode="&#xFA;" horiz-adv-x="849" d=" M395,1085 L233,330 Q215,252 215,195 Q215,72 309,72 Q518,72 606,489 L733,1085 L827,1085 L596,0 L522,0 L530,135 L526,135 Q425,-20 287,-20 Q123,-20 123,178 Q123,257 143,344 L301,1085 M743,1241 L743,1257 Q897,1443 966,1569 L1105,1569 L1105,1552 Q1063,1489 969,1396 Q875,1303 794,1241"/> 
            <glyph glyph-name="û" unicode="&#xFB;" horiz-adv-x="827" d=" M395,1085 L233,330 Q215,252 215,195 Q215,72 309,72 Q518,72 606,489 L733,1085 L827,1085 L596,0 L522,0 L530,135 L526,135 Q425,-20 287,-20 Q123,-20 123,178 Q123,257 143,344 L301,1085 M1007,1241 Q948,1329 882,1444 Q750,1312 663,1241 L618,1241 L622,1260 Q782,1442 861,1569 L947,1569 Q958,1518 994.5,1418.5 Q1031,1319 1058,1260 L1054,1241"/> 
            <glyph glyph-name="ü" unicode="&#xFC;" horiz-adv-x="827" d=" M395,1085 L233,330 Q215,252 215,195 Q215,72 309,72 Q518,72 606,489 L733,1085 L827,1085 L596,0 L522,0 L530,135 L526,135 Q425,-20 287,-20 Q123,-20 123,178 Q123,257 143,344 L301,1085 M655,1362 Q655,1411 677.5,1443 Q700,1475 737,1475 Q784,1475 784,1417 Q784,1364 762.5,1331 Q741,1298 704,1298 Q655,1298 655,1362 M927,1362 Q927,1411 950,1443 Q973,1475 1009,1475 Q1056,1475 1056,1417 Q1056,1364 1034.5,1331 Q1013,1298 976,1298 Q927,1298 927,1362"/> 
            <glyph glyph-name="ý" unicode="&#xFD;" horiz-adv-x="765" d=" M-68,-492 Q-114,-492 -158,-473 L-158,-387 Q-121,-403 -70,-403 Q-16,-403 22.5,-359.5 Q61,-316 117,-186 L188,-16 L180,1085 L274,1085 L274,446 Q274,285 262,123 L268,123 Q321,280 365,387 L653,1085 L752,1085 L190,-244 Q132,-382 74,-437 Q16,-492 -68,-492 M659,1241 L659,1257 Q813,1443 882,1569 L1021,1569 L1021,1552 Q979,1489 885,1396 Q791,1303 710,1241"/> 
            <glyph glyph-name="þ" unicode="&#xFE;" horiz-adv-x="815" d=" M614,1106 Q815,1106 815,823 Q815,613 752,408.5 Q689,204 590,92 Q491,-20 373,-20 Q305,-20 258,21 Q211,62 199,131 L193,131 L68,-471 L-27,-471 L403,1556 L498,1556 L360,930 L365,930 Q479,1106 614,1106 M596,1022 Q502,1022 423,917.5 Q344,813 293,623.5 Q242,434 242,252 Q242,66 377,66 Q465,66 540.5,169.5 Q616,273 666.5,469 Q717,665 717,838 Q717,929 690.5,975.5 Q664,1022 596,1022"/> 
            <glyph glyph-name="ÿ" unicode="&#xFF;" horiz-adv-x="752" d=" M-68,-492 Q-114,-492 -158,-473 L-158,-387 Q-121,-403 -70,-403 Q-16,-403 22.5,-359.5 Q61,-316 117,-186 L188,-16 L180,1085 L274,1085 L274,446 Q274,285 262,123 L268,123 Q321,280 365,387 L653,1085 L752,1085 L190,-244 Q132,-382 74,-437 Q16,-492 -68,-492 M65838,1362 Q65838,1411 65860.5,1443 Q65883,1475 65920,1475 Q65967,1475 65967,1417 Q65967,1364 65945.5,1331 Q65924,1298 65887,1298 Q65838,1298 65838,1362 M66110,1362 Q66110,1411 66133,1443 Q66156,1475 66192,1475 Q66239,1475 66239,1417 Q66239,1364 66217.5,1331 Q66196,1298 66159,1298 Q66110,1298 66110,1362"/> 
            <glyph glyph-name="Ā" unicode="&#x100;" horiz-adv-x="878" d=" M555,0 L555,530 L248,530 L27,0 L-78,0 L528,1468 L651,1468 L651,0 M555,629 L555,999 L561,1354 Q546,1302 509,1202 Q472,1102 283,629 M65914,1671 L66414,1671 L66398,1589 L65898,1589"/> 
            <glyph glyph-name="ā" unicode="&#x101;" horiz-adv-x="876" d=" M319,-20 Q119,-20 119,262 Q119,471 181.5,676 Q244,881 343.5,993.5 Q443,1106 561,1106 Q695,1106 735,956 L741,956 L780,1085 L860,1085 L631,0 L555,0 L573,156 L569,156 Q455,-20 319,-20 M338,63 Q428,63 506,167 Q584,271 638,471 Q692,671 692,848 Q692,931 656.5,973.5 Q621,1016 557,1016 Q469,1016 394,914.5 Q319,813 268,617 Q217,421 217,248 Q217,157 243.5,110 Q270,63 338,63 M632,1333 L1132,1333 L1116,1251 L616,1251"/> 
            <glyph glyph-name="Ă" unicode="&#x102;" horiz-adv-x="833" d=" M555,0 L555,530 L248,530 L27,0 L-78,0 L528,1468 L651,1468 L651,0 M555,629 L555,999 L561,1354 Q546,1302 509,1202 Q472,1102 283,629 M66369,1817 Q66347,1704 66294.5,1641.5 Q66242,1579 66145,1579 Q66064,1579 66018.5,1626 Q65973,1673 65973,1759 Q65973,1797 65978,1817 L66045,1817 L66043,1802 L66043,1786 Q66043,1724 66074,1696.5 Q66105,1669 66152,1669 Q66206,1669 66240,1703.5 Q66274,1738 66299,1817"/> 
            <glyph glyph-name="ă" unicode="&#x103;" horiz-adv-x="860" d=" M319,-20 Q119,-20 119,262 Q119,471 181.5,676 Q244,881 343.5,993.5 Q443,1106 561,1106 Q695,1106 735,956 L741,956 L780,1085 L860,1085 L631,0 L555,0 L573,156 L569,156 Q455,-20 319,-20 M338,63 Q428,63 506,167 Q584,271 638,471 Q692,671 692,848 Q692,931 656.5,973.5 Q621,1016 557,1016 Q469,1016 394,914.5 Q319,813 268,617 Q217,421 217,248 Q217,157 243.5,110 Q270,63 338,63 M1085,1479 Q1063,1366 1010.5,1303.5 Q958,1241 861,1241 Q780,1241 734.5,1288 Q689,1335 689,1421 Q689,1459 694,1479 L761,1479 L759,1464 L759,1448 Q759,1386 790,1358.5 Q821,1331 868,1331 Q922,1331 956,1365.5 Q990,1400 1015,1479"/> 
            <glyph glyph-name="Ą" unicode="&#x104;" horiz-adv-x="651" d=" M555,0 L555,530 L248,530 L27,0 L-78,0 L528,1468 L651,1468 L651,0 M555,629 L555,999 L561,1354 Q546,1302 509,1202 Q472,1102 283,629 M465,-289 Q465,-369 536,-369 Q567,-369 604,-358 L588,-430 Q551,-446 495,-446 Q432,-446 399,-406.5 Q366,-367 366,-305 Q366,-228 409.5,-155.5 Q453,-83 563,0 L637,0 Q465,-151 465,-289"/> 
            <glyph glyph-name="ą" unicode="&#x105;" horiz-adv-x="860" d=" M319,-20 Q119,-20 119,262 Q119,471 181.5,676 Q244,881 343.5,993.5 Q443,1106 561,1106 Q695,1106 735,956 L741,956 L780,1085 L860,1085 L631,0 L555,0 L573,156 L569,156 Q455,-20 319,-20 M338,63 Q428,63 506,167 Q584,271 638,471 Q692,671 692,848 Q692,931 656.5,973.5 Q621,1016 557,1016 Q469,1016 394,914.5 Q319,813 268,617 Q217,421 217,248 Q217,157 243.5,110 Q270,63 338,63 M453,-289 Q453,-369 524,-369 Q555,-369 592,-358 L576,-430 Q539,-446 483,-446 Q420,-446 387,-406.5 Q354,-367 354,-305 Q354,-228 397.5,-155.5 Q441,-83 551,0 L625,0 Q453,-151 453,-289"/> 
            <glyph glyph-name="Ć" unicode="&#x106;" horiz-adv-x="948" d=" M739,1389 Q609,1389 493.5,1260 Q378,1131 305.5,904.5 Q233,678 233,467 Q233,263 284.5,167.5 Q336,72 457,72 Q533,72 629,111 L629,16 Q535,-20 442,-20 Q289,-20 212,95.5 Q135,211 135,449 Q135,705 220.5,953.5 Q306,1202 446.5,1343.5 Q587,1485 750,1485 Q872,1485 946,1423 L885,1337 Q825,1389 739,1389 M586,1579 L586,1595 Q740,1781 809,1907 L948,1907 L948,1890 Q906,1827 812,1734 Q718,1641 637,1579"/> 
            <glyph glyph-name="ć" unicode="&#x107;" horiz-adv-x="804" d=" M358,-20 Q242,-20 180.5,60 Q119,140 119,291 Q119,508 182,704.5 Q245,901 345,1003.5 Q445,1106 569,1106 Q655,1106 713,1073 L674,987 Q621,1016 561,1016 Q469,1016 392.5,919 Q316,822 266.5,642 Q217,462 217,289 Q217,66 377,66 Q440,66 520,106 L520,20 Q445,-20 358,-20 M698,1241 L698,1257 Q852,1443 921,1569 L1060,1569 L1060,1552 Q1018,1489 924,1396 Q830,1303 749,1241"/> 
            <glyph glyph-name="Ĉ" unicode="&#x108;" horiz-adv-x="946" d=" M739,1389 Q609,1389 493.5,1260 Q378,1131 305.5,904.5 Q233,678 233,467 Q233,263 284.5,167.5 Q336,72 457,72 Q533,72 629,111 L629,16 Q535,-20 442,-20 Q289,-20 212,95.5 Q135,211 135,449 Q135,705 220.5,953.5 Q306,1202 446.5,1343.5 Q587,1485 750,1485 Q872,1485 946,1423 L885,1337 Q825,1389 739,1389 M893,1579 Q834,1667 768,1782 Q636,1650 549,1579 L504,1579 L508,1598 Q668,1780 747,1907 L833,1907 Q844,1856 880.5,1756.5 Q917,1657 944,1598 L940,1579"/> 
            <glyph glyph-name="ĉ" unicode="&#x109;" horiz-adv-x="759" d=" M358,-20 Q242,-20 180.5,60 Q119,140 119,291 Q119,508 182,704.5 Q245,901 345,1003.5 Q445,1106 569,1106 Q655,1106 713,1073 L674,987 Q621,1016 561,1016 Q469,1016 392.5,919 Q316,822 266.5,642 Q217,462 217,289 Q217,66 377,66 Q440,66 520,106 L520,20 Q445,-20 358,-20 M964,1241 Q905,1329 839,1444 Q707,1312 620,1241 L575,1241 L579,1260 Q739,1442 818,1569 L904,1569 Q915,1518 951.5,1418.5 Q988,1319 1015,1260 L1011,1241"/> 
            <glyph glyph-name="Ċ" unicode="&#x10A;" horiz-adv-x="946" d=" M739,1389 Q609,1389 493.5,1260 Q378,1131 305.5,904.5 Q233,678 233,467 Q233,263 284.5,167.5 Q336,72 457,72 Q533,72 629,111 L629,16 Q535,-20 442,-20 Q289,-20 212,95.5 Q135,211 135,449 Q135,705 220.5,953.5 Q306,1202 446.5,1343.5 Q587,1485 750,1485 Q872,1485 946,1423 L885,1337 Q825,1389 739,1389 M727,1704 Q727,1755 750,1792 Q773,1829 809,1829 Q856,1829 856,1771 Q856,1714 834,1677 Q812,1640 776,1640 Q727,1640 727,1704"/> 
            <glyph glyph-name="ċ" unicode="&#x10B;" horiz-adv-x="713" d=" M358,-20 Q242,-20 180.5,60 Q119,140 119,291 Q119,508 182,704.5 Q245,901 345,1003.5 Q445,1106 569,1106 Q655,1106 713,1073 L674,987 Q621,1016 561,1016 Q469,1016 392.5,919 Q316,822 266.5,642 Q217,462 217,289 Q217,66 377,66 Q440,66 520,106 L520,20 Q445,-20 358,-20 M538,1356 Q538,1407 561,1444 Q584,1481 620,1481 Q667,1481 667,1423 Q667,1366 645,1329 Q623,1292 587,1292 Q538,1292 538,1356"/> 
            <glyph glyph-name="Č" unicode="&#x10C;" horiz-adv-x="1053" d=" M739,1389 Q609,1389 493.5,1260 Q378,1131 305.5,904.5 Q233,678 233,467 Q233,263 284.5,167.5 Q336,72 457,72 Q533,72 629,111 L629,16 Q535,-20 442,-20 Q289,-20 212,95.5 Q135,211 135,449 Q135,705 220.5,953.5 Q306,1202 446.5,1343.5 Q587,1485 750,1485 Q872,1485 946,1423 L885,1337 Q825,1389 739,1389 M663,1907 Q695,1859 788,1704 Q923,1839 1008,1907 L1053,1907 L1049,1888 Q994,1828 919,1732 Q844,1636 809,1579 L723,1579 Q711,1631 676.5,1727 Q642,1823 612,1888 L616,1907"/> 
            <glyph glyph-name="č" unicode="&#x10D;" horiz-adv-x="857" d=" M358,-20 Q242,-20 180.5,60 Q119,140 119,291 Q119,508 182,704.5 Q245,901 345,1003.5 Q445,1106 569,1106 Q655,1106 713,1073 L674,987 Q621,1016 561,1016 Q469,1016 392.5,919 Q316,822 266.5,642 Q217,462 217,289 Q217,66 377,66 Q440,66 520,106 L520,20 Q445,-20 358,-20 M723,1569 Q755,1521 848,1366 Q983,1501 1068,1569 L1113,1569 L1109,1550 Q1054,1490 979,1394 Q904,1298 869,1241 L783,1241 Q771,1293 736.5,1389 Q702,1485 672,1550 L676,1569"/> 
            <glyph glyph-name="Ď" unicode="&#x10E;" horiz-adv-x="928" d=" M913,1047 Q913,747 830.5,502.5 Q748,258 600.5,129 Q453,0 256,0 L66,0 L375,1462 L592,1462 Q746,1462 829.5,1357 Q913,1252 913,1047 M276,94 Q427,94 546.5,210 Q666,326 737.5,555 Q809,784 809,1047 Q809,1366 578,1366 L455,1366 L184,94 M538,1907 Q570,1859 663,1704 Q798,1839 883,1907 L928,1907 L924,1888 Q869,1828 794,1732 Q719,1636 684,1579 L598,1579 Q586,1631 551.5,1727 Q517,1823 487,1888 L491,1907"/> 
            <glyph glyph-name="ď" unicode="&#x10F;" horiz-adv-x="1245" d=" M319,-20 Q119,-20 119,262 Q119,471 181.5,676 Q244,881 343.5,993.5 Q443,1106 561,1106 Q630,1106 676.5,1064 Q723,1022 735,954 L741,954 L866,1556 L961,1556 L631,0 L555,0 L573,156 L569,156 Q455,-20 319,-20 M338,63 Q428,63 506,165.5 Q584,268 638,465.5 Q692,663 692,844 Q692,929 660,972.5 Q628,1016 557,1016 Q469,1016 394,914.5 Q319,813 268,617 Q217,421 217,248 Q217,157 243.5,110 Q270,63 338,63 M1024,1245 Q1106,1449 1138,1556 L1245,1556 L1245,1536 Q1222,1476 1163,1376.5 Q1104,1277 1064,1229 L1024,1229"/> 
            <glyph glyph-name="Đ" unicode="&#x110;" horiz-adv-x="913" d=" M913,1047 Q913,747 830.5,502.5 Q748,258 600.5,129 Q453,0 256,0 L66,0 L215,715 L127,715 L145,807 L233,807 L375,1462 L592,1462 Q746,1462 829.5,1357 Q913,1252 913,1047 M276,94 Q427,94 546.5,210 Q666,326 737.5,555 Q809,784 809,1047 Q809,1366 578,1366 L455,1366 L334,807 L524,807 L506,715 L313,715 L184,94"/> 
            <glyph glyph-name="đ" unicode="&#x111;" horiz-adv-x="1040" d=" M319,-20 Q119,-20 119,262 Q119,471 181.5,676 Q244,881 343.5,993.5 Q443,1106 561,1106 Q630,1106 676.5,1064 Q723,1022 735,954 L741,954 L807,1278 L594,1278 L612,1362 L825,1362 L866,1556 L961,1556 L918,1362 L1040,1362 L1022,1278 L901,1278 L631,0 L555,0 L573,156 L569,156 Q455,-20 319,-20 M338,63 Q428,63 506,165.5 Q584,268 638,465.5 Q692,663 692,844 Q692,929 660,972.5 Q628,1016 557,1016 Q469,1016 394,914.5 Q319,813 268,617 Q217,421 217,248 Q217,157 243.5,110 Q270,63 338,63"/> 
            <glyph glyph-name="Ē" unicode="&#x112;" horiz-adv-x="901" d=" M543,0 L66,0 L375,1462 L852,1462 L831,1366 L455,1366 L338,813 L692,813 L672,719 L317,719 L184,94 L561,94 M401,1671 L901,1671 L885,1589 L385,1589"/> 
            <glyph glyph-name="ē" unicode="&#x113;" horiz-adv-x="857" d=" M373,-20 Q253,-20 186,63.5 Q119,147 119,297 Q119,511 179.5,698.5 Q240,886 343.5,996 Q447,1106 561,1106 Q648,1106 695.5,1055.5 Q743,1005 743,903 Q743,780 683.5,688 Q624,596 513.5,551 Q403,506 250,506 L238,506 Q217,407 217,307 Q217,66 401,66 Q448,66 489.5,79 Q531,92 584,123 L584,27 Q500,-20 373,-20 M545,1018 Q456,1018 376,900 Q296,782 250,588 Q649,588 649,905 Q649,958 626.5,988 Q604,1018 545,1018 M613,1333 L1113,1333 L1097,1251 L597,1251"/> 
            <glyph glyph-name="Ĕ" unicode="&#x114;" horiz-adv-x="861" d=" M543,0 L66,0 L375,1462 L852,1462 L831,1366 L455,1366 L338,813 L692,813 L672,719 L317,719 L184,94 L561,94 M66397,1817 Q66375,1704 66322.5,1641.5 Q66270,1579 66173,1579 Q66092,1579 66046.5,1626 Q66001,1673 66001,1759 Q66001,1797 66006,1817 L66073,1817 L66071,1802 L66071,1786 Q66071,1724 66102,1696.5 Q66133,1669 66180,1669 Q66234,1669 66268,1703.5 Q66302,1738 66327,1817"/> 
            <glyph glyph-name="ĕ" unicode="&#x115;" horiz-adv-x="839" d=" M373,-20 Q253,-20 186,63.5 Q119,147 119,297 Q119,511 179.5,698.5 Q240,886 343.5,996 Q447,1106 561,1106 Q648,1106 695.5,1055.5 Q743,1005 743,903 Q743,780 683.5,688 Q624,596 513.5,551 Q403,506 250,506 L238,506 Q217,407 217,307 Q217,66 401,66 Q448,66 489.5,79 Q531,92 584,123 L584,27 Q500,-20 373,-20 M545,1018 Q456,1018 376,900 Q296,782 250,588 Q649,588 649,905 Q649,958 626.5,988 Q604,1018 545,1018 M1095,1479 Q1073,1366 1020.5,1303.5 Q968,1241 871,1241 Q790,1241 744.5,1288 Q699,1335 699,1421 Q699,1459 704,1479 L771,1479 L769,1464 L769,1448 Q769,1386 800,1358.5 Q831,1331 878,1331 Q932,1331 966,1365.5 Q1000,1400 1025,1479"/> 
            <glyph glyph-name="Ė" unicode="&#x116;" horiz-adv-x="852" d=" M543,0 L66,0 L375,1462 L852,1462 L831,1366 L455,1366 L338,813 L692,813 L672,719 L317,719 L184,94 L561,94 M604,1665 Q604,1716 627,1753 Q650,1790 686,1790 Q733,1790 733,1732 Q733,1675 711,1638 Q689,1601 653,1601 Q604,1601 604,1665"/> 
            <glyph glyph-name="ė" unicode="&#x117;" horiz-adv-x="743" d=" M373,-20 Q253,-20 186,63.5 Q119,147 119,297 Q119,511 179.5,698.5 Q240,886 343.5,996 Q447,1106 561,1106 Q648,1106 695.5,1055.5 Q743,1005 743,903 Q743,780 683.5,688 Q624,596 513.5,551 Q403,506 250,506 L238,506 Q217,407 217,307 Q217,66 401,66 Q448,66 489.5,79 Q531,92 584,123 L584,27 Q500,-20 373,-20 M545,1018 Q456,1018 376,900 Q296,782 250,588 Q649,588 649,905 Q649,958 626.5,988 Q604,1018 545,1018 M577,1356 Q577,1407 600,1444 Q623,1481 659,1481 Q706,1481 706,1423 Q706,1366 684,1329 Q662,1292 626,1292 Q577,1292 577,1356"/> 
            <glyph glyph-name="Ę" unicode="&#x118;" horiz-adv-x="852" d=" M543,0 L66,0 L375,1462 L852,1462 L831,1366 L455,1366 L338,813 L692,813 L672,719 L317,719 L184,94 L561,94 M299,-289 Q299,-369 370,-369 Q401,-369 438,-358 L422,-430 Q385,-446 329,-446 Q266,-446 233,-406.5 Q200,-367 200,-305 Q200,-228 243.5,-155.5 Q287,-83 397,0 L471,0 Q299,-151 299,-289"/> 
            <glyph glyph-name="ę" unicode="&#x119;" horiz-adv-x="743" d=" M373,-20 Q253,-20 186,63.5 Q119,147 119,297 Q119,511 179.5,698.5 Q240,886 343.5,996 Q447,1106 561,1106 Q648,1106 695.5,1055.5 Q743,1005 743,903 Q743,780 683.5,688 Q624,596 513.5,551 Q403,506 250,506 L238,506 Q217,407 217,307 Q217,66 401,66 Q448,66 489.5,79 Q531,92 584,123 L584,27 Q500,-20 373,-20 M545,1018 Q456,1018 376,900 Q296,782 250,588 Q649,588 649,905 Q649,958 626.5,988 Q604,1018 545,1018 M412,-254 Q412,-334 483,-334 Q514,-334 551,-323 L535,-395 Q498,-411 442,-411 Q379,-411 346,-371.5 Q313,-332 313,-270 Q313,-193 356.5,-120.5 Q400,-48 510,35 L584,35 Q412,-116 412,-254"/> 
            <glyph glyph-name="Ě" unicode="&#x11A;" horiz-adv-x="911" d=" M543,0 L66,0 L375,1462 L852,1462 L831,1366 L455,1366 L338,813 L692,813 L672,719 L317,719 L184,94 L561,94 M66057,1907 Q66089,1859 66182,1704 Q66317,1839 66402,1907 L66447,1907 L66443,1888 Q66388,1828 66313,1732 Q66238,1636 66203,1579 L66117,1579 Q66105,1631 66070.5,1727 Q66036,1823 66006,1888 L66010,1907"/> 
            <glyph glyph-name="ě" unicode="&#x11B;" horiz-adv-x="870" d=" M373,-20 Q253,-20 186,63.5 Q119,147 119,297 Q119,511 179.5,698.5 Q240,886 343.5,996 Q447,1106 561,1106 Q648,1106 695.5,1055.5 Q743,1005 743,903 Q743,780 683.5,688 Q624,596 513.5,551 Q403,506 250,506 L238,506 Q217,407 217,307 Q217,66 401,66 Q448,66 489.5,79 Q531,92 584,123 L584,27 Q500,-20 373,-20 M545,1018 Q456,1018 376,900 Q296,782 250,588 Q649,588 649,905 Q649,958 626.5,988 Q604,1018 545,1018 M736,1569 Q768,1521 861,1366 Q996,1501 1081,1569 L1126,1569 L1122,1550 Q1067,1490 992,1394 Q917,1298 882,1241 L796,1241 Q784,1293 749.5,1389 Q715,1485 685,1550 L689,1569"/> 
            <glyph glyph-name="Ĝ" unicode="&#x11C;" horiz-adv-x="1065" d=" M645,741 L940,741 L788,33 Q651,-20 500,-20 Q135,-20 135,438 Q135,622 186,827 Q237,1032 324.5,1184 Q412,1336 523.5,1410.5 Q635,1485 764,1485 Q934,1485 1065,1391 L1001,1303 Q933,1353 876.5,1371 Q820,1389 758,1389 Q647,1389 553.5,1317 Q460,1245 388.5,1108.5 Q317,972 275,787.5 Q233,603 233,432 Q233,241 301.5,156.5 Q370,72 510,72 Q610,72 702,100 L819,647 L625,647 M944,1579 Q885,1667 819,1782 Q687,1650 600,1579 L555,1579 L559,1598 Q719,1780 798,1907 L884,1907 Q895,1856 931.5,1756.5 Q968,1657 995,1598 L991,1579"/> 
            <glyph glyph-name="ĝ" unicode="&#x11D;" horiz-adv-x="821" d=" M821,1085 L807,1018 L670,1001 Q700,944 700,858 Q700,749 655.5,633.5 Q611,518 537.5,452.5 Q464,387 375,387 L350,387 L328,389 Q203,302 203,231 Q203,208 211,193.5 Q219,179 236,169.5 Q253,160 354,129 Q480,90 531,30.5 Q582,-29 582,-129 Q582,-290 476,-391 Q370,-492 203,-492 Q71,-492 -1.5,-425 Q-74,-358 -74,-236 Q-74,-131 -9,-44.5 Q56,42 176,96 Q113,138 113,209 Q113,261 145,310 Q177,359 260,418 Q174,490 174,627 Q174,750 223.5,867.5 Q273,985 348.5,1045.5 Q424,1106 516,1106 Q580,1106 614,1085 M16,-229 Q16,-327 65.5,-370.5 Q115,-414 211,-414 Q333,-414 413.5,-340 Q494,-266 494,-147 Q494,-83 453.5,-36 Q413,11 330,35 L240,59 Q144,27 80,-54 Q16,-135 16,-229 M266,612 Q266,538 294.5,499.5 Q323,461 377,461 Q439,461 489.5,513.5 Q540,566 573,671.5 Q606,777 606,874 Q606,1028 498,1028 Q437,1028 385.5,972 Q334,916 300,807.5 Q266,699 266,612 M970,1241 Q911,1329 845,1444 Q713,1312 626,1241 L581,1241 L585,1260 Q745,1442 824,1569 L910,1569 Q921,1518 957.5,1418.5 Q994,1319 1021,1260 L1017,1241"/> 
            <glyph glyph-name="Ğ" unicode="&#x11E;" horiz-adv-x="1065" d=" M645,741 L940,741 L788,33 Q651,-20 500,-20 Q135,-20 135,438 Q135,622 186,827 Q237,1032 324.5,1184 Q412,1336 523.5,1410.5 Q635,1485 764,1485 Q934,1485 1065,1391 L1001,1303 Q933,1353 876.5,1371 Q820,1389 758,1389 Q647,1389 553.5,1317 Q460,1245 388.5,1108.5 Q317,972 275,787.5 Q233,603 233,432 Q233,241 301.5,156.5 Q370,72 510,72 Q610,72 702,100 L819,647 L625,647 M1020,1817 Q998,1704 945.5,1641.5 Q893,1579 796,1579 Q715,1579 669.5,1626 Q624,1673 624,1759 Q624,1797 629,1817 L696,1817 L694,1802 L694,1786 Q694,1724 725,1696.5 Q756,1669 803,1669 Q857,1669 891,1703.5 Q925,1738 950,1817"/> 
            <glyph glyph-name="ğ" unicode="&#x11F;" horiz-adv-x="821" d=" M821,1085 L807,1018 L670,1001 Q700,944 700,858 Q700,749 655.5,633.5 Q611,518 537.5,452.5 Q464,387 375,387 L350,387 L328,389 Q203,302 203,231 Q203,208 211,193.5 Q219,179 236,169.5 Q253,160 354,129 Q480,90 531,30.5 Q582,-29 582,-129 Q582,-290 476,-391 Q370,-492 203,-492 Q71,-492 -1.5,-425 Q-74,-358 -74,-236 Q-74,-131 -9,-44.5 Q56,42 176,96 Q113,138 113,209 Q113,261 145,310 Q177,359 260,418 Q174,490 174,627 Q174,750 223.5,867.5 Q273,985 348.5,1045.5 Q424,1106 516,1106 Q580,1106 614,1085 M16,-229 Q16,-327 65.5,-370.5 Q115,-414 211,-414 Q333,-414 413.5,-340 Q494,-266 494,-147 Q494,-83 453.5,-36 Q413,11 330,35 L240,59 Q144,27 80,-54 Q16,-135 16,-229 M266,612 Q266,538 294.5,499.5 Q323,461 377,461 Q439,461 489.5,513.5 Q540,566 573,671.5 Q606,777 606,874 Q606,1028 498,1028 Q437,1028 385.5,972 Q334,916 300,807.5 Q266,699 266,612 M1038,1479 Q1016,1366 963.5,1303.5 Q911,1241 814,1241 Q733,1241 687.5,1288 Q642,1335 642,1421 Q642,1459 647,1479 L714,1479 L712,1464 L712,1448 Q712,1386 743,1358.5 Q774,1331 821,1331 Q875,1331 909,1365.5 Q943,1400 968,1479"/> 
            <glyph glyph-name="Ġ" unicode="&#x120;" horiz-adv-x="1065" d=" M645,741 L940,741 L788,33 Q651,-20 500,-20 Q135,-20 135,438 Q135,622 186,827 Q237,1032 324.5,1184 Q412,1336 523.5,1410.5 Q635,1485 764,1485 Q934,1485 1065,1391 L1001,1303 Q933,1353 876.5,1371 Q820,1389 758,1389 Q647,1389 553.5,1317 Q460,1245 388.5,1108.5 Q317,972 275,787.5 Q233,603 233,432 Q233,241 301.5,156.5 Q370,72 510,72 Q610,72 702,100 L819,647 L625,647 M770,1694 Q770,1745 793,1782 Q816,1819 852,1819 Q899,1819 899,1761 Q899,1704 877,1667 Q855,1630 819,1630 Q770,1630 770,1694"/> 
            <glyph glyph-name="ġ" unicode="&#x121;" horiz-adv-x="821" d=" M821,1085 L807,1018 L670,1001 Q700,944 700,858 Q700,749 655.5,633.5 Q611,518 537.5,452.5 Q464,387 375,387 L350,387 L328,389 Q203,302 203,231 Q203,208 211,193.5 Q219,179 236,169.5 Q253,160 354,129 Q480,90 531,30.5 Q582,-29 582,-129 Q582,-290 476,-391 Q370,-492 203,-492 Q71,-492 -1.5,-425 Q-74,-358 -74,-236 Q-74,-131 -9,-44.5 Q56,42 176,96 Q113,138 113,209 Q113,261 145,310 Q177,359 260,418 Q174,490 174,627 Q174,750 223.5,867.5 Q273,985 348.5,1045.5 Q424,1106 516,1106 Q580,1106 614,1085 M16,-229 Q16,-327 65.5,-370.5 Q115,-414 211,-414 Q333,-414 413.5,-340 Q494,-266 494,-147 Q494,-83 453.5,-36 Q413,11 330,35 L240,59 Q144,27 80,-54 Q16,-135 16,-229 M266,612 Q266,538 294.5,499.5 Q323,461 377,461 Q439,461 489.5,513.5 Q540,566 573,671.5 Q606,777 606,874 Q606,1028 498,1028 Q437,1028 385.5,972 Q334,916 300,807.5 Q266,699 266,612 M522,1356 Q522,1407 545,1444 Q568,1481 604,1481 Q651,1481 651,1423 Q651,1366 629,1329 Q607,1292 571,1292 Q522,1292 522,1356"/> 
            <glyph glyph-name="Ģ" unicode="&#x122;" horiz-adv-x="1065" d=" M645,741 L940,741 L788,33 Q651,-20 500,-20 Q135,-20 135,438 Q135,622 186,827 Q237,1032 324.5,1184 Q412,1336 523.5,1410.5 Q635,1485 764,1485 Q934,1485 1065,1391 L1001,1303 Q933,1353 876.5,1371 Q820,1389 758,1389 Q647,1389 553.5,1317 Q460,1245 388.5,1108.5 Q317,972 275,787.5 Q233,603 233,432 Q233,241 301.5,156.5 Q370,72 510,72 Q610,72 702,100 L819,647 L625,647 M290,-422 Q326,-374 374.5,-284 Q423,-194 446,-125 L551,-125 L551,-147 Q541,-190 470,-295.5 Q399,-401 333,-453 L290,-453"/> 
            <glyph glyph-name="ģ" unicode="&#x123;" horiz-adv-x="821" d=" M821,1085 L807,1018 L670,1001 Q700,944 700,858 Q700,749 655.5,633.5 Q611,518 537.5,452.5 Q464,387 375,387 L350,387 L328,389 Q203,302 203,231 Q203,208 211,193.5 Q219,179 236,169.5 Q253,160 354,129 Q480,90 531,30.5 Q582,-29 582,-129 Q582,-290 476,-391 Q370,-492 203,-492 Q71,-492 -1.5,-425 Q-74,-358 -74,-236 Q-74,-131 -9,-44.5 Q56,42 176,96 Q113,138 113,209 Q113,261 145,310 Q177,359 260,418 Q174,490 174,627 Q174,750 223.5,867.5 Q273,985 348.5,1045.5 Q424,1106 516,1106 Q580,1106 614,1085 M16,-229 Q16,-327 65.5,-370.5 Q115,-414 211,-414 Q333,-414 413.5,-340 Q494,-266 494,-147 Q494,-83 453.5,-36 Q413,11 330,35 L240,59 Q144,27 80,-54 Q16,-135 16,-229 M266,612 Q266,538 294.5,499.5 Q323,461 377,461 Q439,461 489.5,513.5 Q540,566 573,671.5 Q606,777 606,874 Q606,1028 498,1028 Q437,1028 385.5,972 Q334,916 300,807.5 Q266,699 266,612 M770,1550 Q740,1515 686.5,1410.5 Q633,1306 611,1241 L512,1241 L512,1262 Q536,1326 604,1425 Q672,1524 727,1569 L770,1569"/> 
            <glyph glyph-name="Ĥ" unicode="&#x124;" horiz-adv-x="1012" d=" M702,0 L604,0 L756,717 L315,717 L164,0 L66,0 L375,1462 L473,1462 L336,815 L776,815 L913,1462 L1012,1462 M877,1579 Q818,1667 752,1782 Q620,1650 533,1579 L488,1579 L492,1598 Q652,1780 731,1907 L817,1907 Q828,1856 864.5,1756.5 Q901,1657 928,1598 L924,1579"/> 
            <glyph glyph-name="ĥ" unicode="&#x125;" horiz-adv-x="870" d=" M504,0 L676,815 Q686,855 686,899 Q686,1012 586,1012 Q481,1012 410,911 Q339,810 295,596 L168,0 L74,0 L403,1556 L498,1556 L399,1102 L358,934 L362,934 Q455,1106 604,1106 Q688,1106 734,1057.5 Q780,1009 780,918 Q780,862 766,797 L598,0 M819,1634 Q760,1722 694,1837 Q562,1705 475,1634 L430,1634 L434,1653 Q594,1835 673,1962 L759,1962 Q770,1911 806.5,1811.5 Q843,1712 870,1653 L866,1634"/> 
            <glyph glyph-name="Ħ" unicode="&#x126;" horiz-adv-x="1096" d=" M702,0 L602,0 L754,717 L315,717 L164,0 L66,0 L295,1087 L152,1087 L172,1184 L315,1184 L375,1462 L473,1462 L414,1184 L852,1184 L911,1462 L1012,1462 L952,1184 L1096,1184 L1075,1087 L932,1087 M774,815 L831,1087 L393,1087 L336,815"/> 
            <glyph glyph-name="ħ" unicode="&#x127;" horiz-adv-x="780" d=" M504,0 L676,815 Q686,855 686,899 Q686,1012 586,1012 Q481,1012 410,911 Q339,810 295,596 L168,0 L74,0 L344,1278 L213,1278 L229,1362 L360,1362 L403,1556 L498,1556 L455,1362 L655,1362 L639,1278 L436,1278 L399,1102 L358,934 L362,934 Q455,1106 604,1106 Q688,1106 734,1057.5 Q780,1009 780,918 Q780,862 766,797 L598,0"/> 
            <glyph glyph-name="Ĩ" unicode="&#x128;" horiz-adv-x="722" d=" M66,0 L375,1462 L473,1462 L164,0 M66100,1589 Q66065,1589 66035.5,1609.5 Q66006,1630 65978.5,1654.5 Q65951,1679 65925.5,1699.5 Q65900,1720 65875,1720 Q65835,1720 65812.5,1685 Q65790,1650 65773,1587 L65703,1587 Q65734,1707 65778.5,1762 Q65823,1817 65883,1817 Q65919,1817 65948,1796.5 Q65977,1776 66002.5,1751.5 Q66028,1727 66052,1706.5 Q66076,1686 66100,1686 Q66130,1686 66147.5,1708.5 Q66165,1731 66188,1821 L66258,1821 Q66229,1687 66192.5,1638 Q66156,1589 66100,1589"/> 
            <glyph glyph-name="ĩ" unicode="&#x129;" horiz-adv-x="662" d=" M162,0 L68,0 L299,1085 L393,1085 M66040,1251 Q66005,1251 65975.5,1271.5 Q65946,1292 65918.5,1316.5 Q65891,1341 65865.5,1361.5 Q65840,1382 65815,1382 Q65775,1382 65752.5,1347 Q65730,1312 65713,1249 L65643,1249 Q65674,1369 65718.5,1424 Q65763,1479 65823,1479 Q65859,1479 65888,1458.5 Q65917,1438 65942.5,1413.5 Q65968,1389 65992,1368.5 Q66016,1348 66040,1348 Q66070,1348 66087.5,1370.5 Q66105,1393 66128,1483 L66198,1483 Q66169,1349 66132.5,1300 Q66096,1251 66040,1251"/> 
            <glyph glyph-name="Ī" unicode="&#x12A;" horiz-adv-x="693" d=" M66,0 L375,1462 L473,1462 L164,0 M65729,1671 L66229,1671 L66213,1589 L65713,1589"/> 
            <glyph glyph-name="ī" unicode="&#x12B;" horiz-adv-x="626" d=" M162,0 L68,0 L299,1085 L393,1085 M65662,1333 L66162,1333 L66146,1251 L65646,1251"/> 
            <glyph glyph-name="Ĭ" unicode="&#x12C;" horiz-adv-x="667" d=" M66,0 L375,1462 L473,1462 L164,0 M66203,1817 Q66181,1704 66128.5,1641.5 Q66076,1579 65979,1579 Q65898,1579 65852.5,1626 Q65807,1673 65807,1759 Q65807,1797 65812,1817 L65879,1817 L65877,1802 L65877,1786 Q65877,1724 65908,1696.5 Q65939,1669 65986,1669 Q66040,1669 66074,1703.5 Q66108,1738 66133,1817"/> 
            <glyph glyph-name="ĭ" unicode="&#x12D;" horiz-adv-x="601" d=" M162,0 L68,0 L299,1085 L393,1085 M66137,1479 Q66115,1366 66062.5,1303.5 Q66010,1241 65913,1241 Q65832,1241 65786.5,1288 Q65741,1335 65741,1421 Q65741,1459 65746,1479 L65813,1479 L65811,1464 L65811,1448 Q65811,1386 65842,1358.5 Q65873,1331 65920,1331 Q65974,1331 66008,1365.5 Q66042,1400 66067,1479"/> 
            <glyph glyph-name="Į" unicode="&#x12E;" horiz-adv-x="473" d=" M66,0 L375,1462 L473,1462 L164,0 M245,-289 Q245,-369 316,-369 Q347,-369 384,-358 L368,-430 Q331,-446 275,-446 Q212,-446 179,-406.5 Q146,-367 146,-305 Q146,-228 189.5,-155.5 Q233,-83 343,0 L417,0 Q245,-151 245,-289"/> 
            <glyph glyph-name="į" unicode="&#x12F;" horiz-adv-x="475" d=" M162,0 L68,0 L299,1085 L393,1085 M346,1356 Q346,1407 369,1444 Q392,1481 428,1481 Q475,1481 475,1423 Q475,1366 453,1329 Q431,1292 395,1292 Q346,1292 346,1356 M65517,-289 Q65517,-369 65588,-369 Q65619,-369 65656,-358 L65640,-430 Q65603,-446 65547,-446 Q65484,-446 65451,-406.5 Q65418,-367 65418,-305 Q65418,-228 65461.5,-155.5 Q65505,-83 65615,0 L65689,0 Q65517,-151 65517,-289"/> 
            </font>
</defs>
</svg>
